/* XPM */
static char *result[] = {
/* columns rows colors chars-per-pixel */
"48 48 4 1 ",
"  c #4A5462",
". c #477D85",
"X c #8B93AF",
"o c None",
/* pixels */
"oooooooooooooooooooXXXXXXXXXXooooooooooooooooooo",
"ooooooooooooooooXXXXXXXXXXXXXXXXoooooooooooooooo",
"oooooooooooooXXXXXXXXXXXXXXXXXXXXXXooooooooooooo",
"ooooooooooooXXXX..XXXXXXXXXXXXX.XXX.oooooooooooo",
"ooooooooooXXXX.. XXXXXXXXXXXXXXX......oooooooooo",
"oooooooooXXXX.XXXXXXXXXXXXXXXXXXXX.X...ooooooooo",
"ooooooooXXXXXXXXXXXXXXXX..XXXXXXXXX.X.. oooooooo",
"oooooooXXXXXXXXXXXXXXXX... XXXXXXXX.X... ooooooo",
"oooooo.XXXXXXXXXXXXXX.... XXXXXXXXXXX...  oooooo",
"oooooXXXXXXXXXXXXXXX.... XXXXXXXXXX.X...   ooooo",
"ooooXXXXXXXXXXXXXXX... XXXXXXXXXXXXXX.. .   oooo",
"ooooXXXXXXXXXXXXXXXX. XXXXXXXXXXXXXX.X.. .  oooo",
"oooXXXXXXXXXXXXXXXXXXXXXXXXXXXXXXXXXX... .   ooo",
"ooXXXXXXXXXXXXXXXXXXXXXXXXX.XXXXXXXXX....     oo",
"ooXXXXXXXXXXXXXXXXXXXXXXXX...XXXXXXXXX.. .    oo",
"ooX.XXXXXX.XXXXXXXXXXXXXX.....XXXXXXX.....    oo",
"oXXXXXXXXX.XXXXXXXXXXXXXXXXXXXXXXXXXX......    o",
"oXXXXXXXXXXXXXXXXXXXXXXXXXXXXXXXXXXX.X....     o",
"oXXXXXXXXX.XXXXXXXX..XXXXXXXXXXXXXXXX......    o",
"XXXXXXXXXXXXXXXXXX.XXXXXXXXXXXXXXXXXX......     ",
"XXXXXXXXXXXXXXXXXX.XXXXXXXXXXXXXXXXX......      ",
"XXXXXXXXXXXXXXXXXXXXXXXXX..XXXXXXXX.X.....      ",
"XXXXXXXXXXXXXXXXXXXXXX......XXXXXXX...... .     ",
"..XXXXXXXXXXXXXXXXXXXX......XXXXXX.X......      ",
"..XXXXXXXXX.XXXXXXXXX.......XXXXX.X.......      ",
"..XXXXXXXX...XXXXXXXX.......XXXXX.X.......      ",
"..XXXXXXX... XXXXXXXX...... XX.X.X...... .      ",
"..XXXXXXX... XXXXXXXX..... XX.X.X.......        ",
"XXXXXXXX... XXXXXXXXX.... XXXXX.X...... .       ",
"oXXXXXXX... XXXXXXXXXX.. XXX.X.X...... .       o",
"oXXXXXXXX. XXXXXXXXXXXXXXXX.X.X..... . .       o",
"oXXXXXXXXXXXXXXXXXXXXXX.X.X.X...... ...        o",
"ooXXXXXXXXXXXXXXXXXXXX.X.X.X........ .        oo",
"ooXXXXXXXXXXXXXXXXX.XXX.X.X....... . .        oo",
"ooXXXXXXXXXX..XXXXX.X.X.X...... . . .         oo",
"oooX.XXX.X.X...X.X.X.X.XX..... . . .         ooo",
"ooooX.X.X.X.X.X.X.X.X....... . . .          oooo",
"oooo......X.X.X.X.X............ ..          oooo",
"ooooo..................... . . ..          ooooo",
"oooooo . ............... . . .            oooooo",
"ooooooo ... . ..... . . . . ..           ooooooo",
"oooooooo . . . . . ... . .              oooooooo",
"ooooooooo      . . . . .               ooooooooo",
"oooooooooo                            oooooooooo",
"oooooooooooo                        oooooooooooo",
"ooooooooooooo                      ooooooooooooo",
"oooooooooooooooo                oooooooooooooooo",
"ooooooooooooooooooo          ooooooooooooooooooo"
};
