/* XPM */
static char *a67f4a8735424e6986f4646efe21488e5hfg4Lzril9l1xRE[] = {
/* columns rows colors chars-per-pixel */
"48 48 4 1 ",
"  c black",
". c #4A5462",
"X c #477D85",
"o c #8B93AF",
/* pixels */
"                   oooooooooo                   ",
"                oooooooooooooooo                ",
"             oooooooooooooooooooooo             ",
"            ooooX.oooooooooooooooooX            ",
"          ooooXX.ooooooooooooooXXooXXX          ",
"         ooooXooooooooooooooooooooXoXXX         ",
"        oooooooooooooooooooooooooooXoXX.        ",
"       ooooooooooooooXXXXooooooooooXoXXX.       ",
"      ooooooooooooooXXXX.oooooooooooXXXX..      ",
"     ooooooooooooooXXXX.oooooooooooXoXXX...     ",
"    ooooooooooooooXXXX.ooooooooooooooXX.X...    ",
"    ooooooooooooooXX..ooooooooooooooooXX.X..    ",
"   ooooooooooooooooooooooooooooooooooXXX.X...   ",
"  ooooooooooooooooooooooooooooooooooooXXXX....  ",
"  oooooooXooooooooooooooooooooooooooooXX.X....  ",
"  oooooooXoooooooooooooooXXooooooooooXXXXX....  ",
" ooooooooXooooooooooooooXX.ooooooooooXXXX.X.... ",
" oooooooXoooooooooooooooX.ooooooooooXoXXXX..... ",
" oooooooooooooooXXoooooooooooooooooooXXXXX..... ",
"oooooooooooooooXoooooooooooooooooooooXXXXXX.....",
"oooooooooooooooXoooooooooooooooooooooXXXXX......",
"XooooooooooooooooooooooooooooooooooXXXX.XX......",
"XXoooooooooooooooooXXXXooooooooooooXXXX.X.X.....",
"XXooooooXXoooooooooXXXXXooooooooooXoXX.XXX......",
"X.oooooXXXXoooooooXXXXXXXooooooooXoXXXXXXX......",
".ooooooXXX.oooooooXXXXXXXooooooXoXoXXXXXX.......",
"oooooooXXXooooooooXXXXXX.oooooXoooXXXXXX.X......",
"ooooooXXX.ooooooooXXXXXX.ooooooXoXXXXXXX........",
"oooooooX.oooooooooXXXXX.oooooXoXoXXXXXX.X.......",
" ooooooooooooooooooX....ooXoXoXoXXXXXX.X....... ",
" ooooooooooooooooooooooooXoXoXoXXXXXXX.X....... ",
" ooooooooooooooooooooooXoXoXoXXXXXX.X.X........ ",
"  ooooooooooooooooooooooooXooXXXXX.X.X........  ",
"  oooooooooooooooooooXoXXXXoXXXXXXXX.X........  ",
"  oXoooooXoooooooooXoXoXXXXXXXXXX.X.X.........  ",
"   oooXoXXooooXoXoXoXoXXXXXXXXXX.X.X.........   ",
"    oXoXoXoXoXoooXoXoXXXXXXX.X.X.X..........    ",
"    XXXXXXoXoXoXoXXXXXXXXXX.X.X.XX..........    ",
"     XXXXXXXXX.XXXXXXXXX.XXX.X.XX..........     ",
"      .XXXXXXX.XXXXXXXXX.X.X.X............      ",
"       .X.XXX.X.X.X.X.X.X.X.XX...........       ",
"        .X.X.X.X.X.X.X.X.X..............        ",
"         ......X.X.X.X.X...............         ",
"          ............................          ",
"            ........................            ",
"             ......................             ",
"                ................                ",
"                   ..........                   "
};
