/* XPM */
static char *result[] = {
/* columns rows colors chars-per-pixel */
"48 48 4 1 ",
"  c #4A5462",
". c #477D85",
"X c #8B93AF",
"o c None",
/* pixels */
"oooooooooooooooooooXXXXXXXXXXooooooooooooooooooo",
"ooooooooooooooooXXXXXXXXXXXXXXXXoooooooooooooooo",
"oooooooooooooXXXXXXXXXXXXXXXXXXXXXXooooooooooooo",
"ooooooooooooXXXXXXXXXXXXXXXXXXXXXXX.oooooooooooo",
"ooooooooooXXXXXXXXXXXXXXXXXXXXXXXXX...oooooooooo",
"oooooooooX..XXXXXXX..XXXXXXXXXXXXX.X...ooooooooo",
"ooooooooX.XXXXXXXXXXXXXXXXXXXXXXXXXXX.. oooooooo",
"oooooooXXXXXXXXXXXXXXXXXXXXXXXXXXXXXX... ooooooo",
"ooooooXXXXXXXXXXXXXXXXXXXXXXXXXXXXXX....  oooooo",
"oooooXX.XXXXXXXXXXXXXXXXXXXXXXXXXXX.X...   ooooo",
"ooooXX.XXXXXXXXXXXXXXXXXXXXXXXXXXXXXX.. .   oooo",
"ooooXXXXXXXXXXXXXXXXXXXXXXXXXXXXXXXX.X....  oooo",
"ooo..XXXXXXXXXXXXXXXXXXXXXXXXXXXXXXXX... .   ooo",
"oo..XXXXXXXXXXXXXXXXXXXXXXXXXXXXXXXXX....     oo",
"oo..XXXXXXXXXXXXXXX.XXXXXXXXXXXXXXXXXX.. .    oo",
"oo.XXXXXXXXXXXXXXXX..XXXXXXXXXXXXXXXX.....    oo",
"oXXXXXXXXXXX.XXXXXXX..XXXXXXXXXXXXXXX.... .    o",
"oXXXXX.XXXX..XXXXXXX..XXXXXXXXXXXXXX.X....     o",
"oXXXX...XXXXX..XXXXXX.XXXXXXXXXXXXXXX.....     o",
"XXXX... XXXXXXXXXXXXXXXXXXXXXXXXXXXXX......     ",
"XXXX... XXXXXXXXXXXXXXXXXXXXXXXXXXXX......      ",
"XXXX.. XXXXXXXXXXXXXXXXXXXXXXXXXXXXXX.....      ",
"XXXXX XXX.XXXXXXXXXXXXXXXXXXXXXXXXX...... .     ",
"XXXXXXXX...XXXXXXXXXXXXXXXXXXXXXXX.X......      ",
"XXXXXXX.... XXXXXXXXXXXXXXXXXXXXXXX..... .      ",
"XXXXXXX.... XXXXXXXXXXXXXXXXXXX.X.X......       ",
"XXXXXXXX.  XXXXXXXXXXXXXXXXXXX.X.X........      ",
"XXXXXXXXXXXXXXXXXXXXXXXXXXXXX.X.X.......        ",
"XXXXXXXXXXXXXXXXXXXXXXXXXXXXX.X.X...... .       ",
"oXXXXXXXXXXXXXXXXXXXXXXXXX.X.X.X...... .       o",
"oXXXXXXXXXXXXXXXXXXXXXXXX.X.X.X..... . .       o",
"oXXXXXXXXXXXXXXXXXXXXXX.X.X.X..........        o",
"ooXXXXXXXXXXXXXXXXXXXX.X.X.XX..... . .        oo",
"ooXXXXXXXXXXXXXXXXX.X.X.X.XX...... . .        oo",
"ooX.XXXXXXXXXXXXXXX.X.X.X...... . . .         oo",
"oooX.X.XXX.X.X.X.X.X.X.XX..... . . .         ooo",
"ooooX.X.X...X.X.X.X.X....... . . .          oooo",
"oooo........X.X.X.X........ . . ..          oooo",
"ooooo................... . . . ..          ooooo",
"oooooo ................. . . .            oooooo",
"ooooooo . . ... . . . . . . ..           ooooooo",
"oooooooo . ... . . . . . .              oooooooo",
"ooooooooo      . . . . .               ooooooooo",
"oooooooooo                            oooooooooo",
"oooooooooooo                        oooooooooooo",
"ooooooooooooo                      ooooooooooooo",
"oooooooooooooooo                oooooooooooooooo",
"ooooooooooooooooooo          ooooooooooooooooooo"
};
