/* XPM */
static char *result[] = {
/* columns rows colors chars-per-pixel */
"48 48 4 1 ",
"  c #4A5462",
". c #477D85",
"X c #8B93AF",
"o c None",
/* pixels */
"oooooooooooooooooooXXXXXXXXXXooooooooooooooooooo",
"ooooooooooooooooXXXXXXXXXXXXXXXXoooooooooooooooo",
"oooooooooooooXXXXXXXXXXXXXXXXXXXXXXooooooooooooo",
"ooooooooooooXXXXXXXXXXXXXXXXXXXXXXX.oooooooooooo",
"oooooooooo..XXXXXXXXXXXXXXXXXXXXXXX...oooooooooo",
"ooooooooo.XXXXXXX..XXXXXXXXXXXXXXX.X...ooooooooo",
"ooooooooXXXXXXXXX.XXXXXXXXXXXXXXXXXXX.. oooooooo",
"oooooooXXXXXXXXXXXXXXXXXXXXXXXXXXXX.X... ooooooo",
"ooooooXXXXXXXXXXXXXXXXXXXXXXXXXXXXXX....  oooooo",
"oooooX.XXXXXXXXXXXXXXXXXXXXXXXXXXXX.X...   ooooo",
"ooooXXXXXXXXXXXXXXXXXXXXXXXXXXXXXXXXX.. .   oooo",
"ooooXXXXXXXXXXXXXXXXXXXXXXXXXXXXXXXX.X....  oooo",
"oooXXXXXXXXXXXXXXXXXXXXXXXXXXXXXXXXXX.....   ooo",
"ooXXXXXXXXXXXXXXXXXXXXXXXXXXXXXXXXXXX....     oo",
"ooXXXXXXXXXXXXXXXXXXXXXXXXXXXXXXXXXXXX.. .    oo",
"ooXXXXXXXXXXXXXX..XXXXXXXXXXXXXXXXXXX.....    oo",
"oXXXX.XXX.XXXXXXX.XXXXXXXXXXXXXXXXXXX.... .    o",
"oXXX..XXXX.XXXXXX..XXXXXXXXXXXXXXXXX.X....     o",
"oXX.. XXXXXXXXXXXX.XXXXXXXXXXXXXXXXXX.....     o",
"XXX. XXXXXXXXXXXXXXXXXXXXXXXXXXXXXX.X......     ",
"XXXX XXXXXXXXXXXXXXXXXXXXXXXXXXXXXXX......      ",
"XXXXXXX.XXXXXXXXXXXXXXXXXXXXXXXXXXXXX.....      ",
"XXXXXX..XXXXXXXXXXXXXXXXXXXXXXXXXXX...... .     ",
"XXXXX... XXXXXXXXXXXXXXXXXXXXXXXXX.X......      ",
"XXXXX.. XXXXXXXXXXXXXXXXXXXXXXXXX.X.......      ",
"XXXXXX XXXXXXXXXXXXXXXXXXXXXXXX.X.X......       ",
"XXXXXXXXXXXXXXXXXXXXXXXXXXXXXXXXXX........      ",
"XXXXXXXXXXXXXXXXXXXXXXXXXXXXX.X.X.......        ",
"XXXXXXXXXXXXXXXXXXXXXXXXXXXXX.X.X...... .       ",
"oXXXXXXXXXXXXXXXXXXXXXXXXX.X.X.X........       o",
"oXXXXXXXXXXXXXXXXXXXXXXXX.X.X.X..... . .       o",
"oXXXXXXXXXXXXXXXXXXXXXX.X.X.X...... . .        o",
"ooXXXXXXXXXXXXXXXXXXXX.X.X.XX..... . .        oo",
"ooXXXXX.XXXXXXXXXXX.X.X.X.XX...... . .        oo",
"ooXXXX.XXXXXXXXXXXX.X.X........ . . .         oo",
"oooX.X...X.X.X.X.X.X.X........ . . .         ooo",
"ooooX.X...X.X.X.X.X.X....... . . .          oooo",
"oooo........X.X.X.X........ . . ..          oooo",
"ooooo................... . . . ..          ooooo",
"oooooo.. ............... . . .            oooooo",
"ooooooo . . ..... . . . . . ..           ooooooo",
"oooooooo . . . . . . . . .              oooooooo",
"ooooooooo      . . . . .               ooooooooo",
"oooooooooo                            oooooooooo",
"oooooooooooo                        oooooooooooo",
"ooooooooooooo                      ooooooooooooo",
"oooooooooooooooo                oooooooooooooooo",
"ooooooooooooooooooo          ooooooooooooooooooo"
};
