/* XPM */
static char *result[] = {
/* columns rows colors chars-per-pixel */
"48 48 4 1 ",
"  c #4A5462",
". c #477D85",
"X c #8B93AF",
"o c None",
/* pixels */
"oooooooooooooooooooXXXXXXXXXXooooooooooooooooooo",
"ooooooooooooooooXXXXXXXXXXXXXXXXoooooooooooooooo",
"oooooooooooooXXXXXXXXXXXXXXXXXXXXXXooooooooooooo",
"ooooooooooooXXXXXXXXXXXXXXXXXXXXXXX.oooooooooooo",
"oooooooooo...XXXX.XXXXXXXXXXXXXXXXX...oooooooooo",
"oooooooooXX.XXXX.XXXXXXXXXXXXXXXXX.X...ooooooooo",
"ooooooooXXXXXXXX.XXXXXXXXXXXXXXXXXX.X.. oooooooo",
"oooooooXXXXXXXXX.XXXXXXXXXXXXXXXXXX.X... ooooooo",
"oooooo..XXXXXXXXXXXXXXXXXXXXXXXXXXXX....  oooooo",
"oooooXXXXXXXXXXXXXXXXXXXXXXXXXXXXXX.....   ooooo",
"ooooXXXXXXXXXXXXXXXXXXXXXXXXXXXXXXXXX.. .   oooo",
"ooooXXXXXXXXXXXXXXXXXXXXXXXXXXXXXXXX.X.. .  oooo",
"oooXXXXXXXXXXXXXXXXXXXXXXXXXXXXXXXXXX... .   ooo",
"ooXXXXXXXXXXXXXXXXXXXXXXXXXXXXXXXXXXX....     oo",
"ooXXXXXXXXXXXX.XXXXXXXXXXXXXXXXXXXXXXX....    oo",
"ooX..XX.XXXXXX..XXXXXXXXXXXXXXXXXXXXX.....    oo",
"oXX. XXX.XXXX..XXXXXXXXXXXXXXXXXXXXXX.... .    o",
"oXX.XXXXXXXXX..XXXXXXXXXXXXXXXXXXXXX.X....     o",
"oXX.XXXXXXXXXXXXXXXXXXXXXXXXXXXXXXXXX.....     o",
"XXXX.XXXXXXXXXXXXXXXXXXXXXXXXXXXXXX.X......     ",
"XXXX.XXXXXXXXXXXXXXXXXXXXXXXXXXXXXXX......      ",
"XXX...XXXXXXXXXXXXXXXXXXXXXXXXXXXXXXX.....      ",
"XXX...XXXXXXXXXXXXXXXXXXXXXXXXXXXXX...... .     ",
"XXXX.XXXXXXXXXXXXXXXXXXXXXXXXXXXXX.X......      ",
"XXXXXXXXXXXXXXXXXXXXXXXXXXXXXXXXX.X..... .      ",
"XXXXXXXXXXXXXXXXXXXXXXXXXXXXXXXXX.X......       ",
"XXXXXXXXXXXXXXXXXXXXXXXXXXXXXX.X.X........      ",
"XXXXXXXXXXXXXXXXXXXXXXXXXXXXX.X.X.......        ",
"XXXXXXXXXXXXXXXXXXXXXXXXXXXXX.X.X........       ",
"oXXXXXXXXXXXXXXXXXXXXXXXXXXX.X.X...... .       o",
"oXXXXXXXXXXXXXXXXXXXXXXXX.X.X.X..... . .       o",
"oXXXXXXXXXXXXXXXXXXXXXX.X.X.X...... . .        o",
"ooXX.XXXXXXXXXXXXXXXXX.X.X.XX..... . .        oo",
"ooXX.XXXXXXXXXXXXXX.X.X.X.XX...... . .        oo",
"ooX....XXXXXXXXXXX..X.X.X........ . .         oo",
"oooX...X.XXX.X.X.X...X.XX....... . .         ooo",
"ooooX...X.X.XXX.X........... . . .          oooo",
"oooo......X.X.X.X.......... . . ..          oooo",
"ooooo................... . . . ..          ooooo",
"oooooo . ............... . . .            oooooo",
"ooooooo ... . ... . . . . . ..           ooooooo",
"oooooooo . . . . . . . . .              oooooooo",
"ooooooooo      . . . . .               ooooooooo",
"oooooooooo                            oooooooooo",
"oooooooooooo                        oooooooooooo",
"ooooooooooooo                      ooooooooooooo",
"oooooooooooooooo                oooooooooooooooo",
"ooooooooooooooooooo          ooooooooooooooooooo"
};
