/* XPM */
static char *result[] = {
/* columns rows colors chars-per-pixel */
"48 48 4 1 ",
"  c #4A5462",
". c #477D85",
"X c #8B93AF",
"o c None",
/* pixels */
"oooooooooooooooooooXXXXXXXXXXooooooooooooooooooo",
"ooooooooooooooooXXXXXXXXXXXXXXXXoooooooooooooooo",
"oooooooooooooXXXXXXXXXXXXXXXXXXXXXXooooooooooooo",
"ooooooooooooXXXXXXXXXXXXXXXXXXXXXXX.oooooooooooo",
"oooooooooo.XXXXXXXXXXXXXXXXXXXXXXXX...oooooooooo",
"oooooooooXXXXXX.XXXXXXXXXXXXXXXXXX.....ooooooooo",
"ooooooooXXXXXXX.XXXXXXXXXXXXXXXXXXX.X.. oooooooo",
"oooooooXXXXXXXXXXXXXXXXXXXXXXXXXXXX.X... ooooooo",
"ooooooXXXXXXXXXXXXXXXXXXXXXXXXXXXXXX....  oooooo",
"oooooXXXXXXXXXXXXXXXXXXXXXXXXXXXXXX.X...   ooooo",
"ooooXXXXXXXXXXXXXXXXXXXXXXXXXXXX...XX.. .   oooo",
"ooooXXXXXXXXXXXXXXXXXXXXXXXXXXXXXXXX.X.. .  oooo",
"oooXXXXXXXXXXXXXXXXXXXXXXXXXXXXXXXXXX.....   ooo",
"ooX.XXXXXXXXXXXXXXXXXXXXXXXXXXXXXXXXX....     oo",
"oo..X..XXXXX..XXXXXXXXXXXXXXXXXXXXXXXX.. .    oo",
"oo. XX.XXXX...XXXXXXXXXXXXXXXXXXXXXXX.....    oo",
"oX.XXXXXXXX..XXXXXXXXXXXXXXXXXXXXXXXX.... .    o",
"oXXXXXXXXXX.XXXXXXXXXXXXXXXXXXXXXXXX.X....     o",
"oXX.XXXXXXXXXXXXXXXXXXXXXXXXXXXXXXXXX.....     o",
"XXX..XXXXXXXXXXXXXXXXXXXXXXXXXXXXXXXX......     ",
"XX...XXXXXXXXXXXXXXXXXXXXXXXXXXXXXXX......      ",
"XX..XXXXXXXXXXXXXXXXXXXXXXXXXXXXXXX.X.....      ",
"XXX.XXXXXXXXXXXXXXXXXXXXXXXXXXXXXXX...... .     ",
"XXXXXXXXXXXXXXXXXXXXXXXXXXXXXXXXXXXX......      ",
"XXXXXXXXXXXXXXXXXXXXXXXXXXXXXXXXX.X.......      ",
"XXXXXXXXXXXXXXXXXXXXXXXXXXXXXXX.X.X......       ",
"XXXXXXXXXXXXXXXXXXXXXXXXXXXXXX.X.X...... .      ",
"XXXXXXXXXXXXXXXXXXXXXXXXXXXXX.XXX.......        ",
"XXXXXXXXXXXXXXXXXXXXXXXXXXXXX.X.X...... .       ",
"oXXXXXXXXXXXXXXXXXXXXXXXXX.X.X........ .       o",
"oX.XXXXXXXXXXXXXXXXXXXXXXXX.X.X..... . .       o",
"oXX.XXXXXXXXXXXXXXXXXXX.X.X.X...... . .        o",
"ooX.XXXXXXXXXXXXXXXXXX.X.X.XX....... .        oo",
"ooX..XXXXXXXXXXXXXX.X.X.X.XX...... . .        oo",
"ooX..XXXXXXX...XXXX.X.X.X........ . .         oo",
"oooX.XXX.X.X.....X.X.X.XX..... . . .         ooo",
"ooooX.X.X.X.X.......X....... . . .          oooo",
"oooo......X.X.... ......... . . ..          oooo",
"ooooo............ ........ . . ..          ooooo",
"oooooo . ............... . . .            oooooo",
"ooooooo . . . ... . ... . . ..           ooooooo",
"oooooooo . . . . . ... . .              oooooooo",
"ooooooooo      . . . . .               ooooooooo",
"oooooooooo                            oooooooooo",
"oooooooooooo                        oooooooooooo",
"ooooooooooooo                      ooooooooooooo",
"oooooooooooooooo                oooooooooooooooo",
"ooooooooooooooooooo          ooooooooooooooooooo"
};
