/* XPM */
static char *result[] = {
/* columns rows colors chars-per-pixel */
"48 48 4 1 ",
"  c #4A5462",
". c #477D85",
"X c #8B93AF",
"o c None",
/* pixels */
"oooooooooooooooooooXXXXXXXXXXooooooooooooooooooo",
"ooooooooooooooooXXXXXXXXXXXXXXXXoooooooooooooooo",
"oooooooooooooXXXXXXXXXXXXXXXXXXXXXXooooooooooooo",
"ooooooooooooXXXXXXXXXXXXXXXXXXXXXXX.oooooooooooo",
"ooooooooooXXXXX.XXXXXXXXXXXXXXXXXXX...oooooooooo",
"oooooooooXXXXXXXXXXXXXXXXXXXXXXXXX.X...ooooooooo",
"ooooooooXXXXXXXXXXXXXXXXXXXXXXXXXXX.... oooooooo",
"oooooooXXXXXXXXXXXXXXXXXXXXXXXXXXXX.X... ooooooo",
"ooooooXXXXXXXXXXXXXXXXXXXXXXXXXXXXXX....  oooooo",
"oooooXXXXXXXXXXXXXXXXXXXXXXXXXXXXXX.X...   ooooo",
"ooooXXXXXXXXXXXXXXXXXXXXXXXXXXXX..XX.....   oooo",
"ooooXXXXXXXXXXXXXXXXXXXXXXXXXXX.XXXX......  oooo",
"ooo.XXXXXXXXXXXXXXXXXXXXXXXXXXXXXXXXX... .   ooo",
"oo..X.XXXX.XXXXXXXXXXXXXXXXXXXXXXXXXX....     oo",
"oo. X.XXX..XXXXXXXXXXXXXXXXXXXXXXXXXXX.. .    oo",
"oo.XXXXXX.XXXXXXXXXXXXXXXXXXXXXXXXXXX.....    oo",
"oXXXXXXXX.XXXXXXXXXXXXXXXXXXXXXXXXXXX......    o",
"oXXXXXXXXXXXXXXXXXXXXXXXXXXXXXXXXXXX.X....     o",
"oX.XXXXXXXXXXXXXXXXXXXXXXXXXXXXXXXXXX.....     o",
"XX.XXXXXXXXXXXXXXXXXXXXXXXXXXXXXXXX........     ",
"XXXXXXXXXXXXXXXXXXXXXXXXXXXXXXXXXXX.......      ",
"XXXXXXXXXXXXXXXXXXXXXXXXXXXXXXXXXXX.X.....      ",
"XXXXXXXXXXXXXXXXXXXXXXXXXXXXXXXXXXX...... .     ",
"XXXXXXXXXXXXXXXXXXXXXXXXXXXXXXXXXX.X......      ",
"XXXXXXXXXXXXXXXXXXXXXXXXXXXXXXXXX.X.......      ",
"XXXXXXXXXXXXXXXXXXXXXXXXXXXXXXXXX.X......       ",
"XXXXXXXXXXXXXXXXXXXXXXXXXXXXXXXX.X...... .      ",
"X.XXXXXXXXXXXXXXXXXXXXXXXXXXX.X.X.......        ",
"..XXXXXXXXXXXXXXXXXXXXXXXXX.X.X.X...... .       ",
"o.XXXXXXXXXXXXXXXXXXXXXXXX...X.X...... .       o",
"o..XXXXXXXXXXXXXXXXXXXXXX.X...X..... . .       o",
"o..XXXXXXXXXXXXXXXXXXXX.X.X.......... .        o",
"oo.XXXXXX..XXXXXXXXXXXXX.X..X..... . .        oo",
"ooXXXXXXX..XXXXXXXX.X.X.X.XX...... . .        oo",
"ooX.XXXXX...XXXXXXX.X.X.X...... . . .         oo",
"oooX.X.X.... X.X.X.X.X.XX..... . . .         ooo",
"ooooX.X.X... .X.X.X.X....... . . .          oooo",
"oooo......X...X.X.X.......... . ..          oooo",
"ooooo................... ... . ..          ooooo",
"oooooo . ............... . . .            oooooo",
"ooooooo . ... . ... . . . . ..           ooooooo",
"oooooooo . . . . . . ... .              oooooooo",
"ooooooooo      . . . . .               ooooooooo",
"oooooooooo                            oooooooooo",
"oooooooooooo                        oooooooooooo",
"ooooooooooooo                      ooooooooooooo",
"oooooooooooooooo                oooooooooooooooo",
"ooooooooooooooooooo          ooooooooooooooooooo"
};
