/* XPM */
static char *result[] = {
/* columns rows colors chars-per-pixel */
"48 48 4 1 ",
"  c #4A5462",
". c #477D85",
"X c #8B93AF",
"o c None",
/* pixels */
"oooooooooooooooooooXXXXXXXXXXooooooooooooooooooo",
"ooooooooooooooooXXXXXXXXXXXXXX..oooooooooooooooo",
"oooooooooooooXXXXXXXXXXXXXXXXXXXXXXooooooooooooo",
"ooooooooooooXXXXXXXXXXXXXXXXXXXXXXX.oooooooooooo",
"ooooooooooXXXX.XXXXXXXXXXXXXXXXXXXX...oooooooooo",
"oooooooooXXXXXXXXXXXXXXXXXXXXXXXX..X...ooooooooo",
"ooooooooXXXXXXXXXXXXXXXXXXXXXXXXX.X.X.. oooooooo",
"oooooooXXXXXXXXXXXXXXXXXXXXXXXXXXXX..... ooooooo",
"ooooooXXXXXXXXXXXXXXXXXXXXXXXXXXXXXX....  oooooo",
"oooooXXXXXXXXXXXXXXXXXXXXXXXXXXXXXX.X...   ooooo",
"ooooXXXXXXXXXXXXXXXXXXXXXXXXXXXXXXXXX.. .   oooo",
"ooooXXXXXXXXXXXXXXXXXXXXXXXX...XXX...... .  oooo",
"ooo.XXXXXXXXXXXXXXXXXXXXXXXXXXXXXXX..... .   ooo",
"oo.XXXXX.XXXXXXXXXXXXXXXXXXXXXXXXXXXX....     oo",
"ooXXXXX.XXXXXXXXXXXXXXXXXXXXXXXXXXXXXX.. .    oo",
"oo.XXXX.XXXXXXXXXXXXXXXXXXXXXXXXXXXXX.....    oo",
"o..XXXXXXXXXXXXXXXXXXXXXXXXXXXXXXXXXX.... .    o",
"o..XXXXXXXXXXXXXXXXXXXXXXXXXXXXXXXXX.X.....    o",
"oXXXXXXXXXXXXXXXXXXXXXXXXXXXXXXXXXXXX.....     o",
"XXXXXXXXXXXXXXXXXXXXXXXXXXXXXXXXXXX........     ",
"XXXXXXXXXXXXXXXXXXXXXXXXXXXXXXXXXX........      ",
"XXXXXXXXXXXXXXXXXXXXXXXXXXXXXXX...X.X.....      ",
"XXXXXXXXXXXXXXXXXXXXXXXXXXXXXXXXXXX...... .     ",
"XXXXXXXXXXXXXXXXXXXXXXXXXXXXXXXXXX.X......      ",
"XXXXXXXXXXXXXXXXXXXXXXXXXXXXXXXXX.X..... .      ",
"XXXXXXXXXXXXXXXXXXXXXXXXXXXXXXX.XXX......       ",
".XXXXXXXXXXXXXXXXXXXXXXXXXXXXX.X.X........      ",
".XXXXXXXXXXXXXXXXXXXXXXXXXXXXXX.X........       ",
".XXXXXXXXXXXXXXXXXXXXXXXXXXXX...X...... .       ",
"oXXXXXXXXXXXXXXXXXXXXXXXXX.X.......... .       o",
"oXXXXXXXXXXXXXXXXXXXXXXX..X.X....... . .       o",
"oXXXXX..XXXXXXXXXXXXXXX...X.X........ .        o",
"ooXXXX...XXXXXXXXXXXXX...X.XX..... . .        oo",
"ooXXXX...XXXXXXXXXXXX.XXX.XX...... . .        oo",
"ooX.XXX.. XXXXXXXXX.X.XXX...... . . .         oo",
"oooX.X.X. .X.X.X.X.X.X.XX..... . . .         ooo",
"ooooX.X...X.X.X.X.X.X....... ... .          oooo",
"oooo......X.X.X.X.X........ . . ..          oooo",
"ooooo................... . . . ..          ooooo",
"oooooo.. ................. . .            oooooo",
"ooooooo . ... . . . ... . . ..           ooooooo",
"oooooooo . . . . . . . . .              oooooooo",
"ooooooooo      . . . . .               ooooooooo",
"oooooooooo                            oooooooooo",
"oooooooooooo                        oooooooooooo",
"ooooooooooooo                      ooooooooooooo",
"oooooooooooooooo                oooooooooooooooo",
"ooooooooooooooooooo          ooooooooooooooooooo"
};
