/* XPM */
static char *result[] = {
/* columns rows colors chars-per-pixel */
"48 48 4 1 ",
"  c #4A5462",
". c #477D85",
"X c #8B93AF",
"o c None",
/* pixels */
"oooooooooooooooooooXXXXXXXXXXooooooooooooooooooo",
"ooooooooooooooooXXXXXXXXXXXXXX..oooooooooooooooo",
"oooooooooooooXXXXXXXXXXXXXXXXXXXXXXooooooooooooo",
"ooooooooooooXXXXXXXXXXXXXXXXXXXXXXX.oooooooooooo",
"ooooooooooXXXXXXXXXXXXXXXXXXXXXXXXX...oooooooooo",
"oooooooooXXXXXXXXXXXXXXXXXXXXXXX.X.X...ooooooooo",
"ooooooooXXXXXXXXXXXXXXXXXXXXXXXX.XX.X.. oooooooo",
"oooooooXXXXXXXXXXXXXXXXXXXXXXXXXXX..X... ooooooo",
"ooooooXXXXXXXXXXXXXXXXXXXXXXXXXXXXXX....  oooooo",
"oooooXXXXXXXXXXXXXXXXXXXXXXXXXXXXXX.....   ooooo",
"ooooX.XX.XXXXXXXXXXXXXXXXXXXXXXXXXXXX.. .   oooo",
"ooooXXX..XXXXXXXXXXXXXXXXXX...XX........ .  oooo",
"oooXXXX.XXXXXXXXXXXXXXXXXXXXXXXXXXX..... .   ooo",
"oo.XXXXXXXXXXXXXXXXXXXXXXXXXXXXXXXXXX....     oo",
"oo.XXXXXXXXXXXXXXXXXXXXXXXXXXXXXXXXXXX.. .    oo",
"ooXXXXXXXXXXXXXXXXXXXXXXXXXXXXXXXXXXX.....    oo",
"oXXXXXXXXXXXXXXXXXXXXXXXXXXXXXXXXXXXX.... .    o",
"oXXXXXXXXXXXXXXXXXXXXXXXXXXXXXXXXXXX......     o",
"oXXXXXXXXXXXXXXXXXXXXXXXXXXXXXXXXX.........    o",
"XXXXXXXXXXXXXXXXXXXXXXXXXXXXXXXX..X.X......     ",
"XXXXXXXXXXXXXXXXXXXXXXXXXXXXXXX..XXX......      ",
"XXXXXXXXXXXXXXXXXXXXXXXXXXXX...XXXX.X.....      ",
"XXXXXXXXXXXXXXXXXXXXXXXXXXXXXXXXXXX...... .     ",
"XXXXXXXXXXXXXXXXXXXXXXXXXXXXXXXXXX.X......      ",
"XXXXXXXXXXXXXXXXXXXXXXXXXXXXXXXXXXX..... .      ",
"XXXXXXXXXXXXXXXXXXXXXXXXXXXXXXX.X.X.......      ",
"XXXXXXXXXXXXXXXXXXXXXXXXXXXXXX.X.X...... .      ",
"XXXXXXXXXXXXXXXXXXXXXXXXXXXXX.X.X.......        ",
"XXX..XXXXXXXXXXXXXXXXXXXXX..XXX.X...... .       ",
"oXX..XXXXXXXXXXXXXX..XXXX....X.X...... .       o",
"oXXX..XXXXXXXXXXXX...XXXX.....X..... . .       o",
"oXXX...XXXXXXXXXXXXXXXX.X.......... ...        o",
"ooXXX. XXXXXXXXXXXXXXX.X....... .... .        oo",
"ooXXX. XXXXXXXXXXXX.X.X.X.X... ... . .        oo",
"ooX.XXXXXXXXXXXXXXX.X.X.X...... . . .         oo",
"oooX.X.X.X.X.X.X.X.X.X.XX..... . . .         ooo",
"ooooX.X.X.X.X.X.XXX.X....... . . .          oooo",
"oooo......X.X.X.X.X........ ... ..          oooo",
"ooooo..................... . . ..          ooooo",
"oooooo . ............... . . .            oooooo",
"ooooooo ... . . ... . . . . ..           ooooooo",
"oooooooo . . . . . ... . .              oooooooo",
"ooooooooo      . . . . .               ooooooooo",
"oooooooooo                            oooooooooo",
"oooooooooooo                        oooooooooooo",
"ooooooooooooo                      ooooooooooooo",
"oooooooooooooooo                oooooooooooooooo",
"ooooooooooooooooooo          ooooooooooooooooooo"
};
