/* XPM */
static char *result[] = {
/* columns rows colors chars-per-pixel */
"48 48 4 1 ",
"  c #4A5462",
". c #477D85",
"X c #8B93AF",
"o c None",
/* pixels */
"oooooooooooooooooooXXXXXXXX..ooooooooooooooooooo",
"ooooooooooooooooXXXXXXXXXXXX...Xoooooooooooooooo",
"oooooooooooooXXXXXXXXXXXXXXXXXXXXXXooooooooooooo",
"ooooooooooooXXXXXXXXXXXXXXXXXXXXXXX.oooooooooooo",
"ooooooooooXXX.XXXXXXXXXXXXXXXXXXXXX...oooooooooo",
"oooooooooXXXXXXXXXXXXXXXXXXXXXXXXX.X...ooooooooo",
"ooooooooXXXXXXXXXXXXXXXXXXXXX..XXXX.X.. oooooooo",
"oooooooXXXXXXXXXXXXXXXXXXXXXXXXXXXX..... ooooooo",
"ooooooXXXXXXXXXXXXXXXXXXXXXXXXXX.XXX....  oooooo",
"oooooXXXXXXXXXXXXXXXXXXXXXXXXXXXX..X....   ooooo",
"oooo.XXXXXXXXXXXXXXXXXXXXXXXXXXXXX.X... .   oooo",
"oooo.X.XXXXXXXXXXXXXXXXXXXXXXXXXXXX..... .  oooo",
"oooXX.XXXXXXXXXXXXXXXXXX...XXX............   ooo",
"ooXXXXXXXXXXXXXXXXXXXXXXXXXXXXXXXXX.....      oo",
"ooXXXXXXXXXXXXXXXXXXXXXXXXXXXXXXXXXXX... .    oo",
"ooXXXXXXXXXXXXXXXXXXXXXXXXXXXXXXXXXX......    oo",
"oXXXXXXXXXXXXXXXXXXXXXXXXXXXXXXXXXX...... .    o",
"oXXXXXXXXXXXXXXXXXXXXXXXXXXXXXXXXX...... .     o",
"oXXXXXXXXXXXXXXXXXXXXXXXXXXXXXXXX.XXX.....     o",
"XXXXXXXXXXXXXXXXXXXXXXXXXXXXXXX..XX.X......     ",
"XXXXXXXXXXXXXXXXXXXXXXXXXXXXXX.XXXXX......      ",
"XXXXXXXXXXXXXXXXXXXXXXXXXXX...XXXXX.X.....      ",
"XXXXXXXXXXXXXXXXXXXXXXXXX..XXXXXXXX...... .     ",
"XXXXXXXXXXXXXXXXXXXXXXXX..XXXXXXXX.X......      ",
"XXXXXXXXXXXXXXXXXXXXXXXXXXXXXXXXX.X..... .      ",
"XXXXXXXXXXXXXXXXXXXXXXXXXXXXXXX.X.X......       ",
"XXXXXXXXXXXXXXXXXXXXXXXXXXXXXX.X.X...... .      ",
"XX.XXXXXXXXXXXXXXXXXXXXXXXXXXXX.X.......        ",
"XX.XXXXXXXXXXXX.XXXXXXXXXXXXX.X.X........       ",
"oX.XXXXXXXXXXXX.XXXXXXXXXX.X.X.X...... .       o",
"oXX XXXXXXXX...XXXXX..XXX.X.X.X..... . .       o",
"oXX XXXXXXXXXXXXXXX.....X.X.X...... . .        o",
"ooXXXXXXXXXXXXXXXXX......X.XX..... . .        oo",
"ooXXXXXXXXXXXXXXXXXX......XX...... . .        oo",
"ooX.XXXXXXXXXXXXXXX....... .... . . .         oo",
"oooX.XXX.X.X.X.X.X.X...... ... . . .         ooo",
"ooooX.X.X.XXX.X.X.X.X...  .. . . .          oooo",
"oooo......X.X.X.X.X........ . . ..          oooo",
"ooooo................... . ... ..          ooooo",
"oooooo . ............... ... .            oooooo",
"ooooooo . ... . ... . . . . ..           ooooooo",
"oooooooo . . . ... . . . .              oooooooo",
"ooooooooo      ... . . .               ooooooooo",
"oooooooooo                            oooooooooo",
"oooooooooooo                        oooooooooooo",
"ooooooooooooo                      ooooooooooooo",
"oooooooooooooooo                oooooooooooooooo",
"ooooooooooooooooooo          ooooooooooooooooooo"
};
