/* XPM */
static char *result[] = {
/* columns rows colors chars-per-pixel */
"48 48 4 1 ",
"  c #4A5462",
". c #477D85",
"X c #8B93AF",
"o c None",
/* pixels */
"oooooooooooooooooooXXXXXXXX..ooooooooooooooooooo",
"ooooooooooooooooXXXXXXXXXXXX...Xoooooooooooooooo",
"oooooooooooooXXXXXXXXXXXXXXXXXXXXXXooooooooooooo",
"ooooooooooooXXXXXXXXXXXXXXXXXXXXXXX.oooooooooooo",
"ooooooooooXXXXXXXXXXXXXXXXXXXXXXXXX...oooooooooo",
"oooooooooXXXXXXXXXXXXXXXXXXXXXXXXX.X...ooooooooo",
"ooooooooXXXXXXXXXXXXXXXXXXXXXXXXXXX.X.. oooooooo",
"oooooooXXXXXXXXXXXXXXXXXXXXX.XXXXXX..... ooooooo",
"ooooooXXXXXXXXXXXXXXXXXXXXXXX.XXXXXX....  oooooo",
"oooooXXXXXXXXXXXXXXXXXXXXXXXXXX.XXX.X...   ooooo",
"ooooXX.XXXXXXXXXXXXXXXXXXXXXXXXX.XX.X.. .   oooo",
"ooooXXXXXXXXXXXXXXXXXXXXXXXXXXXXX..X.X.. .  oooo",
"oooXXXXXXXXXXXXXXXXXX...XXXXXXXXXX..X... .   ooo",
"ooXXXXXXXXXXXXXXXXXXXXXX....X...X........     oo",
"ooXXXXXXXXXXXXXXXXXXXXXXXXXXXXXX.X...... .    oo",
"ooXXXXXXXXXXXXXXXXXXXXXXXXXXXXXXX.........    oo",
"oXXXXXXXXXXXXXXXXXXXXXXXXXXXXXXXX..... .. .    o",
"oXXXXXXXXXXXXXXXXXXXXXXXXXXXXXXXX..... ...     o",
"oXXXXXXXXXXXXXXXXXXXXXXXXXXXXXX..X........     o",
"XXXXXXXXXXXXXXXXXXXXXXXXXXXXXX.XXX.........     ",
"XXXXXXXXXXXXXXXXXXXXXXXXXXXX.XXXXXX... ...      ",
"XXXXXXXXXXXXXXXXXXXXXXXXX...XXXXXXX.. ....      ",
"XXXXXXXXXXXXXXXXXXXXXX..XXXXXXXXXXX...... .     ",
"X.XXXXXXXXXXXXXXXXX....XXXXXXXXXXX.X......      ",
"X.XXXXXXXXXXXXXXXXXXXXXXXXXXXXXXX....... .      ",
"X.XXXXXXXXXXXXXXXXXXXXXXXXXXXXX.X.X......       ",
"X XXXXXXXXXXXXXXXXXXXXXXXXXXXX.X.X...... .      ",
"X XXXXXXXXX.XXXXXXXXXXXXXXXXX.X.X.......        ",
"XXXXXXXX.XX.XXXXX.XXXXXXXXXXXXX.X........       ",
"oXXXXXXXX..XXXXX...XXXXXXX.X.X.X...... .       o",
"oXXXXXXXXXXXXXX.....XXXXX.X.X.X..... . .       o",
"oXXXXXXXXXXXXXX.....XXX.X.X.X...... . .        o",
"ooXXXXXXXXXXXXX......X.X.X.XX..... ...        oo",
"ooXXXXXXXXXXXXXX..... X.X.XX...... . .        oo",
"ooX.XXXXXXXXXXXXX.... X.X...... . . .         oo",
"oooX.XXX.X.X.X.X.X.  X.XX....... . .         ooo",
"ooooX.X.X.X.XXXXX........... . . .          oooo",
"oooo......X.X.X.X.X........ ... ..          oooo",
"ooooo................... . . . ..          ooooo",
"oooooo . ............... . . .            oooooo",
"ooooooo . . . . ... . . . . ..           ooooooo",
"oooooooo ... . . . . . . .              oooooooo",
"ooooooooo      . . . . .               ooooooooo",
"oooooooooo                            oooooooooo",
"oooooooooooo                        oooooooooooo",
"ooooooooooooo                      ooooooooooooo",
"oooooooooooooooo                oooooooooooooooo",
"ooooooooooooooooooo          ooooooooooooooooooo"
};
