/* XPM */
static char *result[] = {
/* columns rows colors chars-per-pixel */
"48 48 4 1 ",
"  c #4A5462",
". c #477D85",
"X c #8B93AF",
"o c None",
/* pixels */
"oooooooooooooooooooXXXXXXXX..ooooooooooooooooooo",
"ooooooooooooooooXXXXXXXXXXX...XXoooooooooooooooo",
"oooooooooooooXXXXXXXXXXXXXXXXX.XXXXooooooooooooo",
"ooooooooooooXXXXXXXXXXXXXXXXXXXXXXX.oooooooooooo",
"ooooooooooXXXXXXXXXXXXXXXXXXXXXXXXX...oooooooooo",
"oooooooooXXXXXXXXXXXXXXXXXXXXXXXXX.....ooooooooo",
"ooooooooXXXXXXXXXXXXXXXXXXX.XXXXXXXXX.. oooooooo",
"oooooooXXXXXXXXXXXXXXXXXXXX.XXXXXX.XX... ooooooo",
"ooooooXXXXXXXXXXXXXXXXXXXXXX.XXXXXX.....  oooooo",
"oooooXXXXXXXXXXXXXXXXXXXXXXXXXXXXX..X...   ooooo",
"ooooX.XXXXXXXXXXXXXXXXXXXXXXX.XXX.XXX.. .   oooo",
"ooooX.XXXXXXXXXXXX.XXXXXXXXXX..XX.XX.X....  oooo",
"oooXXXXXXXXXXXXXXXX..XXXXXXXXX....XXX... .   ooo",
"ooXXXXXXXXXXXXXXXXXXX.XX.XXXXX....XXX....     oo",
"ooXXXXXXXXXXXXXXXXXXXXXXX...XX.......X.. .    oo",
"ooXXXXXXXXXXXXXXXXXXXXXXXXXX........X.....    oo",
"oXXXXXXXXXXXXXXXXXXXXXXXXXXXXX..... X.... .    o",
"oXXXXXXXXXXXXXXXXXXXXXXXXXXXXX..... .X.....    o",
"oXXXXXXXXXXXXXXXXXXXXXXXXXXXXX...... .....     o",
"XXXXXXXXXXXXXXXXXXXXXXXXXXXXX.X............     ",
"XXXXXXXXXXXXXXXX..XXXXXXXXXX.XXX... ......      ",
".XXXXXXXXXXXXXXXXXX......XX.XXXXX. .......      ",
"XXXXXXXXXXXXXXXXXXXXXXXXXXXXXXXX.XX...... .     ",
".XXXXXXXXXXXXXXXXXXXXXXXXXXXXXXX.X.X......      ",
"..XXXXXXXXXXXXXXXXXXXXXXXXXXXXXX..X..... .      ",
" XXXXXX.XXXXXXXXXXXXXXXXXXXXXXX...X......       ",
" XXXXXX.XXXXXXXXXXXXXXXXXXXXXX...X...... .      ",
"XXXXXX..XXXXXXXXXXXXXXXXXXXXXX..X.......        ",
"XXXXXXXXXXXX..XXXXXXXXXXXXXXX.X.X...... .       ",
"oXXXXXXXXXX....XXXXXXXXXXX.X.X.X........       o",
"oXXXXXXXXXX....XXXXXXXXXX.X...X..... . .       o",
"oXXXXXXXXXX.....XXXXXXX.X.X........ . .        o",
"ooXXXXXXXXXX... XXXXXX.X.X..X..... . .        oo",
"ooXXXXXXXXXX... XXX.X.X.X.X....... . .        oo",
"ooX.XXXXXXXX.  XXXX.X.X.X...... . . .         oo",
"oooXXX.XXX.X.X.X.X.X.X.XX..... . . .         ooo",
"ooooX.X.X.XXX.XXX.X.X....... . . .          oooo",
"oooo......X.X.X.X.X........ ... ..          oooo",
"ooooo................... . . . ..          ooooo",
"oooooo ................. . . .            oooooo",
"ooooooo . . . . . . . . . . ..           ooooooo",
"oooooooo . . . . . ... . .              oooooooo",
"ooooooooo      . . . . .               ooooooooo",
"oooooooooo                            oooooooooo",
"oooooooooooo                        oooooooooooo",
"ooooooooooooo                      ooooooooooooo",
"oooooooooooooooo                oooooooooooooooo",
"ooooooooooooooooooo          ooooooooooooooooooo"
};
