/* XPM */
static char *result[] = {
/* columns rows colors chars-per-pixel */
"48 48 4 1 ",
"  c #4A5462",
". c #477D85",
"X c #8B93AF",
"o c None",
/* pixels */
"oooooooooooooooooooXXXXXXXXXXooooooooooooooooooo",
"ooooooooooooooooXXXXXXXXXXXXXXXXoooooooooooooooo",
"oooooooooooooXXXXXXXXXXXXXXXXXXXXXXooooooooooooo",
"ooooooooooooXXX..XXXXXXXXXXXXXXXXXX.oooooooooooo",
"ooooooooooXXX. XXXXXXXXXXXXXXX..XXX...oooooooooo",
"oooooooooXXXXXXXXXXXXXXXXXXXXXXX.X.X...ooooooooo",
"ooooooooXXXXXXXXXXX...XXXXXXXXXXXXXXX.. oooooooo",
"oooooooXXXXXXXXXXX... XXXXXXXXXXXXX.X... ooooooo",
"ooooooXXXXXXXXXXX... XXXXXXXXXXXXXXX....  oooooo",
"oooooXXXXXXXXXX.... XXXXXXXXXXXXXXX.X...   ooooo",
"ooooXXXXXXXXXXX..  XXXXXXXXXXXXXXXXXX.. .   oooo",
"ooooXXXXXXXXXXXXXXXXXXXXXXXXXXXXXXXX.X....  oooo",
"oooXXXXXXXXXXXXXXXXXXXXXXXXXXXXXXXXXXX....   ooo",
"ooXXXXX.XXXXXXXXXXXXXXXXXXXXXXXXXXXXX....     oo",
"ooXXXXX.XXXXXXXXXXXXXXXXXXXXXXXXXXXXXX.. .    oo",
"ooXXXX.XXXXXXXXXXXXXXX..XXXXXXXXXXXXX.....    oo",
"oXXXXXXXXXXXXXXXXXXXX..XXXXXXXXXXXXXX.... .    o",
"oXXXXXXXXXXX.XXXXXXXX.XXXXXXXXXXXXXX.X....     o",
"oXXXXXXXXXX.XXXXXXXXXXXXXXXXXXXXXXXXX.....     o",
"XXXXXXXXXXXXXXXXXXXXXXXXXXXXXXXXX.X.X......     ",
"XXXXXXXXXXXXXXXXX..XXXXXXXXXXXXX...X......      ",
"XXXXX.XXXXXXXXX.....XXXXXXXXXXX.....X.....      ",
"XXXX...XXXXXXX.......XXXXXXXXXX.......... .     ",
"XXXX.. XXXXXXX.......XXXXXXXXXXX.... .....      ",
"XXXX.. XXXXXX....... XXXXXXXXXXXX.. .... .      ",
"XXXX. XXXXXXX....... XXXXXXXXXX.X.X......       ",
"XXXXX XXXXXXXX..... XXXXXXXXXX.X.X...... .      ",
"XXXXXXXXXXXXXXX.   XXXXXXXXXX.X.X.......        ",
"XXXXXXXXXXXXXXXXXXXXXXXXXXXXX.X.X...... .       ",
"oXXXXXXXXXXXXXXXXXXXXXXXXX.X.X.X...... .       o",
"oXXXXXXXXXXXXXXXXXXXXXXXX.X.X.X..... . .       o",
"oXXXX.XXXXXXXXXXXX..XXX.X.X.X...... . .        o",
"ooXXX.XXXXXXXXXXX... X.XXX.XX....... .        oo",
"ooXXXXXXXXXXXXXX.. .X.X.X.XX...... . .        oo",
"ooXXXXXXXXXXXXXXXXX.X.X.X...... . . .         oo",
"oooX.X.X.X...X.X.X.X.X.XX..... . . .         ooo",
"ooooX.X.X.....XXX.X.X....... . . .          oooo",
"oooo......... ..X.......... . . ..          oooo",
"ooooo....... ........... . . . ..          ooooo",
"oooooo . ............... . . .            oooooo",
"ooooooo ... ... . . . . . . ..           ooooooo",
"oooooooo . . . ... ... . .              oooooooo",
"ooooooooo      . . . . .               ooooooooo",
"oooooooooo                            oooooooooo",
"oooooooooooo                        oooooooooooo",
"ooooooooooooo                      ooooooooooooo",
"oooooooooooooooo                oooooooooooooooo",
"ooooooooooooooooooo          ooooooooooooooooooo"
};
