/* XPM */
static char *result[] = {
/* columns rows colors chars-per-pixel */
"48 48 4 1 ",
"  c #4A5462",
". c #477D85",
"X c #8B93AF",
"o c None",
/* pixels */
"oooooooooooooooooooXXXXXXXX..ooooooooooooooooooo",
"ooooooooooooooooXXXXXXXXXXX...XXoooooooooooooooo",
"oooooooooooooXXXXXXXXXXXXXXXX..XXXXooooooooooooo",
"ooooooooooooXXXXXXXXXXXXXXXXXXXXXXX.oooooooooooo",
"ooooooooooXXXXXXXXXXXXXXXXXXXXXXXXX...oooooooooo",
"oooooooooXXXXXXXXXXXXXXXXXXXXXXXXX.X...ooooooooo",
"ooooooooXXXXXXXXXXXXXXXXXXXXXXXXXXX.X.. oooooooo",
"oooooooXXXXXXXXXXXXXXXXX.XXXXXXXXXX.X... ooooooo",
"ooooooXXXXXXXXXXXXXXXXXXXXXXXXXXXX.XX...  oooooo",
"oooooXXXXXXXXXXXXXXXXXXXX.XXXXXXX.X.X...   ooooo",
"ooooXXXXXXXXXXXXXXXXXXXXXX.XXXXXXXXXX.. .   oooo",
"ooooXXXXXXXXXXXXX.XXXXXXXXXXXXX.XXXX.X.. .  oooo",
"oooXXXXXXXXXXXXXXXX.XXXXXXX.XX.XXXXXX... .   ooo",
"ooXXXXXXXXXXXXXXXXXXX...XXX.....XXXXX....     oo",
"ooXXXXXXXXXXXXXXXXXXXXXX.XX......XXXXX.. .    oo",
"ooXXXXXXXXXXXXXXXXXXXXXXX.X.....X.XXX.....    oo",
"oXXXXXXXXXXXXXXXXXXXXXXXXX.......XXX.......    o",
"oXXXXXXXXXXXXXXXXXXXXXXXXXX......XX..X....     o",
"oXXXXXXXXXXXXXXXXXXXXXXXXXX.......XXX......    o",
"XXXXXXXXXXXXXXXXXXXXXXXXXX...... XXXX......     ",
"XXXXXXXXXXXXXX...XXXXXXXX....... XXX......      ",
"XXXXXXXXXXXXXXXXXX....X..XX...... X.X.....      ",
"XXXXXXXXXXXXXXXXXXXXXXXXXXXX......X...... .     ",
"XXXXXXXXXXXXXXXXXXXXXXXXXXXX..   ..X......      ",
"XXXX.XXXXXXXXXXXXXXXXXXXXXXX..XXX.X.......      ",
"XXXX.XXXXXXXXXXXXXXXXXXXXXXX.XXXX.X.......      ",
"XXXXXXXXXXXXXXXXXXXXXXXXXXX.XX.X.X...... .      ",
"XXXXXXXX..XXXXXXXXXXXXXXXXXXX.X.X.......        ",
"XXXXXXX....XXXXXXXXXXXXXXX.XXXX.X...... .       ",
"oXXXXXX....XXXXXXXXXXXXXX..X.X.X...... .       o",
"oXXXXXX.....XXXXXXXXXXXX....X.X..... . .       o",
"oXXXXXXX... XXXXXXXXXXX.X.X.X...... ...        o",
"ooXXXXXX... XXXXXXXXXX...X.XX....... .        oo",
"ooXXXXXXX  XXXXXXXX.XX..X.XX...... . .        oo",
"ooXXXXXXXXXXXXXXXXX.X.X.X...... . . .         oo",
"oooX.XXX.X.X.X.X.X.X.X.XX..... . . .         ooo",
"ooooX.X.X.X.X.X.X.X.X....... . . .          oooo",
"oooo......X.X.X.X.X............ ..          oooo",
"ooooo..................... . . ..          ooooo",
"oooooo . ............... . . .            oooooo",
"ooooooo ... . ..... . . . . ..           ooooooo",
"oooooooo . . . . . ... . .              oooooooo",
"ooooooooo      . . . . .               ooooooooo",
"oooooooooo                            oooooooooo",
"oooooooooooo                        oooooooooooo",
"ooooooooooooo                      ooooooooooooo",
"oooooooooooooooo                oooooooooooooooo",
"ooooooooooooooooooo          ooooooooooooooooooo"
};
