/* XPM */
static char *result[] = {
/* columns rows colors chars-per-pixel */
"48 48 4 1 ",
"  c #4A5462",
". c #477D85",
"X c #8B93AF",
"o c None",
/* pixels */
"oooooooooooooooooooXXXXXXXXX.ooooooooooooooooooo",
"ooooooooooooooooXXXXXXXXXXX..XXXoooooooooooooooo",
"oooooooooooooXXXXXXXXXXXXXXXX..XXXXooooooooooooo",
"ooooooooooooXXXXXXXXXXXXXXXXXXXXXXX.oooooooooooo",
"ooooooooooXXXXXXXXXXXXXXXXXXXXXXXXX...oooooooooo",
"oooooooooXXXXXXXXXXXXX.XXXXXXXXXXX.X...ooooooooo",
"ooooooooXXXXXXXXXXXXXXX.XXXXXXXXX.X.X.. oooooooo",
"oooooooXXXXXXXXXXXXXXXX.XXXXXXXX.XX.X... ooooooo",
"ooooooXXXXXXXXXXXXXXXXXXXXXXXXXX.XXX....  oooooo",
"oooooXXXXXXXXXXXXXXXXXXX.XXXXXX.XXX.X...   ooooo",
"ooooXXXXXXXXXXXXXXXXXXXX.XXXXXX.XXXXX.. .   oooo",
"ooooXXXXXXXXXX...XXXXXXXXXXXX.XXXXXXXX.. .  oooo",
"oooXXXXXXXXXXXXXXX.XXXXX.XXX.XXXXXXXX... .   ooo",
"ooXXXXXXXXXXXXXXXXXX.XXXX....XXXXXXXXX....    oo",
"ooXXXXXXXXXXXXXXXXXXX.XXX.....XXXXXXXX.. .    oo",
"ooXXXXXXXXXXXXXXXXXXXXX....... XXXXXX.....    oo",
"oXXXXXXXXXXXXXXXXXXXXXXX.......XXXXXX.... .    o",
"oXXXXXXXXXXXXXXXXXXXXXXX........X..X......     o",
"oXXXXXXXXXXXXXXXXXXXXXX........XXXXXX.....     o",
"XXXXXXXXXX..XXXXXXXXX......... XXXXXX......     ",
"XXXXXXXXXXXXX..X....XXX....... XXXXXX.....      ",
"XXXXXXXXXXXXXXXXXXXXXXXX...... XXXX.X.....      ",
"XXXXXXXXXXXXXXXXXXXXXXXX...... XXXX...... .     ",
"XX.XXXXXXXXXXXXXXXXXXXXXX.....XXXX.X......      ",
"XXXXXXXXXXXXXXXXXXXXXXXXX..  ..XX.X.......      ",
"XXXXX..XXXXXXXXXXXXXXXXX..XXXXX.X.X......       ",
"XXXX...XXXXXXXXXXXXXXXXX.XXXXX.XXX...... .      ",
"XXXX...XXXXXXXXXXXXXXXX.XXXXXXX.X.......        ",
"XXXXX...XXXXXXXXXXXXXX.XXXXXX.X.X...... .       ",
"oXXXX.. XXXXXXXXXXXX..X.XX.X...X...... .       o",
"oXXXXX. XXXXXXXXXXX.XXXXX.X.X.X....... .       o",
"oXXXXX XXXXXXXXXXXXXXXX.X.X.X...... . .        o",
"ooXXXXXXXXXXXXXXX.XXXXXXXX.X...... . .        oo",
"ooXXXXXXXXXXXXX..XXXX.X.X.XX........ .        oo",
"ooX.XXXXXXXXXXXXXXX.X.X.X........ . .         oo",
"oooXXX.X.XXXXX.X.X.X.X.XX....... . .         ooo",
"ooooX.X.X.X.X.XXX.X.X....... . . .          oooo",
"oooo......X.X.X.X.X........ . . ..          oooo",
"ooooo................... ... . ..          ooooo",
"oooooo ................. . . .            oooooo",
"ooooooo . ... . . . . . . . ..           ooooooo",
"oooooooo . . . . . . . . .              oooooooo",
"ooooooooo      . . . . .               ooooooooo",
"oooooooooo                            oooooooooo",
"oooooooooooo                        oooooooooooo",
"ooooooooooooo                      ooooooooooooo",
"oooooooooooooooo                oooooooooooooooo",
"ooooooooooooooooooo          ooooooooooooooooooo"
};
