/* XPM */
static char *result[] = {
/* columns rows colors chars-per-pixel */
"48 48 4 1 ",
"  c #4A5462",
". c #477D85",
"X c #8B93AF",
"o c None",
/* pixels */
"oooooooooooooooooooXXXXXXXXXXooooooooooooooooooo",
"ooooooooooooooooXXXXXXXXXXX..XXXoooooooooooooooo",
"oooooooooooooXXXXXXXXXXXXXXX..XXXXXooooooooooooo",
"ooooooooooooXXXXXXXXXXXXXXXXXXXXXXX.oooooooooooo",
"ooooooooooXXXXXXXXX.XXXXXXXXXXXXXXX...oooooooooo",
"oooooooooXXXXXXXXXXX.XXXXXXXXXXXXX.X...ooooooooo",
"ooooooooXXXXXXXXXXXXX.XXXXXXXXXXXXXXX.. oooooooo",
"oooooooXXXXXXXXXXXXXX.XXXXXXXXXX.XX.X... ooooooo",
"ooooooXXXXXXXXXXXXXXXXXXXXXXXXXXXXXX....  oooooo",
"oooooXXXXXXXXXXXXXXXXX.XXXXXXX.XXXX.X...   ooooo",
"ooooXXXXXXXX..XXXXXXXX.XXXXX..XXXXXXX.. .   oooo",
"ooooXXXXXXXXXXX.XXXXXX..XX..XXXXXXXX.X....  oooo",
"oooXXXXXXXXXXXXX.XXXXX...XXXXXXXXXXXXX....   ooo",
"ooXXXXXXXXXXXXXXX.XXX.....XXXXXXXXXXX....     oo",
"ooXXXXXXXXXXXXXXXXXXX.....XXXXXXXXXXXX.. .    oo",
"ooXXXXXXXXXXXXXXXXX....... XXXXXXXXXX.....    oo",
"oXXXXXXXXXXXXXXXXXXX........XXXXXXXXX.... .    o",
"oXXXXXXXXXXXXXXXXXXX........XXXXXXXX.X....     o",
"oXXXXXXX.XXXXXXXXXXX.........XX.....X.....     o",
"XXXXXXXXX.....XXXXX.........XXXXXXX.X......     ",
"XXXXXXXXXXXXXXX............ XXXXXXXX......      ",
"XXXXXXXXXXXXXXXXXXX....... XXXXXXXX.X.....      ",
"XXXXXXXXXXXXXXXXXXXX...... XXXXXXXX...... .     ",
"XXX.XXXXXXXXXXXXXXXXX..... XXXXXXX.X......      ",
"XX...XXXXXXXXXXXXXXX..X  ..XXXXXXXX..... .      ",
"XX...XXXXXXXXXXXXXX..XXXX..XXXX.X.X......       ",
"XX...XXXXXXXXXXXXXX.XXXXXX.XXX.X.X...... .      ",
"XXX. XXXXXXXXXXXXX.XXXXXXXX.X.X.X.......        ",
"XXX. XXXXXXXXXXXX.XXXXXX.XX.X.X.X...... .       ",
"oXXX XXXXXXXXXXX.XXXXXXX.X.X.X.X...... .       o",
"oXXXXXXXXXXXXX.XXXXXXXXX..X.X.X..... . .       o",
"oXXXXXXXXXXXX.XXXXXXXXX...X.X...... . .        o",
"ooXXXXXXXXX.XXXXXXXXXX.X.X..X....... .        oo",
"ooXXXXXXXXXXXXXXXXX.X.X.X.X....... . .        oo",
"ooXXXXXXXXXXXXXXXXX.X.X.X...... . . .         oo",
"oooX.X.X.X.X.X.X.X.X.X.XX..... . . .         ooo",
"ooooX.X.X.X.X.XXX.X.X....... . . .          oooo",
"oooo......X.X.X.X.X........ . . ..          oooo",
"ooooo................... . . . ..          ooooo",
"oooooo . ............... . . .            oooooo",
"ooooooo ... ... . . . . . . ..           ooooooo",
"oooooooo . . . ... ... . .              oooooooo",
"ooooooooo      . . . . .               ooooooooo",
"oooooooooo                            oooooooooo",
"oooooooooooo                        oooooooooooo",
"ooooooooooooo                      ooooooooooooo",
"oooooooooooooooo                oooooooooooooooo",
"ooooooooooooooooooo          ooooooooooooooooooo"
};
