/* XPM */
static char *result[] = {
/* columns rows colors chars-per-pixel */
"48 48 4 1 ",
"  c #4A5462",
". c #477D85",
"X c #8B93AF",
"o c None",
/* pixels */
"oooooooooooooooooooXXXXXXXXXXooooooooooooooooooo",
"ooooooooooooooooXXXXXXXXXXX..XXXoooooooooooooooo",
"oooooooooooooXXXXXXXXXXXXXX...XXXXXooooooooooooo",
"ooooooooooooXXXXXXXXXXXXXXXXXXXXXXX.oooooooooooo",
"ooooooooooXXXXXXXXXX.XXXXXXXXXXXXXX...oooooooooo",
"oooooooooXXXXXXXXXXXXXXXXXXXXXXXXX.X...ooooooooo",
"ooooooooXXXXXXXXXXXX.XXXXXXXXXXXXXX.X.. oooooooo",
"oooooooXXXXXXXXXXXX.XXXXXXXXX.XXXXX.X... ooooooo",
"ooooooXXXXXXXXXXXXX.XXXXXXXXXXXXXXXX....  oooooo",
"oooooXXXXXX.XXXXXXX.XXXXXXX.XXXXXXX.X...   ooooo",
"ooooXXXXXXXX.XXXXXX..XXXXX.XXXXXXXXXX.. .   oooo",
"ooooXXXXXXXXX.XXXXX..XXX..XXXXXXXXXX.X.. .  oooo",
"oooXXXXXXXXXXX.XXXX..X..XXXXXXXXXXXXX... .   ooo",
"ooXXXXXXXXXXXX..XX....XXXXXXXXXXXXXXX....     oo",
"ooXXXXXXXXXXXXX.........XXXXXXXXXXXXXX.. .    oo",
"ooXXXXXXXXXXXXXX........XXXXXXXXXXXXX.....    oo",
"oXXXXXXXXXXXXXXX........ XXXXXXXXXXXX.... .    o",
"oXXXXX.XXXXXXXXX.........XXXXXXXXXXX.X....     o",
"oXXXXXX..XXXXXXX..........X.XXXXXXXXX.....     o",
"XXXXXXXXX...X.X.........XXXX....XXX.X......     ",
"XXXXXXXXXXXXXXXXX...... XXXXXXXXXXXX......      ",
"X..XXXXXXXXXXXXX...... XXXXXXXXXXXX.X.....      ",
"X..XXXXXXXXXXXXX...... XXXXXXXXXXXX...... .     ",
"X..XXXXXXXXXXXXX...... XXXXXXXXXXXXX......      ",
"X. XXXXXXXXXXXXX.. ...XXXXXXXXXXX.X..... .      ",
"XX XXXXXXXXXXXX..XX ..XXXXXXXXX.X.X......       ",
"XX XXXXXXXXXXXX.XXXXX.XXXXXXXX.X.X...... .      ",
"XXXXXXXXXXXXX..XXXXXXX.XXXXXX.XXX.......        ",
"XXXXXXXXXXXX.XXXXXXXXX.XXXXXX.X.X...... .       ",
"oXXXXXXXXXX..XXXXXXXXX.XXX.X.X.X...... .       o",
"oXXXXXXXXX.XXXXXXXXXXXX.XXX.X.X..... . .       o",
"oXXXXXXX..XXXXXXXXXXXXX.X.X.X...... . .        o",
"ooXXXXXXXXXXXXXXXXXXXX..XX.XX..... . .        oo",
"ooXXXXXXXXXXXXXXXXX.X...X.XX........ .        oo",
"ooX.XXXXXXXXXXXXXXX.X...X...... . . .         oo",
"oooX.X.X.X.XXX.X.X.X.X.XX..... . . .         ooo",
"ooooX.X.X.X.X.X.X.X.X....... . . .          oooo",
"oooo......X.X.X.X.X........ . . ..          oooo",
"ooooo................... . . . ..          ooooo",
"oooooo . ............... . . .            oooooo",
"ooooooo . ... . . . . . . . ..           ooooooo",
"oooooooo . . . . ..... . .              oooooooo",
"ooooooooo      . . . . .               ooooooooo",
"oooooooooo                            oooooooooo",
"oooooooooooo                        oooooooooooo",
"ooooooooooooo                      ooooooooooooo",
"oooooooooooooooo                oooooooooooooooo",
"ooooooooooooooooooo          ooooooooooooooooooo"
};
