/* XPM */
static char *result[] = {
/* columns rows colors chars-per-pixel */
"48 48 4 1 ",
"  c #4A5462",
". c #477D85",
"X c #8B93AF",
"o c None",
/* pixels */
"oooooooooooooooooooXXXXXXXXXXooooooooooooooooooo",
"ooooooooooooooooXXXXXXXXXXX.XXXXoooooooooooooooo",
"oooooooooooooXXXXXXXXXXXXX...XXXXXXooooooooooooo",
"ooooooooooooXXXXXXXXXXXXXXXXXXXXXXX.oooooooooooo",
"ooooooooooXXXXXXXXXX.XXXXXXXXXXXXXX...oooooooooo",
"oooooooooXXXXXXXXXXXXXXXXXXXXXXXXX.X...ooooooooo",
"ooooooooXXXXXXXXXXX.XXXXXXXXXXXXXXX.X.. oooooooo",
"oooooooXXXXXXXXXXX.XXXXXXXXX.XXXXXXXX... ooooooo",
"ooooooXXXXXXXXXXX.XXXXXXXXX.XXXXXXXX....  oooooo",
"oooooXXXX.XXXXXXXXXXXXXXXXXXXXXXXXX.X...   ooooo",
"ooooXXXXXX.XXXXX.XXXXXXXX.XXXXXXXXXXX.. .   oooo",
"ooooXXXXXXXXXXXX.XXXXXXX.XXXXXXXXXXX.X.. .  oooo",
"oooXXXXXXXXX.XXX..XXXX.XXXXXXXXXXXXXX... .   ooo",
"ooXXXXXXXXXXX.X.......XXXXXXXXXXXXXXX....     oo",
"ooXXXXXXXXXXX........XXXXXXXXXXXXXXXX.....    oo",
"ooXXXXXXXXXXXX..... XXXXXXXXXXXXXXXXX.....    oo",
"oXXX..XXXXXXX...... XXXXXXXXXXXXXXXXX.... .    o",
"oXXXXXX.XXXXX.........XXXXXXXXXXXXXX.X....     o",
"oXXXXXXX.X..........XXX.XXXXXXXXXXXXX.....     o",
"XXXXXXXXXXXXX..... XXXXX..XXXXXXXXX.X......     ",
"XXXXXXXXXXXXX..... XXXXXXX..XXXXXXXX......      ",
".XXXXXXXXXXXX.... XXXXXXXXXXXX.XXXX.X.....      ",
"..XXXXXXXXXX.......XXXXXXXXXXXXXXXX...... .     ",
"..XXXXXXXXXX..  ...XXXXXXXXXXXXXXXXX......      ",
". XXXXXXXXX..XXX...XXXXXXXXXXXXXX.X..... .      ",
"X XXXXXXXX.XXXXXXXX.XXXXXXXXXXX.X.X......       ",
"XXXXXXXXX.XXXXXXXXX.XXXXXXXXXX.X.X...... .      ",
"XXXXXXX..XXXXXXXXXX.XXXXXXXXX.X.X.......        ",
"XXXXX..XXXXXXXXXXXXX.XXXXXXXX.X.X...... .       ",
"oXXXXXXXXXXXXXXXXXXX.XXXXX.X.X.X...... .       o",
"oXXXXXXXXXXXXXXXXXXX.XXXX.X.X.X..... . .       o",
"oXXXXXXXXXXXXXXXXX.XXXX.X.X.X...... . .        o",
"ooXXXXXXXXXXXXXXXX.XXX.X.X.XX....... .        oo",
"ooX.XXXXXXXXXXXX..X.X...X.XX...... . .        oo",
"ooX.XXXXXXXXXXXXXX..XXX.X...... . . .         oo",
"oooX.XXX.X.XXX.X.X.X.X.XX..... . . .         ooo",
"ooooX.X...XXX.X.X.X.X....... . . .          oooo",
"oooo......XXX.X.X.X........ . . ..          oooo",
"ooooo..................... . . ..          ooooo",
"oooooo . ............... . . .            oooooo",
"ooooooo . ... . . . . . . . ..           ooooooo",
"oooooooo . . . ... . . . .              oooooooo",
"ooooooooo      . . . . .               ooooooooo",
"oooooooooo                            oooooooooo",
"oooooooooooo                        oooooooooooo",
"ooooooooooooo                      ooooooooooooo",
"oooooooooooooooo                oooooooooooooooo",
"ooooooooooooooooooo          ooooooooooooooooooo"
};
