/* XPM */
static char *result[] = {
/* columns rows colors chars-per-pixel */
"48 48 4 1 ",
"  c #4A5462",
". c #477D85",
"X c #8B93AF",
"o c None",
/* pixels */
"oooooooooooooooooooXXXXXXXXXXooooooooooooooooooo",
"ooooooooooooooooXXXXXXXXXX.XXXXXoooooooooooooooo",
"oooooooooooooXXXXXXXXXXXX...XXXXXXXooooooooooooo",
"ooooooooooooXXXXXXXXXXXXXXXXXXXXXXX.oooooooooooo",
"ooooooooooXXXXXXXXXXXXXXXXXXXXXXXXX...oooooooooo",
"oooooooooXXXXXXXXXXXXXXXXXXXXXXXXX.X...ooooooooo",
"ooooooooXXXXXXXXXX.XXXXXXXXXXXXXXXX.X.. oooooooo",
"oooooooXXXXXXXXXX.XXXXXXXXX.XXXXXXX.X... ooooooo",
"ooooooXXXXXXXXXXXXXXXXXXXXXXXXXXXXXX....  oooooo",
"oooooXXXXXXXXXXX.XXXXXX..XXXXXXXXXX.X...   ooooo",
"ooooXXX.XXXXXXX.XXXXXX..XXXXXXXXXXXXX.. .   oooo",
"ooooXXXXX.XXXX.XXXX...XXXXXXXXXXXXXX.X.. .  oooo",
"oooXXXXXXX.XX..XX..XXXXXXXXXXXXXXXXXX... .   ooo",
"ooXXXXXXXXX.X.....XXXXXXXXXXXXXXXXXXXX...     oo",
"ooXXXXXXXXXX.....XXXXXXXXXXXXXXXXXXXXX.. .    oo",
"ooXXXXXXXXX..... XXXXXXXXXXXXXXXXX........    oo",
"oXXXXX.XXXX..... XXXXXXXXXXXXXXXXXXXX.... .    o",
"oXXXXXXX...........XXXXXXXXXXXXXXXXX.X....     o",
"oXXXXXXXXXX......XX..XXXXXXXXXXXXXXXX.....     o",
".XXXXXXXXX...... XXXXX.XXXXXXXXXXXX.X......     ",
"..XXXXXXX...... XXXXXXX...XXXXXXXXXXX.....      ",
". XXXXXXX...... XXXXXXXXXX..XXXXXXX.X.....      ",
"X XXXXXX..X ...XXXXXXXXXXXXXXXXXXXX...... .     ",
"XXXXXXX..XXX ..XXXXXXXXXXXXXXXXXXX.X......      ",
"XXXXXX.XXXXXX..XXXXXXXXXXXXXXXXXX.X..... .      ",
"XXXX..XXXXXXX..XXXXXXXXXXXXXXXX.X.X......       ",
"XXX.XXXXXXXXXX.XXXXXXXXXXXXXXX.XXX...... .      ",
"XXX.XXXXXXXXXX.XXXXXXXXXXXXXXXX.X.......        ",
"XXXXXXXXXXXXXX.XXXXXXXXXXXXXX.X.X...... .       ",
"oXXXXXXXXXXXXX.XXXXXXXXXXX.X.X.X........       o",
"o.XXXXXXXXXXX.XXXXXXXXXXX.X.X.X..... . .       o",
"o.XXXXXXXXXXX.XXXXXXXXX.X.X.X...... . .        o",
"ooXXXXXXXXXXX.XXXXXXXX.XXX.XX..... . .        oo",
"ooXX..XXXXXXXXXXXX.XX.X.X.XX........ .        oo",
"ooX...XXXXXXXXXXXXX.X.X.X...... . . .         oo",
"oooXX..X.X.XXX.X.X.X.X.XX....... . .         ooo",
"ooooX.X.X.X.X.XXX.X.X....... . . .          oooo",
"oooo......X.X.X.X.X........ . . ..          oooo",
"ooooo................... . . . ..          ooooo",
"oooooo . ............... . . .            oooooo",
"ooooooo . . . . . . . . . . ..           ooooooo",
"oooooooo . . . . . . ... .              oooooooo",
"ooooooooo      . . . . .               ooooooooo",
"oooooooooo                            oooooooooo",
"oooooooooooo                        oooooooooooo",
"ooooooooooooo                      ooooooooooooo",
"oooooooooooooooo                oooooooooooooooo",
"ooooooooooooooooooo          ooooooooooooooooooo"
};
