/* XPM */
static char *result[] = {
/* columns rows colors chars-per-pixel */
"48 48 4 1 ",
"  c #4A5462",
". c #477D85",
"X c #8B93AF",
"o c None",
/* pixels */
"oooooooooooooooooooXXXXXXXXXXooooooooooooooooooo",
"ooooooooooooooooXXXXXXXXXXXXXXXXoooooooooooooooo",
"oooooooooooooXXXXXXXXXXXX..XXXXXXXXooooooooooooo",
"ooooooooooooXXXXXXXXXXXXX.XXXXXXXXX.oooooooooooo",
"ooooooooooXXXXXXXXXXXXXXXXXXXXXXXXX...oooooooooo",
"oooooooooXXXXXXXXXXXXXXXXXXXXXXXXX.X...ooooooooo",
"ooooooooXXXXXXX.XXXXXXXXXXXXXXXXXXX.X.. oooooooo",
"oooooooXXXXXXXX.XXXXXXXXXXXXXXXXXXX.X... ooooooo",
"ooooooXX.XXXXX.XXXXXXXXXXXXXXXXXXXXX....  oooooo",
"oooooXXXXXXXXXXXXXXXX.XXXXXXXXXXXXX.X...   ooooo",
"ooooXXXXX.XXX.XXXXXX.XXXXXXXXXXXXXXXX.. .   oooo",
"ooooXXXXXX.X..X....XXXXXXXXXXXXXXXXX.X.. .  oooo",
"oooXXXXXXXX......XXXXXXXXXXXXXXXXXXXXX.. .   ooo",
"ooXXXXXXXXX... XXXXXXXXXXXXXXXXXXXXXX....     oo",
"ooXXXXXXX..... XXXXXXXXXXXXXXXXXXXXXXX.. .    oo",
"ooXX..XX.......XXXXXXXXXXXXXXXXXXXXXX.....    oo",
"oXXXXX..........XXXXXXXXXXXXXXXXXX......  .    o",
"oXXXXXXX......X..XXXXXXXXXXXXXXX...X.X.. .     o",
"oXXXXXXX.... XXXX.XXXXXXXXXXXXXXXXXXX.....     o",
"XXXXXXX.... XXXXXX.XXXXXXXXXXXXXXXX.X......     ",
"XXXXXX.. ...XXXXXXXX..XXXXXXXXXXXXXX......      ",
"XXXXX..XX...XXXXXXXXXX.XXXXXXXXXXXXXX.....      ",
"XXXXX.XXXX..XXXXXXXXXXXXXXXXXXXXXXXX..... .     ",
"XXXX.XXXXXX.XXXXXXXXXXXXXXXXXXXXXX.X......      ",
"XX.XXXXXXXX.XXXXXXXXXXXXXXXXXXXXX.X..... .      ",
"XXXXXXXXXXX.XXXXXXXXXXXXXXXXXXX.X.X......       ",
"XXXXXXXXXX..XXXXXXXXXXXXXXXXXXXX.X...... .      ",
"XXXXXXXXXX.XXXXXXXXXXXXXXXXXX.X.X.......        ",
"XXXXXXXXXX.XXXXXXXXXXXXXXXXXX.X.X...... .       ",
"oXXXXXXXXX.XXXXXXXXXXXXXXX.X.X.X...... .       o",
"oXXXXXXXXX.XXXXXXXXXXXXXX.X.X.X..... ...       o",
"oXX.XXXXXXXXXXXXXXXXXXX.XXX.X...... . .        o",
"ooXXXXXXXXXXXXXXXXXXXX.X.X.XX....... .        oo",
"ooX.XXXXXXXXXX.XXXX.X.X.X.XX...... . .        oo",
"ooX.XXXXXXXXXXXXXXXXX.X.X...... . . .         oo",
"oooX.XXX.X.X.X.XXX.X.X.XX..... . . .         ooo",
"ooooX.X.X.X.X.X.X.X.X....... . . .          oooo",
"oooo......X.X.X.X.X.......... . ..          oooo",
"ooooo..................... ... ..          ooooo",
"oooooo . ............... . ...            oooooo",
"ooooooo . . . . . . . . . . ..           ooooooo",
"oooooooo . . ... . . . . .              oooooooo",
"ooooooooo      . . . . .               ooooooooo",
"oooooooooo                            oooooooooo",
"oooooooooooo                        oooooooooooo",
"ooooooooooooo                      ooooooooooooo",
"oooooooooooooooo                oooooooooooooooo",
"ooooooooooooooooooo          ooooooooooooooooooo"
};
