/* XPM */
static char *result[] = {
/* columns rows colors chars-per-pixel */
"48 48 4 1 ",
"  c #4A5462",
". c #477D85",
"X c #8B93AF",
"o c None",
/* pixels */
"oooooooooooooooooooXXXXXXXXXXooooooooooooooooooo",
"ooooooooooooooooXXXXXXXXXXXXXXXXoooooooooooooooo",
"oooooooooooooXXXXXXXXXXX...XXXXXXXXooooooooooooo",
"ooooooooooooXXXXXXXXXXXX.XXXXXXXXXX.oooooooooooo",
"ooooooooooXXXXXXXXXXXXXXXXXXXXXXXXX...oooooooooo",
"oooooooooXXXXX.XXXXXXXXXXXXXXXXXXXXX...ooooooooo",
"ooooooooXXXXX.XXXXXXXXXXXXXXXXXXXXXXX.. oooooooo",
"ooooooo.XXXX.XXXXXXXXXXXXXXXXXXXXXX.X... ooooooo",
"ooooooX.XXXXXXXXXXXXXXX.XXXXXXXXXXXX....  oooooo",
"oooooXXXXXX.XXXXXXXX.XXXXXXXXXXXXXX.X...   ooooo",
"ooooXXXX.XX..XXXXX..XXXXXXXXXXXXXXXXX.. .   oooo",
"ooooXXXXX.......X.XXXXXXXXXXXXXXXXX.XX.. .  oooo",
"ooo.XXXXX......XXXXXXXXXXXXXXXXXXXX.X... .   ooo",
"ooXXX.XX..... XXXXXXXXXXXXXXXXXXXXXX.....     oo",
"ooXXXX.......XXXXXXXXXXXXXXXXXXXXXXXX... .    oo",
"ooXXXX.......XXXXXXXXXXXXXXXXXXXXXXX......    oo",
"oXXXXX.....XX.XXXXXXXXXXXXXXXXXXXXX...... .    o",
"oXXXXX.... XXXXXXXXXXXXXXXXXXX...XX..X....     o",
"oXXXX.... XXXXX.XXXXXXXXXXXX..XXXX... ....     o",
"XXXX.... XXXXXXX.XXXXXXXXXXXXXXXXXX.. .....     ",
"XXX..X .XXXXXXXX.XXXXXXXXXXXXXXXXXXX......      ",
"XX.XXXX.XXXXXXXXXXX..XXXXXXXXXXXXXX.X.....      ",
"X.XXXXX.XXXXXXXXXXXXXXXXXXXXXXXXXXX...... .     ",
"XXXXXXXX.XXXXXXXXXXXXXXXXXXXXXXXXX.X......      ",
"XXXXXXXX.XXXXXXXXXXXXXXXXXXXXXXXX.X..... .      ",
"XXXXXXXX.XXXXXXXXXXXXXXXXXXXXXX.X.X......       ",
"XXXXXXXX.XXXXXXXXXXXXXXXXXXXXX.X.X...... .      ",
"XXXXXXXX.XXXXXXXXXXXXXXXXXXX..X.X.......        ",
"..XXXXXXXXXXXXXXXXXXXXXXXXXXX.X.X...... .       ",
"o.XXXXXXXXXXXXXXXXXXXXXXXX.X.X.X...... .       o",
"o.XXXXXXXXXXXXXXXXXXXXXXX.X.X.X....... .       o",
"o..XXXXXXXXXXXXXXXXXXXX.X.X.X........ .        o",
"ooXXXXXXXXXXXXXXXXXXXXXX...XX..... . .        oo",
"ooXXXXXXXXXXXXXXXXX.XXX.X.XX...... . .        oo",
"ooX.XXXXXXXXXXXXXXX.X.X.X...... . . .         oo",
"oooX.XXX.X.XXX.X.X.X.X.XX..... . . .         ooo",
"ooooX.X.X.X.X.X.XXX.X....... . . .          oooo",
"oooo......X.......X.......... . ..          oooo",
"ooooo................... . . . ..          ooooo",
"oooooo . ............... . . .            oooooo",
"ooooooo . . . . . . . . . . ..           ooooooo",
"oooooooo . . . . ... . . .              oooooooo",
"ooooooooo      . . . . .               ooooooooo",
"oooooooooo                            oooooooooo",
"oooooooooooo                        oooooooooooo",
"ooooooooooooo                      ooooooooooooo",
"oooooooooooooooo                oooooooooooooooo",
"ooooooooooooooooooo          ooooooooooooooooooo"
};
