/* XPM */
static char *result[] = {
/* columns rows colors chars-per-pixel */
"48 48 4 1 ",
"  c #4A5462",
". c #477D85",
"X c #8B93AF",
"o c None",
/* pixels */
"oooooooooooooooooooXXXXXXXXXXooooooooooooooooooo",
"ooooooooooooooooXXXXXXXXXXXXXXXXoooooooooooooooo",
"oooooooooooooXXXXXXXXXX....XXXXXXXXooooooooooooo",
"ooooooooooooXXXXXXXXXXX..XXXXXXXXXX.oooooooooooo",
"ooooooooooXXXXXXXXXXXXXXXXXXXXXXXXX...oooooooooo",
"oooooooooXXXX.XXXXXXXXXXXXXXXXXXXX.X...ooooooooo",
"oooooooo.XXX.XXXXXXXXXXXXXXXXXXXXXX.... oooooooo",
"oooooooX.XXXXXXXXXXXXXXXXXXXXXXXXXXXX... ooooooo",
"ooooooXXXXX.XXXXXXXXXXXXXXXXXXXXXXXX....  oooooo",
"oooooXXXX..XXXXXX.XXXXXXXXXXXXXXXXX.X...   ooooo",
"ooooXXX......X...XXXXXXXXXXXXXXXXXXXX.. .   oooo",
"ooooXXX.... XXXXXXXXXXXXXXXXXXXXXXXX.X.. .  oooo",
"oooX.X..... XXXXXXXXXXXXXXXXXXXX.XXXX... .   ooo",
"ooXX...... XXXXXXXXXXXXXXXXXXXXXX.XXX....     oo",
"ooXXX..... XXXXXXXXXXXXXXXXXXXXXX.XXXX.. .    oo",
"ooXXX... XXXXXXXXXXXXXXXXXXXXXXXXX.XX.....    oo",
"oXXX.... XXXXXXXXXXXXXXXXXXXXXXXX.XXX.... .    o",
"oXXX.. XXXX.XXXXXXXXXXXXXXXX..XXX.XX.X....     o",
"oXX.X.XXXXXX.XXXXXXXXXXXX...XX.XX.XXX.....     o",
"X.XXX.XXXXXXXXXXXXXXXXXXXXXXXXX............     ",
".XXXX.XXXXXXXX.XXXXXXXXXXXXXXXX... .......      ",
"XXXXXXXXXXXXXXX.XXXXXXXXXXXXXXXX.. .X.....      ",
"XXXXXXXXXXXXXXXXXXXXXXXXXXXXXXXXX.X...... .     ",
"XXX.XXXXXXXXXXXXXXXXXXXXXXXXXXXXX..X......      ",
"XXXXXXXXXXXXXXXXXXXXXXXXXXXXXXXXX.X.......      ",
"XXXXXXXXXXXXXXXXXXXXXXXXXXXXXXX.X.X......       ",
".XX.XXXXXXXXXXXXXXXXXXXXXX.XXX.X........ .      ",
"XXX.XXXXXXXXXXXXXXXXXXXXXXXXXXX.........        ",
"XXX.XXXXXXXXXXXXXXXXXXXX.XXXX.X.X........       ",
"oXXXXX.XXXXXXXXXXXXXXXXX.XXX.X.X...... .       o",
"oXXXXXXXXXXXXXXXXXXXXXXXX.X.X.X..... . .       o",
"oXXXXXXXXXXXXXXXXXXXX.X.X.X.X...... . .        o",
"ooXXXXXXXXXXXXXXXXXXX..X.X.XX..... ...        oo",
"ooXXXXXXXXXXXXXXXXXXX.X.X..X...... . .        oo",
"ooX.XXXXXXXXXXXXXXX.X.X........ . . .         oo",
"oooX.X.X...X.X.XXX.X.X.X........ . .         ooo",
"ooooX.X.....X.XXX.X.X....... . . .          oooo",
"oooo....... ....X.X........ . . ..          oooo",
"ooooo..... ............. . . . ..          ooooo",
"oooooo . ............... . . .            oooooo",
"ooooooo . ... . . . . . . . ..           ooooooo",
"oooooooo . . . . . . . . .              oooooooo",
"ooooooooo      . . . ...               ooooooooo",
"oooooooooo                            oooooooooo",
"oooooooooooo                        oooooooooooo",
"ooooooooooooo                      ooooooooooooo",
"oooooooooooooooo                oooooooooooooooo",
"ooooooooooooooooooo          ooooooooooooooooooo"
};
