/* XPM */
static char *result[] = {
/* columns rows colors chars-per-pixel */
"48 48 4 1 ",
"  c #4A5462",
". c #477D85",
"X c #8B93AF",
"o c None",
/* pixels */
"oooooooooooooooooooXXXXXXXXXXooooooooooooooooooo",
"ooooooooooooooooXXXXXXXXXXXXXXXXoooooooooooooooo",
"oooooooooooooXXXXXXXXX....XXXXXXXXXooooooooooooo",
"ooooooooooooXXXXXXXXX...XXXXXXXXXXX.oooooooooooo",
"ooooooooooXXXXXXXXXXXXXXXXXXXXXXXXX...oooooooooo",
"oooooooooXXX.XXXXXXXXXXXXXXXXXXXXX.X...ooooooooo",
"oooooooo.XXXXXXXXXXXXXXXXXXXXXXXXXX.X.. oooooooo",
"oooooooXXX.XXXXXXXXXXXXXXXXXXXXXXXX..... ooooooo",
"ooooooXXX.XXXXXXXXXXXXXXXXXXXXXXXXXX....  oooooo",
"oooooXX..XXX...XXXXXXXXXXXXXXXXXXXXXX...   ooooo",
"ooooXXX.....XXXXXXXXXXXXXXXXXXXXXXXXX.. .   oooo",
"oooo.X... .XXXXXXXXXXXXXXXXXXXXXXXXX.X.. .  oooo",
"oooX.... XXXXXXXXXXXXXXXXXXXXXXXXXXXX... .   ooo",
"ooXX.... XXXXXXXXXXXXXXXXXXXXX.XXXXXX....     oo",
"ooX.....XXXXXXXXXXXXXXXXXXXXXX.XXXXXXX....    oo",
"ooXX.. .XXXXXXXXXXXXXXXXXXXXXXX.XXXXX.....    oo",
"oXXX.XXXXXXXXXXXXXXXXXXXXXXXXXX..XXXX.... .    o",
"o..X.XXXX.XXXXXXXXXXXXXXX..XXXX.XXXX.X....     o",
"oXXXXXXXXXX.XXXXXXXXXX...XXX....XXXXX.....     o",
"XXXXXXXXXXXX.XXXXXXXXXXXXXX... XXXX.X......     ",
"XX.XXXXXXXXX.XXXXXXXXXXXXXX.....XXXX......      ",
"XX.XXXXXXXXXXXXXXXXXXXXXXXXX  ....XXX.....      ",
"XXXXXXXXXXXXXXXXXXXXXXXXXXXXXX..XX....... .     ",
"XXXXXXXXXXXXXXXXXXXXXXXXXXXXXX.XXXXX......      ",
"XX.XXXXXXXXXXXXXXXXXXXXXXXXXXX.XX.X..... .      ",
"XX.XXXXXXXXXXXXXXXXXX.XXXXXXX.X.X.X......       ",
"XXXXXXXXXXXXXXXXXXXXX.XXXXXX...X.X........      ",
"XXXXXXXXXXXXXXXXXXXXXXXXXXX.X.X.X.......        ",
"XXXXXXXXXXXXXXXXXXXXXXXXXXXXX.X.X...... .       ",
"oXXXXXXXXXXXXXXXXXX.XXXXXXXX.X.X...... .       o",
"oXXXXXXXXXXXXXXXXXXXXXXXXXX.X.X....... .       o",
"oXXXXXXXXXXXXXXXXXXXXXX.X.X.X...... . .        o",
"ooXXXXXXXXXXXXXXXXXXXX.X.X.XX..... . .        oo",
"ooXXX...XXXXXXXXXXX.X.X.X.XX...... . .        oo",
"ooX......XXXXXXXXXX...X.X........ . .         oo",
"oooXX... .XX.X.X.X.....XX..... . . .         ooo",
"ooooX.. X.X.X.X.X..... ..... . . .          oooo",
"oooo......X.X.X.X..... .... . . ..          oooo",
"ooooo................ .. . . . ..          ooooo",
"oooooo . ............... . . .            oooooo",
"ooooooo . . . ... . . . . . ..           ooooooo",
"oooooooo . . . . ... . . .              oooooooo",
"ooooooooo      . . . . .               ooooooooo",
"oooooooooo                            oooooooooo",
"oooooooooooo                        oooooooooooo",
"ooooooooooooo                      ooooooooooooo",
"oooooooooooooooo                oooooooooooooooo",
"ooooooooooooooooooo          ooooooooooooooooooo"
};
