/* XPM */
static char *result[] = {
/* columns rows colors chars-per-pixel */
"48 48 4 1 ",
"  c #4A5462",
". c #477D85",
"X c #8B93AF",
"o c None",
/* pixels */
"oooooooooooooooooooXXXXXXXXXXooooooooooooooooooo",
"ooooooooooooooooXXXXXXXXXXXXXXXXoooooooooooooooo",
"oooooooooooooXXX.XXXXXXXXXXXXXXXXXXooooooooooooo",
"ooooooooooooXX..XXXXXXXXXXXXXXXXXXX.oooooooooooo",
"ooooooooooXXX.XXXXXXXXXXXXXXXXXXXXX...oooooooooo",
"oooooooooXXXXXXXXXXXXXXXXXXXXX..XX.X...ooooooooo",
"ooooooooXXXXXXXXXX...XXXXXXXXXXXXXX.X.. oooooooo",
"oooooooXXXXXXXXXX... XXXXXXXXXXXXXX.X... ooooooo",
"ooooooXXXXXXXXX.... XXXXXXXXXXXXXXXX....  oooooo",
"oooooXXXXXXXX....  XXXXXXXXXXXXXXXX.X...   ooooo",
"ooooXXXXXXXXXX.  XXXXXXXXXXXXXXXXXXXX.. .   oooo",
"ooooXXXXXXXXXXXXXXXXXXXXXXXXXXXXXXXX.X.. .  oooo",
"oooXXX.XXXXXXXXXXXXXXXXXXXXXXXXXXXXXX... .   ooo",
"ooXXXXXXXXXXXXXXXXXX.XXXXXXXXXXXXXXXX....     oo",
"ooXXXXXXXXXXXXXXXXX..XXXXXXXXXXXXXXXXX.. .    oo",
"ooXXXXXXXX.XXXXXXX..XXXXXXXXXXXXXXXXX.....    oo",
"oXXXXXXXXX.XXXXXXXXXXXXXXXXXXXXXX.XX..... .    o",
"oXXXXXXXX.XXXXXXXXXXXXXXXXXXXXXXX.XX......     o",
"oXXXXXXXXXXXXXXXXXXXXXXXXXXXXXXXXXXXX.....     o",
"XXXXXXXXXXXXXXXXXXXXXXXXXXXXXXXXXXX.X......     ",
"XXX..XXXXXX....XXXXXXXXXXXXXXXXXXXXX......      ",
"XXX. XXXXX......XXXXXXXXXXXXXX.XXXX.X.....      ",
"XX. XXXXX........XXXXXXXXXXXX....XX...... .     ",
"XX. XXXXX........XXXXXXXXXXX......XX......      ",
"XXX XXXXXX...... XXXXXXXXXXX...... ..... .      ",
"XXXXXXXXXXX....  XXXXXXXXXXXX.... X......       ",
"XXXXXXXXXXXX.  XXXXXXXXXXXXXX... ....... .      ",
"XXXXXXXXXXXXXXXXXXXXXXXXXXXXX.XX........        ",
"XXXXXXXXXXXXXXXXXXXXXXXXXXXXX.X.X...... .       ",
"oXXXXXXXXXXXXXXXXXXXXXXXXX.X.X.X...... .       o",
"oXX.XXXXXXXXXXXXXXXXXXXXXXX.X.X..... . .       o",
"oXXXXXXXXXXXXX..XXXXXXX.X.X.X...... . .        o",
"ooXXXXXXXXXXX.. XXXXXX.XXX.XX..... . .        oo",
"ooXXXXXX.XXX.. XXXX.X.X.X.XX........ .        oo",
"ooX.XX....XXXXXXXXX.X.X.X...... . . .         oo",
"oooX.X.... XXX.X.X.X.X.XX..... . . .         ooo",
"ooooXXX.. X.X.X.X.X.X....... . . .          oooo",
"oooo......X.....X.X........ . . ..          oooo",
"ooooo................... . . . ..          ooooo",
"oooooo . ............... . . .            oooooo",
"ooooooo . ... . . . . . . . ..           ooooooo",
"oooooooo . . . . ..... . .              oooooooo",
"ooooooooo      . . . . .               ooooooooo",
"oooooooooo                            oooooooooo",
"oooooooooooo                        oooooooooooo",
"ooooooooooooo                      ooooooooooooo",
"oooooooooooooooo                oooooooooooooooo",
"ooooooooooooooooooo          ooooooooooooooooooo"
};
