/* XPM */
static char *result[] = {
/* columns rows colors chars-per-pixel */
"48 48 4 1 ",
"  c #4A5462",
". c #477D85",
"X c #8B93AF",
"o c None",
/* pixels */
"oooooooooooooooooooXXXXXXXXXXooooooooooooooooooo",
"ooooooooooooooooXXXXXXXXXXXXXXXXoooooooooooooooo",
"oooooooooooooXXXXXXXX....XXXXXXXXXXooooooooooooo",
"ooooooooooooXXXXXXXX....XXXXXXXXXXX.oooooooooooo",
"ooooooooooXX.XXXXXXXXXXXXXXXXXXXXXX...oooooooooo",
"oooooooooXXXXXXXXXXXXXXXXXXXXXXXXX.X...ooooooooo",
"ooooooooXX.XXXXXXXXXXXXXXXXXXXXXXXXXX.. oooooooo",
"ooooooo.X.XXXXXXXXXXXXXXXXXXXXXXXX.X.... ooooooo",
"ooooooX..XXXX..XX.XXXXXXXXXXXXXXXXXX....  oooooo",
"oooooX.......XXXXXXXXXXXXXXXXXXXXXX.....   ooooo",
"ooooX.. XXXXXXXXXXXXXXXXXXXXXXXXXXXXX.. .   oooo",
"oooo.. XXXXXXXXXXXXXXXXXXXXXXXXXXXXX.X....  oooo",
"oooX.. XXXXXXXXXXXXXXXXXXXXXXXXXXXXXX... .   ooo",
"ooXX..XXXXXXXXXXXXXXXXXXXXX.XXXXXXXXX....     oo",
"ooXX.X.XXXXXXXXXXXXXXXXXXXXX.XXXXXX..... .    oo",
"ooX.XXX.XXXXXXXXXXXXXXXXXXXXX.XXXXXXX.....    oo",
"o.XXXXX.XXXXXXXXXXXXXXXXXXXXX.XXXXXXX.... .    o",
"oXXXXXXXX.XXXXXXXXXXXXXXXXXX.XXXXXXX.X....     o",
"o.XXXXXXX.XXXXXXXXX.....XXX.XXXXXXXXX.....     o",
"X.XXXXXXXXXXXXXXXXXXXXXX....XXXXXXXXX......     ",
"XXXXXXXXXX.XXXXXXXXXXXXX... .XXXXXXX......      ",
"XXXXXXXXXXXXXXXXXXXXXXXX......XXXXXXX.....      ",
"XXXXXXXXXXXXXXXXXXXXXXXXX.. XX.XXXX...... .     ",
"XXXXXXXXXXXXXXXXXXXXXXXXX..XXXX.XX.X......      ",
"XXXXXXXXXXXXXXXXXXXXXXXXX..XXXXX.XX..... .      ",
"XX.XXXXXXXXXXXXX.XXXXXXXX.XXXXX.X.X......       ",
"XXXXXXXXXXXXXXXX.XXXXXXXXXXXXX.X.X........      ",
"XXXXXXXXXXXXXXX.XXXXXXXX.XXXX.X.X.......        ",
"XXXXXXXXXXXXXXXXXXXXXXX.XXXXX.X.X...... .       ",
"oXXXXXXXXXXXXXXXXXXXXX..XX.X.X.X...... .       o",
"oXX..XXXXXX.XXXXXXXXXXXXX.X.X.X..... . .       o",
"oXX..XXXXXXXXXXXXXXXXXX.X.X.X..........        o",
"ooX.. XXXXXXXXXXXXXXXX.X.X.XX..... . .        oo",
"ooX. X.XXXXXXXX...X.X.X.X.XX...... . .        oo",
"ooX.XXXXXXXXXX....X.X.X.X...... . . .         oo",
"oooX.X.XXXXX.... X.X.X.XX..... . . .         ooo",
"ooooX.X.X.X.X... .X.X....... . . .          oooo",
"oooo......X.X.. ..X........ . . ..          oooo",
"ooooo................... . . . ..          ooooo",
"oooooo ................. . . .            oooooo",
"ooooooo . . ... . . . . . . ..           ooooooo",
"oooooooo . ... . . . . . .              oooooooo",
"ooooooooo      . . . . .               ooooooooo",
"oooooooooo                            oooooooooo",
"oooooooooooo                        oooooooooooo",
"ooooooooooooo                      ooooooooooooo",
"oooooooooooooooo                oooooooooooooooo",
"ooooooooooooooooooo          ooooooooooooooooooo"
};
