/* XPM */
static char *result[] = {
/* columns rows colors chars-per-pixel */
"48 48 4 1 ",
"  c #4A5462",
". c #477D85",
"X c #8B93AF",
"o c None",
/* pixels */
"oooooooooooooooooooXXXXXXXXXXooooooooooooooooooo",
"ooooooooooooooooXXXXXXXXXXXXXXXXoooooooooooooooo",
"oooooooooooooXXXXXXXX.....XXXXXXXXXooooooooooooo",
"ooooooooooooXXXXXXXX....XXXXXXXXXXX.oooooooooooo",
"oooooooooo.XXXXXXXXXXXXXXXXXXXXXXXX...oooooooooo",
"ooooooooo.XXXXXXXXXXXXXXXXXXXXXXXX.X...ooooooooo",
"oooooooo.XXXXXXXXXXXXXXXXXXXXXXXXXXXX.. oooooooo",
"ooooooo.XXXXXXXXXXXXXXXXXXXXXXXXXXX.X... ooooooo",
"oooooo..X..X.X...XXXXXXXXXXXXXXXXX.X....  oooooo",
"ooooo....XXXXXXXXXXXXXXXXXXXXXXXXXX.....   ooooo",
"oooo.. XXXXXXXXXXXXXXXXXXXXXXXXXXXX.... .   oooo",
"oooo. XXXXXXXXXXXXXXXXXXXXXXXXXXXXXX......  oooo",
"ooo....XXXXXXXXXXXXXXXXXXXXXXXXXXXXXX.....   ooo",
"oo...XXXXXXXXXXXXXXXXXXXXXXXXXXXXXXXX....     oo",
"ooXXXX.XXXXXXXXXXXXXXXXXXXXXXXXXXXXXXX.. .    oo",
"ooXXXX.XXXXXXXXXXXXXXXXXXX.XXXXXXXXXX.....    oo",
"oXXXXXX.XXXXXXXXXXXXXXXXXX.XXXXXXXX...... .    o",
"o..XXXXXXXXXXXXXXXXXXXXXXX.XXXXXXXX.......     o",
"oXXXXXXXXXXXXXXX.....XXXX..XXXXXXXXXX.....     o",
"XXXXXXXXXXXXXXXXXXXXX.XX.XXXXXXXXXX.X......     ",
"..XXXXXXXXXXXXXXXXXXX....XXXXXXXXXXX......      ",
".XXXXXXXXXXXXXXXXXXXX... XXXXXXXXXXXX.....      ",
"XXXXXXXXXXXXXXXXXXXXXX.....XXXXXXXX...... .     ",
"XXXXXXXXXXXXXXXXXXXXXX.. ..XXXXXXX.X......      ",
"XXXXXXXXXXXXXXXXXXXXXX..XXX.XXXXX.X.......      ",
"XXXXXXXXXXXXXXXXXXXXXX..XXXX..X.X.X......       ",
"XXXXXXXXXXXXX.XXXXXXXX.XXXXXX.XXXX........      ",
"XXXXXXXXXXXX.XXXXXXXX.XXXXXXX.X.X.......        ",
".XXXXXXXXXXXXXXXXXXX.XXXXXXXX.X.X...... .       ",
"o..XXXXXXXXXXXXXXXX.XXXXXX.X.X.X........       o",
"o...XXXXXXXXXXXXXXXXXXXXX.X.X.X..... . .       o",
"oX.XXXXXXXXXXXXXXXXXXXX.X.X.X...... . .        o",
"ooXXXXXXXXX..XXXXXXXXX.X.X.XX..... . .        oo",
"ooXXXXXXXXX...XXXXX.X.X.X.XX...... . .        oo",
"ooXXXXXXXX... XXXXX.X.X.X...... . . .         oo",
"oooX.X.XX... X.X.X.X.X.XX..... . . .         ooo",
"ooooX.XXX... .X.X.X.X....... . . .          oooo",
"oooo......X.X.X.X.X........ . . ..          oooo",
"ooooo................... . . . ..          ooooo",
"oooooo.. ............... . . .            oooooo",
"ooooooo . . ..... . . . . . ..           ooooooo",
"oooooooo . . . . . . . . .              oooooooo",
"ooooooooo      . . . . .               ooooooooo",
"oooooooooo                            oooooooooo",
"oooooooooooo                        oooooooooooo",
"ooooooooooooo                      ooooooooooooo",
"oooooooooooooooo                oooooooooooooooo",
"ooooooooooooooooooo          ooooooooooooooooooo"
};
