/* XPM */
static char *result[] = {
/* columns rows colors chars-per-pixel */
"48 48 4 1 ",
"  c #4A5462",
". c #477D85",
"X c #8B93AF",
"o c None",
/* pixels */
"oooooooooooooooooooXXXXXXXXXXooooooooooooooooooo",
"ooooooooooooooooXXXXXXXXXXXXXXXXoooooooooooooooo",
"oooooooooooooXXXXXXX.....XXXXXXXXXXooooooooooooo",
"ooooooooooooXXXXXXXXXXXXXXXXXXXXXXX.oooooooooooo",
"ooooooooooX..XXXXXXXXXXXXXXXXXXXXXX...oooooooooo",
"oooooooooXXXXXXXXXXXXXXXXXXXXXXXXX.X...ooooooooo",
"ooooooooXXXXXXXXXXXXXXXXXXXXXXXXXXX.X.. oooooooo",
"oooooooX.X...X.XXXXXXXXXXXXXXXXXXXX.X... ooooooo",
"oooooo..XXXXXXXXXXXXXXXXXXXXXXX.X..X....  oooooo",
"ooooo. XXXXXXXXXXXXXXXXXXXXXXXXX........   ooooo",
"oooo. XXXXXXXXXXXXXXXXXXXXXXXXXX....... .   oooo",
"oooo..XXXXXXXXXXXXXXXXXXXXXXXXXXXX.... . .  oooo",
"ooo..XXXXXXXXXXXXXXXXXXXXXXXXXXXXXX... . .   ooo",
"oo.XX.XXXXXXXXXXXXXXXXXXXXXXXXXXXXXX. ...     oo",
"ooXXX.XXXXXXXXXXXXXXXXXX.XXXXXXXXXXXXX....    oo",
"ooXXXXXXXXXXXXXXXXXXXXXX.XXXXXX... XX.....    oo",
"oXXXX.XXXXXXX.XXXXXXXXX.XXXXXXX.  XXX.... .    o",
"oXXXXXXXXXXXXX...XXXXX..XXXXXXXXXXXX.X....     o",
"oXXXXXXXXXXXXXXXX.XXX.XXXXXXXXXXXXXXX.....     o",
"XXXXXXXXXXXXXXXXX..X..XXXXXXXXXXXXX.X......     ",
".XXXXXXXXXXXXXXXX.....XXXXXXXXXXXXXX......      ",
"XXXXXXXXXXXXXXXXXX... XXXXXXXXXXXXXXX.....      ",
"XXXXXXXXXXXXXXXXXX.....XXXXXXXXXXXX...... .     ",
"XXXXXXXXXXXXXXXXXXX. ...XXXXXXXXXX.X......      ",
"XXXXXXXXX..XXXXXXXX.XXX.XXXXXXXXX.X..... .      ",
"..XXXXXX.XXXXXXXXXX.XXXX.XXXXXXXX.X......       ",
"..XXXXXXXXXXXXXXXX.XXXXXX.XXXX.X.X........      ",
"..XXX.XXXXXXXXXXX.XXXXXXX.XXX.X.X.......        ",
".XXXXXXXXXXXXXXX.XXXXXXXXXXXX.X.X........       ",
"oXXXXX.XXXXXXXXXXXXXXXXXXXXX.X.X...... .       o",
"oXXXXX..XXXXXXXXXXXXXXXXX.X.X.X..... . .       o",
"oXXXX... XXXXXXXXXXXXXX...X.X...... . .        o",
"ooXXX... XXXXXXXXXXXXX.X.X..X..... . .        oo",
"ooXXXX. XXXXXXXXXXX.X.X.X..X...... . .        oo",
"ooX.XXXXXXXXXXX.XXX.X.X.X........ . .         oo",
"oooX.X.X.XXX.X...X.X.X.XX....... . .         ooo",
"ooooX.X.X.X.XX....X.X....... . . .          oooo",
"oooo......X.X.....X........ . . ..          oooo",
"ooooo................... . . . ..          ooooo",
"oooooo . ............... . . .            oooooo",
"ooooooo ... . ... . . . . . ..           ooooooo",
"oooooooo . . . . . . . . .              oooooooo",
"ooooooooo      . . . . .               ooooooooo",
"oooooooooo                            oooooooooo",
"oooooooooooo                        oooooooooooo",
"ooooooooooooo                      ooooooooooooo",
"oooooooooooooooo                oooooooooooooooo",
"ooooooooooooooooooo          ooooooooooooooooooo"
};
