/* XPM */
static char *result[] = {
/* columns rows colors chars-per-pixel */
"48 48 4 1 ",
"  c #4A5462",
". c #477D85",
"X c #8B93AF",
"o c None",
/* pixels */
"oooooooooooooooooooXXXXXXXXXXooooooooooooooooooo",
"ooooooooooooooooXXXXXXXXXXXXXXXXoooooooooooooooo",
"oooooooooooooXXXXXX.....XXXXXXXXXXXooooooooooooo",
"ooooooooooooXXXXXX.XXXXXXXXXXXXXXXX.oooooooooooo",
"ooooooooooXXXXXXXXXXXXXXXXXXXXXXXXX...oooooooooo",
"ooooooooo.XXXXXXXXXXXXXXXXXXXXXXXX.X...ooooooooo",
"oooooooo.XXXXXXXXXXXXXXXXXXXXXXXXXX.X.. oooooooo",
"ooooooo.X.XXXXXXXXXXXXXXXXXXXXXXXXX.X... ooooooo",
"oooooo.XXXXXXXXXXXXXXXXXXXXXXXXXXXXX....  oooooo",
"ooooo.XXXXXXXXXXXXXXXXXXXXXXX..X....X...   ooooo",
"oooo.XXXXXXXXXXXXXXXXXXXXXXXXX......... .   oooo",
"ooooXXXXXXXXXXXXXXXXXXXXXXXXXX.......X.. .  oooo",
"oooXXXXXXXXXXXXXXXXXXXXXXXXXXXX..... .....   ooo",
"ooXXXXXXXXXXXXXXXXXXXXXXXXXXXXXX... X....     oo",
"ooXXXXXXXXXXXXXXXXXX..XXXXXXXXXXXX XXX.. .    oo",
"ooXXXXXXXX..XXXXXXX.XXXXXXXXXXXXXXXXX.....    oo",
"oXXXXXXXXXXX.XXXXX.XXXXXXXX....XXXXXX.... .    o",
"oXXXXXXXXXXXX.XXX.XXXXXXXXX..  XXXXX.X....     o",
"oXXXXXXXXXXXX..X..XXXXXXXXXXXXXXXXXXX.....     o",
"XXXXXXXXXXXXX.....XXXXXXXXXXXXXXXXXXX......     ",
"XXXXXXXXXXXXXX... XXXXXXXXXXXXXXXXXX......      ",
"XXXXXXXXXXXXXXX....XXXXXXXXXXXXXXXX.X.....      ",
"XXXXXX.XXXXXXX.. ..XXXXXXXXXXXXXXXX...... .     ",
"XXXXX..XXXXXXX.XXX.XXXXXXXXXXXXXXXX.......      ",
".XXXXXXXXXXXX.XXXXX.XXXXXXXXXXXXX.........      ",
"X.X.XXXXXXXX.XXXXXX.XXXXXXXXXXX.X..... ..       ",
"XXXXXXXXXXX.XXXXXXX.XXXXXXXXXX.X...... . .      ",
"XXXXXXXXXXXXXXXXXXXXXXXXXXXXX.XXX.......        ",
"XXXX.XXXXXXXXXXXXXXXXXXXXXXXX.X.X...... .       ",
"oXX.. XXXXXXXXXXXXXXXXXXXX.X.X.X...... .       o",
"oXX.. XXXXXXXXXXXXXXXXXXXXX.X.X..... . .       o",
"oXXX XXXXXXXXXXXXXXXXXX.X.X.X...... . .        o",
"ooXXXXXXXXXXXXXXXXX..X...X.XX....... .        oo",
"ooXXXXXXXXXXXXXXXXX.X.X.X.XX...... . .        oo",
"ooX.XXXXXX..XXXXXXX.X.X.X........ . .         oo",
"oooX.XXX.....X.X.X.X...XX..... . . .         ooo",
"ooooX.X.X.....X.X.X.X....... . . .          oooo",
"oooo......X.X.X.XXX........ . . ..          oooo",
"ooooo..................... . . ..          ooooo",
"oooooo . ............... . . .            oooooo",
"ooooooo . . . ... . ... . . ..           ooooooo",
"oooooooo . . . . . ... . .              oooooooo",
"ooooooooo      . . . . .               ooooooooo",
"oooooooooo                            oooooooooo",
"oooooooooooo                        oooooooooooo",
"ooooooooooooo                      ooooooooooooo",
"oooooooooooooooo                oooooooooooooooo",
"ooooooooooooooooooo          ooooooooooooooooooo"
};
