/* XPM */
static char *result[] = {
/* columns rows colors chars-per-pixel */
"48 48 4 1 ",
"  c #4A5462",
". c #477D85",
"X c #8B93AF",
"o c None",
/* pixels */
"oooooooooooooooooooXXXXXXXXXXooooooooooooooooooo",
"ooooooooooooooooXXXXXXXXXXXXXXXXoooooooooooooooo",
"oooooooooooooXXXXXX.....XXXXXXXXXXXooooooooooooo",
"ooooooooooooXXXXXX.XXXXXXXXXXXXXXXX.oooooooooooo",
"ooooooooooXXXXXXXXXXXXXXXXXXXXXXXXX...oooooooooo",
"oooooooooXXXXXXXXXXXXXXXXXXXXXXXXX.X...ooooooooo",
"oooooooo.XXX.XXXXXXXXXXXXXXXXXXXXXX.X.. oooooooo",
"oooooooXXXXXXXXXXXXXXXXXXXXXXXXXXXX.X... ooooooo",
"ooooooXXXXXXXXXXXXXXXXXXXXXXXXXXXXXX....  oooooo",
"oooooXXXXXXXXXXXXXXXXXXXXXXXXXXXXXX.X...   ooooo",
"ooooX.XXXXXXXXXXXXXXXXXXXXXX.X....XXX....   oooo",
"ooooX.XXXXXXXXXXXXXXXXXXXXXX.......X.X....  oooo",
"oooXXXXXXXXXXXXXXXXXXXXXXXXX........X... .   ooo",
"ooXXXXXXXXXXXXXXXX..XXXXXXXX......  .....     oo",
"ooXXXXXX..XXXXXXX.XXXXXXXXXXX..   X..X.. .    oo",
"ooXXXXXXXX.XXXXX.XXXXXXXXXXXXXXXXXXXX.....    oo",
"oXXXXXXXXX.XXX..XXXXXXXX....XXXXXXXXX......    o",
"oXXXXXXXXXX.X...XXXXXXXX.   XXXXXXXX.X....     o",
"oXXXXXXXXXX... XXXXXXXXXXXXXXXXXXXXXX.....     o",
"XXXXXXXXXXX... XXXXXXXXXXXXXXXXXXXX.X......     ",
"XXXXXXXXXXXX..XXXXXXXXXXXXXXXXXXXXXX......      ",
"XXXX.XXXXXX.. .XXXXXXXXXXXXXXXXXXXX.X.....      ",
"XXXXXXXXXX.XXXX.XXXXXXXXXXXXXXXXXXX...... .     ",
"XXXXXXXXX..XXXX.XXXXXXXXXXXXXXXXXX.X......      ",
"XXXXXXX..XXXXXXX.XXXXXXXXXXXXX............      ",
"XXXXXXXXXXXXXXXX.XXXXXXXXXXXXX...... ....       ",
"XX.XXXXXXXXXXXXXXXXXXXXXXXXXXX...... ... .      ",
"X.. XXXXXXXXXXXXXXXXXXXXXXXXX...... ....        ",
"X. XXXXXXXXXXXXXXXXXXXXXXXXXX.X........ .       ",
"oX XXXXXXXXXXXXXXXXXXXXXXX.X.X.X...... .       o",
"oXXXXXXXXXXXXXX.XXXXXXXXX.X.X.X..... . .       o",
"oXXXXXXXXXXXXXXXXX.XXXX.X.X.X........ .        o",
"ooXXXX..XXXXXXXXX..XXXXX.X.XX..... . .        oo",
"ooXXXX..XXXXXXXX..X.X.X.X.XX...... . .        oo",
"ooX.XX.. XXXXXX.XXX.X.X.X...... . . .         oo",
"oooX.X...X.X.X.X.X.X.X.XX..... . . .         ooo",
"ooooX.X.X.X.XXX.X.X.X....... . . .          oooo",
"oooo......X.X.X.X.X.......... . ..          oooo",
"ooooo................... ... . ..          ooooo",
"oooooo . ............... . . .            oooooo",
"ooooooo . ... . ... . . . . ..           ooooooo",
"oooooooo . . . . . . ... .              oooooooo",
"ooooooooo      . . . . .               ooooooooo",
"oooooooooo                            oooooooooo",
"oooooooooooo                        oooooooooooo",
"ooooooooooooo                      ooooooooooooo",
"oooooooooooooooo                oooooooooooooooo",
"ooooooooooooooooooo          ooooooooooooooooooo"
};
