/* XPM */
static char *result[] = {
/* columns rows colors chars-per-pixel */
"48 48 4 1 ",
"  c #4A5462",
". c #477D85",
"X c #8B93AF",
"o c None",
/* pixels */
"oooooooooooooooooooXXXXXXXXXXooooooooooooooooooo",
"ooooooooooooooooXXXXXXXXXXXXXXXXoooooooooooooooo",
"oooooooooooooXXXXX....XXXXXXXXXXXXXooooooooooooo",
"ooooooooooooXXXXXXXXXXXXXXXXXXXXXXX.oooooooooooo",
"ooooooooooXXXXXXXXXXXXXXXXXXXXXXXXX...oooooooooo",
"oooooooooXXXXXXXXXXXXXXXXXXXXXXXXX.X...ooooooooo",
"oooooooo..XXXXXXXXXXXXXXXXXXXXXXXXX.X.. oooooooo",
"oooooooXXXXXXXXXXXXXXXXXXXXXXXXXXXX..... ooooooo",
"ooooooXXXXXXXXXXXXXXXXXXXXXXXXXXXXXX....  oooooo",
"oooooXXXXXXXXXXXXXXXXXXXXXXXXXXXXXX.X...   ooooo",
"ooooXXXXXXXXXXXXXXXXXXXXX..X..XXXXXXX.. .   oooo",
"oooo.XXXXXXXXXXXXXXXXXXXX.......XXXX.X.. .  oooo",
"oooXXXXXXXXXXXXXXXXXXXXXX........XXXX... .   ooo",
"ooXXXXXXXXXXXXXXXXXXXXXXX........XXXX....     oo",
"ooXXXX..XXXXXX..XXXXXXXXXX....  ..XXXX.. .    oo",
"ooXXXXXX.XXXX.XXXXXXXXXXXXXX  XXX.XXX.....    oo",
"oXXXXXXX.XXX.XXXXXXXX...XXXXXXXXXXXXX.... .    o",
"oXXXXXXX.X...XXXXXXXX.  XXXXXXXXXXXX.X.....    o",
"oXXXXXXX... XXXXXXXXXXXX.XXXXXXXXXXXX.....     o",
"XXX.XXXX...XXXXXXXXXXXXXXXXXXXXXXXX.X......     ",
"XXXXXXXX. .XXXXXXXXXXXXXXXXXXXXXXXXX......      ",
"XXXXXXX.XX.XXXXXXXXXXXXXXXXXXXXXXXX.X.....      ",
"XXXXXX.XXXX.XXXXXXXXXXXXXXXXXXXXXXX...... .     ",
"XXXXX.XXXXX.XXXXXXXXXXXXXXXXXXXXXX.X......      ",
"X.XXXXXXXXXX.XXXXXXXXXXXXXXX..XXX.X..... .      ",
"X.XXXXXXXXXXXXXXXXXXXXXXXX......XXX......       ",
"X.XXXXXXXXXXXXXXXXXXXXXXX...... .X........      ",
"XXXXXXXXXXXXXXXXXXXXXXXXX...... X........       ",
"XXXXXXXXXXXXXXXXXXXXXXXXX...... X...... .       ",
"oXX..XXXXXXXXXXXXXXXXXXXX..... X...... .       o",
"oXXX.XXXXXX.XXXXXXXXXXXXX.X.X.X..... . .       o",
"oXX...XXXXXX...XXXXXXXX.X.X.X........ .        o",
"ooXX..XXXXX...XXXXXXXXXX.X.XX..... . .        oo",
"ooXXXXXXXXX.XXXXXXXXX.XXX.XX...... . .        oo",
"ooX.XXXXXXXXXXXXXXX.X.XXX...... . . .         oo",
"oooX.X.X.X.X.X.X.X.X.X.XX..... . . .         ooo",
"ooooX.X.XXX.X.X.X.X.X....... ... .          oooo",
"oooo......X.X.X.X.X........ . . ..          oooo",
"ooooo................... . . . ..          ooooo",
"oooooo.. ................. . .            oooooo",
"ooooooo . ... . . . ... . . ..           ooooooo",
"oooooooo . . . . . . . . .              oooooooo",
"ooooooooo      . . . . .               ooooooooo",
"oooooooooo                            oooooooooo",
"oooooooooooo                        oooooooooooo",
"ooooooooooooo                      ooooooooooooo",
"oooooooooooooooo                oooooooooooooooo",
"ooooooooooooooooooo          ooooooooooooooooooo"
};
