/* XPM */
static char *result[] = {
/* columns rows colors chars-per-pixel */
"48 48 4 1 ",
"  c #4A5462",
". c #477D85",
"X c #8B93AF",
"o c None",
/* pixels */
"oooooooooooooooooooXXXXXXXXXXooooooooooooooooooo",
"ooooooooooooooooXXXXXXXXXXXXXXXXoooooooooooooooo",
"oooooooooooooXXXXX..XXXXXXXXXXXXXXXooooooooooooo",
"ooooooooooooXXXXXXXXXXXXXXXXXXXXXXX.oooooooooooo",
"ooooooooooXXXXXXXXXXXXXXXXXXXXXXXXX...oooooooooo",
"ooooooooo.XXXXXXXXXXXXXXXXXXXXXXXX.X...ooooooooo",
"ooooooooXXXXXXXXXXXXXXXXXXXXXXXXXXX.X.. oooooooo",
"oooooooXXXXXXXXXXXXXXXXXXXXXXXXXXXX.X... ooooooo",
"ooooooXXXXXXXXXXXXXXXXXXXXXXXXXXXXX.....  oooooo",
"oooooXXXXXXXXXXXXXXXXXXXXXXXXXXXXXX.X...   ooooo",
"ooooXXXXXXXXXXXXXXXXXX..XXX..XXXXXXXX.. .   oooo",
"ooooXXXXXXXXXXXXXXXXXX........XXXXXX.X.. .  oooo",
"oooXX.XXXXXXXXXXXXXXXX.........XXXXXX... .   ooo",
"ooXXXX.XXXX..XXXXXXXXXX........XXXXXX....     oo",
"ooXXXXX.XX.XXXXXXXXXXXXX....  .XXXXXXX.. .    oo",
"ooXXXXX.X.XXXXXXXXXXXXXX.   XX.XXXXXX.....    oo",
"oXXXXX....XXXXXXXX...XXXXXXXXXXXXXXXX.... .    o",
"oXXXXX... XXXXXXXX.  XXXXXXXXXXXXXXX.X....     o",
"oX.XXX. .XXXXXXXXXXXX.XXXXXXXXXXXXXXX......    o",
"XXXXX..X.XXXXXXXXXXXXXXXXXXXXXXXXXX.X......     ",
"XXXX.XXX.XXXXXXXXXXXXXXXXXXXXXXXXXXX......      ",
"..X.XXXX.XXXXXXXXXXXXXXXXXXXXXXXXXX.X.....      ",
"..X.XXXXX.XXXXXXXXXXXXXXXXXXXXXXXXX...... .     ",
"X.XXXXXXX.XXXXXXXXXXXXXXXXXXXXXXXX.X......      ",
"XXXXXXXXXXXXXXXXXXXXXXXX.XXXXXXXXXX..... .      ",
"XXXXXXXXXXXXXXXXXXXXXX......XXX.X.X.......      ",
"XXXXXXXXXXXXXXXXXXXXX.......XX.X.X...... .      ",
"XXXXXXXXXXXXXXXXXXXXX..... XX.X.X.......        ",
"XX.XXXX.XXXXXXXXXXXXX..... XXXX.X...... .       ",
"oX.XXXXX..XXXXXXXXXXX..   .X.X.X...... .       o",
"oX.XXXXX...XXXXXXXXXXXXXXXX.X.X..... . .       o",
"oXXXXXXX.XXXXXXXXXXXXXX.X.X.X...... ...        o",
"ooXXXXXXXXXXXXXXXXXXXX.X.X.XX....... .        oo",
"ooXXXXXXXXXXXXXXXXX.X.X.X.XX...... . .        oo",
"ooX.XXXXXXXXXXXXXXX.X.X.X...... . . .         oo",
"oooX.X.X.X.X.X.X.X.X.X.XX..... . . .         ooo",
"ooooX.X.X.X.X.X.XXX.X....... . . .          oooo",
"oooo......X.X.X.X.X........ ... ..          oooo",
"ooooo..................... . . ..          ooooo",
"oooooo . ............... . . .            oooooo",
"ooooooo ... . . ... . . . . ..           ooooooo",
"oooooooo . . . . . ... . .              oooooooo",
"ooooooooo      . . . . .               ooooooooo",
"oooooooooo                            oooooooooo",
"oooooooooooo                        oooooooooooo",
"ooooooooooooo                      ooooooooooooo",
"oooooooooooooooo                oooooooooooooooo",
"ooooooooooooooooooo          ooooooooooooooooooo"
};
