/* XPM */
static char *result[] = {
/* columns rows colors chars-per-pixel */
"48 48 4 1 ",
"  c #4A5462",
". c #477D85",
"X c #8B93AF",
"o c None",
/* pixels */
"oooooooooooooooooooXXXXXXXXXXooooooooooooooooooo",
"ooooooooooooooooXXXXXXXXXXXXXXXXoooooooooooooooo",
"oooooooooooooXXXXX..XXXXXXXXXXXXXXXooooooooooooo",
"ooooooooooooXXXXXXXXXXXXXXXXXXXXXXX.oooooooooooo",
"ooooooooooXXXXXXXXXXXXXXXXXXXXXXXXX...oooooooooo",
"oooooooooXXXXXXXXXXXXXXXXXXXXXXXXX.X...ooooooooo",
"ooooooooXXXXXXXXXXXXXXXXXXXXXXXXXXX.X.. oooooooo",
"oooooooXXXXXXXXXXXXXXXXXXXXXXXXXXXX.X... ooooooo",
"ooooooXXXXXXXXXXXXXXXXXXXXXXXXXXXXXX....  oooooo",
"oooooXXXXXXXXXXXXXXXXXXXXXXXXXXXXX.XX...   ooooo",
"ooooXXXXXXXXXXXXXXXXXXXXXXXXXXXXXXXXX.. .   oooo",
"oooo.XXXXXXXXXXXXXXXX....XXXXXXXXXXX.X.. .  oooo",
"oooXX.XXX.XXXXXXXXX........XXXXXXXXXX.....   ooo",
"ooXXXXXX.XXXXXXXXXXX.......XXXXXXXXXX....     oo",
"ooXXX.X.XXXXXXXXXXXXX......XXXXXXXXXXX.. .    oo",
"ooXXX...XXXXXXXXXXXXX.    ..XXXXXXXXX.....    oo",
"o.XXX. XXXXXXXX...XXXXXXXXX.XXXXXXXXX.... .    o",
"oXXX. .XXXXXXXX.  XXXXXXXXX.XXXXXXXX.X....     o",
"oXX..X.XXXXXXXXXXX.XXXXXXXXXXXXXXXXXX.....     o",
"X.XXXX.XXXXXXXXXXXXXXXXXXXXXXXXXXXX........     ",
"XXXXXXXXXXXXXXXXXXXXXXXXXXXXXXXXXXXX......      ",
"XXXXXX.XXXXXXXXXXXXXXXXXXXXXXXXXXXX.X.....      ",
"XXXXXXXXXXXXXXXXXXXXXXXXXXXXXXXXXXX...... .     ",
"XXXXXXXXXXXXXXXXXXXXXXXXXXXXXXXXXX.X......      ",
"XXXXXXXXXXXXXXXXXXX..XXXXXXXXXXXX.X..... .      ",
"X.XXXXXXXXXXXXXX.......XXXXXXXX.X.X......       ",
"..XXXXXXXXXXXXXX........XXXXXX.X.X...... .      ",
"X.XXXXXXXXXXXXXXX...... XXXXXXX.X.......        ",
"XXXXX..XXXXXXXXXXX.... XXXXXX.X.X........       ",
"oXXXX.XXXXXXXXXXXX.   XXXX.X.X.X...... .       o",
"oXXXXXXXXXXXXXXXXXXXXXXXX.X.X.X..... . .       o",
"oXXXXXXXXXXXXXXXXXXXXXX.X.X.X...... . .        o",
"ooXXXXXXXXXXXXXXXXXXXX.X.X.XX..... . .        oo",
"ooXXXXXXXXXXXXXXXXXXX.X.X.XX...... . .        oo",
"ooX.XXXXXXXXXXXXXXX.X.X.X...... . . .         oo",
"oooX.XXX.X.X.X.X.X.X.X.XX..... . . .         ooo",
"oooo..X.X.XX..X.X.X.X....... . . .          oooo",
"oooo......X.......X........ . . ..          oooo",
"ooooo................... . ... ..          ooooo",
"oooooo . ............... ... .            oooooo",
"ooooooo . ... . ... . . . . ..           ooooooo",
"oooooooo . . . ... . . . .              oooooooo",
"ooooooooo      ... . . .               ooooooooo",
"oooooooooo                            oooooooooo",
"oooooooooooo                        oooooooooooo",
"ooooooooooooo                      ooooooooooooo",
"oooooooooooooooo                oooooooooooooooo",
"ooooooooooooooooooo          ooooooooooooooooooo"
};
