/* XPM */
static char *result[] = {
/* columns rows colors chars-per-pixel */
"48 48 4 1 ",
"  c #4A5462",
". c #477D85",
"X c #8B93AF",
"o c None",
/* pixels */
"oooooooooooooooooooXXXXXXXXXXooooooooooooooooooo",
"ooooooooooooooooXXXXXXXXXXXXXXXXoooooooooooooooo",
"oooooooooooooXXXX...XXXXXXXXXXXXXXXooooooooooooo",
"ooooooooooooXXXXXXXXXXXXXXXXXXXXXXX.oooooooooooo",
"ooooooooooXXXXXXXXXXXXXXXXXXXXXXXXX...oooooooooo",
"oooooooooXXXXXXXXXXXXXXXXXXXXXXXXX.X...ooooooooo",
"ooooooooXXXXXXXXXXXXXXXXXXXXXXXXXXX.X.. oooooooo",
"oooooooXXXXXXXXXXXXXXXXXXXXXXXXXXXX.X... ooooooo",
"ooooooXXXXXXXXXXXXXXXXXXXXXXXXXXXXXX....  oooooo",
"oooooXXXXXXXXXXXXXXXXXXXXXXXXXXXXXX.X...   ooooo",
"ooooX.XXXXXXXXXXXXXXXXXXXXXXXXX.XXXXX.. .   oooo",
"ooooX.XX.XXXXXXXXX.....XXXXXXXXXXXXX.X.. .  oooo",
"oooXX.X..XXXXXXXXX......XXXXXXXXXXXXX... .   ooo",
"ooXX.X..XXXXXXXXXX.......XXXXXXXXXXXX....     oo",
"oo.. .XXXXXXXXXXXX....... XXXXXXXXXXXX.. .    oo",
"oo.X.XXXXXXX...XXXX.   . XXXXXXXXXXXX.....    oo",
"oXXXXXXXXXXXX...XXXXXXX. XXXXXXXXXXXX.... .    o",
"oXXX.XXXXXXXXX  XXXXXXXX XXXXXXXXXXX.X....     o",
"oXXX.XXXXXXXXXXXXXXXXXXXXXXXXXXXXXXXX.....     o",
"XXXXXXXXXXXXXXXXXXXXXXXXXXXXXXXXXXX..... ..     ",
"XXXXXXXXXXXXXXXXXXXXXXXXXXXXXXXXXXX.... ..      ",
"XXXXXXXXXXXXXXXXXXXXXXXXXXXXXXXXX.........      ",
".XXXXXXXXXXXXXXXXXXXXXXXXXXXXXXXXXX...... .     ",
".XXXXXXXXXXXXXXXXXXXXXXXXXXXXXXXXX.X......      ",
".XX.XXXXXXXXX.....XXXXXXXXXXXXXXX.X..... .      ",
"XXX.XXXXXXXX.......XXXXXXXXXXXX.X.X......       ",
"XXXXXXXXXXXX.......XXXXXXXXXXX.X.X...... .      ",
"XXXXXXXXXXXXX......XXXXXXXXXX.X.X.......        ",
"XXXXXXXXXXXXXX  . XXXXXXXXXXXXX.X........       ",
"oXXXXXXXXXXXXXXX XXXXXXXXX.X.X.X...... .       o",
"oXXXXXXXXXXXXXXXXXXXXXXXX.X.X.X..... . .       o",
"oXXXXXXXXXXXXXXXXXXXXXX.X.X.X...... . .        o",
"oo.XXXXXXXXXXXXXXXXXXX.X.X.XX..... ...        oo",
"oo.XXXXXXXXXXXXXXXX.X.X.X.XX...... . .        oo",
"oo..XXX.XXXXXXXXXXX.X.X.X...... . . .         oo",
"ooo..XX....X.X.X.X.X.X.XX....... . .         ooo",
"ooooX.X...X.XXXXX.X.X....... . . .          oooo",
"oooo......X.X.X.X.X........ ... ..          oooo",
"ooooo................... . . . ..          ooooo",
"oooooo . ............... . . .            oooooo",
"ooooooo . . . . ... . . . . ..           ooooooo",
"oooooooo ... . . . . . . .              oooooooo",
"ooooooooo      . . . . .               ooooooooo",
"oooooooooo                            oooooooooo",
"oooooooooooo                        oooooooooooo",
"ooooooooooooo                      ooooooooooooo",
"oooooooooooooooo                oooooooooooooooo",
"ooooooooooooooooooo          ooooooooooooooooooo"
};
