/* XPM */
static char *result[] = {
/* columns rows colors chars-per-pixel */
"48 48 4 1 ",
"  c #4A5462",
". c #477D85",
"X c #8B93AF",
"o c None",
/* pixels */
"oooooooooooooooooooXXXXXXXXXXooooooooooooooooooo",
"ooooooooooooooooXX.XXXXXXXXXXXXXoooooooooooooooo",
"oooooooooooooXXX..XXXXXXXXXXXXXXXXXooooooooooooo",
"ooooooooooooXXXXXXXXXXXXXXXXXXXXXXX.oooooooooooo",
"ooooooooooXXXXXXXXXXXXXXXXXXXXXXXXX...oooooooooo",
"oooooooooXXXXXXXXXXXXXXXXXXXXXXXXX.X...ooooooooo",
"ooooooooXXXXXXXXXXXXXXXXXXXXXXXXXXXXX.. oooooooo",
"oooooooXXXXXXXXXXXXXXXXXXXXXXXXXXXXXX... ooooooo",
"ooooooXXXXXXXXXXXXXXXXXXXXXXXXXXXXXX....  oooooo",
"oooooXXXXXXXXXXXXXXXXXXXXXXXXXXXXXX.X...   ooooo",
"oooo.XXXXXXXXXXXXXXXXXXXXXXXX..XXXXXX.. .   oooo",
"oooo..XXXXXXXXXX.....XXXXXXX..XXXXXX.X....  oooo",
"ooo.XXXXXXXXXXX.......XXXXXXXXXXXXXXX... .   ooo",
"oo.XXXXXXXXXXXX.......XXXXXXXXXXXXXXX....     oo",
"oo.XXXXXXX.XXXX...... XXXXXXXXXXXXXXXX.. .    oo",
"ooXXXXXXXXX.XXXX..  . XXXXXXXXXXXXXXX.....    oo",
"oXXXXXXXXXX.XXXXXXXX. XXXXXXXXXXXXXXX.... .    o",
"oXXXXXXXXXXXXXXXXXXXX XXXXXXXXXXXXXX.X.....    o",
"oXXXXXXXXXXXXXXXXXXXXXXXXXXXXXXXXXXXX.....     o",
"XXXXXXXXXXXXXXXXXXXXXXXXXXXXXXXXXXX.X......     ",
"XXXXXXXXXXXXXXXXXXXXXXXXXXXXXXXXXXXX......      ",
"XXXXXXXXXXXXXXXXXXXXXXXXXXXXXXX...X.X.....      ",
"XXXXXXXXXXXXXXXXXXXXXXXXXXXXXX........... .     ",
"XXXXXXXXXX....XXXXXXXXXXXXXXXX....... ....      ",
"XXXXXXXXX......XXXXXXXXXXXXXXXXXX... ... .      ",
"XXXXXXXXX.......XXXXXXXXXXXXXXX.X.X......       ",
"XXXXXXXXXX..... XXXXXXXXXXXXXX.X.X...... .      ",
"XXXXXXXXXXX  . XXXXXXXXXXXXXXXX.X.......        ",
"XXXXXXXXXXXXX XXXXXXXXXXXXXXX.X.X...... .       ",
"oXXXXXXXXXXXXXXXXXXXXXXXXX.X.X.X........       o",
"oXXXXXXXXXXXXXXXXXXXXXXXX.X.X.X..... . .       o",
"oXXXXXXXXXXXXXXXXXXXXXX.X.X.X...... . .        o",
"ooXX.XXXXXXXXXXXXXXXXX.X.X.XX..... . .        oo",
"ooXX....XXXXXXXXXXX.X.X.X.XX...... . .        oo",
"ooX.XX.XXXXXXXXXXXX.X.X........ . . .         oo",
"oooXXX.XXX.X.X.X.X.X.X.X...... . . .         ooo",
"ooooX.X.X.XXX.XXX.X.X....... . . .          oooo",
"oooo......X.X.X.X.X........ ... ..          oooo",
"ooooo................... . . . ..          ooooo",
"oooooo ................. . . .            oooooo",
"ooooooo . . . . . . . . . . ..           ooooooo",
"oooooooo . . . . . ... . .              oooooooo",
"ooooooooo      . . . . .               ooooooooo",
"oooooooooo                            oooooooooo",
"oooooooooooo                        oooooooooooo",
"ooooooooooooo                      ooooooooooooo",
"oooooooooooooooo                oooooooooooooooo",
"ooooooooooooooooooo          ooooooooooooooooooo"
};
