/* XPM */
static char *result[] = {
/* columns rows colors chars-per-pixel */
"48 48 4 1 ",
"  c #4A5462",
". c #477D85",
"X c #8B93AF",
"o c None",
/* pixels */
"oooooooooooooooooooXXXXXXXXXXooooooooooooooooooo",
"ooooooooooooooooXXXXXXXXXXXXXXXXoooooooooooooooo",
"oooooooooooooXX.XXXXXXXXXXXXXXXXXXXooooooooooooo",
"ooooooooooooXX.XXXXXXXXXXXXXXXXXXXX.oooooooooooo",
"ooooooooooXX.XXXXXXXXXXXXXXXXXXXXXX...oooooooooo",
"oooooooooXXXXXXXXXXXXXXXXXXXXXXXXX.X...ooooooooo",
"ooooooooXXXXXXXX....XXXXXXXXXXXXXXX.X.. oooooooo",
"oooooooXXXXXXX.... XXXXXXXXXXXXXXXXXX... ooooooo",
"ooooooXXXXXXX.... XXXXXXXXXXXXXXXXXX....  oooooo",
"oooooXXXXXXX..   XXXXXXXXXXXXXXXXXX.X...   ooooo",
"ooooXXXXXXXXXXXXXXXXXXXXXXXXXXXXXXXXX.. .   oooo",
"ooooXXXXXXXXXXXXXXXXXXXXXXXXXXXXXXXX.X.. .  oooo",
"oooXXXXXXXXXXXXXXXXXXXXXXXXXXXXXXXXXX... .   ooo",
"ooXX.XXXXXXXXXXXXXXXXXXXXXXXXXXXXXXXX....     oo",
"ooXXXXXX.XXXXXXX..XXXXXXXXXXXXXXXXXXXX....    oo",
"ooXXXXXXXXXXXX..XXXXXXXXXXXXXXXXXXXXX.....    oo",
"oXXXXXX.XXXXXXXXXXXXXXXXXXXXXXXXXXXXX.... .    o",
"oXXXXXXXXXXXXXXXXXXXXXXXXXXXXXXXXXXX.X....     o",
"oXXXXXXXXXXXXXXXXXXXXXXXXXXXXX.XX.XXX.....     o",
"XX.XXXXXX...XXXXXXXXXXXXXXXXXXXXXXX.X......     ",
"XX.XXXX......XXXXXXXXXXXXXXXXXXXXXXX......      ",
"XX.XXX.......XXXXXXXXXXXX..XXXXXXXX.X.....      ",
"XXXXXX...... XXXXXXXXXXX....XXXXXXX...... .     ",
"XXXXXX...... XXXXXXXXXXX.....XXXXXXX......      ",
"XXXXXXX...  XXXXXXXXXXXX..... XXX.... .. .      ",
"XXXXXXXX. XXXXXXXXXXXXXXX.... X...... ...       ",
"XXXXXXXXXXXXXXXXXXXXXXXXXX.  ........ .. .      ",
"XXXXXXXXXXXXXXXXXXXXXXXXXXXXX.X..... ...        ",
"XXXXXXXXXXXXXXXXXXXXXXXXXXXXX.X.X...... .       ",
"oXXXXXXXXXXXXXXXXXXXXXXXXX.X.X.X...... .       o",
"oXXX.XXXX...XXXXXXXXXXXXX.X.X.X..... . .       o",
"oXXX.XXXX..XXXXXXXXXXXX.X.X.X...... . .        o",
"ooXX..XXXXXXXXXXXXXXXX.X.X.XX....... .        oo",
"ooXX.. XXXXXXXXXXXX.X.XXX.XX...... . .        oo",
"ooX.X. XXXXXXXXXXXX.XXX.X...... . . .         oo",
"oooX..X....XXX.X.X.X.X.XX..... . . .         ooo",
"ooooX.X....XX.X.X.X.X....... . . .          oooo",
"oooo.......XX.X.X.X........ . . ..          oooo",
"ooooo..................... . . ..          ooooo",
"oooooo . ............... . . .            oooooo",
"ooooooo . ... . . . . . . . ..           ooooooo",
"oooooooo . . . ... . . . .              oooooooo",
"ooooooooo      . . . . .               ooooooooo",
"oooooooooo                            oooooooooo",
"oooooooooooo                        oooooooooooo",
"ooooooooooooo                      ooooooooooooo",
"oooooooooooooooo                oooooooooooooooo",
"ooooooooooooooooooo          ooooooooooooooooooo"
};
