/* XPM */
static char *result[] = {
/* columns rows colors chars-per-pixel */
"48 48 4 1 ",
"  c #4A5462",
". c #477D85",
"X c #8B93AF",
"o c None",
/* pixels */
"oooooooooooooooooooXXXXXXXXXXooooooooooooooooooo",
"oooooooooooooooo....XXXXXXXXXXX.oooooooooooooooo",
"oooooooooooooXXX..XXXXXXXXXXXXXXXX.ooooooooooooo",
"ooooooooooooXXXXXXXXXXXXXXXXXXXXXXX.oooooooooooo",
"ooooooooooXXXXXXXXXXXXXXXXXXXXXXXXX...oooooooooo",
"oooooooooXXXXXXXXXXXXXXXXXXXXXXXXX.X...ooooooooo",
"ooooooooXXXXXXXXXXXXXXXXXXXXXXXXXXX.X.. oooooooo",
"oooooooXXXXXXXXXXXXXXXXXXXXXXXXXXXX.X... ooooooo",
"ooooooXXXXXXXXXXXXXXXXXXXXXXXXXXXXXXX...  oooooo",
"ooooo.XXXXXXXXXXXXXXXXXXXXXXXXXXXXX.X...   ooooo",
"ooooXXXXXXXXXX....XXXXXXXXXXXXXXXXXX... .   oooo",
"ooooXXXXXXXXX.....XXXXXXX...XXXXXXXX.... .  oooo",
"oooXXXXXXXXXX......XXXXXXXXXXXXXXXXXX... .   ooo",
"ooXXXXXX.XXXX......XXXXXXXXXXXXXXXXXX....     oo",
"oo.XXXXXX.XXXX.  . XXXXXXXXXXXXXXXXXXX.. .    oo",
"ooXXXXXXX.XXXXXXXX XXXXXXXXXXXXXXXXXX.....    oo",
"oXXXXXXXXXXXXXXXXX XXXXXXXXXXXXXXXXXX......    o",
"oXXXXXXXXXXXXXXXXXXXXXXXXXXXXXXXXXXX.X....     o",
"oXXXXXXXXXXXXXXXXXXXXXXXXXXXXXXXXXXXX......    o",
"XXXXXXXXXXXXXXXXXXXXXXXXXXXXXXXXXXXXX......     ",
"XXXXXXXXXXXXXXXXXXXXXXXXXXXXXXXXXXX.......      ",
"XXXXXXXXXXXXXXXXXXXXXXXXXXX..XXXXXX.......      ",
"X.XXXXX...XXXXXXXXXXXXXXXX.....XXXX...... .     ",
"XXXXXX.....XXXXXXXXXXXXXXX.....XXX.X......      ",
"XXXXXX......XXXXXXXXXXXXXXX.....X.X.......      ",
"XXXXXX.... XXXXXXXXXXXXXXXXXX... .X.......      ",
"XXXXXXX.. XXXXXXXXXXXXXXXXXXXX. .X...... .      ",
"XXXXXXXX XXXXXXXXXXXXXXXXXXXX.X.X.......        ",
"XXXXXXXXXXXXXXXXXXXXXXXXXXXXXXX.X...... .       ",
"oXXXXXXXXXXXXXXXXXXXXXXXXXXX.X.X...... .       o",
"oX..XXXXXXXXXXXXXXXXXXXXXXX.X.X..... . .       o",
"oXX.XXXXXXXXXXXXXXXXXXX.X.X.X...... ...        o",
"ooXXXXXXXXXXXXXXXXXXXX.X.X.XX....... .        oo",
"ooXXXXXXXXXXXXXXXXX.XXX.X.XX...... . .        oo",
"ooXXXXXXXXXXXXXXXXX.X.X.X...... . . .         oo",
"oooX.XXX.X.X.X.X.X...X.XX..... . . .         ooo",
"ooooX.X.X.X.X.X.X.X......... . . .          oooo",
"oooo......X.X.X.X.............. ..          oooo",
"ooooo..................... . . ..          ooooo",
"oooooo . ............... . . .            oooooo",
"ooooooo ... . ..... . . . . ..           ooooooo",
"oooooooo . . . . . ... . .              oooooooo",
"ooooooooo      . . . . .               ooooooooo",
"oooooooooo                            oooooooooo",
"oooooooooooo                        oooooooooooo",
"ooooooooooooo                      ooooooooooooo",
"oooooooooooooooo                oooooooooooooooo",
"ooooooooooooooooooo          ooooooooooooooooooo"
};
