/* XPM */
static char *result[] = {
/* columns rows colors chars-per-pixel */
"48 48 4 1 ",
"  c #4A5462",
". c #477D85",
"X c #8B93AF",
"o c None",
/* pixels */
"oooooooooooooooooooXXXXXXXXXXooooooooooooooooooo",
"oooooooooooooooo....XXXXXXXXXX..oooooooooooooooo",
"oooooooooooooXXX..XXXXXXXXXXXXX....ooooooooooooo",
"ooooooooooooXXXXXXXXXXXXXXXXXXXXXX..oooooooooooo",
"ooooooooooXXXXXXXXXXXXXXXXXXXXXXXXX...oooooooooo",
"oooooooooXXXXXXXXXXXXXXXXXXXXXXXXX.X...ooooooooo",
"ooooooooXXXXXXXXXXXXXXXXXXXXXXXXXXX.X.. oooooooo",
"oooooooXXXXXXXXXXXXXXXXXXXXXXXXXXXX.X... ooooooo",
"ooooooXXXXXXXXXXXXXXXXXXXXXXXXXXXXXX....  oooooo",
"oooooXXXXXXX...XXXXXXXXXXXXXXXXXXXX.....   ooooo",
"ooooXXXXXXXX....XXXXXXXXXXXXXXXXXXX.... .   oooo",
"ooooXXXXXXX......XXXXXXX...XXXXXXXX..... .  oooo",
"oooXXXXXXXX..... XXXXXXXXXXXXXXXXXX..... .   ooo",
"ooXXXXX..XXX... XXXXXXXXXXXXXXXXXXXX......    oo",
"ooXXXXX.XXXXXX. XXXXXXXXXXXXXXXXXXXXXX.. .    oo",
"ooXXXXXXXXXXXXX XXXXXXXXXXXXXXXXXXXXX.....    oo",
"oXXXXXXXXXXXXXXXXXXXXXXXXXXXXXXXXXXXX.... .    o",
"oXXXXXXXXXXXXXXXXXXXXXXXXXXXXXXXXXXX.X....     o",
"oXXXXXXXXXXXXXXXXXXXXXXXXXXXXXXXXXXXX.....     o",
"X.XXXXXXXXXXXXXXXXXXXXXXXXXXXXXXXXXXX......     ",
"XXXXX..XXXXXXXXXXXXXXXXXXXXXXXXXXXXXX.....      ",
"XXXX....XXXXXXXXXXXXXXXXXXXXXXX.XXX.......      ",
"XXXX... XXXXXXXXXXXXX...XXXXXXXX..X...... .     ",
"XXXX... XXXXXXXXXXXXX.....XXXXXXX.........      ",
"XXXX.  XXXXXXXXXXXXXXX....XXXXXXX.........      ",
"XXXXXXXXXXXXXXXXXXXXXX.... XXXX.X.X......       ",
"XXXXXXXXXXXXXXXXXXXXXXX.  .XXX.XXX...... .      ",
"X.XXXXXXXXXXXXXXXXXXXXXXXXX.XXX.X.......        ",
"XXXXXXXXXXXXXXXXXXXXXXXXXXXXX.X.X...... .       ",
"oXXXXXXXXXXXXXXXXXXXXXXXXX.X.X.X...... .       o",
"oXXXXXXXXXXXXXXXXXXXXXXXX.X.X.X....... .       o",
"oXXXXXXXXXXXXXXXXXXXXXX.X.X.X...... . .        o",
"ooXXXXXXXXXXXXXXXXXXXXXXXX.XX..... . .        oo",
"ooXXXXXXXXXXXXXXXXXXX.X.X.XX........ .        oo",
"ooX.XXXXXXXXXXXXXXX.X.X.X........ . .         oo",
"oooXXX.X.XXXX....X.X.X.XX....... . .         ooo",
"ooooX.X.X.X.X.....X.X....... . . .          oooo",
"oooo......X.X.....X........ . . ..          oooo",
"ooooo................... ... . ..          ooooo",
"oooooo ................. . . .            oooooo",
"ooooooo . ... . . . . . . . ..           ooooooo",
"oooooooo . . . . . . . . .              oooooooo",
"ooooooooo      . . . . .               ooooooooo",
"oooooooooo                            oooooooooo",
"oooooooooooo                        oooooooooooo",
"ooooooooooooo                      ooooooooooooo",
"oooooooooooooooo                oooooooooooooooo",
"ooooooooooooooooooo          ooooooooooooooooooo"
};
