/* XPM */
static char *result[] = {
/* columns rows colors chars-per-pixel */
"48 48 4 1 ",
"  c #4A5462",
". c #477D85",
"X c #8B93AF",
"o c None",
/* pixels */
"ooooooooooooooooooo.XXXXXXXXXooooooooooooooooooo",
"oooooooooooooooo....XXXXXXXXXX..oooooooooooooooo",
"oooooooooooooXXX..XXXXXXXXXXXXX....ooooooooooooo",
"ooooooooooooXXXXXXXXXXXXXXXXXXXXXX..oooooooooooo",
"ooooooooooXXXXXXXXXXXXXXXXXXXXXXXXX...oooooooooo",
"oooooooooXXXXXXXXXXXXXXXXXXXXXXXXX.X...ooooooooo",
"ooooooooXXXXXXXXXXXXXXXXXXXXXXXXXXXXX.. oooooooo",
"oooooooXXXXXXXXXXXXXXXXXXXXXXXXXXXX.X... ooooooo",
"ooooooXXXXXXXXXXXXXXXXXXXXXXXXXXXXXX....  oooooo",
"oooooXXXXXX..XXXXXXXXXXXXXXXXXXXXXX.X...   ooooo",
"ooooXXXXXX....XXXXXXXXXXXXXXXXXXXXX.... .   oooo",
"ooooXX.XX.....XXXXXXX...XXXXXXXXXX........  oooo",
"oooXXX.XX..... XXXXXXXXXXXXXXXXXX.........   ooo",
"ooXXXXXXXX.... XXXXXXXXXXXXXXXXXX...... .     oo",
"ooXXXXXXXXXX. XXXXXXXXXXXXXXXXXXXX...  . .    oo",
"ooXXXXXXXXXXX XXXXXXXXXXXXXXXXXXXXXXX.....    oo",
"oXXXXXXXXXXXXXXXXXXXXXXXXXXXXXXXXXXXX.... .    o",
"oXXXXXXXXXXXXXXXXXXXXXXXXXXXXXXXXXXX.X....     o",
"oXXXXXXXXXXXXXXXXXXXXXXXXXXXXXXXXXXXX.....     o",
"XXX...XXXXXXXXXXXXXXXXXXXXXXXXXXXXX.X......     ",
"XX... XXXXXXXXXXXXXXXXXXXXXXXXXXXXXX......      ",
"XX... XXXXXXXXXXXXXXXXXXXXX.XXXXXXX.X.....      ",
"XXX. XXXXXXXXXXXXXXX.XXXXXXX.XXX......... .     ",
"XXXXXXXXXXXXXXXXXXX....XXXXXX.X...........      ",
"XXXXXXXXXXXXXXXXXXX.... XXXXXX.......... .      ",
".XXXXXXXXXXXXXXXXXXX... XXXXXXX..........       ",
"..XXXXXXXXXXXXXXXXXXX.. XXXXXX.X........ .      ",
"XXXXXXXXXXXXXXXXXXXXXX .XXXXX.X.X.......        ",
"XXXXXXXXXXXXXXXXXXXXXXXXXXXXX.X.X...... .       ",
"oXXXXXXXXXXXXXXXXXXXXXXXXX.X.X.X...... .       o",
"oXXXXXXXXXXXXXXXXXXXXXXXX.X.X.X..... . .       o",
"oXXXXXXXXXXXXXXXXXXXXXX.X.X.X...... . .        o",
"ooXXXXXXXX.XXXXXXXXXXX.XXX.XX....... .        oo",
"ooXXXXXXX..XXXXXXXX.X.X.X.XX...... . .        oo",
"ooXXXXXXX..XXXXXXXX.X.X.X...... . . .         oo",
"oooX.X.X.....X.X.X.X.X.XX..... . . .         ooo",
"ooooX.X.......XXX.X.X....... . . .          oooo",
"oooo..........X.X.X........ . . ..          oooo",
"ooooo................... . . . ..          ooooo",
"oooooo . ............... . . .            oooooo",
"ooooooo ... ... . . . . . . ..           ooooooo",
"oooooooo . . . ... ... . .              oooooooo",
"ooooooooo      . . . . .               ooooooooo",
"oooooooooo                            oooooooooo",
"oooooooooooo                        oooooooooooo",
"ooooooooooooo                      ooooooooooooo",
"oooooooooooooooo                oooooooooooooooo",
"ooooooooooooooooooo          ooooooooooooooooooo"
};
