/* XPM */
static char *result[] = {
/* columns rows colors chars-per-pixel */
"48 48 4 1 ",
"  c #4A5462",
". c #477D85",
"X c #8B93AF",
"o c None",
/* pixels */
"ooooooooooooooooooo.XXXXXXXXXooooooooooooooooooo",
"oooooooooooooooo....XXXXXXXXXX..oooooooooooooooo",
"oooooooooooooXXXX.XXXXXXXXXXXX...XXooooooooooooo",
"ooooooooooooXXXXXXXXXXXXXXXXXXXXXXX.oooooooooooo",
"ooooooooooXXXXXXXXXXXXXXXXXXXXXXXXX...oooooooooo",
"oooooooooXXXXXXXXXXXXXXXXXXXXXXXXX.X...ooooooooo",
"ooooooooXXXXXXXXXXXXXXXXXXXXXXXXXXX.X.. oooooooo",
"oooooooXXXXXXXXXXXXXXXXXXXXXXXXXXXX.X... ooooooo",
"ooooooXXXX..XXXXXXXXXXXXXXXXXXXXXXXX....  oooooo",
"oooooXXXX...XXXXXXXXXXXXXXXXXXXXXXX.X...   ooooo",
"ooooXXXX.... XXXXXXXXXXXXXXXXXXXXXXXX.. .   oooo",
"ooooXXXX.... XXXXX...XXXXXXXXXX...XX.X.. .  oooo",
"oooXX.XX... XXXXXXXXXXXXXXXXXX.....XX... .   ooo",
"ooXXXXXXX. XXXXXXXXXXXXXXXXXXX......X....     oo",
"ooXXXXXXXX XXXXXXXXXXXXXXXXXXXX..... X.. .    oo",
"ooXXXXXXXXXXXXXXXXXXXXXXXXXXXXXX.   X.....    oo",
"oXXXXXXXXXXXXXXXXXXXXXXXXXXXXXXXXXXXX.... .    o",
"oXXXXXXXXXXXXXXXXXXXXXXXXXXXXXXXXXXX.X....     o",
"oX..XXXXXXXXXXXXXXXXXXXXXXXXXXXXXXXXX.....     o",
"X.. XXXXXXXXXXXXXXXXXXXXXXXXXXXXXXX.X......     ",
"X.. XXXXXXXXXXX.XXXXXXXXXXXXXXXXXXXX......      ",
"XX XXXXXXXXXXX...XXXXXX.XXXXXXXXXXX.X.....      ",
"XXXXXXXXXXXXXX.....XXXXX.XXXX.XXXXX...... .     ",
"XXXXXXXXXXXXXX.... XXXXX.XXX..XXXXXX......      ",
"XXXXXXXXXXXXXXX... XXXXXX.........X..... .      ",
"XXXXXXXXXXXXXXXX.. XXXXXXX........X......       ",
"XXXXXXXXXXXXXXXXX XXXXXXXXX............. .      ",
"XXXXXXXXXXXXXXXXXXXXXXXXXXX.............        ",
"XXXXXXXXXXXXXXXXXXXXXXXXXXXX....... ... .       ",
"oXXXXXXXXXXXXXXXXXXXXXXXXX.X....... .. .       o",
"oXXXXXXXXXXXXXXXXXXXXXXXXXX.X.X..... . .       o",
"oXXXXXX.XXXXXXXXXXXXXXX.X.X.X...... . .        o",
"ooXXX..X.XXXXXXXXXXXXX.XXX.X...... . .        oo",
"ooXXX....XXXXXXXXXX.X.X.X.XX........ .        oo",
"ooX.X....XXXXXXXXXX.X.X.X...... . . .         oo",
"oooX.X...X.XXX.X.X.X.X.XX..... . . .         ooo",
"ooooXXX. .X.X.X.X.X.X....... . . .          oooo",
"oooo......X.X.X.X.X........ . . ..          oooo",
"ooooo................... . . . ..          ooooo",
"oooooo . ............... . . .            oooooo",
"ooooooo . ... . . . . . . . ..           ooooooo",
"oooooooo . . . . ..... . .              oooooooo",
"ooooooooo      . . . . .               ooooooooo",
"oooooooooo                            oooooooooo",
"oooooooooooo                        oooooooooooo",
"ooooooooooooo                      ooooooooooooo",
"oooooooooooooooo                oooooooooooooooo",
"ooooooooooooooooooo          ooooooooooooooooooo"
};
