/* XPM */
static char *result[] = {
/* columns rows colors chars-per-pixel */
"48 48 4 1 ",
"  c #4A5462",
". c #477D85",
"X c #8B93AF",
"o c None",
/* pixels */
"ooooooooooooooooooo.XXXXXXXXXooooooooooooooooooo",
"ooooooooooooooooX...XXXXXXXXXXXXoooooooooooooooo",
"oooooooooooooXXXXXXXXXXXXXXXXX.XXXXooooooooooooo",
"ooooooooooooXXXXXXXXXXXXXXXXXXXXX.X.oooooooooooo",
"ooooooooooXXXXXXXXXXXXXXXXXXXXXXXXX...oooooooooo",
"oooooooooXXXXXXXXXXXXXXXXXXXXXXXXX.X...ooooooooo",
"ooooooooXXXXXXXXXXXXXXXXXXXXXXXXXXX.X.. oooooooo",
"oooooooXXXXXXXXXXXXXXXXXXXXXXXXXXXXXX... ooooooo",
"ooooooXXX..XXXXXXXXXXXXXXXXXXXXXXXXX....  oooooo",
"oooooXXX...XXXXXXXXXXXXXXXXXXXXXXXX.X...   ooooo",
"ooooXXX... XXXXXX...XXXXXXXXXXXXXXXXX.. .   oooo",
"ooooXXX... XXXXXXXXXXXXXXXXXXXXXXXXX.X.. .  oooo",
"oooXXXX.. XXXXXXXXXXXXXXXXXX...XXXXXX... .   ooo",
"ooXXXXXX XXXXXXXXXXXXXXXXXX.....XXXXX....     oo",
"ooXXXXXXXXXXXXXXXXXXXXXXXXX......XXXXX....    oo",
"ooXXXXXXXXXXXXXXXXXXXXXXXXXX.... XXXX.....    oo",
"oXXXXXXXXXXXXXXXXXXXXXXXXXXXX... XXXX.... .    o",
"oXXXXXXXXXXXXXXXXXXXXXXXXXXXXX  XXXX.X....     o",
"o..XXXXXXXXXXXXXXXXXXXXXXXXXXXXXXXXXX.....     o",
".. XXXXXXXXX.XXXXXXXXXXXXXXXXXXXXXX.X......     ",
"X XXXXXXXXXX..XXXXXXXXXXXXXXXXXXXXXX......      ",
"XXXXXXXXXXX....XXXXX.XXXXXXXXXXXXXX.X.....      ",
"XXXXXXXXXXX.... XXXXX.XXXXX.XXXXXXX...... .     ",
"XXXXXXXXXXXX... XXXXX.XXX..XXXXXXXXX......      ",
"XXXXXXXXXXXXX. XXXXXXX......XX.XX.X..... .      ",
"XXXXXXXXXXXXXX XXXXXXX........X.X.X......       ",
"XXXXXXXXXXXXXXXXXXXXXX.........X.X...... .      ",
"XXXXXXXXXXXXXXXXXXXXXX........X.X.......        ",
"XXXXXXXXXXXXXXXXXXXXXXX.........X...... .       ",
"oXXXXXXXXXXXXXXXXXXXXXXX....... ...... .       o",
"oXX.XXXXXXXXXXXXXXXXXXXXX...... .... . .       o",
"oXX..XXXXXXXXXXXXXXXXXX........ ... . .        o",
"ooX...XXXXXXXXXXXXXXXX.X.X.... ..... .        oo",
"ooXX..XXXXXXXXXXXXX.X.XXX.XX...... . .        oo",
"ooX.. XXXXXXXXXXXXX.XXX.X...... . . .         oo",
"oooX. XX.X.XXX.X.X.X.X.XX..... . . .         ooo",
"ooooX.X.X.XXX.X.X.X.X....... . . .          oooo",
"oooo......XXX.X.X.X........ . . ..          oooo",
"ooooo..................... . . ..          ooooo",
"oooooo . ............... . . .            oooooo",
"ooooooo . ... . . . . . . . ..           ooooooo",
"oooooooo . . . ... . . . .              oooooooo",
"ooooooooo      . . . . .               ooooooooo",
"oooooooooo                            oooooooooo",
"oooooooooooo                        oooooooooooo",
"ooooooooooooo                      ooooooooooooo",
"oooooooooooooooo                oooooooooooooooo",
"ooooooooooooooooooo          ooooooooooooooooooo"
};
