/* XPM */
static char *result[] = {
/* columns rows colors chars-per-pixel */
"48 48 4 1 ",
"  c #4A5462",
". c #477D85",
"X c #8B93AF",
"o c None",
/* pixels */
"ooooooooooooooooooo.XXXXXXXXXooooooooooooooooooo",
"ooooooooooooooooXX..XXXXXXXXXXXXoooooooooooooooo",
"oooooooooooooXXXXXXXXXXXXXXXXX.XXXXooooooooooooo",
"ooooooooooooXXXXXXXXXXXXXXXXXXX...X.oooooooooooo",
"ooooooooooXXXXXXXXXXXXXXXXXXXXXXX.X...oooooooooo",
"oooooooooXXXXXXXXXXXXXXXXXXXXXXXXX.X...ooooooooo",
"ooooooooXXXXXXXXXXXXXXXXXXXXXXXXXXX.X.. oooooooo",
"oooooooXXXXXXXXXXXXXXXXXXXXXXXXXXXX.X... ooooooo",
"ooooooXX..XXXXXXXXXXXXXXXXXXXXXXXXXX....  oooooo",
"oooooXX...XXXXXXXXXXXXXXXXXXXXXXXXX.X...   ooooo",
"ooooXXX.. XXXX...XXXXXXXXXXXXXXXXXXXX.. .   oooo",
"ooooXXX. XXXXXXXXXXXXXXXXXXXXXXXXXXX.X.. .  oooo",
"oooXXXX XXXXXXXXXXXXXXXXX...XXXXXX..X... .   ooo",
"ooXXXXXXXXXXXXXXXXXXXXXX.....XXXXX...X...     oo",
"oo.XXXXXXXXXXXXXXXXXXXXX......XXXXX..X.. .    oo",
"oo.XXXXXXXXXXXXXXXXXXXXX...... XXXXXX.....    oo",
"o..XXXXXXXXXXXXXXXXXXXXXX.... XXXXXXX.... .    o",
"o.XXXXXXXXXXXXXXXXXXXXXXXXX  XXXXXXX.X....     o",
"oXXXXXXXXX.XXXXXXXXXXXXXXXXXXXXXXXXXX.....     o",
"XXXXXXXXX..XXXXXXXXXXXXXXXXXXXXXXXX.X......     ",
"XXXXXXXX....XXXXXXXXXXXXXXXXXXXXXXXXX.....      ",
"XXXXXXXX.....XXXX.XXXXXXXXXXXXXXXXX.X.....      ",
"XXXXXXXXX... XXXXX.XXXXX..XXXXXXXXX...... .     ",
"XXXXXXXXXX.. XXXXX.XXXX.XXXXXXXXXX........      ",
"XXXXXXXXXXX XXXXXXX....XXXXXXXXXX....... .      ",
"XXXXXXXXXXXXXXXXXX.....XXX.XXXX.X..... ..       ",
"XXXXXXXXXXXXXXXXXX......X.XXXX.XX.... .. .      ",
"XXXXXXXXXXXXXXXXXX.......XXXXXX.X.......        ",
"XXXXXXXXXXXXXXXXXX..........X.X.X...... .       ",
"oX.XXXXXXXXXXXXXXXX..........X.X........       o",
"oX..XXXXXXXXXXXXXXXX....... X....... . .       o",
"oXX.XXXXXXXXXXXXXXXX....... X...... . .        o",
"ooXXXXXXXXXXXXXXXXX..X..... X..... . .        oo",
"ooX.XXXXXXXXXXXXXXXXX.X... ......... .        oo",
"ooX.XXXXXXXXXXXXXXX.X.X.X...... . . .         oo",
"oooXXX.X.X.XXX.X.X.X.X.XX....... . .         ooo",
"ooooX.X.X.X.X.XXX.X.X....... . . .          oooo",
"oooo......X.X.X.X.X........ . . ..          oooo",
"ooooo................... . . . ..          ooooo",
"oooooo . ............... . . .            oooooo",
"ooooooo . . . . . . . . . . ..           ooooooo",
"oooooooo . . . . . . ... .              oooooooo",
"ooooooooo      . . . . .               ooooooooo",
"oooooooooo                            oooooooooo",
"oooooooooooo                        oooooooooooo",
"ooooooooooooo                      ooooooooooooo",
"oooooooooooooooo                oooooooooooooooo",
"ooooooooooooooooooo          ooooooooooooooooooo"
};
