/* XPM */
static char *result[] = {
/* columns rows colors chars-per-pixel */
"48 48 4 1 ",
"  c #4A5462",
". c #477D85",
"X c #8B93AF",
"o c None",
/* pixels */
"oooooooooooooooooooXXXXXXXXXXooooooooooooooooooo",
"ooooooooooooooooX..XXXXXXXXXXXXXoooooooooooooooo",
"oooooooooooooXXXXXXXXXXXXXXXX.XXXXXooooooooooooo",
"ooooooooooooXXXXXXXXXXXXXXXXXX...XX.oooooooooooo",
"ooooooooooXXXXXXXXXXXXXXXXXXXXX...X...oooooooooo",
"oooooooooXXXXXXXXXXXXXXXXXXXXXXXXX.X...ooooooooo",
"ooooooooXXXXXXXXXXXXXXXXXXXXXXXXXXX.X.. oooooooo",
"oooooooXXXXXXXXXXXXXXXXXXXXXXXXXXXX.X... ooooooo",
"ooooooXX.XXXXXXXXXXXXXXXXXXXXXXXXXXX....  oooooo",
"oooooXX.XXXXXXXXXXXXXXXXXXXXXXXXXXX.X...   ooooo",
"ooooXX. XXXXX..XXXXXXXXXXXXXXXXXXXXXX.. .   oooo",
"ooooXX.XXXXXXXXXXXXXXXXXXXXXXXXXXXXX.X.. .  oooo",
"oooXXXXXXXXXXXXXXXXXXX.XXXXXXXXXXXXXXX.. .   ooo",
"ooXXXXXXXXXXXXXXXXXXX....XXXXXXX.XXXX....     oo",
"ooXXXXXXXXXXXXXXXXXX......XXXXX...XXXX.. .    oo",
"ooXXXXXXXXXXXXXXXXXX.......XXXXX..XXX.....    oo",
"oXXXXXXXXXXXXXXXXXXX...... XXXXXXXXXX.... .    o",
"oXXXXX.XXXXXXXXXXXXXX.... XXXXXXXXXX.X....     o",
"oXXXX..XXXXXXXXXXXXXXXX  XXXXXXXXXXXX.....     o",
"XXXXX...XXXXXXXXXXXXXXXXXXXXXXXXXXX.X......     ",
"XXXXX....XXXXXXXXXXXXXXXXXXXXXXXXXXX......      ",
"XXXXXX.. XXXX.XXXXXXXXXXXXXXXXXXXXXXX.....      ",
"XXXXXXX. XXXXX.XXXXX...XXXXXXXXXXXXX..... .     ",
"XXXXXXXX XXXXX.XXXX.XXXXXXXXXXXXXX.X......      ",
"XXXXXXXXXXXXXXX....XXXXXXXXXXXX...X..... .      ",
"..XXXXXXXXXXXX.... XXXXXXXXXXX....X......       ",
"..XXXXXXXXXXXX..... XX.XXXXXX........... .      ",
"..XXXXXXXXXXXXX.......XXXXXXX...........        ",
"..XXXXXXXXXXXXX..... XXXXXXXX..... .... .       ",
"o.XXXXXXXXXXXXXX..... XXXX.X.X..  .... .       o",
"o.XXXXXXXXXXXXXXX.......X.X.X.X..... ...       o",
"oXXXXXXXXXXXXXXX...... ..XX.X...... . .        o",
"ooXXXXXXXXXXXXXX.X... .X.X.XX....... .        oo",
"ooXXXXXXXXXXXXX.XXX...X.X.XX...... . .        oo",
"ooX.XXXXXXXXXXXXXXXX..X.X...... . . .         oo",
"oooX.XXX.X.X.X.XXX.X...XX..... . . .         ooo",
"ooooX.X.X.X.X.X.X.X.X....... . . .          oooo",
"oooo......X.X.X.X............ . ..          oooo",
"ooooo..................... ... ..          ooooo",
"oooooo . ............... . ...            oooooo",
"ooooooo . . . . . . . . . . ..           ooooooo",
"oooooooo . . ... . . . . .              oooooooo",
"ooooooooo      . . . . .               ooooooooo",
"oooooooooo                            oooooooooo",
"oooooooooooo                        oooooooooooo",
"ooooooooooooo                      ooooooooooooo",
"oooooooooooooooo                oooooooooooooooo",
"ooooooooooooooooooo          ooooooooooooooooooo"
};
