/* XPM */
static char *result[] = {
/* columns rows colors chars-per-pixel */
"48 48 4 1 ",
"  c #4A5462",
". c #477D85",
"X c #8B93AF",
"o c None",
/* pixels */
"oooooooooooooooooooXXXXXXXXXXooooooooooooooooooo",
"ooooooooooooooooXXXXXXXXXXXXXXXXoooooooooooooooo",
"oooooooooooooXXXXXXXXXXXXXXXX.XXXXXooooooooooooo",
"ooooooooooooXXXXXXXXXXXXXXXXXX...XX.oooooooooooo",
"ooooooooooXXXXXXXXXXXXXXXXXXXXX.. X...oooooooooo",
"oooooooooXXXXXXXXXXXXXXXXXXXXXXXXXXX...ooooooooo",
"oooooooo.XXXXXXXXXXXXXXXXXXXXXXXXXXXX.. oooooooo",
"ooooooo..XXXXXXXXXXXXXXXXXXXXXXXXXX.X... ooooooo",
"oooooo..XXXXXXXXXXXXXXXXXXXXXXXXXXXX....  oooooo",
"oooooX.XXXXX..XXXXXXXXXXXXXXXXXXXXX.X...   ooooo",
"ooooXXXXXXXXXXXXXXXXXXXXXXXXXXXXXXXXX.. .   oooo",
"ooooXXXXXXXXXXXXXXXXXXXXXXXXXXXXXXXXXX.. .  oooo",
"oooXXXXXXXXXXXXXXXXX...XXXXXXXXXXXXXX... .   ooo",
"ooXXXXXXXXXXXXXXXXX.....XXXXXX..XXXXX....     oo",
"ooXXXXXXXXXXXXXXXXX......XXXXX...XXXXX.. .    oo",
"ooXXXXXXXXXXXXXXXXX..... XXXXXX..XXXX.....    oo",
"oXXX.XXXXXXXXXXXXXXX.... XXXXXXXXXXXX.... .    o",
"oXX...XXXXXXXXXXXXXXX.  XXXXXXXXXXXX.X....     o",
"oXX...XXXXXXXXXXXXXXXXXXXXXXXXXXXXXXX.....     o",
"XXX.. XXXXXXXXXXXXXXXXXXXXXXXXXXXXXXX......     ",
"XXXX. XXXXX.XXXXXXXXXXXXXXXXXXXXXXXX......      ",
".XXXX XXXXXX.XXXX...XXXXXXXXXXXXXXX.X.....      ",
"XXXXXXXXXXXX.XXX.XXXXXXXXXXXXXXXXXX...... .     ",
".XXXXXXXXXXX....XXXXXXXXXXXXXXXXXX.X......      ",
".XXXXXXXXXX.....XX.XXXXXXXX...XXX....... .      ",
".XXXXXXXXXX.......XXXXXXXX......X........       ",
".XXXXXXXXXX..... XXXXXXXX......X.X...... .      ",
"XXXXXXXXXXXX.... XXXXXXXX...... X.......        ",
"XXXXXXXXXXXX.......XXXXXXX..... X...... .       ",
"oXXXXXXXXXXX......X.XXXXXX..   X...... .       o",
"oXXXXXXXXXXX..... XX.XXXX.X.X.X....... .       o",
"oXXXXXXXXXX.X.... XXXXX.X.X.X........ .        o",
"ooXXXXXXXX.XXX... XXXXXX.X.XX..... . .        oo",
"ooXXXXXXXXXXXXX. XX.XXX.X.XX...... . .        oo",
"ooX.XXXXXXXXXXX.XXX.X.X.X...... . . .         oo",
"oooX.XXX.X.XXX.X.X.X.X.XX..... . . .         ooo",
"ooooX.X.X.X.X...XXX.X....... . . .          oooo",
"oooo......X.X.X.X.X.......... . ..          oooo",
"ooooo................... . . . ..          ooooo",
"oooooo . ............... . . .            oooooo",
"ooooooo . . . . . . . . . . ..           ooooooo",
"oooooooo . . . . ... . . .              oooooooo",
"ooooooooo      . . . . .               ooooooooo",
"oooooooooo                            oooooooooo",
"oooooooooooo                        oooooooooooo",
"ooooooooooooo                      ooooooooooooo",
"oooooooooooooooo                oooooooooooooooo",
"ooooooooooooooooooo          ooooooooooooooooooo"
};
