/* XPM */
static char *result[] = {
/* columns rows colors chars-per-pixel */
"48 48 4 1 ",
"  c #4A5462",
". c #477D85",
"X c #8B93AF",
"o c None",
/* pixels */
"oooooooooooooooooooXXXXXXXXXXooooooooooooooooooo",
"ooooooooooooooooXXXXXXXXXXXXXXXXoooooooooooooooo",
"oooooooooooooXXXXXXXXXXXXXXXXXXXXXXooooooooooooo",
"ooooooooooooXXXXXXXXXXXXXXXX...XXXX.oooooooooooo",
"ooooooooooXXXXXXXXXXXXXXXXXXX...XXX...oooooooooo",
"oooooooooXXXXXXXXXXXXXXXXXXXXXX XX.X...ooooooooo",
"oooooooo..XXXXXXXXXXXXXXXXXXXXXXXXX.X.. oooooooo",
"ooooooo..XXXXXXXXXXXXXXXXXXXXXXXXXXXX... ooooooo",
"oooooo..XXXXXXXXXXXXXXXXXXXXXXXXXXXX....  oooooo",
"oooooXXXXX.XXXXXXXXXXXXXXXXXXXXXXXX.X...   ooooo",
"ooooXXXXXXXXXXXXXXXXXXXXXXXXXXXXXXXXX.. .   oooo",
"ooooXXXXXXXXXXXXXXXXXXXXXXXXXXXXXXXX.X.. .  oooo",
"oooXXXXXXXXXXXXXXX..XXXXXXXXXXXXXXXXX... .   ooo",
"ooXXXXXXXXXXXXXXX....XXXXXXXXXXXXXXXX....     oo",
"ooXXXXXXXXXXXXXX.....XXXXXXXXXXXXXXXXX.. .    oo",
"ooXXXXXXXXXXXXXX..... XXXXX...XXXXXXX.....    oo",
"oXX..XXXXXXXXXXX.... XXXXXX..XXXXXXXX.... .    o",
"oXX..XXXXXXXXXXXX.  XXXXXXX.XXXXXXXX.X....     o",
"oXX. XX.XXXXXXXXXXXXXXXXXXXXXXXXXXXXX.....     o",
"XXX. XXX.XXXX..XXXXXXXXXXXXXXXXXXXXXX......     ",
"XXXX XXX.XXX.XXXXXXXXXXXXXXXXXXXXXXX......      ",
"XXXXXXXX....XXXXXXXXXXXXXXXXXXXXXXX.X.....      ",
"XXXXXXX.....XXXXXXXXXXXXXXXXXXXXXXX...... .     ",
"XXXXXXX.... XX.XXXXXXXXXXXXXXXXXXX.X......      ",
"XXXXXXX.... X.XXXXXXXX...XXXXXXXX.X.......      ",
"XXXXXXXX.....XXXXXXXX.....XXXX..X.X......       ",
"XXXXXXXX.... XXXXXXXX......XXX...X...... .      ",
"XXXXXXXX.... XXXXXXXX..... XXX..........        ",
"XXXXXXX.......XXXXXXXX.... XX.X..........       ",
"oXXXXX.XX......XXXXXXXX.  .X.X.X...... .       o",
"oXXXXXXXXX.. XX.XXXXXXXXX...X.X..... . .       o",
"oXXXXXXXXXX. XXXXXXXXXX.X.X.X...... . .        o",
"ooXXXXXXXXX.XXXXXXXXXX.X.X.XX..... ...        oo",
"ooXXXXXXXX.XXXXXXXXXX.X.X.XX...... . .        oo",
"ooX.XXXXXX.XXXXXXXX.X.X.X...... . . .         oo",
"oooX.X.X.XXX.X.XXX.X.X.XX....... . .         ooo",
"ooooX.X.X.X.X.XXX.X.X....... . . .          oooo",
"oooo......X.X.X.X.X........ . . ..          oooo",
"ooooo................... . . . ..          ooooo",
"oooooo . ............... . . .            oooooo",
"ooooooo . ... . . . . . . . ..           ooooooo",
"oooooooo . . . . . . . . .              oooooooo",
"ooooooooo      . . . ...               ooooooooo",
"oooooooooo                            oooooooooo",
"oooooooooooo                        oooooooooooo",
"ooooooooooooo                      ooooooooooooo",
"oooooooooooooooo                oooooooooooooooo",
"ooooooooooooooooooo          ooooooooooooooooooo"
};
