/* XPM */
static char *result[] = {
/* columns rows colors chars-per-pixel */
"48 48 4 1 ",
"  c #4A5462",
". c #477D85",
"X c #8B93AF",
"o c None",
/* pixels */
"oooooooooooooooooooXXXXXXXXXXooooooooooooooooooo",
"ooooooooooooooooXXXXXXXXXXXXXXXXoooooooooooooooo",
"oooooooooooooXXXXXXXXXXXXXXX.XXXXXXooooooooooooo",
"ooooooooooooXXXXXXXXXXXXXX....XXXXX.oooooooooooo",
"ooooooooooXXXXXXXXXXXXXXXXXX.. XXXX...oooooooooo",
"oooooooooXXXXXXXXXXXXXXXXXXXXX XXX.X...ooooooooo",
"oooooooo.XXXXXXXXXXXXXXXXXXXXXXXXXX.X.. oooooooo",
"ooooooo.XXXXXXXXXXXXXXXXXXXXXXXXXXX.X... ooooooo",
"oooooo.XXXXXXXXXXXXXXXXXXXXXXXXXXXXX....  oooooo",
"oooooXXXXXXXXXXXXXXXXXXXXXXXXXXXXXXXX...   ooooo",
"ooooXXXXXXXXXXXXXXXXXXXXXXXXXXXXXXXXX.. .   oooo",
"ooooXXXXXXXXXXXXXXXXXXXXXXXXXXXXXXXX.X.. .  oooo",
"oooXXXXXXXXXXX....XXXXXXXXXXXXXXXXXXX... .   ooo",
"ooXXXXXXXXXXXX.....XXXXXXXXXXXXXXXXXX....     oo",
"oo.XXXXXXXXXX..... XXXXXXXXXXXXXXXXXXX....    oo",
"oo..XXXXXXXXX.... XXXXXX...XXXXXXXXXX.....    oo",
"oX.XXXXXXXXXX... XXXXXXX..XXXXXXXXXXX.... .    o",
"oXXXXXXXXXXXXX. XXXXXXXX.XXXXXXXXXXX.X....     o",
"oXX.XXXXX..XXXXXXXXXXXXXXXXXXXXXXXXXX.....     o",
"XXXX.XXX.XXXXXXXXXXXXXXXXXXXXXXXXXX.X......     ",
"XXXXX...XXXXXXXXXXXXXXXXXXXXXXXXXXX.......      ",
"XXXXX...XXXXXXXXXXXXXXXXXXXXXXXXXXXX......      ",
"XXXXX...X.XXXXXXXXXXXXXXXXXXXXXXXXX...... .     ",
"XXXXX....XXXXXXXXXXXXXXXXXXXXXXXXXXX......      ",
"XXXXX... XXXXXXXXX...XXXXXXXXXXXX.X..... .      ",
"XXXXX... XXXXXXXX.....XXXXXXXXX.X.X......       ",
"XXXXX.....XXXXXXX.....XXXXXXXX.X.X........      ",
"XXXX.X.....XXXXXX.... XXXX..X.X.X.......        ",
"XXXXXX... X.XXXXX.... XXXX..X.X.X...... .       ",
"oXXXXXX.. XXXXXXXX... XXXX...X.X...... .       o",
"oXXXXXX. XXXXXXXXXX. XXXXXX.X.X....... .       o",
"oXXXXXX.XXXXXXXXXXXXXXX.X.X.X...... . .        o",
"ooXXXX.XXXXXXXXXXXXXXX.X.X.XX..... . .        oo",
"ooXXXXXXXXXXXXXXXXX.X.X.X.XX...... . .        oo",
"ooX.XXXXXXXXXXXXXXX.X.X.X........ . .         oo",
"oooXXX.X.XXX.X.X.X.X.X.XX..... . . .         ooo",
"ooooX.X.X.X.X.X.X.X.X....... . . .          oooo",
"oooo......X.X.X.X.X........ . . ..          oooo",
"ooooo................... . . . ..          ooooo",
"oooooo . ............... . . .            oooooo",
"ooooooo . . . ... . . . . . ..           ooooooo",
"oooooooo . . . . ... . . .              oooooooo",
"ooooooooo      . . . . .               ooooooooo",
"oooooooooo                            oooooooooo",
"oooooooooooo                        oooooooooooo",
"ooooooooooooo                      ooooooooooooo",
"oooooooooooooooo                oooooooooooooooo",
"ooooooooooooooooooo          ooooooooooooooooooo"
};
