/* XPM */
static char *result[] = {
/* columns rows colors chars-per-pixel */
"48 48 4 1 ",
"  c #4A5462",
". c #477D85",
"X c #8B93AF",
"o c None",
/* pixels */
"oooooooooooooooooooXXXXXXXXXXooooooooooooooooooo",
"ooooooooooooooooXXXXXXXXXXXXXXXXoooooooooooooooo",
"oooooooooooooX..XXXXXXXXXXXXXXXXXXXooooooooooooo",
"oooooooooooo.XXXXXXXXXXXXXXXXXXXXXX.oooooooooooo",
"ooooooooooXXXXXXXXXXXXXXXXXXXXXXXXX...oooooooooo",
"oooooooooXXXXXXXXXXXXXXXXXX.XXXXXX.X...ooooooooo",
"ooooooooXXXXX....XXXXXXXXXXX.XXXXXX.X.. oooooooo",
"oooooooXXXXX...  XXXXXXXXXXXXXXXXXX.X... ooooooo",
"ooooooXXXXX..  XXXXXXXXXXXXXXXXXXXXX....  oooooo",
"oooooXXXXX.. XXXXXXXXXXXXXXXXXXXXXX.X...   ooooo",
"ooooXXXXXXXXXXXXXXXXXXXXXXXXXXXXXXXXX.. .   oooo",
"ooooXXXXXXXXXXXXXXXXXXXXXXXXXXXXXXXX.X.. .  oooo",
"oooXXXXXXXXXXXXXXXXXXXXXXXXXXXXXXX.XX... .   ooo",
"ooXXXXX.XXXXXXXXXXXXXXXXXXXXXXXXXX.XXX...     oo",
"ooXXX..XXXX..X.XXXXXXXXXXXXXXXXXXXX..X.. .    oo",
"ooXXXXXXXXXXXXXXXXXXXXXXXXXXXXXXXXX.......    oo",
"oXXXXXXXXXXXXXXXXXXXXXXXXXXXXXXXXXXX..... .    o",
"oX.XXXXXXXXXXXXXXXXXXXXXXXXXXXXXXXXX.X....     o",
"o..XXX...XXXXXXXXXXXXXXXXXXX...XXXXXX.....     o",
"..XXX.....XXXXXXXXXXXXXXXXX.XXXXXXX.X......     ",
"XXXXX.... XXXXXXXXXXXXXXXXX.XXXXXXXXX.....      ",
"XXXX.... XXXXXXXXXXXXXXXXXXXXXXXXXX.X.....      ",
"XXXXX... XXXXXXXXXXXX...XXXXXXXXXXX...... .     ",
"XXXXX..  XXXXXXXXXXX.....XXXXXXXXX.X......      ",
".XXXXX XXXXXXXXXXXXX......XXXXXXX.X..... .      ",
"XXXXXXXXXXXXXXXXXXXX..... XXX...X.X......       ",
"XXXXXXXXXXXXXXXXXXXXX.... XX....XX...... .      ",
"XXXXXXXXXXXXXXXXXXXXXXX  XXX............        ",
"XXXXXX..XXXXXXXXXXXXXXXXXXXX.... ...... .       ",
"oX.XXX..XXXXXXXXXXXXXXXXXX.X... ........       o",
"oX..XX..XXXXXXXXXXXXXXXXX.X.X. ..... . .       o",
"oXX.XXXXXXXXXXXXXXXXXXX.X.X.X...... . .        o",
"ooXX.XXXXXXXXXXXXXXXXX.XXX.XX..... . .        oo",
"ooXXX..XXXXXXXXXXXXXX.X.X.XX........ .        oo",
"ooX.X...XXXXXXXXXXX.X.X.X...... . . .         oo",
"oooX.....X.XXX.X.X.X.X.XX....... . .         ooo",
"ooooX.X.X.X.X.XXX.X.X....... . . .          oooo",
"oooo......X.X.X.X.X........ . . ..          oooo",
"ooooo................... . . . ..          ooooo",
"oooooo . ............... . . .            oooooo",
"ooooooo . . . . . . . . . . ..           ooooooo",
"oooooooo . . . . . . ... .              oooooooo",
"ooooooooo      . . . . .               ooooooooo",
"oooooooooo                            oooooooooo",
"oooooooooooo                        oooooooooooo",
"ooooooooooooo                      ooooooooooooo",
"oooooooooooooooo                oooooooooooooooo",
"ooooooooooooooooooo          ooooooooooooooooooo"
};
