/* XPM */
static char *result[] = {
/* columns rows colors chars-per-pixel */
"48 48 4 1 ",
"  c #4A5462",
". c #477D85",
"X c #8B93AF",
"o c None",
/* pixels */
"oooooooooooooooooooXXXXXXXXXXooooooooooooooooooo",
"ooooooooooooooooXXXXXXXXXXXXXXXXoooooooooooooooo",
"oooooooooooooXXXXXXXXXXXXXX.XXXXXXXooooooooooooo",
"ooooooooooooXXXXXXXXXXXXXX....XXXXX.oooooooooooo",
"ooooooooooXXXXXXXXXXXXXXXXX.. XXXXX...oooooooooo",
"oooooooooXXXXXXXXXXXXXXXXXXX. XXXX.X...ooooooooo",
"ooooooooXXXXXXXXXXXXXXXXXXXXXXXXXXXXX.. oooooooo",
"oooooooXXXXXXXXXXXXXXXXXXXXXXXXXXXXXX... ooooooo",
"ooooooXXXXXXXXXXXXXXXXXXXXXXXXXXXXXX....  oooooo",
"oooooXXXXXXXXXXXXXXXXXXXXXXXXXXXXXX.X...   ooooo",
"ooooXXXXXXXXXXXXXXXXXXXXXXXXXXXXXXXXX.. .   oooo",
"ooooXXXXXXXXX..XXXXXXXXXXXXXXXXXXXXX.X....  oooo",
"ooo.XXXXXXXX...XXXXXXXXXXXXXXXXXXXXXX... .   ooo",
"ooX.XXXXXXX.....XXXXXXXXXXXXXXXXXXXXX....     oo",
"ooXXXXXXXXX.... XXXXXXXXXXXXXXXXXXXXXX.. .    oo",
"ooXXXXXXXXX..  XXXXXX...XXXXXXXXXXXXX.....    oo",
"oXXX.XXXXXX. XXXXXXXX..XXXXXXXXXXXXXX.... .    o",
"oXXXXXX.XXXXXXXXXXXXX.XXXXXXXXXXXXXX.X....     o",
"oXXX.X.XXXXXXXXXXXXXXXXXXXXXXXXXXXXXX.....     o",
"XXXX..XXXXXXXXXXXXXXXXXXXXXXXXXXXXXXX......     ",
"XXX...XXXXXXXXXXXXXXXXXXXXXXXXXXXXXX......      ",
"XXX...X.XXXXXXXXXXXXXXXXXXXXXXX..XXXX.....      ",
"XXX....XXXXXXXXXXXXXXXXXXXXXXXX.XXX...... .     ",
"XXX... XXXXXXXXXXXXXXXXXXXXXXXXXXX.X......      ",
"XXXX. XXXXXXXX...XXXXXXXXXXXXXXXXXX..... .      ",
"XXXX...XXXXXX.....XXXXXXXXXXXXX.X.X......       ",
"XXXX. X.XXXXX.....XXXXXXXXXXXX.X.X........      ",
"XXXX. XXXXXXX.... XXX...XXXXX.X.X.......        ",
"XXXX..XXXXXXXX... XXX...XXXXX.X.X...... .       ",
"oXX.X.XXXXXXXX... XXX.. XX.X.X.X...... .       o",
"oXXXXXXXXXXXXXX. XXXXX. X.X.X.X..... . .       o",
"oXXXXXXXXXXXXXXXXXXXXXX.X.X.X..........        o",
"ooXXXXXXXXXXXXXXXXXXXX.X.X.XX..... . .        oo",
"ooXXXXXXXXXXXXXXXXX.X.X.X.XX...... . .        oo",
"ooX.XXXXXXXXXXXXXXX.X.X.X...... . . .         oo",
"oooX.X.XXXXX.X.X.X.X.X.XX..... . . .         ooo",
"ooooX.X.X...X.X.X.X.X....... . . .          oooo",
"oooo..........X.X.X........ . . ..          oooo",
"ooooo................... . . . ..          ooooo",
"oooooo ................. . . .            oooooo",
"ooooooo . . ... . . . . . . ..           ooooooo",
"oooooooo . ... . . . . . .              oooooooo",
"ooooooooo      . . . . .               ooooooooo",
"oooooooooo                            oooooooooo",
"oooooooooooo                        oooooooooooo",
"ooooooooooooo                      ooooooooooooo",
"oooooooooooooooo                oooooooooooooooo",
"ooooooooooooooooooo          ooooooooooooooooooo"
};
