/* XPM */
static char *result[] = {
/* columns rows colors chars-per-pixel */
"48 48 4 1 ",
"  c #4A5462",
". c #477D85",
"X c #8B93AF",
"o c None",
/* pixels */
"oooooooooooooooooooXXXXXXXXXXooooooooooooooooooo",
"ooooooooooooooooXXXXXXXXXXXXXXXXoooooooooooooooo",
"oooooooooooooXXXXXXXXXXXXXXXXXXXXXXooooooooooooo",
"ooooooooooooXXXXXXXXXXXXXX..XXXXXXX.oooooooooooo",
"ooooooooooXXXXXXXXXXXXXXX....XXXXX....oooooooooo",
"oooooooooXXXXXXXXXXXXXXXX... XXXXX.....ooooooooo",
"ooooooooXXXXXXXXXXXXXXXXXX. XXXXXXXX... oooooooo",
"oooooooXXXXXXXXXXXXXXXXXXXXXXXXXXXX.X... ooooooo",
"ooooooXXXXXXXXXXXXXXXXXXXXXXXXXXXXXX....  oooooo",
"oooooXXXXXXXXXXXXXXXXXXXXXXXXXXXXXX.X...   ooooo",
"ooooXXXXXXXXXXXXXXXXXXXXXXXXXXXXXXXXX.. .   oooo",
"ooooXXXXXXXX..XXXXXXXXXXXXXXXXXXXXXX.X....  oooo",
"ooo.XXXXXX....XXXXXXXXXXXXXXXXXXXXXXX.....   ooo",
"oo..XXXXX.... XXXXXXXXXXXXXXXXXXXXXXX....     oo",
"oo.XXXXXX.... XXXXXXXXXXXXXXXXXXXXXXX... .    oo",
"oo.XXXXXX.. XXXXXX...XXXXXXXXXXXXXXXX.....    oo",
"oXX.XXXXXX XXXXXXX..XXXXXXXXXXXXXXXXX.... .    o",
"oXX.XXXXXXXXXXXXXX.XXXXXXXXXXXXXXXXX.X....     o",
"oXX.X.XXXXXXXXXXXXXXXXXXXXXXXXXXXXXXX.....     o",
"XXX..XXXXXXXXXXXXXXXXXXXXXXXXXXXXXX.X......     ",
"XX....XXXXXXXXXXXXXXXXXXXXXXXXXXXXXX......      ",
"XX.. XXXXXXXXXXXXXXXXXXXXXX.XXXXXXXXX.....      ",
"XX.. XXXXX...XXXXXXXXXXXXXXXXXXXXXX...... .     ",
"XX.. XXXX.....XXXXXXXXXXXXXXXXXXXX.X......      ",
"XXX..XXXX.....XXXXXXXXXXXXXX..XXX.X.......      ",
"XXX.X.XXX.... XXXXXXXXXXXXXXXXX.X.X......       ",
"XX..XXXXXX... XXXX..XXXXXXXXXXXXXX........      ",
"XXX.XXXXXX... XXX....XXXXXXXX.X.X.......        ",
"XXXXXXXXXXX. XXXXX.. XXXXXXXX.X.X...... .       ",
"oXXXXXXXXXXX XXXXXX. XXXXX.X.X.X........       o",
"oXXXXXXXXXXXXXXXXXX XXXXX.X.X.X..... . .       o",
"oXXXXXXXXXXXXXXXXXXXXXX.X.X.X...... . .        o",
"ooXXXXXXXXXXXXXXXXXXXX.X.X.XX..... . .        oo",
"ooXXXXXXXXXXXXXXXXX.X.X.X.XX...... . .        oo",
"ooXXXX..XXXXXXXXXXX.X.X.X...... . . .         oo",
"oooX.X...X.X.X.X.X.X.X.XX..... . . .         ooo",
"ooooX.X...X.X.X.X.X.X....... . . .          oooo",
"oooo......X.X.X.X.X........ . . ..          oooo",
"ooooo................... . . . ..          ooooo",
"oooooo.. ............... . . .            oooooo",
"ooooooo . . ..... . . . . . ..           ooooooo",
"oooooooo . . . . . . . . .              oooooooo",
"ooooooooo      . . . . .               ooooooooo",
"oooooooooo                            oooooooooo",
"oooooooooooo                        oooooooooooo",
"ooooooooooooo                      ooooooooooooo",
"oooooooooooooooo                oooooooooooooooo",
"ooooooooooooooooooo          ooooooooooooooooooo"
};
