/* XPM */
static char *result[] = {
/* columns rows colors chars-per-pixel */
"48 48 4 1 ",
"  c #4A5462",
". c #477D85",
"X c #8B93AF",
"o c None",
/* pixels */
"oooooooooooooooooooXXXXXXXXXXooooooooooooooooooo",
"ooooooooooooooooXXXXXXXXXXXXXXXXoooooooooooooooo",
"oooooooooooooXXXXXXXXXXXXXXXXXXXXXXooooooooooooo",
"ooooooooooooXXXXXXXXXXXXX..XXXXXXXX.oooooooooooo",
"ooooooooooXXXXXXXXXXXXXX....XXXXXX....oooooooooo",
"oooooooooXXXXXXXXXXXXXXX... XXXXXX.....ooooooooo",
"ooooooooXXXXXXXXXXXXXXXXX. XXXXXXXX.... oooooooo",
"oooooooXXXXXXXXXXXXXXXXXXXXXXXXXXXX..... ooooooo",
"ooooooXXXXXXXXXXXXXXXXXXXXXXXXXXXXXX....  oooooo",
"oooooXXXXXXXXXXXXXXXXXXXXXXXXXXXXXXXX...   ooooo",
"ooooXXXXXX.XXXXXXXXXXXXXXXXXXXXXXXXXX.. .   oooo",
"ooooXXXX....XXXXXXXXXXXXXXXXXXXXXXXX.X.. .  oooo",
"oooXXXX....XXXXXXXXXXXXXXXXXXXXXXXXXX... .   ooo",
"ooXXXXX.   XXXXXXXXXXXXXXXXXXXXXXXXXX....     oo",
"ooXXXXX.XXXXXXX..XXXXXXXXXXXXXXXXXXX......    oo",
"ooXXXXXXXXXXXXX...XXXXXXXXXXXXXXXXX.......    oo",
"o.XXXXXXXXXXXXXXXXXXXXXXXXXXXXXXXXXXX.... .    o",
"o.X.XXXXXXXXXXXXXXXXXXXXXXXXXXXXXXXX.X....     o",
"o...XXXXXXXXXXXXXXXXXXXXXXXXXXXXXXXX......     o",
"X..XXXXXXXXXXXXXXXXXXXXXXXXXXXXXXXX.X......     ",
"X..XXXXXXXXXXXXXXXXXXXXXXXXXXXXXXXXX......      ",
"X...XXX..XXXXXXXXXXXXXXX.XXXXXXXXXXXX.....      ",
"X...XX....XXXXXXXXXXXXXXXXXXXXXXXXX...... .     ",
"X..XXX.....XXXXXXXXXXXXXXXXXXXXXXX.X......      ",
"XXX.XXX... XXXXXXXXXXXXX.XXXXXXXX.X..... .      ",
"X.XXXXX.. XXXXXXXXXXXXXXXXXXXXXXX.X......       ",
"XXXXXXXX. XXX..XXXXXXXXXXXXXXX.X.X........      ",
"XXXXXXXX.XXX....XXXXXXXXXXXXX.X.X.......        ",
"XXXXXXXXXXXXX.. XXXXXXXXXXXXX.X.X........       ",
"oXXXXXXXXXXXXX. XXXXXXXXXXXX.X.X...... .       o",
"oXXXXXXXXXXXXXX XXXXXXXXX.X.X.X..... . .       o",
"oXXXXXXXXXXXXXXXXXXXXXX.X.X.X...... . .        o",
"ooX..XXXXXXXXXXXXXXXXX.X.X.XX..... . .        oo",
"ooXX.XXXXXXXXXXXXXX.X.X.X.XX...... . .        oo",
"ooX..XXXXXXXXXXXXXX.X.X.X........ . .         oo",
"oooX...X.XXX.X.X.X.X.X.XX....... . .         ooo",
"ooooX.X.X.X.XXX.X.X.X....... . . .          oooo",
"oooo......X.X.X.X.X........ . . ..          oooo",
"ooooo................... . . . ..          ooooo",
"oooooo . ............... . . .            oooooo",
"ooooooo ... . ... . . . . . ..           ooooooo",
"oooooooo . . . . . . . . .              oooooooo",
"ooooooooo      . . . . .               ooooooooo",
"oooooooooo                            oooooooooo",
"oooooooooooo                        oooooooooooo",
"ooooooooooooo                      ooooooooooooo",
"oooooooooooooooo                oooooooooooooooo",
"ooooooooooooooooooo          ooooooooooooooooooo"
};
