/* XPM */
static char *result[] = {
/* columns rows colors chars-per-pixel */
"48 48 4 1 ",
"  c #4A5462",
". c #477D85",
"X c #8B93AF",
"o c None",
/* pixels */
"oooooooooooooooooooXXXXXXXXXXooooooooooooooooooo",
"ooooooooooooooooXXXXXXXXXXXXXXXXoooooooooooooooo",
"oooooooooooooXXXXXXXXXXXXXXXXXXXXXXooooooooooooo",
"ooooooooooooXXXXXXXXXXXX..XXXXXXXXX.oooooooooooo",
"ooooooooooXXXXXXXXXXXXX...XXXXXXX.....oooooooooo",
"oooooooooXXXXXXXXXXXXX... XXXXXXXX.....ooooooooo",
"ooooooooXXXXXXXXXXXXXX.  XXXXXXXX...... oooooooo",
"oooooooXXXXXXXXXXXXXXXXXXXXXXXXXXX...... ooooooo",
"ooooooXXXXXXXXXXXXXXXXXXXXXXXXXXXXX. ...  oooooo",
"oooooXXXX.XXXXXXXXXXXXXXXXXXXXXXXXX X...   ooooo",
"ooooXXX....XXXXXXXXXXXXXXXXXXXXXXXXXX.. .   oooo",
"ooooXXX.. XXXXXXXXXXXXXXXXXXXXXXXXXX.X.. .  oooo",
"ooo.XXX. XXXXXXXXXXXXXXXXXXXXXXXXXXXX.....   ooo",
"ooXXXXX XXXXX.XXXXXXXXXXXXXXXXXXXXXXX....     oo",
"oo..XXXXXXXXX..XXXXXXXXXXXXXXXXXXXXXXX.. .    oo",
"oo.XXXXXXXXX..XXXXXXXXXXXXXXXXX..XXXX.....    oo",
"o..XXXXXXXXXXXXXXXXXXXXXXXXXXXX...XXX.... .    o",
"o..XXXXXXXXXXXXXXXXXXXXXXXXXXXXX..XX.X....     o",
"o..XXXXXXXXXXXXXXXXXXXXXXXXXXXXXXXXXX.....     o",
"X.XXXXXXXXXXXXXXXXXXXXXXXXXXXXXXX.XXX......     ",
"X.XXX..XXXXXXXXXXXXXXXXXXXXXXXXXX.XX......      ",
"X.XX...XXXXXXXXXXXXXXXXXXXXXXXXXXXX.X.....      ",
"X.XX....XXXXXXXXXXXXXXXXXXXXXXXXXXX...... .     ",
"XXXX... XXXXXXXXXXXXXXXXXXXXXXXXXXXX......      ",
"XXXX.  XXX.XXXXXXXX...XXXXXXXXXXX.X.......      ",
"XXXXXXXXX..XXXXXXXXXXXXXXXXXXXX.X.X......       ",
"XXXXXXXXX...XXXXXXXXXXXXXXXXXX.X.X...... .      ",
"XXXXXXXXX...XXXXXXXXXXXXXXXXX.XXX.......        ",
"XXXXXXXXXX. XXXXXXXXXXXXXXXXX.X.X...... .       ",
"oX.XXXXXXXX XXXXXXXXXXXXXX.X.X.X...... .       o",
"oX.XXXXXXXXXXXXXXXXXXXXXXXX.X.X..... . .       o",
"oXXXXXXXXXXXXXXXXXXXXXX.X.X.X...... . .        o",
"ooXXXXXXXXXXXXXXXXXXXX.X.X.XX....... .        oo",
"ooX.XXXXXXXXXXXXXXX.X.X.X.XX...... . .        oo",
"ooX.XXXXXXXXXXXXXXX.X.X.......... . .         oo",
"oooX.XXX.X.X.X.X.X.X.X........ . . .         ooo",
"ooooX.X.X.X.X.X.X.X.X....... . . .          oooo",
"oooo......X.X.X.XXX........ . . ..          oooo",
"ooooo..................... . . ..          ooooo",
"oooooo . ............... . . .            oooooo",
"ooooooo . . . ... . ... . . ..           ooooooo",
"oooooooo . . . . . ... . .              oooooooo",
"ooooooooo      . . . . .               ooooooooo",
"oooooooooo                            oooooooooo",
"oooooooooooo                        oooooooooooo",
"ooooooooooooo                      ooooooooooooo",
"oooooooooooooooo                oooooooooooooooo",
"ooooooooooooooooooo          ooooooooooooooooooo"
};
