/* XPM */
static char *result[] = {
/* columns rows colors chars-per-pixel */
"48 48 4 1 ",
"  c #4A5462",
". c #477D85",
"X c #8B93AF",
"o c None",
/* pixels */
"oooooooooooooooooooXXXXXXXXXXooooooooooooooooooo",
"ooooooooooooooooXXXXXXXXXXXXXXXXoooooooooooooooo",
"oooooooooooooXXXXXXXXXXXXXXXXXXXXXXooooooooooooo",
"ooooooooooooXXXXXXXXXXX..XXXXXXXXXX.oooooooooooo",
"ooooooooooXXXXXXXXXXXX..XXXXXXXXXXX...oooooooooo",
"oooooooooXXXXXXXXXXXX.. XXXXXXXX...X...ooooooooo",
"ooooooooXXXXXXXXXXXXX. XXXXXXXXXX...X.. oooooooo",
"oooooooXXXXXXXXXXXXXXXXXXXXXXXXX....X... ooooooo",
"ooooooXXXXXXXXXXXXXXXXXXXXXXXXXX.... ...  oooooo",
"oooooXX..XXXXXXXXXXXXXXXXXXXXXXXXX  X...   ooooo",
"ooooXXX. XXXXXXXXXXXXXXXXXXXXXXXXXXXX....   oooo",
"ooooXX. XXXXXXXXXXXXXXXXXXXXXXXXXXXX.X....  oooo",
"oooXXX.XXXXXXXXXXXXXXXXXXXXXXXXXXXXXX... .   ooo",
"oo.XXXXXXXX.XXXXXXXXXXXXXXXXXXXXXXXXX....     oo",
"oo.XXXXXXX.XXXXXXXXXXXXXXXXXXXXXXXXXX... .    oo",
"oo.XXXXXXXXXXXXXXXXXXXXXXXXXXXXXXXXXX.....    oo",
"o..XXXXXXXXXXXXXXXXXXXXXXXXX..XXXXXXX......    o",
"o.XXXXXXXXXXXXXXXXXXXXXXXXXX...XXXXX......     o",
"o.X.XXXXXXXXXXXXXXXXXXXXXXXXX..XXXXXX.....     o",
".XX..XXXXXXXXXXXXXXXXXXXXXXXXXXXXXX.X......     ",
"XXX..XXXXXXXXXXXXXXXXXXXXXXXX..XXXXX......      ",
"XX.. XXXXXXXXXXXXXXXXXXXXXXXXXXXXXX.X.....      ",
"XX.. XX.XXXXXXXXXXXXXXXXXXXXXXXXXXX...... .     ",
"XXX XXX.XXXXXXXXXXXXXXXXXXXXXXXXXX.X......      ",
"XXXXXX..XXXXXXXX..XXXXXXXXXXXXXXX.X.......      ",
"XXXXXX. XXXXXXXXXXXXXXXXXXXXXXXXX.X......       ",
"X.XXXXX XXXXXXXXXXXXXXXXXXXXXXXX.X...... .      ",
"..XXXXXXXXXXXXXXXXXXXXXXXXXXX.X.X.......        ",
"..XXXXXXXXXXXXXXXXXXXXXXXXXXX.X.X...... .       ",
"o.XXXXXXXXXXXXXXXXXXXXXXXX.X.X.X...... .       o",
"o.XXXXXXXXXXXXXXXXXXXXXXX.X.X.X..... . .       o",
"oXXXXXXXXXXXXXXXXXXXXXX.X.X.X........ .        o",
"ooXXXXXXXXXXXXXXXXXXXXXX.X.XX..... . .        oo",
"ooXXXXXXXXXXXXXXXXX.X.X.X.XX...... . .        oo",
"ooX.XXXXXXXXXXXXX.....X.X...... . . .         oo",
"oooX.X.X.X.X.X.X.......XX..... . . .         ooo",
"ooooX.X.X.X.XXX............. . . .          oooo",
"oooo......X.X.X.X....  ...... . ..          oooo",
"ooooo............... ... ... . ..          ooooo",
"oooooo . ............... . . .            oooooo",
"ooooooo . ... . ... . . . . ..           ooooooo",
"oooooooo . . . . . . ... .              oooooooo",
"ooooooooo      . . . . .               ooooooooo",
"oooooooooo                            oooooooooo",
"oooooooooooo                        oooooooooooo",
"ooooooooooooo                      ooooooooooooo",
"oooooooooooooooo                oooooooooooooooo",
"ooooooooooooooooooo          ooooooooooooooooooo"
};
