/* XPM */
static char *result[] = {
/* columns rows colors chars-per-pixel */
"48 48 4 1 ",
"  c #4A5462",
". c #477D85",
"X c #8B93AF",
"o c None",
/* pixels */
"oooooooooooooooooooXXXXXXXXXXooooooooooooooooooo",
"ooooooooooooooooXXXXXXXXXXXXXXXXoooooooooooooooo",
"oooooooooooooXXXXXXXXXXXXXXXXXXXX..ooooooooooooo",
"ooooooooooooXXXXXXXXX...XXXXXXXXXXX.oooooooooooo",
"ooooooooooXXXXXXXXXX...XXXXXXXXXXXX...oooooooooo",
"oooooooooXXXXXXXXXX... XXXXXXXXXX......ooooooooo",
"ooooooooXXXXXXXXXXX  XXXXXXXXXXX....... oooooooo",
"oooooooXXXXXXXXXXXXXXXXXXXXXXXX.....X... ooooooo",
"ooooooXXXXXXXXXXXXXXXXXXXXXXXXX..  X....  oooooo",
"oooooXX.XXXXXXXXXXXXXXXXXXXXXXXX XX.X...   ooooo",
"ooooXX..XXXXXXXXXXXXXXXXXXXXXXXXXXXXX.. .   oooo",
"ooooXXXXXXXXXXXXXXXXXXXXXXXXXXXXXXXX.X.. .  oooo",
"oooXXXXXX.XXXXXXXXXXXXXXXXXXXXXXXXXXX... .   ooo",
"oo.XXXXX..XXXXXXXXXXXXXXXXXXXXXXXXXXX....     oo",
"oo.XXXXXXXXXXXXXXXXXXXXXXXXXXXXXXXXXXX.. .    oo",
"ooXXXXXXXXXXXXXXXXXXXXXXXXXXXXXXXX.XX.....    oo",
"oXXXXXXXXXXXXXXXXXXXXXXXX..XXXXXXXXXX.... .    o",
"oXX.XXXXXXXXXXXXXXXXXXXXX..XXXXXXXXX.X.....    o",
"oX..XXXXXXXXXXXXXXXXXXXXX..XXXXXXX..X.....     o",
"XX..XXXXXXXXXXXXXXXXXXXXXXXXXXXXXXX.X......     ",
"XX.XXXXXXXXXXXXXXXXXXXXXXXXXXXXXXXXX......      ",
"XX.XX.XXXXXXXXXXXXXXXXXXX..XXXXXXXX.X.....      ",
"XXXX..XXXXXX.XXXXXXXXXXXXXXXXXXXXXX...... .     ",
"XXXX.XXXXXXX.XXXXXXXXXXXXXXXXXXXXX.X......      ",
"XXXX.XXXXXXXXXXXXXXXXXXXXXXXXXXXX.X..... .      ",
"XXXXXXXXXXXXXXXXXXXXXXXXXXXXXXX...X......       ",
"XXXXXXXXXXXXXXXXXXXXXXXXXXXXXX............      ",
"XXXXXXXXXXXXXXXXXXXXXXXXXXXXXX...........       ",
"XXXXXXXXXXXXXXXXXXXXXXXXXXXXX.X..... .. .       ",
"oXXXXXXXXXXXXXXXXXXXXXXXXX.X.X..... .. .       o",
"oXXXXXXXXXXXXXXXXXXXXXXXX.X.X.X..... . .       o",
"oXXXXXXXXXXXXXXXXXXXXXX.X.X.X........ .        o",
"ooXXXXXXXXXXXXXXXXXXXXXX.X.XX..... . .        oo",
"ooXXXXXXXXXXX...XXXXX.XXX.XX...... . .        oo",
"ooX.XXXXXXX.......X.X.XXX...... . . .         oo",
"oooX.X.X.X.........X.X.XX..... . . .         ooo",
"ooooX.X.XXX.......X.X....... ... .          oooo",
"oooo......X.....  X........ . . ..          oooo",
"ooooo.......... ........ . . . ..          ooooo",
"oooooo.. ................. . .            oooooo",
"ooooooo . ... . . . ... . . ..           ooooooo",
"oooooooo . . . . . . . . .              oooooooo",
"ooooooooo      . . . . .               ooooooooo",
"oooooooooo                            oooooooooo",
"oooooooooooo                        oooooooooooo",
"ooooooooooooo                      ooooooooooooo",
"oooooooooooooooo                oooooooooooooooo",
"ooooooooooooooooooo          ooooooooooooooooooo"
};
