/* XPM */
static char *result[] = {
/* columns rows colors chars-per-pixel */
"48 48 4 1 ",
"  c #4A5462",
". c #477D85",
"X c #8B93AF",
"o c None",
/* pixels */
"oooooooooooooooooooXXXXXXXXXXooooooooooooooooooo",
"ooooooooooooooooXXXXXXXXXXXXXXXXoooooooooooooooo",
"oooooooooooooXXXXXXXXXXXXXXXXXXXXXXooooooooooooo",
"ooooooooooooXXXXXXXX...XXXXXXXXXXX..oooooooooooo",
"ooooooooooXXXXXXXXX...XXXXXXXXXXXXX...oooooooooo",
"oooooooooXXXXXXXXX... XXXXXXXXX....X...ooooooooo",
"ooooooooXXXXXXXXXX  XXXXXXXXX.... X.X.. oooooooo",
"oooooooXXXXXXXXXXXXXXXXXXXXXX... XX.X... ooooooo",
"oooooo..XXXXXXXXXXXXXXXXXXXX... XXXX....  oooooo",
"oooooX.XXXXXXXXXXXXXXXXXXXXX.  XXXX.X...   ooooo",
"ooooXX.X.XXXXXXXXXXXXXXXXXXXXXXXXXXXX.. .   oooo",
"ooooXXXX..XXXXXXXXXXXXXXXXXXXXXXXXXX.X.. .  oooo",
"oooXXXX..XXXXXXXXXXXXXXXXXXXXXXXXXXXX... .   ooo",
"ooXXXXXXXXXXXXXXXXXXXXXXXXXXXXXXXXXXX....     oo",
"ooXXXXXXXXXXXXXXXXXXXXXXXXXXXXXXXXXXXX.. .    oo",
"ooX.XXXXXXXXXXXXXXXXXXXXXXXXXXXXXXXXX.....    oo",
"oX.XXXXXXXXXXXXXXXXXXX..XXXXXXXXXXXXX.... .    o",
"oX.XXXXXXXXXXXXXXXXXXX..XXXXXXX..XXX.X....     o",
"o.XX.XXXXXXXXXXXXXXXXX..XXXXXXX..XXXX......    o",
"XXX..XXXXXXXXXXXXXXXXXXXXXXXXXXXXXX.X.....      ",
"XXX.XXXXX.XXXXXXXXXXXXXXXXXXXXXXXXXX.....       ",
"XX.XXXXXX.XXXXXXXXXXXX..XXXXXXXXXXX......       ",
"XXXXXXXXXXXXXXXXXXXXXXXXXXXXXXXXXXX...... .     ",
"XXXXXXXXXXXXXXXXXXXXXXXXXXXXXXXXXX.X......      ",
"XXXXXXXXXXXXXXXXXXXXXXXXXXXXXXXXXXX..... .      ",
"XXXXXXXXXXXXXXXXXXXXXXXXXXX.XXX.X.X.......      ",
"XXXXXXXXXXXXXXXXXXXXXXXXXX...X.X.X...... .      ",
"XXXXXXXXXXXXXXXXXXXXXXXXX.......X.......        ",
"XXXXXXXXXXXXXXXXXXXXXXXXXX......X...... .       ",
"oXXXXXXXXXXXXXXXXXXXXXXXXX..... ...... .       o",
"oXXXXXXXXXXXXXXXXXXXXXXXX...... .... . .       o",
"oXXXXXXXXXXXXXXXXXXXXXX.X..... .... ...        o",
"ooXXXXXX....XXXXXXXXXX.X.X.......... .        oo",
"ooXXXXXX.....XXXXXX.X.X.X.XX...... . .        oo",
"ooX.XXX.......XXXXX.X.X.X...... . . .         oo",
"oooX.X.X.... X.X.X.X.X.XX..... . . .         ooo",
"ooooX.X..... .X.XXX.X....... . . .          oooo",
"oooo....... ..X.X.X........ ... ..          oooo",
"ooooo..................... . . ..          ooooo",
"oooooo . ............... . . .            oooooo",
"ooooooo ... . . ... . . . . ..           ooooooo",
"oooooooo . . . . . ... . .              oooooooo",
"ooooooooo      . . . . .               ooooooooo",
"oooooooooo                            oooooooooo",
"oooooooooooo                        oooooooooooo",
"ooooooooooooo                      ooooooooooooo",
"oooooooooooooooo                oooooooooooooooo",
"ooooooooooooooooooo          ooooooooooooooooooo"
};
