/* XPM */
static char *result[] = {
/* columns rows colors chars-per-pixel */
"48 48 4 1 ",
"  c #4A5462",
". c #477D85",
"X c #8B93AF",
"o c None",
/* pixels */
"oooooooooooooooooooXXXXXXXXXXooooooooooooooooooo",
"ooooooooooooooooXXXXXXXXXXXXXXXXoooooooooooooooo",
"oooooooooooooXXXXXXXXXXXXXXXXXXXXXXooooooooooooo",
"ooooooooooooXXXXXXX.. XXXXXXXXXXXXX.oooooooooooo",
"ooooooooooXXXXXXXX.. XXXXXXXXXXXXXX...oooooooooo",
"oooooooooXXXXXXX..  XXXXXXXXXXXXXX.X...ooooooooo",
"ooooooooXXXXXXXXXXXXXXXXXXXXX....XX.X.. oooooooo",
"ooooooo.XXXXXXXXXXXXXXXXXXXX... XXX.X... ooooooo",
"oooooo..XXXXXXXXXXXXXXXXXXX... XXXXX....  oooooo",
"ooooo..XXXXXXXXXXXXXXXXXXXX.  XXXXXXX...   ooooo",
"ooooXXX.XXXXXXXXXXXXXXXXXXX.XXXXXXXXX.. .   oooo",
"ooooXX.XXXXXXXXXXXXXXXXXXXXXXXXXXXX..X.. .  oooo",
"oooXXXXXXXXXXXXXXXXXXXXXXXXXXXXXXXX.X.....   ooo",
"ooXXXXXXXXXXXXXXXXXXXXXXXXXXXXXXXXX.X....     oo",
"oo..XXXXXXXXXXXXXXXXXXXXXXXXXXXXXXXXXX.. .    oo",
"oo.XXXXXXXXXXXXXXXXXXXXXXXXXXXXXXXXXX.....    oo",
"o.XXXXXXXXXXXXXXXX.XXXXXXXXXXXXXXXXXX.... .    o",
"o.XXXXXXXXXXXXXXXX..XXXXXXXXXXXXXXXX.X....     o",
"oXXXXXXXXXXXXXXXXX..XXXXXXXX..XXXXXXX.....     o",
"XX.XXXX.XXXXXXXXXXXXXXXXXXXX..XXXXX........     ",
"XXXXXX.XXXXXXXXXXXXXXXXXXXXXXXXXXX...... .      ",
"XXXXXXXXXXXXXXXXXXX.XXXXXXXXXXXXX....... .      ",
"XXXXXXXXXXXXXXXXXXXXXXXXXXXXXXXXX...... . .     ",
"XXXXXXXXXXXXXXXXXXXXXXXXXXXXXXXXX..... ...      ",
"XXXXXXXXXXXXXXXXXXXXXXXXXXXXXXXXX....... .      ",
"XXXXXXXXXXXXXXXXXXXXXXXXXXXXXXX.X.X......       ",
"XXXXXXXXXXXXXXXXXXXXXXXXXXXXXX.X.X...... .      ",
"XXXXXXXXXXXXXXXXXXXXX......XXXX.X.......        ",
"XXXXXXXXXXXXXXXXXXXXX......XX.X.X........       ",
"oXXXXXXXXXXXXXXXXXXXXX.... X.X.X...... .       o",
"oXXX...XXXXXXXXXXXXXX.... X.X.X..... . .       o",
"oXXX.....XXXXXXXXXXXX.... X.X...... . .        o",
"ooXX.....XXXXXXXXXXXXX.  X.XX..... . .        oo",
"ooXXX... XXXXXXXXXXXX.X.X.XX...... . .        oo",
"ooX.X... XXXXXXXXXX.X.X.X...... . . .         oo",
"oooX.X. .X.X.X.X.X.X.X.XX..... . . .         ooo",
"ooooX.X.X.XXX.X.X.X.X....... . . .          oooo",
"oooo......X.X.X.X.X........ . . ..          oooo",
"ooooo................... . ... ..          ooooo",
"oooooo . ............... ... .            oooooo",
"ooooooo . ... . ... . . . . ..           ooooooo",
"oooooooo . . . ... . . . .              oooooooo",
"ooooooooo      ... . . .               ooooooooo",
"oooooooooo                            oooooooooo",
"oooooooooooo                        oooooooooooo",
"ooooooooooooo                      ooooooooooooo",
"oooooooooooooooo                oooooooooooooooo",
"ooooooooooooooooooo          ooooooooooooooooooo"
};
