/* XPM */
static char *result[] = {
/* columns rows colors chars-per-pixel */
"48 48 4 1 ",
"  c #4A5462",
". c #477D85",
"X c #8B93AF",
"o c None",
/* pixels */
"oooooooooooooooooooXXXXXXXXXXooooooooooooooooooo",
"ooooooooooooooooXXXXXXXXXXXXXXXXoooooooooooooooo",
"oooooooooooooXXXXXXXXXXXXXXXXXXXXXXooooooooooooo",
"ooooooooooooXXXXXX...XXXXXXXXXXXX.X.oooooooooooo",
"ooooooooooXXXXXXX.. XXXXXXXXXXXXXXX...oooooooooo",
"oooooooooXXXXXX.. XXXXXXXXXXXXXXXX.X...ooooooooo",
"ooooooooXXXXXXXX XXXXXXXXXX..XXXXXX.X.. oooooooo",
"oooooooXXXXXXXXXXXXXXXXXXX....XXXXX.X... ooooooo",
"ooooooXXXXXXXXXXXXXXXXXXX.... XXXXXX....  oooooo",
"oooooXX.XXXXXXXXXXXXXXXX.... XXXXXX.X...   ooooo",
"ooooXX.XXXXXXXXXXXXXXXXX... XXXXXXXXX.. .   oooo",
"ooooXXXXXXXXXXXXXXXXXXXX.  XXXXXXXXX.X.. .  oooo",
"oooXXXXXXXXXXXXXXXXXXXXXXXXXXXXXX.XXX... .   ooo",
"oo.XXXXXXXXXXXXXXXXXXXXXXXXXXXXXX.XXX....     oo",
"ooXXXXXXXXXXXXXXXXXXXXXXXXXXXXXXX.XXXX.. .    oo",
"ooXXXXXXXXXXXXXXXXXXXXXXXXXXXXXXXXXXX.....    oo",
"oXXXXX.XXXXXXXX.XXXXXXXXXXXXXXXXXXXXX.... .    o",
"oX.XXXXXXXXXXXX.XXXXXXXXXXXXXXXXXXXX.X....     o",
"o.XXXXXXXXXXXXXX..XXXXXXX..XXXXXXXXXX.....     o",
"XXXXXXXXXXXXXXX.XXXXXXXX.XXXXXXXX.X.X......     ",
"XXXXXXXXXXXXXXX.XXXXXXXX.XXXXXXX...X......      ",
"XXXXXXXXXXXXXXXXXXXXXXXXXXXXXX......X.....      ",
"XXXXXXXXXXXXXXXXXXXXXXXXXXXXX............ .     ",
"XXXXXXXXXXXXXXXXXXXXXXXXXXXX........ .....      ",
"XXXXXXXXXXXXXXXXXXXXXXXXXXXX........ ... .      ",
"XXXXXXXXXXXXXXXXXXXXXXXXXXXXX...... .....       ",
"XXXXXXXXXXXXXXXXXXXXXXXXXXXXXX.... ..... .      ",
"XX.XXXXXXXXXXXXXXX... XXXXXXX.X.........        ",
"XX..XXXXXXXXXXXXXX... XXXXXXXXX.X........       ",
"oX...XXXXXXXXXXXX.... XXXX.X.X.X...... .       o",
"oXX...XXXXXXXXXX.... XXXX.X.X.X..... . .       o",
"oXX. XXXXXXXXXXXX... XX.X.X.X...... . .        o",
"ooXX XXXXXXXXXXXXX.. X.X.X.XX..... ...        oo",
"ooXX XXXXXXXXXXXXXX.X.X.X.XX...... . .        oo",
"ooX.XXXXXXXXXXXXXXX.X.X.X...... . . .         oo",
"oooX.XXX.X.X.X.X.X.X.X.XX....... . .         ooo",
"ooooX.X.X.X.XXXXX.X.X....... . . .          oooo",
"oooo......X.X.X.X.X........ ... ..          oooo",
"ooooo................... . . . ..          ooooo",
"oooooo . ............... . . .            oooooo",
"ooooooo . . . . ... . . . . ..           ooooooo",
"oooooooo ... . . . . . . .              oooooooo",
"ooooooooo      . . . . .               ooooooooo",
"oooooooooo                            oooooooooo",
"oooooooooooo                        oooooooooooo",
"ooooooooooooo                      ooooooooooooo",
"oooooooooooooooo                oooooooooooooooo",
"ooooooooooooooooooo          ooooooooooooooooooo"
};
