/* XPM */
static char *result[] = {
/* columns rows colors chars-per-pixel */
"48 48 4 1 ",
"  c #4A5462",
". c #477D85",
"X c #8B93AF",
"o c None",
/* pixels */
"oooooooooooooooooooXXXXXXXXXXooooooooooooooooooo",
"ooooooooooooooooXXXXXXXXXXXXXXXXoooooooooooooooo",
"oooooooooooooXXXXXXXXXXXXXXXXXXXXXXooooooooooooo",
"ooooooooooooXXXXX..XXXXXXXXXXXXX.XX.oooooooooooo",
"ooooooooooXXXXX... XXXXXXXXXXXXXXX....oooooooooo",
"oooooooooXXXXX.. XXXXXXXXXXXXXXXXX.X...ooooooooo",
"ooooooooXXXXXXXXXXXXXXXXX...XXXXXXXXX.. oooooooo",
"oooooooXXXXXXXXXXXXXXXXX... XXXXXXXXX... ooooooo",
"ooooooXXXXXXXXXXXXXXXXX... XXXXXXXXX....  oooooo",
"oooooXXXXXXXXXXXXXXXXX.... XXXXXXXX.X...   ooooo",
"ooooXXXXXXXXXXXXXXXXXX... XXXXXXXXXXX.. .   oooo",
"ooooXXXXXXXXXXXXXXXXXX.  XXXXXXXXXXX.X....  oooo",
"oooXXXXXXXXXXXXXXXXXXXXXXXXXXXXXXXXXX... .   ooo",
"ooXXXXXXXXXXXXXXXXXXXXXXXXXXXX.XXXXXX....     oo",
"ooXXXXXXXXXXXXXXXXXXXXXXXXXXXX..XXXXXX.. .    oo",
"ooXX..XXXXXX..XXXXXXXXXXXXXXXX...XXXX.....    oo",
"oXXX.XXXXXXXX.XXXXXXXXXXXXXXXXXXXXXXX.... .    o",
"oXX.XXXXXXXXX..XXXXXXXXXXXXXXXXXXXXX.X.....    o",
"oXXXXXXXXXXX..XXXXXXXX..XXXXXXXXXXXXX.....     o",
"XXXXXXXXXXXXXXXXXXXXX.XXXXXXXXXXXXX.X......     ",
"XXXXXXXXXXXXXXXXXXXXX.XXXXXXXXXXXXXX......      ",
"XXXXXXXXXXXXXXXXXXXXXXXXXXXX..XXXXX.X.....      ",
"XXXXXXXXXXXXXXXXXXXXXXXXXXX......XX...... .     ",
"XXXXXXXXXXXXXXXXXXXXXXXXXX.......X.X......      ",
"XXXXXXXXXXXXXXXXXXXXXXXXXX........ ..... .      ",
"XX.XXXXXXXXXXXX..XXXXXXXX....... .X......       ",
"XX.XXXXXXXXXXX....XXXXXXX...... .X...... .      ",
"XX.XXXXXXXXXX.... XXXXXXX..... .X.......        ",
"XX.XXXXXXXXX.... XXXXXXXXX....X.X...... .       ",
"oX.XXXXXXXXX... XXXXXXXXXX... .X........       o",
"oX.XXXXXXXXX.  XXXXXXXXXX.X.X.X..... . .       o",
"oXXXXXXXXXXXXXXXXXXXXXX.X.X.X...... . .        o",
"ooXXXXXXXXXXXXXXXXXXXX.X.X.XX..... . .        oo",
"ooXXXXXXXXXXXXXXXXX.X.X.X.XX...... . .        oo",
"ooX.XXXXXXXXXXXXXXX.X.X.X...... . . .         oo",
"oooXXX.XXX.X.X.X.X.X.X.XX..... . . .         ooo",
"ooooX.X.X.XXX.XX..X.X....... . . .          oooo",
"oooo......X.X.X.X.......... ... ..          oooo",
"ooooo................... . . . ..          ooooo",
"oooooo ................. . . .            oooooo",
"ooooooo . . . . . . . . . . ..           ooooooo",
"oooooooo . . . . . ... . .              oooooooo",
"ooooooooo      . . . . .               ooooooooo",
"oooooooooo                            oooooooooo",
"oooooooooooo                        oooooooooooo",
"ooooooooooooo                      ooooooooooooo",
"oooooooooooooooo                oooooooooooooooo",
"ooooooooooooooooooo          ooooooooooooooooooo"
};
