/* XPM */
static char *result[] = {
/* columns rows colors chars-per-pixel */
"48 48 4 1 ",
"  c #4A5462",
". c #477D85",
"X c #8B93AF",
"o c None",
/* pixels */
"oooooooooooooooooooXXXXXXXXXXooooooooooooooooooo",
"ooooooooooooooooXXXXXXXXXXXXXXXXoooooooooooooooo",
"oooooooooooooX.XXXXXXXXXXXXXXXXXXXXooooooooooooo",
"oooooooooooo.XXXXXXXXXXXXXXXXXXXXXX.oooooooooooo",
"ooooooooooXXXXXXXXXXXXXXXXXXXXXXXXX...oooooooooo",
"oooooooooXXXXX.XXXXXXXXXX.XXXXXXXX.X...ooooooooo",
"ooooooooXXXX....XXXXXXXXXXXXXXXXXXX.X.. oooooooo",
"oooooooXXXX..   XXXXXXXXXXXXXXXXXXX.X... ooooooo",
"ooooooXXXX.. XXXXXXXXXXXXXXXXXXXXXXX....  oooooo",
"oooooXXXXXXXXXXXXXXXXXXXXXXXXXXXXXX.X...   ooooo",
"ooooXXXXXXXXXXXXXXXXXXXXXXXXXXXXXXXXX.. .   oooo",
"ooooXXXXXXXXXXXXXXXXXXXXXXXXXXXXXXXX.X.. .  oooo",
"oooXXXXXXXXXXXXXXXXXXXXXXXXXXXXXXXXXXX.. .   ooo",
"ooXXXXXXXX..XXXXXXXXXXXXXXXXXXXX.XXXX....     oo",
"ooXXXXXXXXXXXXXXXXXXXXXXXXXXXXX...XXXX.. .    oo",
"oo.XXXXXXXXXXXXXXXXXXXXXXXXXXXXXX.XXX.....    oo",
"o..XX.XXXXXXXXXXXXXXXXXXXXXXXXXXX..XX.... .    o",
"o.XXX..XXXXXXXXXXXXXXXXXXXXXXXXXX..X.X....     o",
"oXXX...XXXXXXXXXXXXXXXXXX...XXXXXXXXX.....     o",
"XXX... XXXXXXXXXXXXXXXXX.XXXXXXXXXX.X......     ",
"XXX... XXXXXXXXXXXXXXXXX.XXXXXXXXXXX......      ",
"XXX...XXXXXXXXXXXXXXXXXXXXXXXXXXXXXXX.....      ",
"XXX.  XXXXXXXXXX....XXXXXXXXXXXXXXXX..... .     ",
"XXXXXXXXXXXXXXX......XXXXXXXXXXXXX.X......      ",
"XXXXXXXXXXXXXXX.......XXXXXXXXXXX.X..... .      ",
"XXXXXXXXXXXXXXXX..... XXXX.XXXX.X.X......       ",
"X.X..XXXXXXXXXXXX.... XXX....XXX.X...... .      ",
"..X..XXXXXXXXXXXXX. XXXX..... X.X.......        ",
"X.XXXXXXXXXXXXXXXXXXXXXX..... X.X...... .       ",
"o.XXXXXXXXXXXXXXXXXXXXXX...  X.X...... .       o",
"oX..XXXXXXXXXXXXXXXXXXXXX. .X.X..... ...       o",
"oXX.XXXXXXXXXXXXXXXXXXX.XXX.X...... . .        o",
"ooX.XXXXXXXXXXXXXXXXXX.X.X.XX....... .        oo",
"ooX.XXXXXXXXXXXXXXX.X.X.X.XX...... . .        oo",
"ooX.XXXXXXXXXXXXXXXXX.X.X...... . . .         oo",
"oooX.XXX.X.X.X.XXX.X.X.XX..... . . .         ooo",
"ooooX.X.X.X.X.X.X.X.X....... . . .          oooo",
"oooo......X.X.X.X.X.......... . ..          oooo",
"ooooo..................... ... ..          ooooo",
"oooooo . ............... . ...            oooooo",
"ooooooo . . . . . . . . . . ..           ooooooo",
"oooooooo . . ... . . . . .              oooooooo",
"ooooooooo      . . . . .               ooooooooo",
"oooooooooo                            oooooooooo",
"oooooooooooo                        oooooooooooo",
"ooooooooooooo                      ooooooooooooo",
"oooooooooooooooo                oooooooooooooooo",
"ooooooooooooooooooo          ooooooooooooooooooo"
};
