/* XPM */
static char *_35c0a388e574031eb55f2ace4319196p0eFZIK7jeK3y9bF[] = {
/* columns rows colors chars-per-pixel */
"64 64 4 1 ",
"  c None",
". c #FFC90E",
"X c #FFF200",
"o c #EFE4B0",
/* pixels */
"                                                                ",
"                                                                ",
"                                                                ",
"                                                                ",
"                                                                ",
"                        oooooooooooooooo                        ",
"                     ooooXXXXXXXXXXXXXXoooo                     ",
"                  ooooXXXX............XXXXoooo                  ",
"                 ooXXXX....          ....XXXXoo                 ",
"               oooXX....                ....XXooo               ",
"              ooXXX..                      ..XXXoo              ",
"             ooXX...                        ...XXoo             ",
"            ooXX..                            ..XXoo            ",
"           ooXX..                              ..XXoo           ",
"          ooXX..                                ..XXoo          ",
"         ooXX..                                  ..XXoo         ",
"         oXX..                                    ..XXo         ",
"        ooX..                                      ..Xoo        ",
"       ooXX.                                        .XXoo       ",
"       oXX..                                        ..XXo       ",
"       oX..                                          ..Xo       ",
"      ooX.                                            .Xoo      ",
"      oXX.                                            .XXo      ",
"      oX..                                            ..Xo      ",
"     ooX.                                              .Xoo     ",
"     oXX.                                              .XXo     ",
"     oX..                                              ..Xo     ",
"     oX.                                                .Xo     ",
"     oX.                                                .Xo     ",
"     oX.                                                .Xo     ",
"     oX.                                                .Xo     ",
"     oX.                                                .Xo     ",
"     oX.                                                .Xo     ",
"     oX.                                                .Xo     ",
"     oX.                                                .Xo     ",
"     oX.                                                .Xo     ",
"     oX.                                                .Xo     ",
"     oX..                                              ..Xo     ",
"     oXX.                                              .XXo     ",
"     ooX.                                              .Xoo     ",
"      oX..                                            ..Xo      ",
"      oXX.                                            .XXo      ",
"      ooX.                                            .Xoo      ",
"       oX..                                          ..Xo       ",
"       oXX..                                        ..XXo       ",
"       ooXX.                                        .XXoo       ",
"        ooX..                                      ..Xoo        ",
"         oXX..                                    ..XXo         ",
"         ooXX..                                  ..XXoo         ",
"          ooXX..                                ..XXoo          ",
"           ooXX..                              ..XXoo           ",
"            ooXX..                            ..XXoo            ",
"             ooXX...                        ...XXoo             ",
"              ooXXX..                      ..XXXoo              ",
"               oooXX....                ....XXooo               ",
"                 ooXXXX....          ....XXXXoo                 ",
"                  ooooXXXX............XXXXoooo                  ",
"                     ooooXXXXXXXXXXXXXXoooo                     ",
"                        oooooooooooooooo                        ",
"                                                                ",
"                                                                ",
"                                                                ",
"                                                                ",
"                                                                "
};
