/* XPM */
static char *result[] = {
/* columns rows colors chars-per-pixel */
"48 48 4 1 ",
"  c #4A5462",
". c #477D85",
"X c #8B93AF",
"o c None",
/* pixels */
"oooooooooooooooooooXXXXXXXXXXooooooooooooooooooo",
"ooooooooooooooooXXXXXXXXXXXXXXXXoooooooooooooooo",
"ooooooooooooo.XXXXXXXXXXXXXXXXXXXXXooooooooooooo",
"ooooooooooooXXXXXXXXXXXXXXXXXXXXXXX.oooooooooooo",
"ooooooooooXXXXXXXXXXXXXXXXXXXXXXXXX...oooooooooo",
"oooooooooXXX.X.XXXXXXXX..XXXXXXXXXXX...ooooooooo",
"ooooooooXXX..  XXXXXXXXXXXXXXXXXXXXXX.. oooooooo",
"oooooooXX... XXXXXXXXXXX.XXXXXXXXXX.X... ooooooo",
"ooooooXXXX. XXXXXXXXXXXXXXXXXXXXXXXX....  oooooo",
"oooooXXXXXXXXXXXXXXXXXXXXXXXXXXXXXX.X...   ooooo",
"ooooXXXXXXXXXXXXXXXXXXXXXXXXXXXXXXXXX.. .   oooo",
"ooooXXXXXXXXXXXXXXXXXXXXXXXXXXXXXXXXXX.. .  oooo",
"oooXXXXXX.XXXXXXXXXXXXXXXXXXXXXXXXXXX... .   ooo",
"ooXXXXXXX.XXXXXXXXXXXXXXXXXXXX.XXXXXX....     oo",
"ooXXXXXXXXXXXXXXXXXXXXXXXXXXXX..XXXXXX.. .    oo",
"ooXX.XXXXXXXXXXXXXXXXXXXXXXXXX..XXXXX.....    oo",
"oXX...XXXXXXXXXXXXXXXXXXXXXXXXX.XXXXX.... .    o",
"oXX.. XXXXXXXXXXXXXXXXXXXXXXXXX..XXX.X....     o",
"oXX. XXXXXXXXXXXXXXXXXX...XXXXXXXXXXX.....     o",
"XX.. XXXXXXXXXXXXXX.XX..XXXXXXXXXXXXX......     ",
"XXX. XXXXXXXXXXXXXXXXX.XXXXXXXXXXXXX......      ",
"XXXXXXXXXXXXX...XXXXXXXXXXXXXXXXXXX.X.....      ",
"XXXXXXXXXXXX.....XXXXXXXXXXXXXXXXXX...... .     ",
"XXXXXXXXXXXX......XXXXXXXXXXXXXXXX.X......      ",
"...XXXXXXXXX..... XXXXXXXXXXXXXXX.X..... .      ",
".X.XXXXXXXXXX... XXX...XXXXXXXX.X.X......       ",
".XXXXXXXXXXXXX. XXX.....XXXXXXXX.X...... .      ",
"XXXXXXXXXXXXXXXXXXX..... XXXX.X.X.......        ",
"X.XXXXXXXXXXXXXXXX......XXXXX.X.X...... .       ",
"oX.XXXXXXXXXXXXXXXX...  XX.X.X.X...... .       o",
"oX.XXXXXXXXXXXXXXXXXX XXX.X.X.X....... .       o",
"oXXXXXXXXXXXXXXXXXXXXXX.X.X.X........ .        o",
"ooXXXXXXXXXXXXXXXXXXXXXX.X.XX..... . .        oo",
"ooXXXXXXXXXXXXXXXXX.XXX.X.XX...... . .        oo",
"ooX.XXXXXXXXXXXXXXX.X.X.X...... . . .         oo",
"oooX.XXX.X.XXX.X.X.X.X.XX..... . . .         ooo",
"ooooX.X.X.X.X.X.XXX.X....... . . .          oooo",
"oooo......X.X.X.X.X.......... . ..          oooo",
"ooooo................... . . . ..          ooooo",
"oooooo . ............... . . .            oooooo",
"ooooooo . . . . . . . . . . ..           ooooooo",
"oooooooo . . . . ... . . .              oooooooo",
"ooooooooo      . . . . .               ooooooooo",
"oooooooooo                            oooooooooo",
"oooooooooooo                        oooooooooooo",
"ooooooooooooo                      ooooooooooooo",
"oooooooooooooooo                oooooooooooooooo",
"ooooooooooooooooooo          ooooooooooooooooooo"
};
