/* XPM */
static char *result[] = {
/* columns rows colors chars-per-pixel */
"48 48 4 1 ",
"  c #4A5462",
". c #477D85",
"X c #8B93AF",
"o c None",
/* pixels */
"oooooooooooooooooooXXXXXXXXXXooooooooooooooooooo",
"ooooooooooooooooXXXXXXXXXXXXXXXXoooooooooooooooo",
"oooooooooooooXXXXXXXXXXXXXXXXXXXXXXooooooooooooo",
"ooooooooooooXXXXXXXXXXXXXXXXXXXXXXX.oooooooooooo",
"ooooooooooXXXXXXXXXXXXXXXXXXXXXXXXX...oooooooooo",
"oooooooooXXX. XXXXXXX...XXXXXXXXXX.X...ooooooooo",
"ooooooooXX.. XXXXXXXXXXXXXXXXXXXXXX.X.. oooooooo",
"oooooooXX. XXXXXXXXXXXX.XXXXXXXXXXXXX... ooooooo",
"ooooooXXXXXXXXXXXXXXXXXXXXXXXXXXXXXX....  oooooo",
"oooooXXXXXXXXXXXXXXXXXXXXXXXXXXXXXX.X...   ooooo",
"ooooXXXXXXXXXXXXXXXXXXXXXXXXXXXXXXXXX.. .   oooo",
"ooooXXXX.XXXXXXXXXXXXXXXXXXXXXXXXXXX.X.. .  oooo",
"oooXXXX..XXXXXXXXXXXXXXXXXXXXXXXXXXXX... .   ooo",
"ooXXXXXXXXXXXXXXXXXXXXXXXXXXXXXXXXXXX....     oo",
"ooX..XXXXXXXXXXXXXXXXXXXXX.XXXXXXXXXXX.. .    oo",
"oo...XXXXXXXXXXXXXXXXXXXX...XXXXXXXXX.....    oo",
"oX. XXXXXXXXXXXXXXXXXXXXXX..XXXXXXXXX.... .    o",
"oX. XXXXXXXXXXXXXXXXXXXXXXX..XXXXXXX.X....     o",
"oX. XXXXXXXXXXXX..XXXXXXXXX.XXXXXXXXX.....     o",
"XXXXXXXXXX...XXXXXX...XXXXXXXXXXXXXXX......     ",
"XXXXXXXXX.....XXXXXX..XXXXXXXXXXXXXX......      ",
"XXXXXXXXX......XXXXXXXXXXXXXXXXXXXX.X.....      ",
"X.XXXXXXX.... XXXXXXXXXXXXXXXXXXXXX...... .     ",
"XXXXXXXXXX... XXXXXXXXXXXXXXXXXXXX.X......      ",
"XXXXXXXXXXX. XXX.XXXXXXXXXXXXXXXX.X.......      ",
"..XXXXXXXXXXXXX....XXXXXXXXXXXX.X.X......       ",
"..XXXXXXXXXXXX......XXXXXXXXXX.X.X...... .      ",
"..XXXXXXXXXXXX..... XXXXXXXXXXX.X.......        ",
"XXXXXXXXXXXXXXX....XXXXXXXXXX.X.X........       ",
"oXXXXXXXXXXXXXXX.  XXXXXXXXX.X.X...... .       o",
"oXXXXXXXXXXXXXXXXXXXXXXXX.X.X.X..... . .       o",
"oXXXXXXXXXXXXXXXXXXXXXX.X.X.X...... . .        o",
"ooXXXXXXXXXXXXXXXXXXXX.X.X.XX..... ...        oo",
"ooXXXXXXXXXXXXXXXXXXX.X.X.XX...... . .        oo",
"ooX.XXXXXXXXXXXXXXX.X.X.X...... . . .         oo",
"oooX.X.X.XXX.X.XXX.X.X.XX....... . .         ooo",
"ooooX.X.X.X.X.XXX.X.X....... . . .          oooo",
"oooo......X.X.X.X.X........ . . ..          oooo",
"ooooo................... . . . ..          ooooo",
"oooooo . ............... . . .            oooooo",
"ooooooo . ... . . . . . . . ..           ooooooo",
"oooooooo . . . . . . . . .              oooooooo",
"ooooooooo      . . . ...               ooooooooo",
"oooooooooo                            oooooooooo",
"oooooooooooo                        oooooooooooo",
"ooooooooooooo                      ooooooooooooo",
"oooooooooooooooo                oooooooooooooooo",
"ooooooooooooooooooo          ooooooooooooooooooo"
};
