/* XPM */
static char *result[] = {
/* columns rows colors chars-per-pixel */
"48 48 4 1 ",
"  c #4A5462",
". c #477D85",
"X c #8B93AF",
"o c None",
/* pixels */
"oooooooooooooooooooXXXXXXXXXXooooooooooooooooooo",
"ooooooooooooooooXXXXXXXXXXXXXXXXoooooooooooooooo",
"oooooooooooooXXXXXXXXXXXXXXXXXXXXXXooooooooooooo",
"ooooooooooooXXXXXXXXXXXXXXXXXXXXXXX.oooooooooooo",
"ooooooooooXXXXXXXXXXXXXXXXXXXXXXXXX...oooooooooo",
"oooooooooXX..XXXXXXX..XXXXXXXXXXXX.X...ooooooooo",
"ooooooooXX.XXXXXXXXXXXXXXXXXXXXXXXX.X.. oooooooo",
"oooooooXX.XXXXXXXXXXX.XXXXXXXXXXXXX.X... ooooooo",
"ooooooXXXXXXXXXXXXXXXXXXXXXXXXXXXXXX....  oooooo",
"ooooo.XXXXXXXXXXXXXXXXXXXXXXXXXXXXXXX...   ooooo",
"ooooXXX.XXXXXXXXXXXXXXXXXXXXXXXXXXXXX.. .   oooo",
"ooooXX.XXXXXXXXXXXXXXXXXXXXXXXXXXXXX.X.. .  oooo",
"oooXXXXXXXXXXXXXXXXXXXXXXXXXXXXXXXXXX... .   ooo",
"oo..XXXXXXXXXXXXXXXXXXXXXXXXXXXXXXXXX....     oo",
"oo..XXXXXXXXXXXXXXXXXX.XXXXXXXXXXXXXXX....    oo",
"oo. XXXXXXXXXXXXXXXXXX..XXXXXXXXXXXXX.....    oo",
"o. XXXXXXXXXXXXXXXXXXXX..XXXXXXXXXXXX.... .    o",
"oX XXXXXXXXXX.XXXXXXXXX..XXXXXXXXXXX.X....     o",
"oXXXXXXXXXXXXXX...XXXXXX.XXXXXXXXXXXX.....     o",
"XXXXXXX...XXXXXX..XXXXXXXXXXXXXXXXX.X......     ",
"..XXXX.....XXXXXXXXXXXXXXXXXXXXXXXXX......      ",
".XXXXX..... XXXXXXXXXXXXXXXXXXXXXXXXX.....      ",
"XXXXXX.... XXXXXXXXXXXXXXXXXXXXXXXX...... .     ",
"XXXXXXX.  XXXXXXXXXXXXXXXXXXXXXXXXXX......      ",
"XXXXXXXXXXXX...XXXXXXXXXXXXXXXXXX.X..... .      ",
"XXXXXXXXXXX.....XXXXXXXXXXXXXXX.X.X......       ",
"XXXXXXXXXXX..... XXXXXXXXXXXXX.X.X........      ",
"XXXXXXXXXXX..... XXXXXXXXXXXX.X.X.......        ",
"XXXXXXXXXXXXX. XXXXXXXXXXXXXX.X.X...... .       ",
"oXXXXXXXXXXXXXXXXXXXXXXXXXXX.X.X...... .       o",
"oXXXXXXXXXXXXXXXXXXXXXXXXXX.X.X....... .       o",
"oXXXXXXXXXXXXXXXXXXXXXX.X.X.X...... . .        o",
"ooXXXXXXXXXXXXXXXXXXXX.X.X.XX..... . .        oo",
"ooXXXXXXXXXXXXXXXXX.X.X.X.XX...... . .        oo",
"ooX.XXXXXXXXXXXXXXX.X.X.X........ . .         oo",
"oooXXX.X.XXX.X.X.X.X.X.XX..... . . .         ooo",
"ooooX.X.X.X.X.X.X.X.X....... . . .          oooo",
"oooo......X.X.X...X........ . . ..          oooo",
"ooooo................... . . . ..          ooooo",
"oooooo . ............... . . .            oooooo",
"ooooooo . . . ... . . . . . ..           ooooooo",
"oooooooo . . . . ... . . .              oooooooo",
"ooooooooo      . . . . .               ooooooooo",
"oooooooooo                            oooooooooo",
"oooooooooooo                        oooooooooooo",
"ooooooooooooo                      ooooooooooooo",
"oooooooooooooooo                oooooooooooooooo",
"ooooooooooooooooooo          ooooooooooooooooooo"
};
