/* XPM */
static char *result[] = {
/* columns rows colors chars-per-pixel */
"17 16 7 1 ",
"  c black",
". c #A22633",
"X c #F77622",
"o c #FEAE34",
"O c #FEE761",
"+ c white",
"@ c None",
/* pixels */
"@@@@          @@@",
"@@@ OOOOO++OXX @@",
"@@ XXXXXXXXXOXX @",
"@@ ooooooooXOoo @",
"@@ oXOOO+ooXO.. @",
"@@ XOOOOO+oXOXX @",
"@@ XOOXXO+oXOXX @",
"@@ XOOoooooXOoo @",
"@@ XOOoooooXOoo @",
"@@ XOOooO+oXO.. @",
"@@ XOOOOO+oXOXX @",
"@@ oXOOO+XoXO.. @",
"@@ ooXXXXooXO.. @",
"@@ ooooooooXOXX @",
"@@@ OOOOO++OXX @@",
"@@@@          @@@"
};
