/* XPM */
static char *result[] = {
/* columns rows colors chars-per-pixel */
"16 16 7 1 ",
"  c black",
". c #A22633",
"X c #F77622",
"o c #FEAE34",
"O c #FEE761",
"+ c white",
"@ c None",
/* pixels */
"@@@           @@",
"@@ OOOOO+++OOX @",
"@ OXXXXXXXXXXXX ",
"@ OoooooooooXoo ",
"@ OooXOOO+ooX.. ",
"@ OoXOOOOO+oXXX ",
"@ OoXOOXXO+oXXX ",
"@ OoXOOoooooXoo ",
"@ OoXOOoooooXoo ",
"@ OoXOOooO+oX.. ",
"@ OoXOOOOO+oXXX ",
"@ OooXOOO+XoX.. ",
"@ OoooXXXXooX.. ",
"@ OoooooooooXXX ",
"@@ OOOOO+++OOX @",
"@@@           @@"
};
