/* XPM */
static char *result[] = {
/* columns rows colors chars-per-pixel */
"35 63 142 2 ",
"   c #010101",
".  c #080707",
"X  c #050609",
"o  c #06080B",
"O  c #0C0C0C",
"+  c #0D0E12",
"@  c #0E1116",
"#  c #0F131A",
"$  c #141414",
"%  c #1A1A16",
"&  c #13161C",
"*  c #16181E",
"=  c #1A1B1B",
"-  c #23241C",
";  c #3C3C1E",
":  c #121721",
">  c #151A24",
",  c #191D25",
"<  c #171D29",
"1  c #191E29",
"2  c #1C2027",
"3  c #1C222C",
"4  c #1E2532",
"5  c #1F2837",
"6  c #1D273A",
"7  c #1F293B",
"8  c #222423",
"9  c #22252B",
"0  c #353520",
"q  c #383820",
"w  c #202734",
"e  c #212936",
"r  c #2B2E36",
"t  c #232B3B",
"y  c #2F3436",
"u  c #27303F",
"i  c #2B313C",
"p  c #333336",
"a  c #30343C",
"s  c #3C3A3A",
"d  c #3D4237",
"f  c #42421C",
"g  c #53531D",
"h  c #64641E",
"j  c #4A4B22",
"k  c #46443E",
"l  c #6D6D22",
"z  c #7D7D20",
"x  c #242E41",
"c  c #263144",
"v  c #293344",
"b  c #2E3847",
"n  c #273349",
"m  c #2B364A",
"M  c #2D394D",
"N  c #323741",
"B  c #353943",
"V  c #393C46",
"C  c #313B4D",
"Z  c #3A3E4A",
"A  c #2E3B50",
"S  c #333E52",
"D  c #3F424D",
"F  c #354155",
"G  c #3A4355",
"H  c #374359",
"J  c #39455C",
"K  c #3C485F",
"L  c #3E4B62",
"P  c #414550",
"I  c #464A56",
"U  c #484B56",
"Y  c #424C5E",
"T  c #4C505D",
"R  c #545356",
"E  c #56565E",
"W  c #5C5A5C",
"Q  c #414E65",
"!  c #414F68",
"~  c #475062",
"^  c #4A5264",
"/  c #44526C",
"(  c #505663",
")  c #585960",
"_  c #545B6C",
"`  c #475671",
"'  c #485772",
"]  c #4A5975",
"[  c #4C5D7A",
"{  c #5C616F",
"}  c #5D6374",
"|  c #51627F",
" . c #616168",
".. c #606472",
"X. c #696B74",
"o. c #6A6E7D",
"O. c #6C707F",
"+. c #75767F",
"@. c #79777D",
"#. c #8B8B1D",
"$. c #90901E",
"%. c #ABAB1E",
"&. c #BCBC16",
"*. c #878722",
"=. c #999921",
"-. c #D6D614",
";. c #DCDC14",
":. c #FFFF02",
">. c #E7E710",
",. c #526383",
"<. c #55678A",
"1. c #57698A",
"2. c #596C8D",
"3. c #5D7194",
"4. c #5F739A",
"5. c #6A7081",
"6. c #737787",
"7. c #757886",
"8. c #7D7B83",
"9. c #707688",
"0. c #62769A",
"q. c #64799E",
"w. c #777D90",
"e. c #657AA0",
"r. c #697FA6",
"t. c #6E85AD",
"y. c #7187AF",
"u. c #828085",
"i. c #888487",
"p. c #86858C",
"a. c #88878F",
"s. c #868693",
"d. c #898994",
"f. c #878C9E",
"g. c #8A8D9C",
"h. c #928E92",
"j. c #969191",
"k. c #989394",
"l. c #9195A7",
"z. c #959AAD",
"x. c #9A9CA9",
"c. c None",
/* pixels */
"c.c.c.c.c.c.c.c.c.c.c.c.c.c.c.c.c.c.c.c.c.> e u t > c.c.c.c.c.c.c.c.c.",
"c.c.c.c.c.c.c.c.c.c.c.c.c.c.c.c.c.c.c.> v S J G C S 3 c.c.c.c.c.c.c.c.",
"c.c.c.c.c.c.c.c.c.c.c.c.c.c.c.c.c.c.1 S L J J e + C J c.c.c.c.c.c.c.c.",
"c.c.c.c.c.c.c.c.c.c.c.c.c.c.c.c.c.3 F Y L J S 1 u ,.Q c.c.c.c.c.c.c.c.",
"c.c.c.c.c.c.c.c.c.c.c.c.c.c.c.c.4 F L Q L F F e 4 L v c.c.c.c.c.c.c.c.",
"c.c.c.c.c.c.c.c.c.c.c.c.c.c.c.3 F L Q L J F S v c.c.c.c.c.c.c.c.c.c.c.",
"c.c.c.c.c.c.c.c.c.c.c.c.c.c.< S J L Q J J S S m 3 c.c.c.c.c.c.c.c.c.c.",
"c.c.c.c.c.c.c.c.c.c.c.c.c.> v J J Q L L J S S v 4 c.c.c.c.c.c.c.c.c.c.",
"c.c.c.c.c.c.c.c.c.c.c.c.c.t S J L ! L L J S C v e c.c.c.c.c.c.c.c.c.c.",
"c.c.c.c.c.c.c.c.c.c.c.c.3 m F J ! ! L L L S M v t c.c.c.c.c.c.c.c.c.c.",
"c.c.c.c.c.c.c.c.c.c.c.3 t S J ` ] ` ! Q L S C n t 3 c.c.c.c.c.c.c.c.c.",
"c.c.c.c.c.c.c.c.c.c.c.5 v S Q ] [ [ ` L L S M v v 4 c.c.c.c.c.c.c.c.c.",
"c.c.c.c.c.c.c.c.c.c.< w t C Q ! / ] ] Q L S m x e 3 c.c.c.c.c.c.c.c.c.",
"c.c.c.c.c.c.c.c.c.< < < > r P Z N w e t 6 4 < < < < c.c.c.c.c.c.c.c.c.",
"c.c.c.c.c.c.c.c.< < < > 9 B r 9 9 < < 1 < < > > > < < c.c.c.c.c.c.c.c.",
"c.c.c.c.c.c.c.> < > > > r V r : < 4 1 1 < < > : > < 3 < c.c.c.c.c.c.c.",
"c.c.c.c.c.3 3 3 < > : > i s 9 1 1 1 3 1 < < : # : > < 3 3 c.c.c.c.c.c.",
"< 3 4 w e t x v m m m x i Z P Z i 1 4 4 3 4 4 4 7 t t e e 4 4 4 4 c.c.",
"3 v v v b m C J Q ! ] [ ] ` / Q Q ` ] ` / / L L J S m c t e w w e 4 4 ",
"c.< e v C J Q ` [ ,.,.1.2.3.0.3.3.2.<.,.[ ] / / L J A m v t t e 4 4 c.",
"c.c.c.c.> w e b S Y / [ ,.2.3.3.<.,.[ ' G Q ~ J C F C v t e 3 3 c.c.c.",
"c.c.c.c.c.c.. + + - j 8 , 9 9 9 y d 9 3 $ * < $ o + + o c.c.c.c.c.c.c.",
"c.c.c.c.c.c.O + $ *.>.l $ $ $ = $.-.h $ @ O O . .       c.c.c.c.c.c.c.",
"c.c.c.c.c.c.O $ $ %.:.$.= = $ q ;.:.%.% + O O . . .     c.c.c.c.c.c.c.",
"c.c.c.c.c.c.O + $ $.:.*.= % $ 0 -.:.%.% $ O O . .   . X c.c.c.c.c.c.c.",
"c.c.c.c.c.c.a 9 * f #.q % % % = z &.g + O O O $ > 3 9 w 4 c.c.c.c.c.c.",
"c.c.c.c.c.c.C G W W p $ % $ $ $ - k k s p a B C C b v v 4 c.c.c.c.c.c.",
"c.c.c.c.c.c.u C T i.X.8 $ $ % * U u.k.X.^ G C C v v u e 3 c.c.c.c.c.c.",
"c.c.c.c.c.c.i M G @.8.V O $ $ i ..j.8.Y G F M M v v t 5 c.c.c.c.c.c.c.",
"c.c.c.c.c.c.w b C X.p.U $ $ $ D +.k.{ J G C M m v v t 3 c.c.c.c.c.c.c.",
"c.c.c.c.c.c.w b M } g._ & O 3 ^ d.a.Y S F M M m v u e 4 c.c.c.c.c.c.c.",
"c.c.c.c.c.c.e v m Y f.o.3 + C o.x.O.F S S M M v u t 7 4 c.c.c.c.c.c.c.",
"c.c.c.c.c.9 c v m C 7.d.Z 3 Q g.l.~ A A A m n u t t 7 5 c.c.c.c.c.c.c.",
"c.c.c.c.c.e u b M M ^ h. .u } z.w.F A A A m n x t 7 7 5 3 c.c.c.c.c.c.",
"c.c.c.c.c.t v v b M C 8.R C 7.z.] A A A M M n c c t t 7 4 c.c.c.c.c.c.",
"c.c.c.c.9 t v m v m v I B Y s.9.F A n A m n n n x t t 7 5 c.c.c.c.c.c.",
"c.c.c.c.w v v v m n n 4 b _ g.} A M n A n n n n x 7 7 7 5 < c.c.c.c.c.",
"c.c.c.c.3 t x x n n 7 4 G o.a.^ A M A n m n n x c 7 7 5 4 > c.c.c.c.c.",
"c.c.c.c.c.: < 4 7 x 4 t Y 8.8.G n n n n n n x 7 7 6 < > & c.c.c.c.c.c.",
"c.c.c.c.c.$ * * & : + > B E T x 6 6 6 4 4 < < > : : : > > c.c.c.c.c.c.",
"c.c.c.c.c.* , , > * * % > = > * * * * * * * * , , , 2 , < c.c.c.c.c.c.",
"c.c.c.c.c.* , , 2 2 2 2 8 1 1 8 2 3 3 2 2 3 2 3 2 < 3 1 2 c.c.c.c.c.c.",
"c.c.c.c.c., , 2 2 2 2 2 9 1 9 9 3 3 4 9 9 3 3 3 3 3 , 3 < < c.c.c.c.c.",
"c.c.c.c.> , 3 2 3 3 3 3 1 3 w 3 9 w w w w 4 w 3 3 3 1 3 3 2 c.c.c.c.c.",
"c.c.c.c., 1 1 1 1 3 3 3 9 4 4 w w w w w e 4 w 4 3 3 3 1 < < < c.c.c.c.",
"c.c.c.c.< 3 1 3 3 3 w w w 9 9 w w e e e e 4 e 4 w 3 3 3 3 3 2 c.c.c.c.",
"c.c.c.c.1 w 3 3 3 3 3 e e e 4 e e e e e e e e 4 4 4 4 3 3 3 3 c.c.c.c.",
"c.c.c.c.1 4 w 1 3 3 4 4 e e e e e e e e e e e e e e 4 4 4 3 3 3 c.c.c.",
"c.c.c.c.e e e 4 3 3 4 w w e e e t e e t e e t e e 4 4 e e e e 3 c.c.c.",
"c.c.c.3 t v v t t 7 4 3 3 w e e t e e e e e e t t u v v v t t e c.c.c.",
"c.c.c.9 t b C S L L L J S m v u x v v m A S S L J S C M v u t w 3 c.c.",
"c.c.c.< e v C G L [ 2.q.e.q.0.3.2.<.<.[ ] ` ! L K J S m u e e e > c.c.",
"c.c.c.> 4 e c M J ' <.e.t.t.t.r.e.4.<.,.[ ] ! L F A v t t 7 3 : c.c.c.",
"c.c.c.c.> 3 e c c M S L ` [ ,.,.,.] ` ! S S m n v x 7 4 < & c.c.c.c.c.",
"c.c.c.c.c.c.: 3 4 x v v c c v v x x c c x n x x 4 > o c.c.c.c.c.c.c.c.",
"c.c.c.c.c.c.c.c.X # 1 6 t t x t t t e 6 1 : @ + c.c.c.c.c.c.c.c.c.c.c.",
"c.c.c.c.c.c.c.c.c.c.    X c.c.c.c.c.c.c.      c.c.c.c.c.c.c.c.c.c.c.c.",
"c.c.c.c.c.c.c.c.c.c.      c.c.c.c.c.c.c.      c.c.c.c.c.c.c.c.c.c.c.c.",
"c.c.c.c.c.c.c.c.c.c.      c.c.c.c.c.c.c.c.    c.c.c.c.c.c.c.c.c.c.c.c.",
"c.c.c.c.c.c.c.c.c.c.c.    c.c.c.c.c.c.c.c.    c.c.c.c.c.c.c.c.c.c.c.c.",
"c.c.c.c.c.c.c.c.c.c.c.    c.c.c.c.c.c.c.c.    c.c.c.c.c.c.c.c.c.c.c.c.",
"c.c.c.c.c.c.c.c.c.c.c.c.  c.c.c.c.c.c.c.c.    c.c.c.c.c.c.c.c.c.c.c.c.",
"c.c.c.c.c.c.c.c.c.c.c.c.c.c.c.c.c.c.c.c.c.  c.c.c.c.c.c.c.c.c.c.c.c.c."
};
