/* XPM */
static char *a7ffb1b734194b60c13207fa471bf86c5WlPTUNh3N8ZxVrY[] = {
/* columns rows colors chars-per-pixel */
"64 64 174 2 ",
"   c #000103",
".  c #01050C",
"X  c #020A0F",
"o  c #010710",
"O  c #030A15",
"+  c #030E1A",
"@  c #04111E",
"#  c #0B121D",
"$  c #041522",
"%  c #081622",
"&  c #051C26",
"*  c #091B26",
"=  c #061E28",
"-  c #081E29",
";  c #131C21",
":  c #052027",
">  c #06242A",
",  c #09242C",
"<  c #062B2C",
"1  c #082C2E",
"2  c #07332E",
"3  c #08332F",
"4  c #073B2E",
"5  c #083B2F",
"6  c #072630",
"7  c #0C2433",
"8  c #072C31",
"9  c #0A2C32",
"0  c #092E3A",
"q  c #122634",
"w  c #122C34",
"e  c #112A38",
"r  c #073430",
"t  c #093432",
"y  c #073930",
"u  c #093C31",
"i  c #0B343B",
"p  c #0A3B3B",
"a  c #15333E",
"s  c #133C3E",
"d  c #07412F",
"f  c #08442F",
"g  c #084B2E",
"h  c #09532E",
"j  c #0B592F",
"k  c #0A5A2E",
"l  c #09592D",
"z  c #095C2D",
"x  c #095F2C",
"c  c #0B5C2F",
"v  c #0B5F2E",
"b  c #0A5B2D",
"n  c #094030",
"m  c #0A4331",
"M  c #094430",
"N  c #0A4631",
"B  c #094036",
"V  c #0A4331",
"C  c #094930",
"Z  c #094B30",
"A  c #0A4A30",
"S  c #0B4931",
"D  c #0C4932",
"F  c #0B4D31",
"G  c #0A4C31",
"H  c #0B423C",
"J  c #0B4B3B",
"K  c #13413F",
"L  c #11443D",
"P  c #154B3F",
"I  c #0B5231",
"U  c #0D5332",
"Y  c #0A5631",
"T  c #0B5331",
"R  c #095B31",
"E  c #0D5831",
"W  c #0C5A32",
"Q  c #0C513E",
"!  c #0B593C",
"~  c #125339",
"^  c #09622B",
"/  c #09652B",
"(  c #0A672B",
")  c #09612C",
"_  c #0A612C",
"`  c #09622D",
"'  c #0B632D",
"]  c #0B642D",
"[  c #09632C",
"{  c #0B692B",
"}  c #0A6F29",
"|  c #0B6B2B",
" . c #0A7427",
".. c #0A7F24",
"X. c #0A7328",
"o. c #0B7228",
"O. c #0B6430",
"+. c #0F6630",
"@. c #0B6237",
"#. c #0D643E",
"$. c #0E6B3A",
"%. c #0C7636",
"&. c #0C7E31",
"*. c #14733B",
"=. c #0C3D43",
"-. c #143441",
";. c #1C3642",
":. c #123C41",
">. c #1D3E42",
",. c #1C3E4A",
"<. c #273742",
"1. c #203241",
"2. c #273B45",
"3. c #203B42",
"4. c #213D49",
"5. c #0D4244",
"6. c #0C4C43",
"7. c #124441",
"8. c #124242",
"9. c #184345",
"0. c #104947",
"q. c #1E4A45",
"w. c #10454A",
"e. c #1F414E",
"r. c #164E4B",
"t. c #1C4E4B",
"y. c #0E5245",
"u. c #0C5A40",
"i. c #0E574A",
"p. c #0F5D4E",
"a. c #105647",
"s. c #1E5245",
"d. c #145C41",
"f. c #1E504D",
"g. c #134A50",
"h. c #1F5651",
"j. c #22444F",
"k. c #244652",
"l. c #244B53",
"z. c #275457",
"x. c #295159",
"c. c #265859",
"v. c #2A5C5B",
"b. c #0E6744",
"n. c #106147",
"m. c #1B6948",
"M. c #157442",
"N. c #166457",
"B. c #1D695D",
"V. c #1D7551",
"C. c #256757",
"Z. c #226059",
"A. c #296359",
"S. c #276A5A",
"D. c #277256",
"F. c #235F60",
"G. c #2C6362",
"H. c #366767",
"J. c #30666B",
"K. c #33686F",
"L. c #386A72",
"P. c #445F6E",
"I. c #45777E",
"U. c #138649",
"Y. c #20844C",
"T. c #328167",
"R. c #548D8C",
"E. c #5C8D94",
"W. c #5D9193",
"Q. c #619897",
"!. c #67A49D",
"~. c #65AB9C",
"^. c #69BA9B",
"/. c #6D9EA4",
/* pixels */
"2 4 N g A g u.~.b.n 4 t d 4 f 4 u t 1 2 5 f f g k x ) ( ) ) h 4 2 3 < < < = = : & & : & * $ $ O       . + + @ @ $ * & & : > < 2 ",
"f G h +.^ v O.$.Y f A A < & = = 3 2 2 2 u 4 f N h ^ ( ^ k I g r r < < 1 < - = & & & & @ @ + $ O         . O @ @ $ $ & : < 2 4 4 ",
"I ^ } } X.X.{ R k k v f 2 < & > 3 2 2 u 5 4 n N U v ) v G g n y K 3 < 1 < > & & $ & $ @ + O O .         . . + @ $ & = : 2 4 f g ",
"^ ( ) ( } ( h h k k g g f 2 < > < 2 5 u 4 4 f F g U h g N N n 4 y 2 3 < < < > & & $ & $ @ O o . . . .   . + + + @ * & : 2 g h h ",
") h ) %.&.] Y Y E g g g f 4 2 > < 2 4 y 4 4 4 N f A g g A N d 4 u u 3 2 3 < < > < , > & $ + o . # <.X . + 2.+ + @ @ = < f k ( ( ",
"S 4 G D.M.) R h v h h g g d 2 < > < 2 4 n f 4 m 4 n ~ A h f y < 7.t.2 2 2 < 2 2 2 < > > $ $ o o o + O o o o . # @ @ * > 4 h h h ",
"4 2 u A Y W m.W v h E h h g n 2 , , 1 2 4 4 4 u 4 4 A g G g 4 2 r r 2 3 2 2 2 2 2 2 < > - $ + . X . . o o . o O + = ,.1 u g A 4 ",
"4 4 4 g g E T h h h h g g ! C.y < < > 1 1 5 4 4 4 4 d A h g d 2 < < < 2 2 2 2 2 t 2 2 < > & @ O o + o o o . O O + 7 a , t m 5 2 ",
"4 f h h I h h g g g f 4 f F ! u p z.9 < < > 2 4 4 4 d f h g d u 2 < < 2 2 2 2 2 2 2 2 2 < : $ + O O O O . . . . O + & > H V y y ",
"f g h k h W G f f 4 4 y f g I d y p 3 < < < < 4 d 2 u u f d u g g 2 1 2 < < < < 2 2 2 2 2 & $ @ $ O O O O . .   . O & > H.6.n u ",
"d f I Y U h N f f 4 4 2 n g I 4 2 < < < < > > < u 4 4 4 V 6.0.V g f y 2 < 3 < < 2 t 2 2 < : & * + + O + o . .     . * < y H d f ",
"f f g f f f n n 4 4 f 5 d G g f 2 2 2 < < < < > 2 4 4 u f B.Q.y y f A 4 4 2 < < < < < 2 2 > & > $ + + + O .       . @ < 2 n f g ",
"g h g f 4 u 4 m 4 f N 4 d g d 4 4 4 2 < < 1 > 1 2 4 d V Q J J y 4 y 4 4 2 < < < < < < < < > > > $ $ O O o .         O = 2 f f f ",
"f g G g g 4 4 4 n d 4 4 2 d 4 n 4 4 2 3 9 < > > < 2 u N.!.H 4 2 2 5 5 2 1 < < < t < 1 < 9 < > > = $ O o .           . + < 1 2 d ",
"u F G h g f 4 u 4 N u 2 2 t 5 4 4 y 2 2 < < 1 > 2 2 y J i.r 2 < 3 2 2 < t < < < < 3 < t c.8 > = - * + o             . @ $ > < 2 ",
"B S.W h E N 4 4 4 d B h.y 2 4 N N 4 4 2 2 < > < 2 y y u r < < > < > , < 1 < < > > > < < t < > = $ $ + o             X @ $ * 9 1 ",
"y J I Y h N n 4 4 4 d r.y r 5 f f 4 u 5 3 1 < 2 1 1 2 2 < > : : > = , l.i < < > : & = : > : = $ @ + o .             o O $ - < y ",
"4 n h h f d 4 4 4 4 d u 2 r 2 m f g d 2 < 3 < 3 < < < > > : & $ & & - 6 < > > : > : = & = > $ @ O o .               . O $ : 3 y ",
"2 y n 2 2 u 4 2 2 d d d u y 5 f S g N 2 3 2 2 < = : : < < : $ & & & & $ & > > = & > : > = = = $ O .   . . .           @ & > 1 3 ",
"< > < < < 2 5 2 2 4 u A d 4 y f g A N 2 2 < < : - : < 2 > $ * : : & & & & > = $ : : = > > > : $ + O .   . ;           O & = > < ",
": , > > , > < 2 u d f A n 5 2 4 A A f r < > : = = > < > = $ 1 : : : : = $ , % > > > : = : < > * + O + O o X .   .   . o $ & > > ",
": : > > > < < 2 u f f J y < < 3 d N m 2 > : & = $ : < , = - : : > > i 6 > : - > > > > : : < , & $ $ * $ $ O o o . . + @ $ & > > ",
", > > : > < 2 2 n u y r 1 9 > < u 4 < < < > > : : > < < : = : : = i E.i > > : : : < < 1 t 3 3 2 < > > > > $ + + + @ $ : > > > 1 ",
", - & & = > < 2 q.y v.u < < t 2 4 4 r t s : : > > < < < > : > = & 6 0 6 > > > > > 1 2 4 4 4 f g A 4 < > , - & & * > : > t < < 9 ",
"< : : : : > < 2 d P H y 3 3 2 4 4 t 2 2 > 9 > > > > < > < : > > > < > - - > > > < 4 f f g g h h h l f 3 > > < : : < > 2 2 2 2 < ",
"i > > > = : < 2 y u y t 2 1 t y y 2 2 < > > , < < > 1 1 1 2 2 < < 2 < : & : > > 1 4 d f h g g g g l h 4 < > > : < < t 2 5 5 4 2 ",
"2 < > < > > > < < t 2 r 2 2 i G.y < 2 > > > & : > > < 2 5 5 4 5 2 r 2 < > > < < 1 < 2 n g f g A g g g 4 < : > < < 2 4 y u 4 d 4 ",
"5 1 < < < : & : < < r < 2 2 3 y t < < > & & $ & 1 1 4 u 5 5 4 4 2 4 2 2 2 < < < < < < t n f S f g h g 4 < < < 2 r 4 4 4 f Q J n ",
"3 1 : > < : = : > , < 2 4 y 3 2 < > > > = * $ & < < 2 2 2 5 5 5 n 2 2 4 4 2 < < 1 < t 2 4 4 f g g g N m 2 < < 4 g g f f N A.H 4 ",
"< > = & > > & > < 2 2 4 y 3 2 2 < < = > $ @ + = > 2 2 2 3 y 2 5 n 4 t 2 4 4 2 > > < < < 2 4 g g g N 4 5 < < 4 l ^ x g 4 u y 2 2 ",
"> > * $ & = & < < 2 2 p t.2 2 5 < : & & $ @ + @ > < > < < 3 2 2 u 4 d 4 n f y < > < 1 1 2 n g g n y 5 3 2 5 g ( ( k f 4 2 2 , = ",
"$ * & & = > > < < t < t t i 2 3 > * $ $ $ @ + @ $ - = > < < 2 2 5 4 4 4 f n N 4 > > < 2 4 G h g g N 2 3 g h l ( ( h i < > & $ * ",
"& & * > 9 t 1 3 p :.< > > < < & = $ $ $ $ @ $ $ $ & : : , 1 2 2 5 u n n n A f 5 < > < 2 n g g h h T.i.g v v ( { ] J l.= * * & & ",
"& & > > 5.W.p 2 3 t < > : > : = & & > - > * = - & & & : : < 2 5 4 u 4 d N G 4 2 < > , < 4 g h h R V.#.) | | | | ( g 2 = : > : & ",
"> < < > p F.p 8.3 3 r < > - & & $ = > > < 6 < > > : = > 1 2 5 5 m 5 u 4 N A d 2 < w 9 < < d A A g h h k | X.} } ^ k f < > < < > ",
"2 2 2 < r 8 5.R.p 1 < > & & & = = : - , 0 l.6 > < > < < < 2 4 u s.u 4 4 4 S f 2 < > 6 6 t y 4 d f g h v | } { { ^ h f 4 2 2 2 2 ",
"2 < 2 < < < i p 1 1 > > = & & & & & & = > > > < < < > < 3 5 5 5 f n n 4 d f f 2 > : :.0 l.i 3 u d g h v } ^ x x k h f 5 2 2 2 4 ",
"2 2 t < < 1 1 2 < < < > > = = & = & = : > > , > < 1 < t 2 u 5 5 5 u 4 2 2 d 4 4 > * * > < l.9 2 u y f v R k v h g g N y 2 2 3 2 ",
"2 K i : > 1 1 3 1 < < < < : = : > > : : > = > > < < < t t 2 2 2 2 5 2 2 2 4 4 2 < > , : > =.8 3 4 u d h k h g N f g d 2 2 < < < ",
"r K < < , 1 3 1 < < 1 > > : > : > > > > > > < 2 2 2 < < < 3 2 2 1 2 2 5 y y < 2 < < > , > 1 < < 4 d d g g f 4 n d f 4 r < , > < ",
"> < < < > > < > > > > < > : : > : > < : < < r 2 2 2 2 < < < 2 2 < 3 2 4 2 2 t < < < : t g.i 2 < 2 4 N f 4 y 4 4 2 5 2 2 < : > > ",
"> < > > > > > > > > < < < > : = = = > : > > > < < 4 < > > > < < 1 < 3 < 2 < 2 2 < < < =./.5.< < < t f n 4 2 4 2 1 < < > = = , > ",
"> > > > > > > > < < < < > : , - & = & & & & & : > > : = = : > 1 > < w.K.8 8 2 2 < > < r i < < < < 1 5 f 4 5 t 2 < , > = & & : > ",
"> > >.9 > > < < < 2 < < < : = $ & & & & $ & & = < : : = = = > > > 1 g.I.t 2 2 q.8 < 2 8 2 < < < > 1 3 f f 5 < < > > * = = & = : ",
"> > t < < < < 2 < < 2 < > 8 = & $ $ $ $ & & & & > = > < > & = - > > > 6 < 2 4 2 2 4 4 3 2 < 1 1 < > < 4 d 2 < < < > & $ & & & & ",
"> < s 8 < < < 3 r < < 2 8 x.> > : & & & & & & & : = = > > : & & & - > > < 2 p B d A u 4 2 2 3 < < < 2 u 4 2 r 3 8 = & $ > > : & ",
"< 8 9.t 2 2 t 2 r < < < > 6 > : < , : = : & $ : = $ = = > < > - & = w > > 8 I.i.I G g f u 2 5 2 < < 3 4 2 < < < > k.= = ,.6 & : ",
"1 < 3 4 5 5 4 f 4 2 2 8 > < : = = = > : & $ & : : $ & = < p 8.< : - & $ > 1 p y d N f f g f 4 f 4 3 2 4 < 8 < < > 6 - * - & & > ",
"< < 2 d d S N f f 4 2 < < < 1 > = : 3.- $ * : : & & > < < H f.3 > : & * * < 2 2 N f g d f f f f f 5 f 1 8 < < > = & & 7 7 $ - > ",
"> > < 4 d f 4 4 f f d 2 5 2 2 < > = : % $ > < < : < < < 2 4 y 2 < & $ * > < 1 5 f f g g d B u d 4 4 2 < > > : = & $ $ q 7 $ $ : ",
"> : > < 4 2 r 4 4 4 N n 4 4 2 t > > = $ > < < > > < 2 2 4 f g d 4 < > > > > < 2 d f g f B t.r 8 2 < , : > > - * + @ @ + + + $ % ",
"e.< > > 2 4 u 4 4 4 f f f 4 2 < < : > = < < > < 2 2 u g h v x h f 2 < < < < < 2 4 d N N 2 2 8 6 > : = = > > * $ + + + # + $ * = ",
"-.6 : < < r 4 4 u d 4 4 f f 4 < 1 1 < 2 2 2 < 2 4 2 u h ) *.U.! g 4 2 2 2 2 2 f d 4 N u r < i k.: % $ $ & 6 -.$ @ O + O + $ * , ",
"6 > : > < 2 2 r 2 2 4 2 2 u 4 2 2 1 5 f f 5 5 5 2 5 f h ] Y.^.b.f 4 2 2 4 4 4 4 4 4 4 2 < > , = $ @ $ * & 7 e + + + + O $ $ - 6 ",
"l.> > > < < r r 2 4 4 4 5 2 5 y 2 4 f 4 5 u 2 5 u g h x { ] $.W g f 4 d 4 2 5 2 5 4 5 < > > * $ $ @ $ @ $ $ + O + + + + $ $ & =.",
"6 > > < < < r.G.y 4 f 4 f f 4 2 5 F f 4 5 2 2 f n h ^ { ) R I g d 4 u 2 2 1 < 3 2 2 5 < > : $ $ * ;.$ @ + + O o o + + @ $ $ = 6 ",
"< > < > > < 0.c.N N N f f f f u g 4 4 5 5 u f S h v ] R T d.G 4 2 < r t , > , > < 2 < > > > $ $ $ e % + + + + O O O O + $ $ & : ",
"< < < > > > 2 2 u 4 N 4 f g h h F 4 2 2 4 g h h h k v I g g d u p < < 6 > > > > < < 2 > > & $ @ + + + + + $ $ + $ + O $ $ $ & : ",
"> - > > > < < < 4 4 2 4 4 g v X.k n 4 d g h h k k k h G g g f 6.R.H < > : : < 8 < < < < > & $ + $ # O . o $ 1.@ $ $ $ $ $ $ & & ",
"& & & = > > 2 2 2 t 2 y d h { ..o.h N g h h h k h h g A g Y g G y.d : : : : < < < < r < > * $ $ 7 P.+ # . o O + O @ $ $ $ $ & & ",
": = = & = > < 2 2 5 5 4 g k v X. .x h h k h h h g g g I h x g f B r = = , = : < > i J.i * $ @ $ & - O o . . . O + @ & & & = : > ",
"< > < < < < 1 2 4 g g h k h h k } ^ g N G G A h I g G k x v h d y > , 6 6 $ = : , 0 L.i = $ % @ @ + o .     . . + $ & * = $ = > ",
"< < < < t 4 4 f g g g g f g h k v h f 4 N g g g h g Y v ` ^ l f 4 < = e.,.= & = & & = & = & $ O o + .   . . O @ $ & , 7 = = = > ",
"< < < 4 u n F p.J g g 4 f h h g g f 2 2 f h g g h h k ] | / h g d < > > > & = & = & & @ & -.$ O o o . . o O O @ $ $ & > & : : > "
};
