/* XPM */
static char *result[] = {
/* columns rows colors chars-per-pixel */
"100 100 8 1 ",
"  c #17173C",
". c #DDDDF0",
"X c #121231",
"o c #111131",
"O c #B1B1DA",
"+ c #0D0D26",
"@ c #09091A",
"# c #05050F",
/* pixels */
"                                                                  ..      XXXXXXXXXXXXXXXXXXXXoooooo",
"                                                                  ..      XXXXXXXXXXXXXXXXXXXXoooooo",
"                                                                        XXXXXXXXXXXXXXXXXoooooooOOoo",
"                                                                        XXXXXXXXXXXXXXXXXoooooooOOoo",
"                                    OO                            XXXXXXXXXXXXXXXXXXXXXoooooooOO..OO",
"                                    OO                            XXXXXXXXXXXXXXXXXXXXXoooooooOO..OO",
"                                  OO..OO                    XXXXXXXXXXXXXXXXXXXXXXXoooooooooooooOOoo",
"                                  OO..OO                    XXXXXXXXXXXXXXXXXXXXXXXoooooooooooooOOoo",
"                                    OO                 XXXXXXXXXXXXXXXXXXXXXXXXXXooooooooooooooooooo",
"                                    OO                 XXXXXXXXXXXXXXXXXXXXXXXXXXooooooooooooooooooo",
"                                                     XXXXXXXXXXXXXXXXXXXXXXXXXXooooooooooooooooooooo",
"                                                     XXXXXXXXXXXXXXXXXXXXXXXXXXooooooooooooooooooooo",
"                                                 XXXXXXXXXXXXXXXXXXXXXXXXXXXXooooooooooooooooooooooo",
"                                                 XXXXXXXXXXXXXXXXXXXXXXXXXXXXooooooooooooooooooooooo",
"                                               XXXXXXXXXXXXXXXXXXXXXXXXXXXoooooooooooooooooooooooooo",
"                                               XXXXXXXXXXXXXXXXXXXXXXXXXXXoooooooooooooooooooooooooo",
"                                           XXXXXXXXXXXXXXXXXXXXXXXXXXXoooooooooooooooooooooooooooooo",
"                                           XXXXXXXXXXXXXXXXXXXXXXXXXXXoooooooooooooooooooooooooooooo",
"                                      XXXXXXXXXXXXXXXXXXXXXXXXXXXXoooooooooooooooooooooooooooooooooo",
"                                      XXXXXXXXXXXXXXXXXXXXXXXXXXXXoooooooooooooooooooooooooooooooooo",
"                                  XXXXXXXXXXXXXXXXXXXXXXXXXXXXXXoooooooooooooooooooooooooooooooooooo",
"                                  XXXXXXXXXXXXXXXXXXXXXXXXXXXXXXoooooooooooooooooooooooooooooooooooo",
"                              XXXXXXXXXXXXXXXXXXXXXXXXXXXXXXXXoooooooooooooooooooooooooooooooooooooo",
"                              XXXXXXXXXXXXXXXXXXXXXXXXXXXXXXXXoooooooooooooooooooooooooooooooooooooo",
"                       XXXXXXXXXXXXXXXXXXXXXXXXXXXXXXXXXXooooooooooooooooooooooooooooooooooooooooooo",
"                       XXXXXXXXXXXXXXXXXXXXXXXXXXXXXXXXXXooooooooooooooooooooooooooooooooooooooooooo",
"                 XXXXXXXXXXXXXXXXXXXXXXXXXXXXXXXXXXXXooooooooooooooooooooooooooooooooooooooooooooooo",
"                 XXXXXXXXXXXXXXXXXXXXXXXXXXXXXXXXXXXXooooooooooooooooooooooooooooooooooooooooooooooo",
"           XXXXXXXXXXXX...XXXXXXXXXXXXXXXXXXXXXXXooooooooooooooooooooooooooooooooooooooooooooooooo++",
"           XXXXXXXXXXXX...XXXXXXXXXXXXXXXXXXXXXXXooooooooooooooooooooooooooooooooooooooooooooooooo++",
"      XXXXXXXXXXXXXXXXXXXXXXXXXXXXXXXXXXXXXXXooooooooooooooooooooooooooooooooooooooooooooooooo++++++",
"      XXXXXXXXXXXXXXXXXXXXXXXXXXXXXXXXXXXXXXXooooooooooooooooooooooooooooooooooooooooooooooooo++++++",
"XXXXXXXXXXXXXXXXXXXXXXXXXXXXXXXXXXXXXXXXooooooooooooooooooooooooooooooooooooo..oooooooooooo+++++++++",
"XXXXXXXXXXXXXXXXXXXXXXXXXXXXXXXXXXXXXXXXooooooooooooooooooooooooooooooooooooo..oooooooooooo+++++++++",
"XXXXXXXXXXXXXXXXXXXXXXXXXXXXXXXXXXooooooooooooooooooooooooooooooooooooooooooooooooooooooo+++++++++++",
"XXXXXXXXXXXXXXXXXXXXXXXXXXXXXXXXXXooooooooooooooooooooooooooooooooooooooooooooooooooooooo+++++++++++",
"XXXXXXXXXXXXXXXXXXXXXXXXXXXXooooooooooooooooooooooooooooooooooooooooooooooooooooooooooo+++++++++++++",
"XXXXXXXXXXXXXXXXXXXXXXXXXXXXooooooooooooooooooooooooooooooooooooooooooooooooooooooooooo+++++++++++++",
"XXXXXXXXXXXXXXXXXXXXXXXoooooooooooooooooooooooooooooo..oooooooooooooooooooooooooo+++++++++++++++++++",
"XXXXXXXXXXXXXXXXXXXXXXXoooooooooooooooooooooooooooooo..oooooooooooooooooooooooooo+++++++++++++++++++",
"XXXXXXXXXXXXXXXXXooooooooooooooooooooooooooooooooooooooooooooooooooooooooo++++++++++++++++++++++++++",
"XXXXXXXXXXXXXXXXXooooooooooooooooooooooooooooooooooooooooooooooooooooooooo++++++++++++++++++++++++++",
"XXXXXXXXXXXXXooooooooooooooooooooooooooooooooooooooooooooooooooooooo++++++++++++++++++++++++++++++++",
"XXXXXXXXXXXXXooooooooooooooooooooooooooooooooooooooooooooooooooooooo++++++++++++++++++++++++++++++++",
"oooooooooooooooooooooooooooooooooooooooooooooooooooooooooooooo+++++++++++++++++++++++++++++OOO++++++",
"oooooooooooooooooooooooooooooooooooooooooooooooooooooooooooooo+++++++++++++++++++++++++++++OOO++++++",
"oooooooooooooooooooooooooooooooooooooooooooooooooooooooooooo+++++++++++++++++++++++++++++OO...OO++++",
"oooooooooooooooooooooooooooooooooooooooooooooooooooooooooooo+++++++++++++++++++++++++++++OO...OO++++",
"ooooooooooooooooooooooooooooooooooooooooooooooooooooo++++++++++++++++++++++++++++++++++++++OOO++++++",
"ooooooooooooooooooooooooooooooooooooooooooooooooooooo++++++++++++++++++++++++++++++++++++++OOO++++++",
"ooooooooooooooooooooooooooooooooooooooooooooooooooooo++++++++++++++++++++++++++++++++++++++OOO++++++",
"ooooooooooooooooooooooooooooooooooooooooooooooooo+++++++++++++++++++++++++++++++++++++++++++++++++++",
"ooooooooooooooooooooooooooooooooooooooooooooooooo+++++++++++++++++++++++++++++++++++++++++++++++++++",
"oooooo...ooooooooooooooooooooooooooooooo++++++++++++++++++++++++++++++++++++++++++++++++++++++++++++",
"oooooo...ooooooooooooooooooooooooooooooo++++++++++++++++++++++++++++++++++++++++++++++++++++++++++++",
"oooooooooooooooooooooooooooooooooo+++++++++++++++++++++++++++++++++++++++++++++..+++++++++++++++++++",
"oooooooooooooooooooooooooooooooooo+++++++++++++++++++++++++++++++++++++++++++++..+++++++++++++++++++",
"oooooooooooooooooooooooooo++++++++++++++++++++++++++++++++++++++++++++++++++++++++++++++++++++++@@@@",
"oooooooooooooooooooooooooo++++++++++++++++++++++++++++++++++++++++++++++++++++++++++++++++++++++@@@@",
"ooooooooooooooooooooo++++++++++++++++++++++++++++++++..++++++++++++++++++++++++++++++++++@@@@@@@@@@@",
"ooooooooooooooooooooo++++++++++++++++++++++++++++++++..++++++++++++++++++++++++++++++++++@@@@@@@@@@@",
"ooooooooooooooooo++++++++++++++++++++++++++++++++++++++++++++++++++++++++++++++++@@@@@@@@@@@@@@@@@@@",
"ooooooooooooooooo++++++++++++++++++++++++++++++++++++++++++++++++++++++++++++++++@@@@@@@@@@@@@@@@@@@",
"ooooooooooo+++++++++++++++++++++++++++++++++++++++++++++++++++++++++++++@@@@@@@@@@@@@@@@@@@@@@@@@@@@",
"ooooooooooo+++++++++++++++++++++++++++++++++++++++++++++++++++++++++++++@@@@@@@@@@@@@@@@@@@@@@@@@@@@",
"oooo++++++++++++++++++++++++++++++++++++++++++++++++++++++++++++@@@@@@@@@@@@@@@@@@@@@@@@@@@@@@@@@@@@",
"oooo++++++++++++++++++++++++++++++++++++++++++++++++++++++++++++@@@@@@@@@@@@@@@@@@@@@@@@@@@@@@@@@@@@",
"+++++++++++++++++++++++++++++++++++++++++++++++++++++@@@@@@@@@@@@@@@@@@@@@@@@@@@@@@@@@@@@@@@@@@@@@@@",
"+++++++++++++++++++++++++++++++++++++++++++++++++++++@@@@@@@@@@@@@@@@@@@@@@@@@@@@@@@@@@@@@@@@@@@@@@@",
"++++++++++++++++++++++++++++++++++++@@@@@@@@@@@@@@@@@@@@@@@@@@@@@@@@@@@@@@@@@@@@@@@@@@@@@@@@@@@@@@@@",
"++++++++++++++++++++++++++++++++++++@@@@@@@@@@@@@@@@@@@@@@@@@@@@@@@@@@@@@@@@@@@@@@@@@@@@@@@@@@@@@@@@",
"+++++++++++++++++++++OO+++++++@@@@@@@@@@@@@@@@@@@@@@@@@@@@@@@@@@@@@@@@@@@@@@@@@@@@@@@@@@@@@@@@@@@@@@",
"+++++++++++++++++++++OO+++++++@@@@@@@@@@@@@@@@@@@@@@@@@@@@@@@@@@@@@@@@@@@@@@@@@@@@@@@@@@@@@@@@@@@@@@",
"+++++++++++++++++++++OO@@@@@@@@@@@@@@@@@@@@@@@@@@@@@@@@@@@@@@@@@@@@@@@@@@@@@@@@@@@@@@@@@@@@@@@@@@@@@",
"+++++++++++++++++++++OO@@@@@@@@@@@@@@@@@@@@@@@@@@@@@@@@@@@@@@@@@@@@@@@@@@@@@@@@@@@@@@@@@@@@@@@@@@@@@",
"+++++++++++++++++OOOO..OOOOO@@@@@@@@@@@@@@@@@@@@@@@@@@@@@@@@@@@@@@@@@@@@@@@@@@@@@@@@@@@@@@@@@@@@@@@@",
"+++++++++++++++++OOOO..OOOOO@@@@@@@@@@@@@@@@@@@@@@@@@@@@@@@@@@@@@@@@@@@@@@@@@@@@@@@@@@@@@@@@@@@@@@@@",
"++++++@@@@@@@@@@@@@@@OO@@@@@@@@@@@@@@@@@@@@@@@@@@@@@@@@@@@@@@@@@@@@@@@@@@@@@@@@@@@@@@@@@@@@@@@@@@@@@",
"++++++@@@@@@@@@@@@@@@OO@@@@@@@@@@@@@@@@@@@@@@@@@@@@@@@@@@@@@@@@@@@@@@@@@@@@@@@@@@@@@@@@@@@@@@@@@@@@@",
"++@@@@@@@@@@@@@@@@@@@OO@@@@@@@@@@@@@@@@@@@@@@@@@@@@@@@@@@@@@@@@@@@@@@@@@@@@@@@@@@@@@@@@@@@@@@@@@@@@@",
"++@@@@@@@@@@@@@@@@@@@OO@@@@@@@@@@@@@@@@@@@@@@@@@@@@@@@@@@@@@@@@@@@@@@@@@@@@@@@@@@@@@@@@@@@@@@@@@@@@@",
"@@@@@@@@@@@@@@@@@@@@@@@@@@@@@@@@@@@@@@@@@@@@@..@@@@@@@@@@@@@@@@@@@@@@@@@@@@@@@@@@@@@@@@@@@@@@@@@@@@@",
"@@@@@@@@@@@@@@@@@@@@@@@@@@@@@@@@@@@@@@@@@@@@@..@@@@@@@@@@@@@@@@@@@@@@@@@@@@@@@@@@@@@@@@@@@@@@@@@@@@@",
"@@@@@@@@@@@@@@@@@@@@@@@@@@@@@@@@@@@@@@@@@@@@@@@@@@@@@@@@@@@@@@@@@@@@@@@@@@@@@@@@@@@@@@@@@@@@@@@@@@@@",
"@@@@@@@@@@@@@@@@@@@@@@@@@@@@@@@@@@@@@@@@@@@@@@@@@@@@@@@@@@@@@@@@@@@@@@@@@@@@@@@@@@@@@@@@@@@@@@@@@@@@",
"@@@@@@@@@@@@@@@@@@@@@@@@@@@@@@@@@@@@@@@@@@@@@@@@@@@@@@@@@@@@@@@@@@@@@@@@@@@@@@@@@@@@@@@@@@@@@@######",
"@@@@@@@@@@@@@@@@@@@@@@@@@@@@@@@@@@@@@@@@@@@@@@@@@@@@@@@@@@@@@@@@@@@@@@@@@@@@@@@@@@@@@@@@@@@@@@######",
"@@@@@@@@@@@@@@@@@@@@@@@@@@@@@@@@@@@@@@@@@@@@@@@@@@@@@@@@@@@@@@@@@@@@@@@@@@@@@@@@@@@@@###############",
"@@@@@@@@@@@@@@@@@@@@@@@@@@@@@@@@@@@@@@@@@@@@@@@@@@@@@@@@@@@@@@@@@@@@@@@@@@@@@@@@@@@@@###############",
"@@@@@@@@@@@@@@@@@@@@@@@@@@@@@@@@@@@@@@@@@@@@@@@@@@@@@@@@@@@@@@@@@@@@@@@@@@@@@@@@@###################",
"@@@@@@@@@@@@@@@@@@@@@@@@@@@@@@@@@@@@@@@@@@@@@@@@@@@@@@@@@@@@@@@@@@@@@@@@@@@@@@@@@###################",
"@@@@@@@@@@@@@@@@@@@@@@@@@@@@@@@@@@@@@@@@@@@@@@@@@@@@@@@@@@@@@@@@@@@@@@@@@@###########OO#############",
"@@@@@@@@@@@@@@@@@@@@@@@@@@@@@@@@@@@@@@@@@@@@@@@@@@@@@@@@@@@@@@@@@@@@@@@@@@###########OO#############",
"@@@@@@@@@@@@@@@@@@@@@@@@@@@@@@@@@@@@@@@@@@@@@@@@@@@@@@@@@@@@@@@@@@@@@@#############OO..OO###########",
"@@@@@@@@@@@@@@@@@@@@@@@@@@@@@@@@@@@@@@@@@@@@@@@@@@@@@@@@@@@@@@@@@@@@@@#############OO..OO###########",
"@@@@@@@@@@@@@@@@@@@@@@@@@@@@@@@@@@@@@@@@@@@@@@@@@@@##################################OO#############",
"@@@@@@@@@@@@@@@@@@@@@@@@@@@@@@@@@@@@@@@@@@@@@@@@@@@##################################OO#############",
"@@@@@@@@@@@@@#######################################################################################",
"@@@@@@@@@@@@@#######################################################################################",
"@@@@@@@@@@@@@@@@@@@@@@@@@@@@@@######################################################################"
};
