/* XPM */
static char *_316e07f8275479bfea592e28a7c0c74allmj8Iw9kEzZqqm[] = {
/* columns rows colors chars-per-pixel */
"64 47 171 2 ",
"   c #63A1A7",
".  c #60A0A8",
"X  c #60A0A9",
"o  c #61A0A9",
"O  c #60A1A9",
"+  c #61A1A9",
"@  c #63A1A8",
"#  c #62A1A9",
"$  c #63A1A9",
"%  c #63A2A8",
"&  c #62A2A9",
"*  c #63A2A9",
"=  c #61A0AA",
"-  c #61A1AA",
";  c #61A1AB",
":  c #62A0AA",
">  c #62A1AA",
",  c #62A1AB",
"<  c #63A1AB",
"1  c #61A2AA",
"2  c #61A2AB",
"3  c #62A2AA",
"4  c #63A2AA",
"5  c #63A3AA",
"6  c #62A2AB",
"7  c #63A2AB",
"8  c #62A3AB",
"9  c #63A3AB",
"0  c #64A2A8",
"q  c #64A2A9",
"w  c #65A2A9",
"e  c #65A3A9",
"r  c #64A2AA",
"t  c #64A3AA",
"y  c #65A3AA",
"u  c #64A2AB",
"i  c #64A3AB",
"p  c #65A3AB",
"a  c #66A3AA",
"s  c #66A3AB",
"d  c #64A4AA",
"f  c #64A4AB",
"g  c #65A4AB",
"h  c #66A4AA",
"j  c #66A4AB",
"k  c #67A4AB",
"l  c #66A5AB",
"z  c #67A5AB",
"x  c #63A3AC",
"c  c #64A3AC",
"v  c #64A3AD",
"b  c #66A3AC",
"n  c #63A4AC",
"m  c #63A4AD",
"M  c #64A4AC",
"N  c #65A4AC",
"B  c #65A5AC",
"V  c #64A4AD",
"C  c #65A4AD",
"Z  c #64A5AD",
"A  c #65A5AD",
"S  c #66A4AC",
"D  c #67A4AC",
"F  c #66A5AC",
"G  c #67A5AC",
"H  c #67A4AD",
"J  c #66A5AD",
"K  c #67A5AD",
"L  c #66A6AD",
"P  c #67A6AD",
"I  c #65A4AE",
"U  c #65A5AE",
"Y  c #66A5AE",
"T  c #66A5AF",
"R  c #66A6AE",
"E  c #67A6AE",
"W  c #67A7AE",
"Q  c #66A6AF",
"!  c #67A6AF",
"~  c #67A7AF",
"^  c #68A5AC",
"/  c #69A5AC",
"(  c #68A5AD",
")  c #68A6AC",
"_  c #68A6AD",
"`  c #69A6AD",
"'  c #68A7AD",
"]  c #69A7AD",
"[  c #6AA6AD",
"{  c #68A5AE",
"}  c #68A6AE",
"|  c #69A6AE",
" . c #68A7AE",
".. c #69A7AE",
"X. c #69A6AF",
"o. c #68A7AF",
"O. c #69A7AF",
"+. c #6AA7AE",
"@. c #6BA7AE",
"#. c #6AA7AF",
"$. c #68A8AF",
"%. c #69A8AF",
"&. c #69A9AF",
"*. c #6AA8AE",
"=. c #6AA8AF",
"-. c #6BA8AF",
";. c #6AA9AF",
":. c #6BA9AF",
">. c #6CA8AF",
",. c #67A6B0",
"<. c #67A7B0",
"1. c #68A7B0",
"2. c #68A7B1",
"3. c #6AA7B0",
"4. c #67A8B0",
"5. c #67A8B1",
"6. c #68A8B0",
"7. c #69A8B0",
"8. c #69A9B0",
"9. c #68A8B1",
"0. c #69A8B1",
"q. c #69A9B1",
"w. c #6AA8B0",
"e. c #6AA9B0",
"r. c #6BA9B0",
"t. c #6AA8B1",
"y. c #6BA8B1",
"u. c #6AA9B1",
"i. c #6BA9B1",
"p. c #6BAAB1",
"a. c #69A8B2",
"s. c #69A9B2",
"d. c #69A9B3",
"f. c #6AA9B2",
"g. c #6BA9B2",
"h. c #6AA9B3",
"j. c #69AAB2",
"k. c #69AAB3",
"l. c #6AAAB2",
"z. c #6BAAB2",
"x. c #6AAAB3",
"c. c #6BAAB3",
"v. c #6CA8B0",
"b. c #6CA9B0",
"n. c #6DA9B0",
"m. c #6CA9B1",
"M. c #6DA9B1",
"N. c #6EA9B1",
"B. c #6CAAB0",
"V. c #6CAAB1",
"C. c #6DAAB1",
"Z. c #6DABB1",
"A. c #6EAAB1",
"S. c #6CA9B2",
"D. c #6CAAB2",
"F. c #6DAAB2",
"G. c #6CABB2",
"H. c #6DABB2",
"J. c #6CAAB3",
"K. c #6DAAB3",
"L. c #6CABB3",
"P. c #6DABB3",
"I. c #6EAAB2",
"U. c #6EABB2",
"Y. c #6EABB3",
"T. c #6EACB2",
"R. c #6EACB3",
"E. c #6DABB4",
"W. c #6EABB4",
"Q. c #6DACB4",
"!. c #6EACB4",
/* pixels */
"x.x.x.x.x.x.x.c.c.c.c.c.2.<.c.5.x.x.<.<.x.x.<.5.x.x.<.<.<.<.<.<.<.<.<.<.W ,.I I Z 5.I Z Z I Z 9 2 Z 1 Z 1 9 1 1 I X X 9 X X X X ",
"x.x.x.x.2.<.x.2.c.c.J.2.c.x.5.c.<.x.x.x.x.<.O.x.<.<.<.x.x.<.<.<.<.<.<.<.<.W W <.Z I I I Z I Z Z I I 9 9 I 9 I X 2 1 2 X X 9 . X ",
"x.x.x.2.x.x.c.c.d.d.d.d.<.c.c.5.<.x.x.x.x.x.<.2.<.<.<.x.x.<.2.<.<.<.<.<.<.W ,.I I I I I Z I I I I I I 1 I 1 1 I I I X 1 X 9 X . ",
"2.x.x.x.d.d.d.c.d.d.d.d.c.c.5.c.x.x.<.x.<.x.x.2.x.x.<.<.<.W x.<.<.<.<.<.<.<.I <.,.I &.I Z W I I 2 I 2 I 1 I 1 2 X 1 1 X X X 1 . ",
"c.c.l.x.x.x.l.l.x.x.x.x.c.d.d.d.x.&.5.2.x.5.5.&.2.<.x.<.<.x.5.2.<.<.<.<.<.,.,.I 4.I 4.W I I W Z I I I Z 9 9 1 1 1 X 9 X 9 9 X X ",
"x.x.l.l.l.l.l.l.x.x.x.x.d.d.d.d.x.5.x.W W x.x.x.2.x.5.5.<.<.<.<.<.<.<.<.<.<.W ,.I 4.I I Z I I Z Z Z I 9 I 9 I 1 I I 2 1 X X X X ",
"x.m.x.m.l.m.l.m.m.x.x.x.x.x.c.c.x.-.x.-.x.-.5.x.2.2.-.<.5.<.x.x.<.<.<.<.<.<.<.I ,.I I &.&.I I I Z 9 I 9 1 I 1 9 X 1 X 9 9 X 9 X ",
"m.x.m.x.L.x.L.x.x.m.m.m.2.2.x.x.x.x.-.x.5.-.x.5.x.2.-.&.x.W W <.<.<.W <.<.<.I ,.W 5.Z Z I I I I I Z I 9 I 1 I 1 X I 9 9 X X 9 X ",
"x.L.x.L.x.L.x.L.m.x.x.m.l.:.L.x.l.x.-.-.x.-.x.-.5.x.x.<.5.-.5.-.<.2.2.W ,.,.I I <.I <.W I I I I I s I ; I 9 I 9 9 1 ; ; 9 X X I ",
"m.l.m.l.m.l.m.l.l.m.L.:.L.x.L.:.:.x.l.x.-.x.-.x.x.5.-.&.-.5.-.5.2.2.O.2.,.<.2.O.W ,.I ,.W I I I I I I I 9 I X 9 9 I ; ; 9 X X X ",
"Q.l.L.L.L.L.x.m.L.x.m.x.L.l.x.:.:.L.x.L.x.-.x.-.-.x.5.&.&.&.x.W -.5.W 2.W W W <.W I <.W I I I W I I I s 9 I 9 I 9 I X X 9 X X 9 ",
"L.Q.L.L.L.L.L.L.L.L.l.L.x.m.x.L.x.L.:.l.x.x.-.x.x.-.-.x.-.x.-.5.5.O.&.O.O.2.W W <.W I ,.W 9 I I I I < I I ; I X I X I X X I X X ",
"L.L.L.L.L.L.L.L.L.L.L.L.:.m.l.L.L.x.:.m.m.x.-.x.-.5.x.-.5.-.&.-.-.5.x.W W O.2.W ,.I W I I I W s I Z d I ; I I I 9 I 9 X I X 9 X ",
"L.L.L.L.L.L.L.L.L.L.L.L.L.x.:.x.l.m.L.x.l.L.l.-.x.-.-.x.-.x.x.W 5.-.W &.2.W W O.<.W O.I ,.W I s I I Z I I I 9 9 9 I X I X ; I X ",
"L.L.L.L.L.L.L.L.L.L.L.L.L.l.L.x.L.x.l.m.L.x.l.x.-.x.x.-.x.-.5.-.-.5.-.5.-.<.W W W W W W W W W W Z I s I I ; 9 I I 9 X s 9 X X X ",
"L.L.L.L.L.L.L.L.L.L.L.L.L.L.L.m.:.x.L.x.L.:.-.x.x.-.x.5.-.x.x.&.5.-.5.-.&.W 2.O.<.W W I I I I I Z W Z Z 9 I 9 9 9 9 9 9 X I s X ",
"L.L.L.L.L.L.L.L.L.L.L.L.L.L.L.L.x.m.x.m.l.m.l.L.x.-.x.-.x.-.x.-.-.O.O.W x.O.W W O.W W W W I W W d I s d Z 9 Z 9 9 9 9 9   X X X ",
"L.L.L.L.L.L.L.L.L.L.L.L.L.L.L.L.m.x.L.l.L.x.:.x.m.x.-.x.-.x.&.-.5.O.x.x.O.2.O.W W O.W O.W W s W W I I W I I 9 Z 9 9 9 9 9 9 9 X ",
"L.L.L.L.L.L.L.L.L.L.m.Q.L.L.L.L.L.m.l.m.:.x.L.x.l.m.x.-.x.x.-.x.x.O.5.-.O.-.O.x.O.W O.I O.I W d W d I Z I 9 d d 9 9 9 9 s X ; X ",
"L.L.L.L.L.L.L.L.Q.x.Q.Q.L.L.L.L.L.L.L.x.L.L.l.m.m.:.x.x.-.5.x.-.x.O.-.5.-.5.-.2.W O.W O.W O.O.d I I W d s 9 W d 9 9 I 9 X < < < ",
"J.W.J.W.m.L.L.L.J.Q.m.m.Q.Q.J.Q.Q.l.L.m.x.L.x.:.m.l.L.m.-.x.5.-.-.&.<.x.O.O.-.W 2.O.W 2.O.D O.O.W I W s W I 9 d 9 9 9 9 X X 9 X ",
"W.m.W.m.L.L.Q.m.J.W.Q.Q.m.m.Q.J.L.Q.m.L.m.l.x.L.x.L.x.:.x.-.x.x.x.-.O.W x.-.5.W O.W W O.O.I W I O.k W d s 9 Z 9 9 9 9   I 9 9 < ",
"J.W.J.W.W.J.J.J.W.m.m.Q.Q.x.J.J.L.L.L.m.m.m.m.l.m.l.x.-.-.5.x.-.-.x.x.O.O.O.O.2.W O.O.W W O.W O.W O.s s d I s Z s 9 9 9 9 X X s ",
"Q.Q.Q.!.m.W.m.W.J.W.J.J.J.J.J.m.L.L.L.L.m.:.x.L.:.x.x.x.-.x.-.x.5.x.-.O.x.O.2.O.2.W O.2.O.O.D k I k W I W 9 d I 9 9 9 9 9 9 9   ",
"Q.Q.Q.Q.!.m.m.J.W.J.W.m.J.W.m.W.L.Q.l.m.J.m.J.N.c.x.m.x.N.2.x.-.x.-.x.O.O.<.x.W O.W O.O.W D O.O.O.I I W 9 W I s s 9 9 9     9   ",
"Q.Q.Q.Q.J.J.J.W.m.W.J.W.W.m.W.J.m.Q.Q.Q.m.J.N.K.x.m.x.N.O.x.-.x.-.x.x.W -.&.x.O.2.W W 2.2.O.I O.W O.k k W s s W 9 s Z   Z 9 9 1 ",
"Q.Q.Q.Q.Q.Q.m.W.W.m.W.m.J.W.J.W.W.J.x.L.J.m.J.m.m.x.x.2.2.N.-.x.x.x.-.&.-.5.O.O.W O.O.W O.I O.O.W I W I I s s d Z s 9 Z 9   1   ",
"!.W.W.W.Q.Q.!.J.J.W.J.W.W.m.W.m.J.J.J.m.m.J.m.J.m.m.m.m.N.m.2.O.-.5.x.-.5.-.5.-.O.2.W O.W O.O.D O.k s W W s I s 9 s 9   9 9 9 1 ",
"W.W.W.W.W.W.W.W.W.m.I.I.J.W.J.W.W.m.W.J.m.m.J.m.m.m.x.m.x.:.N.x.O.x.:.2.O.x.O.O.O.O.W 2.W O.O.O.W D O.I I s s s Z s 9 9 9 9   1 ",
"W.W.W.W.W.W.W.W.W.I.:.T.T.m.W.m.J.W.J.W.m.J.m.m.m.c.L.l.-.m.2.N.m.x.-.>.2.-.5.-.O.O.O.W O.O.D I W s O.k W s d O.s s s 9   9 9   ",
"W.W.W.W.W.W.W.T.m.T.L.T.L.I.J.W.W.J.W.m.m.m.m.m.J.m.J.m.x.2.N.2.m.x.>.2.O.x.-.5.2.O.W O.W D O.O.O.s s W I s d d Z s 9 s 9   9 . ",
"W.W.W.W.W.W.m.T.T.m.T.:.T.m.T.J.m.W.m.I.m.L.L.m.m.J.m.m.:.N.2.N.m.:.O.O.O.<.&.-.D O.O.W O.O.D W W O.k I W s O.d s 9 s s 9 9 9 9 ",
"!.!.!.T.T.T.L.A.T.T.T.:.T.:.T.m.L.T.L.A.T.:.m.I.m.m.:.L.:.2.N.2.x.>.O.2.>.2.>.O.2.[ 2.O.O.D O.O.I d O.D I s s s s s s 9 9 s   9 ",
"W.!.T.T.T.:.A.L.:.:.T.T.T.T.L.T.T.L.T.A.:.L.:.:.m.m.L.:.m.m.2.N.-.-.>.>.2.>.O.>.D >.O.O.O.O.D O.O.s s O.W s s W I 9 s 9 9 9 9   ",
"T.T.T.T.T.L.T.T.T.T.:.T.:.T.T.m.m.T.A.:.L.:.:.L.m.m.:.m.:.:.N.2.x.>.>.2.O.O.O.>.D 2.O.O.k D O.O.d O.W I W I s s s s s s s . 9 9 ",
"T.T.T.T.:.T.:.T.T.:.T.T.:.T.T.:.T.L.L.A.L.A.T.:.m.L.m.m.:.:.:.:.:.:.-.O.>.>.O.O.O.O.D O.O.O.O.D O.s O.k d s W I d I 9 s s 9 s . ",
"I.m.T.L.m.L.A.T.T.T.:.T.:.T.T.T.:.:.T.m.:.T.:.:.:.L.:.:.:.:.:.x.-.-.-.-.2.O.>.O.O.D 2.O.O.s W W [ s I [ s s W s 9 s s s s . s 9 ",
"L.T.:.A.:.T.A.:.:.T.:.T.T.T.:.T.I.I.T.m.:.T.:.T.L.:.L.:.:.:.m.-.-.-.&.-.>.O.>.O.O.D >.O.[ O.W [ [ W W s [ d d s 0 s 9 9 9 s s . ",
"T.:.T.A.:.T.T.T.T.:.T.T.T.:.T.:.N.I.:.:.:.:.N.:.I.:.:.:.:.:.:.:.-.&.-.] -.-.[ O.O.O.[ O.D O.O.[ s O.s O.d s d s s s s s . s   s ",
"T.T.T.:.T.T.:.:.T.T.T.:.T.:.I.A.A.T.:.L.T.:.:.:.N.:.T.:.:.:.:.:.&.&.] -.-.] -.[ O.O.[ O.D D d [ [ d W s [ s W s 9 s s s s < s . ",
":.T.T.A.A.A.:.T.T.:.T.T.I.:.A.A.A.A.L.:.A.A.:.A.>.:.:.:.:.:.:.:.:.:.-.] ] :.] ] -.] ] [ I O.[ k s O.d [ [ d s [ s s s 9 s s     ",
":.T.:.L.:.L.:.T.T.:.I.:.I.T.A.N.A.A.T.:.:.:.:.N.N.I.m.:.:.>.>.:.:.-.] -.:.] :.[ O.[ -.d [ O.d [ I s [ d s d s d s 9 d     9 9   ",
"T.T.T.:.T.:.T.T.T.I.A.A.N.T.:.I.A.A.A.:.A.:.N.:.:.:.:.:.>.>.>.>.:.] -.] ] :.] ] -.] ] [ d O.[ [ k D s s s s [ 0 s s   9 . s s   ",
"T.:.L.T.T.T.T.:.:.I.T.A.I.m.I.I.A.A.A.N.N.:.N.N.I.:.:.:.>.>.>.O.-.-.] :.:.] ] ] ] ] -.d [ [ d d D D [ k I s d s 9 s s   s 9 9   ",
"T.T.T.I.:.:.T.I.:.T.I.A.N.T.A.A.A.A.A.N.:.:.N.N.N.N.:.:.>.>.:.O.] &.[ :.[ :.] ] ] ] [ d ] ] [ [ D I k k s s d s s s s 0 s s 0 . ",
":.:.I.I.T.T.N.N.A.A.N.A.T.A.A.A.A.A.A.N.N.N.N.:.:.N.>.>.>.>.>.>.] :.[ :.] [ ] [ ] ] [ [ d [ d [ D O.[ s d 0 k s s s 0 . . 0     ",
"I.I.N.I.T.:.N.A.N.A.N.N.:.T.A.A.A.A.A.:.N.N.N.:.:.m.>.>.>.>.>.>.:.] :.:.:.] ] [ ] ] d [ ] ] [ d k d s s s s s s s 9 0 s s s     "
};
