/* XPM */
static char *_84eb109a7004a3ed6324cba64f7d191R5iJYBfPfPCWVYal[] = {
/* columns rows colors chars-per-pixel */
"64 64 55 1 ",
"  c #000104",
". c #01040D",
"X c #020714",
"o c #030817",
"O c #030A1B",
"+ c #030D23",
"@ c #030F29",
"# c #041326",
"$ c #04112D",
"% c #06182D",
"& c #041333",
"* c #04163A",
"= c #05183D",
"- c #141C32",
"; c #0C2535",
": c #041B43",
"> c #081E45",
", c #041E4A",
"< c #05204E",
"1 c #08224D",
"2 c #132445",
"3 c #152C4B",
"4 c #042353",
"5 c #092452",
"6 c #04265A",
"7 c #05295E",
"8 c #092A5C",
"9 c #142F56",
"0 c #1A2D53",
"q c #0F315B",
"w c #1C3A5F",
"e c #222B40",
"r c #23394A",
"t c #3F3B42",
"y c #253C51",
"u c #052C63",
"i c #052F69",
"p c #05316C",
"a c #08346E",
"s c #103464",
"d c #133669",
"f c #053573",
"g c #063877",
"h c #043778",
"j c #043A7C",
"k c #083D7E",
"l c #284154",
"z c #504F55",
"x c #6F6569",
"c c #043D81",
"v c #093F80",
"b c #044086",
"n c #05448A",
"m c #6AACF0",
"M c #95909E",
/* pixels */
":46<<44<<<<<4:*@+@$$@@#OXXXX.XMMMMMuiiau6,,::&&&&&*=,47446664665",
":su447u4466444:$#@$$@@@++OXXXOMMMMM4pjfpu45:,:::3$&*,466664644,:",
"<7644uu6467767:&@$@@@@@@MMMMMMMMMMMMMMMjg64,,,,,>$&&:,6666655,::",
"4774676547777u:*$@@@@++@MMMMMMMMMMMMMMMccf44,4,,*%2*:4666664,:>:",
"7u64776,46d877,:&&@@@@MMMMMMMMMMMMMMMMMMMcfiu44,>*2=,4766644,,,4",
"u644766,4766u6,*&&@@@@MMMMMMMMMMMMMMMMMMMnccipiu4,1444u6466454uu",
"67466741:467u6:&$&@&$@MMMMxxxxxxxMMMMMMMMtttttttti66uuu64444uiu6",
"7676744<,,4476:&$&&@&@MMMMxxxxxxxMMMMMMMMttttttttaiapiuu444uuuu6",
"777u64<<4,<676,*&&$&&&MMxxxxxxxxzxxMMMMMMMMttttttttttipuu6upiui6",
"76776<4<66,66<,**&@&==MMxxxxxxxxzxxMMMMMMMMttttttttttgfpiiiiiiai",
"66u44<4664<64,:::&&*MMxxxxxxxxzzxzzzzzzzzzzxxtttttt;;ttttjhgpifi",
"6774<14485,44<,::&@*MMxxxxxxxxzzxzzzzzzzzzzxxtttttt;;ttttvjjgfpu",
"uu741:<<,,,,,,,:=&xxxxxxxxxxxxxxzzzzzzzzzzzxxxxxxxxxx;;ttttchfau",
"i7,**1q::::,:=::**xxxxxxxxxxxxxxzzzzzzzzzzzxxxxxxxxxx;;ttttcjiii",
"u4:*=1s:*::***::xxtt;;;;ttxxxxxxxzzzzzzzzzzxxxxxxxxxxxxttttcguii",
"4,***=>:*::=**&*xxtt;;;;ttxxxxxxxzzzzzzzzzzxxxxxxxxxxxxtttthfiuu",
":*$*:*ttttttttxxxx;;ttttttzzxxMMMzzzzzzzzMMMMMMMMMMMMxxxxxxttpu4",
"&&&&&*ttttttttxxxx;;ttttttzzxxMMMzzzzzzzzMMMMMMMMMMMMxxxxxxttu4&",
"$&$&ttttttMMMMMMtt;;ttttttMMMMMMMxxzzzzxxMMMMMMMMMMMMMMxxxxxx6:@",
"@@++ttttttMMMMMMtt;;ttttttMMMMMMMxxzzzzxxMMMMMMMMMMMMMMxxxxxx*&@",
"++oOttttMMMMMMMMttttttttttMMMMMMxxxxxxxxxMMMMMMMMMMMMMMxxxxxxxx+",
"OOOXttttMMMMMMMMttttttttttMMMMMMxxxxxxxxxMMMMMMMMMMMMMMxxxxxxxxO",
"oXoOttMMMMMMMMMMttttttzzxxMMMMMM;ttxxxxxxxxMMMMMMMMMMMMxxxxxxxxO",
"oOOOttMMMMMMMMMMttttttzzxxMMMMMM;ttxxxxxxxxMMMMMMMMMMMMxxxxxxxxO",
"#+OOMMMMMMMMMMMMxxxxMMMMMMxxttttt;;zzxxxxxxMMMMMMMMMMMMzzxxxxxxr",
"+OOOMMMMMMMMMMMMxxxxMMMMMMxxttttt;;zzxxxxxxMMMMMMMMMMMMzzxxxxxx+",
"++MMMMMMMMMMMMxxxxxxMMMMMMxxttttt;;zzxxxxzzxxMMMMMMxxzzzzxxxxxx+",
"++MMMMMMMMMMMMxxxxxxMMMMMMxxttttt;;zzxxxxzzxxMMMMMMxxzzzzxxxxxx+",
"@+MMMMMMMMxxttttxxxxxxxxxxxxtttttttmmxxxxxxzzzzMMMMMMxxxxxxxx&@@",
"@@MMMMMMMMxxttttxxxxxxxxxxxxtttttttmmxxxxxxzzzzMMMMMMxxxxxxxx&o+",
"+OMMMMMMzzttzzzzxxttttttttttttxxxxxmmttxxxxxxMMMMMMMMxx;;;;xx@Xo",
"OOMMMMMMzzttzzzzxxttttttttttttxxxxxmmttxxxxxxMMMMMMMMxx;;;;xxOXo",
"OeMMMMxxzzzzzzzztt;;;;;;tt;;;;ttxxxxxttxxMMMMMMMMMMMMzz;;xxxxX.O",
"O@MMMMxxzzzzzzzztt;;;;;;tt;;;;ttxxxxxttxxMMMMMMMMMMMMzz;;xxxxO.X",
"O+MMMMxxzzzzzzxx;;;;;;ttttttttttxxxxxxxxxMMMMMMMMMMMMxxzzmmxxoXo",
"oOMMMMxxzzzzzzxx;;;;;;ttttttttttxxxxxxxxxMMMMMMMMMMMMxxzzmmxxoOX",
"oO$>xxxxxxzzzzxx;;;;ttttttttttttxxxttxxxxxxMMMMMMMMMMxxmmmmxxoOo",
"O+*,xxxxxxzzzzxx;;;;ttttttttttttxxxttxxxxxxMMMMMMMMMMxxmmmmxxXoO",
"+=xxxxxxxxxxxxxxtt;;ttttttttttttmxxttxxxxxxxxxxttttxxxxxxxxxxXOO",
"&,xxxxxxxxxxxxxxtt;;ttttttttttttmxxttxxxxxxxxxxttttxxxxxxxxxxO+@",
"=,6uxxxxttxxMMMMMMttttttttttttmmmttttxxxxxxxxtt;;ttttxxxxxxxxO@@",
":<6ixxxxttxxMMMMMMttttttttttttmmmttttxxxxxxxxtt;;ttttxxxxxxxx+@@",
":,xxxxxxxxttMMMMMMxxttttttttxxxxt;;;;tttttttt;;;;ttttxxxxxx.XO+@",
"=:xxxxxxxxttMMMMMMxxttttttttxxxxt;;;;tttttttt;;;;ttttxxxxxx.OO@@",
"&:14xxxxxxttttttttxxxxmmmmxx;;;;;;;;;tt;;;;tt;;;;zzxxxxxxzz XOO@",
"@&::xxxxxxttttttttxxxxmmmmxx;;;;;;;;;tt;;;;tt;;;;zzxxxxxxzz  .O@",
"$@*:zzxxxxtttt;;;;;;ttttxx;;;;;;;;;;;tt;;;;tt;;;;zzxxxxzzzz...+@",
"@@*,zzxxxxtttt;;;;;;ttttxx;;;;;;;;;;;tt;;;;tt;;;;zzxxxxzzzz.XOO@",
"@$&:mmzzzzzztt;;;;;;;;;;xx;;;;;;ttt;;;;tttt;;ttttttzzzzzzmmooO++",
"@$&:mmzzzzzztt;;;;;;;;;;xx;;;;;;ttt;;;;tttt;;ttttttzzzzzzmmOOOOO",
"@&=:5,mmzzzzzzzz;;;;;;;;xxtt;;ttt;;;;;;;;;;;;;;;;;;zzzzmmmmoOOo+",
"@&>,44mmzzzzzzzz;;;;;;;;xxtt;;ttt;;;;;;;;;;;;;;;;;;zzzzmmmmO++O+",
"@&::4544mmmmzzzzzz;;;;;;;;xxxxtt;;;;;;;tt;;;;;;;;zzmmmmmm++O+-++",
"@&&>,,,,mmmmzzzzzz;;;;;;;;xxxxtt;;;;;;;tt;;;;;;;;zzmmmmmm@@++O@+",
"&&&:,,4,,:mmmmmmzzzz;;;;;;;;;;zz;;;;;;;zzzzzzzzmmmmmmmmo+$&@+O+@",
"&&*:44,4,:mmmmmmzzzz;;;;;;;;;;zz;;;;;;;zzzzzzzzmmmmmmmm+$&&&++@&",
"**=:,::**=:,:*mmmmmmmmzzzzzzzzzz;;;;;zzzzzzmmmmmmoOl@XO@****@@@=",
"::,:>**&&*::::mmmmmmmmzzzzzzzzzz;;;;;zzzzzzmmmmmmO+y%+@:::**@@@*",
"=:::=***&*,,,::*&@mmmmmmmmzzzzzzzmmmmmmmmmmmmmm&O++O++&:,:***$@&",
"&=:::***:=,,4,,:&@mmmmmmmmzzzzzzzmmmmmmmmmmmmmm@%$@++&:,:::0=&&*",
"=::,:&***:*:,,49=$+Ommmmmmmmmmmmmmmmmmm,476:=&&@$$&@$*:,,::::::*",
":46,:=**:::=:=::&@+Ommmmmmmmmmmmmmmmmmm6674:=*@@&&:*&*,,,,,::::*",
",444,::::::::=*&$@@Oo..oooOOOO$&,,,4646uu6,:**@@@&*:::,<<,:,,::,",
",,,4:,:,,,,:::*$@#$@OOXXXXX.XOO&,86u8upi7,:***&@&*=::4444444,444"
};
