/* XPM */
static char *_41fd3e800c8412dbf921995a2f9ad145NSghIzAXWFuTgdc[] = {
/* columns rows colors chars-per-pixel */
"64 64 151 2 ",
"   c #010103",
".  c #01040C",
"X  c #010614",
"o  c #030816",
"O  c #030A1C",
"+  c #030D23",
"@  c #030F29",
"#  c #051226",
"$  c #0B1626",
"%  c #04112D",
"&  c #0C162E",
"*  c #06182D",
"=  c #0C182B",
"-  c #041333",
";  c #04163A",
":  c #05183D",
">  c #091B3A",
",  c #141C32",
"<  c #0C2535",
"1  c #10223E",
"2  c #041B43",
"3  c #081E45",
"4  c #041E4A",
"5  c #072146",
"6  c #092041",
"7  c #05204E",
"8  c #08224D",
"9  c #132444",
"0  c #152C4B",
"q  c #192F4B",
"w  c #052353",
"e  c #092452",
"r  c #082854",
"t  c #04265A",
"y  c #05295E",
"u  c #082A5D",
"i  c #09295C",
"p  c #092A5B",
"a  c #142F56",
"s  c #1A2D53",
"d  c #0F315B",
"f  c #15335A",
"g  c #1C3A5F",
"h  c #222B40",
"j  c #24394D",
"k  c #3F3B42",
"l  c #253C51",
"z  c #042960",
"x  c #042A60",
"c  c #042A61",
"v  c #052B61",
"b  c #072B60",
"n  c #062B61",
"m  c #042A62",
"M  c #042B62",
"N  c #052B62",
"B  c #072C61",
"V  c #062C62",
"C  c #042C64",
"Z  c #042C65",
"A  c #042D66",
"S  c #042D67",
"D  c #042E67",
"F  c #062E66",
"G  c #072E67",
"H  c #052C64",
"J  c #042E68",
"K  c #042F69",
"L  c #052F69",
"P  c #042F69",
"I  c #063069",
"U  c #04306B",
"Y  c #04316C",
"T  c #04316D",
"R  c #07336D",
"E  c #06336E",
"W  c #05316C",
"Q  c #08316A",
"!  c #08336C",
"~  c #103464",
"^  c #133669",
"/  c #1F3F68",
"(  c #043370",
")  c #053370",
"_  c #063370",
"`  c #043573",
"'  c #043776",
"]  c #053573",
"[  c #083571",
"{  c #063877",
"}  c #043778",
"|  c #063979",
" . c #04397B",
".. c #043A7B",
"X. c #043A7D",
"o. c #043B7D",
"O. c #043B7E",
"+. c #043C7F",
"@. c #063D7F",
"#. c #053A7B",
"$. c #093B7A",
"%. c #0C3D7B",
"&. c #083E7F",
"*. c #133D72",
"=. c #284154",
"-. c #294966",
";. c #28486A",
":. c #504F55",
">. c #6F6569",
",. c #043D80",
"<. c #043E82",
"1. c #043E83",
"2. c #093F80",
"3. c #044086",
"4. c #054086",
"5. c #044288",
"6. c #044289",
"7. c #04478F",
"8. c #07478E",
"9. c #05448B",
"0. c #09468B",
"q. c #1B4782",
"w. c #134B8C",
"e. c #034790",
"r. c #044790",
"t. c #054891",
"y. c #044892",
"u. c #044A94",
"i. c #034C98",
"p. c #034D9A",
"a. c #054D99",
"s. c #034F9D",
"d. c #044E9A",
"f. c #03519F",
"g. c #04509D",
"h. c #07519D",
"j. c #04519F",
"k. c #185292",
"l. c #225892",
"z. c #0557A6",
"x. c #0352A1",
"c. c #0859A5",
"v. c #0258A9",
"b. c #035EB0",
"n. c #035EB1",
"m. c #0563B6",
"M. c #136FBD",
"N. c #196FBA",
"B. c #6AACF0",
"V. c #95909E",
"C. c #95909E",
/* pixels */
"2 w t 7 7 w w 4 4 w 4 4 w 2 - @ @ @ - - @ @ + O X X . X X X X @ 2 4 7 S S J ) S y 4 2 2 2 - - - - - ; : 4 w y t w t t t w t t 8 ",
"2 ~ c w w y x t w t t t t w 2 % @ @ @ @ @ @ @ @ @ O o X X O + @ - ; 4 w K ,.) K c w w 2 4 2 2 2 0 % % : 4 w t t t t e t w w 4 : ",
"7 t y w t y x y w t y y y y 2 - @ @ @ @ @ @ @ @ % % O O + + @ @ @ ; 4 w ) ,.,. .' y 7 4 2 4 7 4 > - - - 2 4 y t t t w t e 4 2 2 ",
"t y t t t y y e w t y y y c 2 ; & @ + + + + + @ @ @ @ + @ @ @ % - 2 7 w ' r.s.6.@.( t w w 4 w 2 ; & 9 : 2 7 t t t t t w 4 2 2 3 ",
"y y t w t y t 4 w t ^ u y y 4 2 - - @ @ @ @ + + # @ @ @ @ - - - 2 w t z O.r.a.s.6.O.` I c w w 4 2 : 9 : 2 t y y t t w w 4 2 2 t ",
"x t 7 t y t t 4 4 u t y c t 4 ; - % % @ @ @ + + + @ @ @ & % ; 2 2 i w J $.<.e.j.a.7.4.O.J J E y w 5 7 w w t c y w t t w t t u c ",
"y y t t t u t 8 4 w t t c t 2 - % - @ - - @ + % @ @ - @ @ % C.C.C.C.C.Q q.%.r.v.z.j.7.6.O.O.O.| } A y t y c C y w w w t y G c c ",
"y t t t t w 7 7 4 4 w t y t 2 - - - % @ - @ % @ % > ; - ; ; C.C.C.C.C.w y E i.n.M.N.h.x.a.u.t.1.X.E A E E J C y w 4 w y Q H c y ",
"y y x x t w 4 4 w 4 4 y y t 4 - > - @ @ - - - ; - C.C.C.C.C.C.C.C.C.C.C.C.C.i.n.m.c.i.s.a.7.6.1.1.X.| k.w.K E H H y C J J C J c ",
"y t y y t w w 7 t t 4 t t w 4 ; - - - - : 2 2 2 C.C.C.C.C.C.C.C.C.C.C.C.C.C.C.C.x.u.7.r.a.t.9.7.6.,.| | } ] ( E E K L L J J J Q ",
"y w x t w 4 w t t t 4 w w 4 2 2 2 - % - 2 2 2 4 C.C.C.C.C.C.C.C.C.C.C.C.C.C.C.C.0.6.<.6.r.u.r.6.1.1.O.' ' O.} ' } } } ` E E _ J ",
"w z x w 7 4 w t p e 4 w w 7 4 2 : - - : 2 4 4 w C.C.C.>.>.>.>.>.>.C.C.C.C.C.C.C.k k k k k k u.r.6.3.<.O.' | | O.X.2.@.O.' ) E C ",
"S S y w 4 4 7 4 4 4 4 4 4 4 4 2 : - - : 4 w t I C.C.C.>.>.>.>.>.>.C.C.C.C.C.C.C.k k k k k k t.u.e.0.1.3.2.<.$.<.<.1.<.O.| ( E A ",
"S z 4 : : 7 f 2 2 2 2 2 2 : 2 2 : ; - 7 y C Q l.C.>.>.>.>.>.>.>.:.>.>.C.C.C.C.C.C.k k k k k k k k y.6.1.4.4.w.1.1.4.1.<.} E C A ",
"z w 2 ; : 5 f 2 : 2 2 : : ; 2 2 2 : ; w J J C.C.>.>.>.>.>.>.:.:.>.:.:.:.:.:.:.:.:.>.>.k k k k k < k k k k 1.4.5.6.6.4.1.| C J I ",
"w 4 ; - : : 2 2 ; 2 2 ; ; ; ; - 2 6 2 w C J C.C.>.>.>.>.>.>.:.:.>.:.:.:.:.:.:.:.:.>.>.k k k k k < k k k k 0.5.5.<.<.O.| ` J C c ",
"2 2 - ; 2 ; : ; ; ; ; ; 2 2 % ; 2 ;.2 4 >.>.>.>.>.>.>.>.>.>.>.>.:.:.:.:.:.:.:.:.:.>.>.>.>.>.>.>.>.< < k k k 6.,.| } | ' ) I c w ",
"; % - - - ; - ; ; ; 2 ; 2 2 ; 2 2 2 2 >.k k < < < k k >.>.>.>.>.>.:.:.:.:.:.:.:.:.>.>.>.>.>.>.>.>.>.>.k k k 4.| ] ( ) E J A w - ",
"@ % - % % ; - - ; ; 2 2 2 2 2 2 2 4 t >.k k < < < k k >.>.>.>.>.>.:.:.:.:.:.:.:.:.>.>.>.>.>.>.>.>.>.>.k k k } ] U C C C y t 2 % ",
"@ @ + + @ @ % @ - - ; k k k k k k >.>.>.< < k k k k k :.>.>.C.C.C.:.:.:.:.:.:.:.C.C.C.C.C.C.C.C.C.>.>.>.>.>.k k A x c u w : - @ ",
"O + O O + O + @ - - ; k k k k k k >.>.>.< < k k k k k :.>.>.C.C.C.:.:.:.:.:.:.:.C.C.C.C.C.C.C.C.C.>.>.>.>.>.k k S y w 4 : % + + ",
"O O O X X O O + @ k k k k k C.C.C.C.C.k < < k k k k k C.C.C.C.C.C.>.>.:.:.:.>.>.C.C.C.C.C.C.C.C.C.C.C.>.>.>.>.>.y t 4 2 % @ + + ",
"O X O O X X X + + k k k C.C.C.C.C.C.C.k k k k k k k k C.C.C.C.C.>.>.>.>.>.>.>.>.C.C.C.C.C.C.C.C.C.C.C.>.>.>.>.>.>.4 4 2 @ + + X ",
"O O O O O X O O + k k k C.C.C.C.C.C.C.k k k k k k k k C.C.C.C.C.>.>.>.>.>.>.>.>.C.C.C.C.C.C.C.C.C.C.C.>.>.>.>.>.>.4 2 ; @ + O O ",
"+ + O O O O O O + k k C.C.C.C.C.C.C.C.k k k k k :.>.>.C.C.C.C.C.< k k >.>.>.>.>.>.C.C.C.C.C.C.C.C.C.C.>.>.>.>.>.>.2 ; @ + + O j ",
"O O O O O O O O X k k C.C.C.C.C.C.C.C.k k k k k :.>.>.C.C.C.C.C.< k k >.>.>.>.>.>.C.C.C.C.C.C.C.C.C.C.>.>.>.>.>.>.- % @ @ + O # ",
"O + + O O X X O + C.C.C.C.C.C.C.C.C.C.>.>.>.C.C.C.C.C.>.k k k k k < < :.:.>.>.>.>.C.C.C.C.C.C.C.C.C.C.:.:.>.>.>.>.; ; - ; + O + ",
"+ + + O + O O O C.C.C.C.C.C.C.C.C.>.>.>.>.>.C.C.C.C.C.>.k k k k k < < :.:.>.>.>.:.>.>.C.C.C.C.C.>.:.:.:.:.>.>.>.>.2 2 : ; - O + ",
"@ @ + + + + O O C.C.C.C.C.C.C.C.C.>.>.>.>.>.C.C.C.C.C.>.k k k k k < < :.:.>.>.>.:.>.>.C.C.C.C.C.>.:.:.:.:.>.>.>.>.; ; : ; - + @ ",
"@ @ @ @ @ @ + + C.C.C.C.C.C.>.>.k k k >.>.>.>.>.>.>.>.>.k k k k k k k B.B.>.>.>.>.:.:.:.:.C.C.C.C.>.>.>.>.>.>.>.- ; 2 2 ; - O @ ",
"+ O + @ @ @ + @ C.C.C.C.:.:.k k :.:.:.>.k k k k k k k k k k >.>.>.>.>.B.B.k >.>.>.>.>.C.C.C.C.C.C.>.>.< < < >.>.% ; 2 : % + X o ",
"O O + + + + + @ C.C.C.C.:.:.k k :.:.:.>.k k k k k k k k k k >.>.>.>.>.B.B.k >.>.>.>.>.C.C.C.C.C.C.>.>.< < < >.>.@ ; ; 2 % O X o ",
"+ h + # + + + + C.C.C.>.:.:.:.:.:.:.:.k < < < < < k k < < < k k >.>.>.>.>.k >.>.C.C.C.C.C.C.C.C.C.:.:.< < >.>.>.@ - - ; @ o X o ",
"o + % % + - @ - C.C.C.>.:.:.:.:.:.:.:.k < < < < < k k < < < k k >.>.>.>.>.k >.>.C.C.C.C.C.C.C.C.C.:.:.< < >.>.>.+ @ @ @ @ O . o ",
"O + % % : ;.5 : C.C.C.>.:.:.:.:.:.>.>.< < < < < k k k k k k k k >.>.>.>.>.>.>.>.C.C.C.C.C.C.C.C.C.>.>.:.:.B.>.>.O O + + + X o o ",
"o O % - 2 8 4 4 w >.>.>.>.>.:.:.:.>.>.< < < k k k k k k k k k k >.>.>.k k >.>.>.>.C.C.C.C.C.C.C.C.>.>.B.B.B.>.>.O X O + O O O X ",
"O O - 2 4 4 t y H >.>.>.>.>.:.:.:.>.>.< < < k k k k k k k k k k >.>.>.k k >.>.>.>.C.C.C.C.C.C.C.C.>.>.B.B.B.>.>.X X X O X O O o ",
"o + > 4 t y c c >.>.>.>.>.>.>.>.>.>.>.k < < k k k k k k k k k k B.>.>.k k >.>.>.>.>.>.>.>.k k k >.>.>.>.>.>.>.>.X X X X X X O o ",
"+ 2 4 c J C E [ >.>.>.>.>.>.>.>.>.>.>.k < < k k k k k k k k k k B.>.>.k k >.>.>.>.>.>.>.>.k k k >.>.>.>.>.>.>.>.X . . . X X X O ",
"- 4 w H J y G [ } >.>.>.k k >.>.C.C.C.C.k k k k k k k k k k B.B.B.k k k k >.>.>.>.>.>.k k < k k k >.>.>.>.>.>.>.X . . . O O + @ ",
": 4 t H J H S K >.>.>.>.>.>.k k C.C.C.C.>.>.k k k k k k >.>.>.>.k < < < < k k k k k k < < < k k k >.>.>.>.>.+ O . .   . o O @ @ ",
"2 4 t C J J J ) >.>.>.>.>.>.k k C.C.C.C.>.>.k k k k k k >.>.>.>.k < < < < k k k k k k < < < k k k >.>.>.>.>.O . .       . + @ % ",
"2 4 t J E L J ' &.>.>.>.>.>.k k k k k k >.>.>.>.B.B.B.>.< < < < < < < < < k < < < k k < < < :.:.>.>.>.>.>.:.          . X O + @ ",
"2 2 w y H L ) } ' :.:.>.>.>.k k k < < < < < k k k >.>.< < < < < < < < < < k < < < k k < < < :.:.>.>.>.:.:.:.          . o + + % ",
"- 2 e 4 c J J _ J :.:.>.>.>.k k k < < < < < k k k >.>.< < < < < < < < < < k < < < k k < < < :.:.>.>.>.:.:.:.            X O O @ ",
"@ - 2 2 7 w t c C B.B.:.:.:.:.:.k < < < < < < < < >.>.< < < < < k k k < < < k k k < < k k k k k :.:.:.:.:.B.              . O @ ",
"@ % : 2 2 2 4 w c B.B.:.:.:.:.:.k < < < < < < < < >.>.< < < < < k k k < < < k k k < < k k k k k :.:.:.:.:.B.        . . . X + @ ",
"@ @ : 4 4 4 4 w y H C B.:.:.:.:.:.:.:.< < < < < < >.>.k < < k k k < < < < < < < < < < < < < < < :.:.:.B.B.B.    . . . X . O O @ ",
"@ @ - 2 w w 4 4 w t u c B.B.B.B.:.:.:.:.< < < < < < < >.>.>.k k < < < < < < k k < < < < < < :.:.B.B.B.B.B.      . o o o o O + + ",
"@ - - 2 4 4 3 3 4 4 w 4 B.B.B.B.:.:.:.:.< < < < < < < >.>.>.k k < < < < < < k k < < < < < < :.:.B.B.B.B.B..   . . $ = O O O O O ",
"@ - ; 2 w 4 4 4 2 4 4 4 4 4 B.B.B.B.B.:.:.:.< < < < < < < < :.:.< < < < < < :.:.:.:.:.:.:.B.B.B.B.B.B.X . . .   . O + O O O O + ",
"@ - 2 4 w w e 2 2 t / 3 2 2 B.B.B.B.B.:.:.:.< < < < < < < < :.:.< < < < < < :.:.:.:.:.:.:.B.B.B.B.B.B.X . . . . . O O O O O O @ ",
"@ - 2 4 4 w w w 4 4 e 2 4 4 4 2 3 B.B.B.B.B.B.B.:.:.:.:.:.:.:.:.< < < < < :.:.:.:.B.B.B.B.B.; % + o o o X o X . o @ + O @ , + + ",
"@ & - 2 w 4 4 w 4 4 2 4 4 2 : ; ; : - @ B.B.B.B.B.B.B.:.:.:.:.:.:.B.B.B.B.B.B.B.B.B.B.B.B.; ; 1 # O o O o . X . O @ @ + + O + @ ",
"- - % 2 4 4 4 4 4 2 : : : > - - - ; - @ B.B.B.B.B.B.B.:.:.:.:.:.:.B.B.B.B.B.B.B.B.B.B.B.B.2 6 q + O O O X . . o + % - @ + O + % ",
"; ; ; 2 e w w 4 4 : ; ; ; ; : ; ; - - % % @ B.B.B.B.B.B.B.B.B.B.B.B.B.B.B.B.t 7 t H t 2 2 2 : ; % O O O o o X + - - - - + O % - ",
"; ; 2 2 4 2 2 ; ; : 2 2 2 2 ; ; ; - @ + + + # + # 9 2 2 2 7 f : 2 4 4 4 4 t w 4 t *.u 2 2 2 : @ O O O =.@ X O % - ; : ; @ @ @ ; ",
"2 2 2 2 3 : ; - - ; 2 2 2 2 : ; - % @ O O O O O O & - : : ; 2 2 4 e 4 4 7 w w 4 w c y 3 2 2 > % O o # l % + % ; 2 2 : - @ @ @ ; ",
": 2 2 2 : ; ; ; - ; 4 4 4 2 2 ; - % % + O O O O + @ @ % - ; 2 4 5 4 w 4 4 4 w 4 w t y 2 ; 2 - % + + + O + + ; 2 2 2 ; : ; % @ - ",
"; : 2 2 : ; - ; 2 : 4 4 w 7 4 : - % + + O . o + + + @ @ - - : 2 4 4 w w w 4 4 4 w y w 4 : - - % % % % + + - 2 4 4 2 : s : - - ; ",
"; 2 2 4 2 - ; ; : 2 : 2 4 4 w a ; - O O O . O O + + O - : - - : 2 4 8 w w 7 4 4 w y t 4 : - - % % - % @ % ; 2 4 4 2 2 2 2 2 2 ; ",
"2 w w 4 2 ; ; ; 2 2 : 2 2 2 2 : - % + O X o X O O o O # j @ @ - 3 2 4 4 4 4 w y z m 7 2 : ; @ @ - - : : ; ; 2 7 4 4 4 2 2 2 : ; ",
"4 w t w 4 2 2 2 2 2 2 : 2 : ; - % @ @ O o . . o o O O o O O @ ; 4 4 4 w t w y H x w 2 2 : - @ @ - - ; 2 2 2 4 7 7 4 4 4 4 4 4 4 ",
"4 4 w 4 2 4 4 4 4 2 4 2 2 2 ; % + % % @ O O o . o . X X o O O & 4 u y y y c L J y 4 2 : : ; % @ - - 2 : 2 7 w w w w 7 7 7 7 7 w "
};
