/* XPM */
static char *bbaec424382246ca80dcc252ff5ef22bn9JwSIG6rlpt2o6f[] = {
/* columns rows colors chars-per-pixel */
"64 64 213 2 ",
"   c None",
".  c #010100",
"X  c #060903",
"o  c #0A0D04",
"O  c #0E1206",
"+  c #0E1C06",
"@  c #0F1709",
"#  c #0F1C09",
"$  c #111507",
"%  c #121C06",
"&  c #121608",
"*  c #141B09",
"=  c #191E0A",
"-  c #152406",
";  c #152B05",
":  c #192C07",
">  c #14230B",
",  c #1C230C",
"<  c #172B0B",
"1  c #1B2B0A",
"2  c #1B3306",
"3  c #1C330C",
"4  c #1E3A0C",
"5  c #1C3907",
"6  c #1B2611",
"7  c #1C2A13",
"8  c #192A15",
"9  c #1C3213",
"0  c #1E3A12",
"q  c #1D331B",
"w  c #1F3B18",
"e  c #20270D",
"r  c #232B0E",
"t  c #23340D",
"y  c #223C0C",
"u  c #242D12",
"i  c #282F12",
"p  c #253313",
"a  c #2B3414",
"s  c #223C13",
"d  c #2C3A15",
"f  c #243519",
"g  c #243B1C",
"h  c #2C3C1B",
"j  c #313D1B",
"k  c #303817",
"l  c #1E3B24",
"z  c #233E22",
"x  c #293F20",
"c  c #23430D",
"v  c #254A0E",
"b  c #244414",
"n  c #2B4214",
"m  c #264A14",
"M  c #294B15",
"N  c #25421C",
"B  c #2C421D",
"V  c #27491B",
"C  c #2B4C1C",
"Z  c #31431E",
"A  c #314C1F",
"S  c #2A5215",
"D  c #2C531B",
"F  c #2E591D",
"G  c #305F1E",
"H  c #31601F",
"J  c #244324",
"K  c #2B4423",
"L  c #2B4B25",
"P  c #244629",
"I  c #264A2B",
"U  c #2C4D2B",
"Y  c #284826",
"T  c #334522",
"R  c #334B25",
"E  c #334E2A",
"W  c #31472B",
"Q  c #2E5423",
"!  c #2D532D",
"~  c #2F5828",
"^  c #325324",
"/  c #325C24",
"(  c #34532C",
")  c #345B2C",
"_  c #38552F",
"`  c #2C5532",
"'  c #2D5A35",
"]  c #2D5E39",
"[  c #275132",
"{  c #335531",
"}  c #345C33",
"|  c #3A5D33",
" . c #315E38",
".. c #3C5634",
"X. c #284E31",
"o. c #336225",
"O. c #35632B",
"+. c #3A652E",
"@. c #37692A",
"#. c #396B2C",
"$. c #366827",
"%. c #2E643D",
"&. c #366234",
"*. c #396335",
"=. c #3C6C33",
"-. c #33643B",
";. c #39653A",
":. c #36693E",
">. c #3A6B3D",
",. c #376836",
"<. c #3D7233",
"1. c #3D733B",
"2. c #3C722F",
"3. c #425F3B",
"4. c #44663B",
"5. c #426B3A",
"6. c #486C3F",
"7. c #416437",
"8. c #417936",
"9. c #44743B",
"0. c #427A3B",
"q. c #497C3D",
"w. c #48753C",
"e. c #346C42",
"r. c #3A6D41",
"t. c #336640",
"y. c #367246",
"u. c #3B7344",
"i. c #3F7A44",
"p. c #397649",
"a. c #3D7B4B",
"s. c #3D7F50",
"d. c #4C6D42",
"f. c #446840",
"g. c #4D7443",
"h. c #427C44",
"j. c #4E7B45",
"k. c #427D4C",
"l. c #477341",
"z. c #547C4A",
"x. c #557A4A",
"c. c #417E51",
"v. c #48823E",
"b. c #3E804F",
"n. c #3E8352",
"m. c #3F8956",
"M. c #468243",
"N. c #4B8343",
"B. c #4D8A46",
"V. c #42844C",
"C. c #468A4E",
"Z. c #4E8D4A",
"A. c #4F8649",
"S. c #538447",
"D. c #54834A",
"F. c #5A834E",
"G. c #538B4B",
"H. c #59894D",
"J. c #55924E",
"K. c #5A914E",
"L. c #428553",
"P. c #418A56",
"I. c #498F53",
"U. c #428D59",
"Y. c #5D8451",
"T. c #5E8C52",
"R. c #44925D",
"E. c #499156",
"W. c #559352",
"Q. c #5C9453",
"!. c #5C9B55",
"~. c #5C9D5A",
"^. c #509859",
"/. c #628B56",
"(. c #648D58",
"). c #629355",
"_. c #66915A",
"`. c #69935D",
"'. c #639C59",
"]. c #6A9B5D",
"[. c #629B57",
"{. c #65A25C",
"}. c #6BA35E",
"|. c #479660",
" X c #499660",
".X c #4D9C64",
"XX c #539F68",
"oX c #709A64",
"OX c #6F9B62",
"+X c #54A26A",
"@X c #5AA56D",
"#X c #6CA561",
"$X c #6CA963",
"%X c #73A465",
"&X c #72AC66",
"*X c #76AD68",
"=X c #79AA6B",
"-X c #75A368",
";X c #7BB46D",
":X c #74B169",
">X c #7EB871",
",X c #81B573",
"<X c #83BC75",
"1X c #88BE79",
"2X c #8AC27A",
"3X c #8DC57D",
"4X c #87C279",
"5X c #94CD83",
"6X c #9AD48A",
"7X c #9CD78B",
"8X c #A2DE91",
"9X c #A0DB8E",
"0X c #A4E093",
/* pixels */
"                                                K                       K g.W                                                   ",
"                    x.            d.          0.N.g                     ).4X#X    x.(.W S.|                                     ",
"                  =X8X`.        x.6X3X        0.j.,X-X(               | $X*X;X3.  7X1X7.{.N.              =X-X                  ",
"                g.5X9X1X      9 _.9X7X*X  F.E 9.D.6X5X%X              5.{.'.#X4.`.8X,Xw.J.B.            _.0X9XY.                ",
"        g.x.|   F.2X2X<X    1.0.).3X2X;XF.5XH.<.5.*X<X;XS.            5.J.K.}.7./.,X_.8.N.M.    F.oX    -X5X2X}.                ",
"      (.5X3X;XD.S.;X:X%X7.^ 8.0.S.<X*X&X).3X).#.o.w.}.{.[.^   4.      =.q.v.H.) H.%X7.8.8.8.  d.3X5Xx.  }.<X;X].E H.=X,X_.      ",
"      g.;X<X*X}.S.{.Q.N.;X;Xz.$.8.}.Z.G.N.*X)./ F ) w.v.B.<.| 1X-X    $.$.8.7.K.2X3Xq.$.#.#.  /.2X).H.].H.{.}.Q.T.>X<X<X=X      ",
"        7.}.{.Q.9.Z.v.8.%X>X&Xw./ j.S.w.+.'.'.m +.;Xj.8.<.+.).2X=X  y F S D 5.*X;X}.#.H H o.  ).).K.*X4XD.N.J.B.K.}.:X].        ",
"          9.!.B.o.8.2.@.w.$X#XW.~ >.#X&X) A.!.) H.;XS.H F / '.:X'.< c c m L H.!.}.S.D S M ^ g N.N.{.$X}.#.8.v.=.M.!.'.|         ",
"    w b w 9 B.N./ o.$.H F J.!.Z.O./ Q.#XS.=.B.9.Q.$XA.D v / W.!.S.4 5 5 3 ) v.N.J.$.v c *.#X5.+.G.~.{.w./ $.<./ 8.J.>.          ",
"  Q #.@.o.D &.v.o.V F S b =.Z.1.Q D Z.!.W.~ O.O.W.~.Z.m c F B.M.1.2 ; ; 1 o.$.8.1.b c c Q.!.) O.M.G.W.Q S G o.D 8.B.b b M D b   ",
"9 o.@.F F D V 0.O.b M c 5 Q v.o.m b 9.Z.Z.O.b / N.C.Z.L 2 V <.#.<.< - - 3 D D o./ 5 5 D ~.j.V / 2.v.0.y v S b D 0.=.b S D F F s ",
"    V F D M c ) +.m y y 5 s O.b b 5 =.M.0.1.0 b 1.h.v.&.- b o./ o.< + + 5 m v D b 2 2 ) M.L N G o.#.O.2 y c y / <.n y v v D b : ",
"      s C M y s Q M 3 3 : < >.*.y : *.1.<.=.N 9 O.#.#.2.9 0 D m D < o + 5 4 y v 3 : 1 / Q m 3 D F O.L ; 5 3 b / ~ 3 y c M 3     ",
"        s M y 1.>.b 3 : - J ~.W.s > } =.o.o.V < N / Q / L < n y c 1 o + 3 3 : t ; ; > N 0 4 3 M M / w - 1 1 b C ) 9 y s <       ",
"          s C I.I.C 1 % + ( ^.E.w % ~ O.^ / b p > D C C ^ s y t 3 1 X + : - : : % % % > t : 3 n n D 9 % - : s ,.^.~ y 1         ",
"          > g C.V.,.1 O O ' C.C.N O L / R ^ s p % 9 B n n n 1 1 : - X o % + % % O % O - 1 - t t t M > O + > g V.M.! 1           ",
"   .        > u.h.1.g X X ~ i.i.Q o N ^ M A s 1 % & d y t d 1 % % + o o O O O O O O o % % % 1 1 : d O o o @ O.i.b.Y o           ",
"I E.V.-.! ! J &.1.&.) > . Y ,.=.! o 9 A n n a - % X r t 1 t p & O O O X o X o o X X X O o % % % 1 t o . X f ,.,.1.J L L         ",
"  L.E.V.a.u.,.L ,.^ R B O g ) ( ( @ 8 B k d p * % . % r , - t * o X X . X . X X . . X X X o O O 1 r X . , ^ ) *.*.Q u.b.a.!     ",
"  -.U.a.1.*.) K ( ^ j k p p R Z Z 7 * n a t r $ o . O = & % , , X X . . . . . . . . . . X . X O , , . % d B R O.L ^ 1.V.R.L.    ",
"    1.L.u.*._ C g R d t r u Z k d p & d t r r $ X . o O o o % = . . . . . . . . . . . . . . X o , o o r a d B E x } u.V.E.L.    ",
"      ' :.| L U J h d r , , k i r r * i r , = $ . . . o X X o o . . . . . . . . . . . . . . . o $ o = r r t Z f B U ! ` ' Y     ",
"  ' e.-.,.` } R.U.U d r , & r i e , = = , * $ o . . . X . . X X . . . . . . . . . . . . . . . . X o $ = r a d f ` e.            ",
"t.R.U.n.p.;.&.P.U.u.f u = $ = r = & & $ $ $ o X . . . . . . . . . . . . . . . . . . . . . . . . . X o * 6 a h r.L.n.            ",
"t.R.U.a.r.| K t.L.a.} u = o X e = $ o o X X X . . . . . . . . . . . . . . . . . . . . . . . . . . X o & e u } u.n.-.I [ J       ",
"  [ e.a.u.;.( x K { { z * o . & & o o X . X . . . . . . . . . . . . . . . . . . . . . . . . . . . . o $ , T | r.e.` a.P.m.`     ",
"      z ` | _ R Z a p e = o . X O X X . . . . . . . . . . . . . . . . . . . . . . . . . . . . . . X X & i T | -.L :.k.P.R.m.    ",
"      X.L.u.( R T j k r , & X . . X . . . . . . . . . . . . . . . . . . . . . . . . . . . . . . . . $ e a W U g ( u.n.s.p.-.    ",
"      ' |.R.p.{ h i i r , & o . . . . . . . . . . . . . . . . . . . . . . . . . . . . . . . . . X $ e a h f u Z { e.` z         ",
"        m.a.u.r.{ x i = & o X . . . . . . . . . . . . . . . . . . . . . . . . . . . . . . . . X $ = u e = 6 h ! } X.8           ",
"         .a.u.| E T a u , $ o X . . . . . . . . . . . . . . . . . . . . . . . . . . . . . . . . o O O = z } >.p.L.n.e.          ",
"          } >.| T a r e * * * O . . . . . . . . . . . . . . . . . . . . . . . . . . . . . . . . X o 6 J ( &.y.a.m.b.b.%.        ",
"            z U T d i , 6 7 6 $ X . . . . . . . . . . . . . . . . . . . . . . . . . . . . . X o @ > f K E -.e.e.%.%.e.]         ",
"            u X.x f u 7 g f , $ o X . . . . . . . . . . . . . . . . . . . . . . . . . . . . X O * 7 a B U ' %.y.'               ",
"            g ;.} U f g g u e = $ X . . . . . . . . . . . . . . . . . . . . . . . . . . . . X o = u a g J Y y.R.%.              ",
"            z >.*._ K L j a r e O . . . . . . . . . . . . . . . . . . . . . . . . . X . . . . o $ 1 u u K -.' m.e.              ",
"            J ;.>.W U R j a i = X . . . . . . . . . . . . . . . . . . . . . . . . . X o X . . . X = f T E | ,.-.]               ",
"            U u.-.U ) T j j i O X . . . . . . . . . . . . . . . . . . . . . . . . . X O = o . . . & K E ( | r.`                 ",
"            [ m. .| ( R T h 6 $ X . X X . . . . . . . . . . . . . . . . . . . . . . X $ = e X . . & 6 E _ *.r.p.P               ",
"              `  .;.( R R f u & o X & $ X . . . . . . . . . . . . . . . . . . . . X o & = i = X X O , f -.>.u.a.p.l             ",
"              q >.;._ ( W ^ h = o = = $ X . . . . . . . . . . . . . . . . . X . X X & * = r i & $ o , e f r.a.L.R.p.            ",
"              -.p.*.| } { a.*.i 6 i = & o X . o O o X . . . . . . . . . . . O e f * & 6 e r k 6 , o % , K Y -.n.|.L.            ",
"            ' n.p.r.r.{ a.n.>.g k i , = & o = a u = O o . . . . . X X X X X * K  . .f e r r h h u = q ( >.&.4.f.` I             ",
"          t.U.P.c.a.} K t.r. .h j i r e = u W R T a , = o . . o o o o O o O 7 U t.c.y.f p a j E f i K 9.l.f.l._...              ",
"          n.|.R.L.t.;.J < > 8 W j a a u f _ _ _ _ R h r $ X o o & * = & & = f  .r.s.|.t.a j j ( } x q *.j.g.6._.4.              ",
"          l ' I ( g.>.0 3 ; f ) T j h x | ;.*.} | { ( E = o & = = , , = = e W t.p.m.|.m.x T R _ u.-.7 K z.F._ ..                ",
"                _ F.L b 4 9 } | ( E L p.r.;.;.*.| | >.r.8 & = e r i r e e a ( r.n.U.R.m.-.K _ } >.b.y.w 4.x.8                   ",
"                3...Q V N w e.>.| U p.U.p.>.>.;.| ;.a.} * 6 , i a a a i p h | u.m.R.|.R.n.! } :.u.b.R.-.B | (                   ",
"              x./.l.O.~ V J a.p.-.} m.U.a.>.r.;.| u.p.l , u u j j k k k a R -.a.m.|.|.m.n.a.' 1.a.L.R.b.} z.(.4.                ",
"            d.oX/.j.>.O.w I L.V.` p.U.P.a.r.>.>.u.p.` q 7 u k j j j j j k R ;.k.R.R.|.R.m.R.m.:.y.m.R.p.;.F.`.`.                ",
"            x.-X/.z.6.L V ! m.b.Y ` P.P.L.a.L.L. Xr.x g p a T T Z j T T j x E } p.U.|.|.R.m.m.p.N [ ! L g.Y.`.oX                ",
"            { x.z.6.( &.&.! p.-.-.| ' P.U. XXXXXs.K ^ Y J j T T T T T T T T x h h Y e.L.m.m.m.P ( } } | | g.Y.d.                ",
"                    4.j.1.&.8 ' c.a.-.X.U.XX@Xy.U { -.! K R R R R R R R { l.k.p.E u x q P ' J < L >.u.x.K                       ",
"                    d.D.j.( # p.U.n.t. .t.U.r.z -.;.r.' K E R E E E 4.k.L..X.XU.I j E 8 + 3 3 3 < 5.j.F._                       ",
"                    g.Y.g.  8 m.|.t.' L.e.I t. .p.u.p.' J _ R ( ;.z.XX@X.X.XR.t.T E E   + 3 4 3   | F.Y.E                       ",
"                    f./.d.    a.y.%.-.m.m.:.P.y.L.a.a.%.J { | c.XX@X@X@X.X Xy.U _ ( E     0 b 9   E z.Y.                        ",
"                    x Y.f.    8 9 l %.u.s.k.c.s.U.n.p.%.P z U.XX@XXXXXXX|.t.' { } { E     3 b >     Y.d.                        ",
"                      E       > 0 < q -.e.L.I s.R.U.r.e.X.  t. XXXXXXX|.' q u. .| } !     0 9       E                           ",
"                                @     l e.X.  e.U.y.e.p.      I  .L.P.[     p.e.,.| {     #                                     ",
"                                                l t.m.p.                    a.p.>.>.}                                           ",
"                                                  L.m.I                     ] n.e.u.-.                                          ",
"                                                  ] I                         ' I p.p.                                          ",
"                                                                                  J '                                           "
};
