/* XPM */
static char *e0a460c3224540a2f2fcb915e8289637UwS5785vvPyQn6U6[] = {
/* columns rows colors chars-per-pixel */
"64 64 7 1 ",
"  c None",
". c #0C2535",
"X c #3F3B42",
"o c #504F55",
"O c #6F6569",
"+ c #6AACF0",
"@ c #95909E",
/* pixels */
"                                                                ",
"                             @@@@@@                             ",
"                             @@@@@@                             ",
"                       @@@@@@@@@@@@@@@@                         ",
"                       @@@@@@@@@@@@@@@@                         ",
"                    XX@@@@@@@@@@@@@@@@@@@                       ",
"                 XXXXXX@@@@@@@@@@@@@@@@@@                       ",
"                XXXXXXXOOOOOOOOOO@@@@@@@@XXXXXXXX               ",
"             XXXXXXXXOOOOOOOOOOOO@@@@@@@@XXXXXXXX               ",
"             XXX...OOOOOOOOOOOOooOO@@@@@@@@XXXXXXXXXX           ",
"            XXXX...OOOOOOOOOOOOooOO@@@@@@@@XXXXXXXXXX           ",
"          XXXXXXOOOOOOO@OOOOOooOOooooooooooOOXXXXXX..XXXX       ",
"         XXXXXXXOOOO@@@@OOOOOooOOooooooooooOOXXXXXX..XXXX       ",
"         XXXXXXOOOOO@@@@OOOOOOOooooooooooooOOOOOOOOOO..XXXX     ",
"        XXXXXXOOOOO@@@@OOOOOOOOooooooooooooOOOOOOOOOO..XXXX     ",
"       XXXXXXXOOOO@@@@.XXOOOOOOOOooooooooooOOOOOOOOOOOOXXXX     ",
"       XXXXOOOOOOO@@@@.XXOOOOOOOOooooooooooOOOOOOOOOOOOXXXX     ",
"     XXXXXoOOOOOO@@@@XXXXooOO@@@@oooooooo@@@@@@@@@@@@OOOOOOXX   ",
"     XXXXoooOOOOO@@@@XXXXooOO@@@@oooooooo@@@@@@@@@@@@OOOOOOXX   ",
"   XXXXXXoooooOO@@@@XXXXX@@@@@@@@OOooooOO@@@@@@@@@@@@@@OOOOOO   ",
"   XXXXXXooooo@@@@@@XXXXX@@@@@@@@OOooooOO@@@@@@@@@@@@@@OOOOOO   ",
"   XXXX@@@@@@@@@@@@XXXXXX@@@@@@OOOOOOOOOO@@@@@@@@@@@@@@OOOOOOOO ",
"   XXXX@@@@@@@@X@@XXXXXXX@@@@@@OOOOOOOOOO@@@@@@@@@@@@@@OOOOOOOO ",
"   XX@@@@@@@@@@XXXXXXooOO@@@@@@..XXOOOOOOOO@@@@@@@@@@@@OOOOOOOO ",
"   XX@@@@@@@@@@XXXXXXooOO@@@@@@..XXOOOOOOOO@@@@@@@@@@@@OOOOOOOO ",
"   @@@@@@@@@@@@OOOO@@@@@@OOXXXXXX..ooOOOOOO@@@@@@@@@@@@ooOOOOOO ",
"   @@@@@@@@@@@@OOOO@@@@@@OOXXXXXX..ooOOOOOO@@@@@@@@@@@@ooOOOOOO ",
" @@@@@@@@@@@@OOOOOO@@@@@@OOXXXXXX..ooOOOOooOO@@@@@@OOooooOOOOOO ",
" @@@@@@@@@@@@OOOOOO@@@@@@OOXXXXXX..ooOOOOooOO@@@@@@OOooooOOOOOO ",
" @@@@@@@@OOXXXXOOOOOOOOOOOOXXXXXXXX++OOOOOOoooo@@@@@@OOOOOOOO   ",
" @@@@@@@@OOXXXXOOOOOOOOOOOOXXXXXXXX++OOOOOOoooo@@@@@@OOOOOOOO   ",
" @@@@@@ooXXooooOOXXXXXXXXXXXXOOOOOO++XXOOOOOO@@@@@@@@OO....OO   ",
" @@@@@@ooXXooooOOXXXXXXXXXXXXOOOOOO++XXOOOOOO@@@@@@@@OO....OO   ",
" @@@@OOooooooooXX......XX....XXOOOOOOXXOO@@@@@@@@@@@@oo..OOOO   ",
" @@@@OOooooooooXX......XX....XXOOOOOOXXOO@@@@@@@@@@@@oo..OOOO   ",
" @@@@OOooooooOO......XXXXXXXXXXOOOOOOOOOO@@@@@@@@@@@@OOoo++OO   ",
" @@@@OOooooooOO......XXXXXXXXXXOOOOOOOOOO@@@@@@@@@@@@OOoo++OO   ",
"   OOOOOOooooOO....XXXXXXXXXXXXOOOOXXOOOOOO@@@@@@@@@@OO++++OO   ",
"   OOOOOOooooOO....XXXXXXXXXXXXOOOOXXOOOOOO@@@@@@@@@@OO++++OO   ",
" OOOOOOOOOOOOOOXX..XXXXXXXXXXXX++OOXXOOOOOOOOOOXXXXOOOOOOOOOO   ",
" OOOOOOOOOOOOOOXX..XXXXXXXXXXXX++OOXXOOOOOOOOOOXXXXOOOOOOOOOO   ",
"   OOOOXXOO@@@@@@XXXXXXXXXXXX++++XXXXOOOOOOOOXX..XXXXOOOOOOOO   ",
"   OOOOXXOO@@@@@@XXXXXXXXXXXX++++XXXXOOOOOOOOXX..XXXXOOOOOOOO   ",
" OOOOOOOOXX@@@@@@OOXXXXXXXXOOOOXX....XXXXXXXX....XXXXOOOOOO     ",
" OOOOOOOOXX@@@@@@OOXXXXXXXXOOOOXX....XXXXXXXX....XXXXOOOOOO     ",
"   OOOOOOXXXXXXXXOOOO++++OO..........XX....XX....ooOOOOOOoo     ",
"   OOOOOOXXXXXXXXOOOO++++OO..........XX....XX....ooOOOOOOoo     ",
"   ooOOOOXXXX......XXXXOO............XX....XX....ooOOOOoooo     ",
"   ooOOOOXXXX......XXXXOO............XX....XX....ooOOOOoooo     ",
"   ++ooooooXX..........OO......XXXX....XXXX..XXXXXXoooooo++     ",
"   ++ooooooXX..........OO......XXXX....XXXX..XXXXXXoooooo++     ",
"     ++oooooooo........OOXX..XXXX..................oooo++++     ",
"     ++oooooooo........OOXX..XXXX..................oooo++++     ",
"       ++++oooooo........OOOOXX........XX........oo++++++       ",
"       ++++oooooo........OOOOXX........XX........oo++++++       ",
"         ++++++oooo..........oo........oooooooo++++++++         ",
"         ++++++oooo..........oo........oooooooo++++++++         ",
"             ++++++++oooooooooo......oooooo++++++               ",
"             ++++++++oooooooooo......oooooo++++++               ",
"                 ++++++++oooooooo++++++++++++++                 ",
"                 ++++++++oooooooo++++++++++++++                 ",
"                   ++++++++++++++++++++                         ",
"                   ++++++++++++++++++++                         ",
"                                                                "
};
