/* XPM */
static char *result[] = {
/* columns rows colors chars-per-pixel */
"59 64 180 2 ",
"   c #1D0F05",
".  c #1E1006",
"X  c #1E110B",
"o  c #1F131B",
"O  c #220F02",
"+  c #221206",
"@  c #261508",
"#  c #291709",
"$  c #2E1A0B",
"%  c #2C1806",
"&  c #351D0C",
"*  c #3A1E0C",
"=  c #331A07",
"-  c #250D11",
";  c #251517",
":  c #341D13",
">  c #3B210E",
",  c #37200B",
"<  c #3C2312",
"1  c #3A2418",
"2  c #20162B",
"3  c #311F24",
"4  c #3F1A2F",
"5  c #2E1F34",
"6  c #2B1E3B",
"7  c #231937",
"8  c #342127",
"9  c #3C3426",
"0  c #323A32",
"q  c #411D2C",
"w  c #521F3E",
"e  c #4A292A",
"r  c #493334",
"t  c #543934",
"y  c #654A3F",
"u  c #291E43",
"i  c #251E4E",
"p  c #281F4A",
"a  c #251E53",
"s  c #3C1E5D",
"d  c #321E59",
"f  c #2B245C",
"g  c #2A2155",
"h  c #372A55",
"j  c #322543",
"k  c #2F2762",
"l  c #312966",
"z  c #332B69",
"x  c #3C326F",
"c  c #382B79",
"v  c #3A3275",
"b  c #3F357A",
"n  c #4F1744",
"m  c #453040",
"M  c #4D2F5D",
"N  c #4D305F",
"B  c #542B48",
"V  c #62284D",
"C  c #612357",
"Z  c #451E60",
"A  c #4E1E64",
"S  c #601D60",
"D  c #6E1E72",
"F  c #701F74",
"G  c #4A3269",
"H  c #40377D",
"J  c #572E66",
"K  c #672660",
"L  c #6A2861",
"P  c #672274",
"I  c #722174",
"U  c #76227B",
"Y  c #7E2D7B",
"T  c #722A65",
"R  c #3A514C",
"E  c #376E73",
"W  c #34767E",
"Q  c #7E5A4B",
"!  c #735346",
"~  c #6A5D51",
"^  c #6D4C58",
"/  c #7E7168",
"(  c #845C4F",
")  c #8E515E",
"_  c #9A695B",
"`  c #9C735A",
"'  c #9E6D60",
"]  c #8A7E77",
"[  c #837C77",
"{  c #917173",
"}  c #A36367",
"|  c #A8766B",
" . c #8D8075",
".. c #BD916A",
"X. c #AA8274",
"o. c #AC857D",
"O. c #B58778",
"+. c #CB9552",
"@. c #C79E7C",
"#. c #CA9A62",
"$. c #CFA577",
"%. c #442696",
"&. c #442992",
"*. c #452698",
"=. c #472899",
"-. c #49299B",
";. c #482996",
":. c #7D2681",
">. c #4D2DA1",
",. c #5131A5",
"<. c #5534AC",
"1. c #5836B2",
"2. c #5D3AB6",
"3. c #5F3CB9",
"4. c #613EBC",
"5. c #287380",
"6. c #387A82",
"7. c #6C4A8D",
"8. c #724F8A",
"9. c #745099",
"0. c #6440BE",
"q. c #6A46BF",
"w. c #6541C2",
"e. c #6844C6",
"r. c #6B47CA",
"t. c #6E49CD",
"y. c #6541C8",
"u. c #724DC9",
"i. c #6F4AD2",
"p. c #6B46D0",
"a. c #862B8B",
"s. c #882C8C",
"d. c #8B2C92",
"f. c #8F3194",
"g. c #96349A",
"h. c #99369E",
"j. c #923495",
"k. c #8A3780",
"l. c #9D37A3",
"z. c #8D6981",
"x. c #9F769E",
"c. c #805BBE",
"v. c #8F7AAF",
"b. c #927DAD",
"n. c #8E67AD",
"m. c #3698A7",
"M. c #369DB0",
"N. c #33B8D3",
"B. c #32DFFF",
"V. c #31C4E3",
"C. c #67C4CE",
"Z. c #48DFFE",
"A. c #7BF4FF",
"S. c #9B9189",
"D. c #BB8E81",
"F. c #B38A84",
"G. c #BE9285",
"H. c #BF968A",
"J. c #B08892",
"K. c #A69C9B",
"L. c #A99F9C",
"P. c #A19790",
"I. c #B9A68B",
"U. c #ACA39B",
"Y. c #B3ABA9",
"T. c #BDB5B3",
"R. c #C49B83",
"E. c #CBAD8A",
"W. c #CCBCA0",
"Q. c #C3BCBB",
"!. c #D7CABA",
"~. c #8FF5FE",
"^. c #AFFAFB",
"/. c #C5C2C2",
"(. c #D5CCC6",
"). c #D3CDCC",
"_. c #D6D0CF",
"`. c #DAD9D8",
"'. c #C6FFF9",
"]. c None",
/* pixels */
"].].].].].].].].].].].].].].].].].].].].].].].].].].].].].].].].].].].].].].].].].].].].].].].].].].].].].].].].'.'.^.",
"].].].].].].].].].].].].].].].].].].].].].].].].].].].].].].].].].].].].].].].].].].].].].].].].].].].].].].'.^.~.~.Z.",
"].].].].].].].].].].].].].].].].].].].].].].].].].].].].].].].].].].t.t.t.t.].].].].].].].].].].].].].].> C.A.C.W N.B.",
"].].].].].].].].].].].].].].].].].].].].].].].].].].].].].].].].t.t.t.t.t.t.t.t.].].].].].].].].].].].].6.E W V.R m.5.",
"].].].].].].].].].].].].].].].].].].].].].].].].].].].].].].t.t.t.t.t.t.t.t.t.t.c.].].].].].].].].].].* m.N.R M.9 9 < ",
"].].].].].].].].].].].].].].].].].].].].].].].].].].].].].t.t.t.t.t.t.t.t.t.t.n.#.+.].].].].].].].].].= m.N.9 1 > @   ",
"].].].].].].].].].].].].].].].].].].].].].].].].].].].].i.t.t.t.t.t.t.t.t.t.u.$.o.) ].].].].].].].]., > E 0 = & @     ",
"].].].].].].].].].].].].].].].].].].].].].].].].].].].t.t.t.t.t.t.t.t.t.t.u.x...U. .].].].].].].].].@ < & +   ].].].].",
"].].].].].].].].].].].].].].].].].].].].].].].].].].].t.t.t.t.t.t.t.t.t.t.t.@.O.X.| ].].].].].].].].# & +   ].].].].].",
"].].].].].].].].].].].].].].].].].].].].].].].].].].t.t.t.t.t.t.t.t.t.t.t.t.@.R.R.o.].].].].].].].< $ . ].].].].].].].",
"].].].].].].].].].].].].].].].].].].].].].].].].t.t.t.t.t.t.t.t.t.t.i.t.t.w.@.!.).(._.].].].].].< & + ].].].].].].].].",
"].].].].].].].].].].].].].].].].].].].].].].].-.3.t.t.t.t.t.t.t.t.t.t.t.w.9.E.(.).Q.Y.].].].].].&   ].].].].].].].].].",
"].].].].].].].].].].].].].].].].].].].].].].].].;.1.1.w.i.r.t.t.t.t.t.t.1.X.W.)._.T.L.Q.].].].Q Q ! ].].].].].].].].].",
"].].].].].].].].].].].].].].].].].].].].].].].].;.%.%.>.w.r.t.r.t.t.t.t.y.F.I.Y.T._._.).].].].G.G.O.} ].].].].].].].].",
"].].].].].].].].].].].].].].].].].].].].].].].].].*.;.*.>.>.>.>.2.t.t.t.p.J.I.K.L.T.).Y.].].Q G.R.O.X._ ].].].].].].].",
"].].].].].].].].].].].].].].].].].].].].].].].].].-.;.-.;.*.;.%.-.w.t.t.t.u.v.K.K.L.L.K.].].! G.O.X._ ].].].].].].].].",
"].].].].].].].].].].].].].].].].].].].].].].].].].].-.;.-.;.%.%.;.0.t.t.t.t.t.v.L.L.L.].].# y O.' _ ].].].].].].].].].",
"].].].].].].].].].].].].].].].].].].].].].].].].].].;.;.%.>.2.<.;.w.t.r.t.t.t.t.].].].].].r ( | _ ].].].].].].].].].].",
"].].].].].].].].].].].].].].].].].].].].].].].].].].].].3.w.i.2.*.,.r.r.t.t.t.t.t.].].].b v ^ _ ].].].].].].].].].].].",
"].].].].].].].].].].].].].].].].].].].].].].].].].].].].p.t.t.r.<.-.r.t.t.t.t.t.t.].].b z a g ].].].].].].].].].].].].",
"].].].].].].].].].].].].].].].].].].].].].].].].].].].t.t.t.t.i.<.*.4.r.t.t.t.r.t.r.].v z a ].].].].].].].].].].].].].",
"].].].].].].].].].].].].].].].].].].].].].].].].].].].t.t.t.t.t.3.-.>.p.t.t.t.i.r.,.c v f ].].].].].].].].].].].].].].",
"].].].].].].].].].].].].].].].].].].].].].].].].].].].t.t.t.t.t.r.,.;.3.t.r.r.2.,.b v l a ].].].].].].].].].].].].].].",
"].].].].].].].].].].].].].].].].].].].].].].].].].].t.t.t.t.t.t.t.w.-.-.3.r.1.*.c v l g ].].].].].].].].].].].].].].].",
"].].].].].].].].].].].].].].].].].].].].].].].].].].t.t.t.t.t.t.t.r.>.;.-.>.*.&.b l a ].].].].].].].].].].].].].].].].",
"].].].].].].].].].].].].].].].].].].].].].].].].].].t.t.t.t.t.t.t.i.e.-.*.-.&.b z a a ].].].].].].].].].].].].].].].].",
"].].].].].].].].].].].].].].].].].].].].].].].].].i.i.i.u.t.p.p.t.t.2.;.%.>.c v k a a ].].].].].].].].].].].].].].].].",
"].].].].].].].].].].].].].].].].].].].].].].].].1 M N G G w.p.p.4.<.-.%.7.7.z k a a ].].].].].].].].].].].].].].].].].",
"].].].].].].].].].].].].].].].].].].].].& & & & & = = & > B 3.,.-.%.;.;.J e ].g a ].].].].].].].].].].].].].].].].].].",
"].].].].].].].].].].].].].].].].].].].& & * & & & & = / Y.r %.%.;.;.7.` 1 @ ].].].].].].].].].].].].].].].].].].].].].",
"].].].].].].].].].].].].].].].].].].].$ & $ @ .     + ] /.r %.%.*.7.| V $ ].].].].].].].].].].].].].].].].].].].].].].",
"].].].].].].].].].].].].].].].].].].].        . +   + ] /.t { z.z.| T & . ].].].].].].].].].].].].].].].].].].].].].].",
"].].].].].].].].].].].].].].].].].].].. . . . . +   + ] Q.t } } } k.w $ ].].].].].].].].].].].].].].].].].].].].].].].",
"].].].].].].].].].].].].].].].].].].].. . . . .     O ] /.t a.d.d.C : . ].].].].].].].].].].].].].].].].].].].].].].].",
"].].].].].].].].].].].].].].].].].].].. . . . .     O S.`.t g.l.j.e + ].].].].].].].].].].].].].].].].].].].].].].].].",
"].].].].].].].].].].].].].].].].].].].. . .     +   + P.`.t Y l.V + ].].].].].].].].].].].].].].].].].].].].].].].].].",
"].].].].].].].].].].].].].].].].].].]..               ~ / 9 ; L 4   ].].].].].].].].].].].].].].].].].].].].].].].].].",
"].].].].].].].].].].].].].].].].].].].].4 K K K K K C n - . @ $ . h H ].].].].].].].].].].].].].].].].].].].].].].].].",
"].].].].].].].].].].].].].].].].].].].h.l.l.l.l.g.:.U F S h $ $ . h b H b b b ].].].].].].].].].].].].].].].].].].].].",
"].].].].].].].].].].].].].].].].].].h.h.h.h.g.f.U D D D P G & 5 x b b H b H b b b b b ].].].].].].].].].].].].].].].].",
"].].].].].].].].].].].].].].].].].h.h.h.h.g.:.D D D D s l h $ p b b b b b b v b H b b b b ].].].].].].].].].].].].].].",
"].].].].].].].].].].].].].].].].h.h.h.g.s.:.D D D D s a 6 , o f z z z z l v b b b b b H b b b ].].].].].].].].].].].].",
"].].].].].].].].].].].].].].].h.h.h.a.:.D D D I D s a a 8 ; 7 a i a g a a f k f z H b b b b b l ].].].].].].].].].].].",
"].].].].].].].].].].].].].].h.h.h.a.I D D D D Z d a a 6 , 6 g a a a a g a a a a p f g f v b b k ].].].].].].].].].].].",
"].].].].].].].].].].].].h.h.h.g.a.D D D D D Z a a a a 3 # ].].].a a a a a g g u 1 : : 6 i k v k g ].].].].].].].].].].",
"].].].].].].].].].].].h.h.h.d.F D D D D D Z a a a i 8 $ ].].].].].].].a a u 6 : & & & & ; f l a a ].].].].].].].].].].",
"].].].].].].].].].].h.h.f.a.I D F D D D Z a a a a u & @ ].].].].].].].].].& & * & , $ @ X a a a a ].].].].].].].].].].",
"].].].].].].].].].].h.f.I D D D F D A s a a a a p 3 @ ].].].].].].].].].& & & & $ @ + . . 2 a a ].].].].].].].].].].].",
"].].].].].].].].].].].I I D D F F A a a a a a ].].&   ].].].].].].].& & & # + + + .   . . o a a ].].].].].].].].].].].",
"].].].].].].].].].].].& w P F D A a a a a a ].].> + ].].].].].].: & & & # . .   . . . . . ; ].].].].].].].].].].].].].",
"].].].].].].].].].].& & > 6 A A a a a a a ].].< & . ].].].].].].* & & # . . . . . ].].].].].].].].].].].].].].].].].].",
"].].].].].].].].].& & & & + 2 a a a g a ].].].& + ].].].].].].].* & & . . . ].].].].].].].].].].].].].].].].].].].].].",
"].].].].].].].].& : & +     + a a a a ].].].< @ ].].].].].].].].& & @ . . ].].].].].].].].].].].].].].].].].].].].].].",
"].].].& , & & & & & . .     X i a a ].].].].$ ].].].].].].].].& & # . . ].].].].].].].].].].].].].].].].].].].].].].].",
"].].].* & : & & @     . . ].].].].].].].].> # ].].].].].].].].& @   ].].].].].].].].].].].].].].].].].].].].].].].].].",
"].].& & & & # . .   . . ].].].].].].].].].$ ].].].].].].].].].. .   ].].].].].].].].].].].].].].].].].].].].].].].].].",
"].].& & & #   . . . . ].].].].].].].].].&   ].].].].].].].].].. . ].].].].].].].].].].].].].].].].].].].].].].].].].].",
"].].* & & +   . . . ].].].].].].].].].> # ].].].].].].].].].].].].].].].].].].].].].].].].].].].].].].].].].].].].].].",
"].].& & + .   . . ].].].].].].].].].< #   ].].].].].].].].].].].].].].].].].].].].].].].].].].].].].].].].].].].].].].",
"].& : @   . . ].].].].].].].].].].].> + ].].].].].].].].].].].].].].].].].].].].].].].].].].].].].].].].].].].].].].].",
"].& & +   . ].].].].].].].].].].].].].].].].].].].].].].].].].].].].].].].].].].].].].].].].].].].].].].].].].].].].].",
"& & + . . ].].].].].].].].].].].].].].].].].].].].].].].].].].].].].].].].].].].].].].].].].].].].].].].].].].].].].].",
"& + . . ].].].].].].].].].].].].].].].].].].].].].].].].].].].].].].].].].].].].].].].].].].].].].].].].].].].].].].].",
"].. . ].].].].].].].].].].].].].].].].].].].].].].].].].].].].].].].].].].].].].].].].].].].].].].].].].].].].].].].]."
};
