/* XPM */
static char *result[] = {
/* columns rows colors chars-per-pixel */
"59 64 180 2 ",
"   c #1D0F05",
".  c #1E1006",
"X  c #1E110B",
"o  c #1F131B",
"O  c #220F02",
"+  c #221206",
"@  c #261508",
"#  c #291709",
"$  c #2E1A0B",
"%  c #2C1806",
"&  c #351D0C",
"*  c #3A1E0C",
"=  c #331A07",
"-  c #250D11",
";  c #251517",
":  c #341D13",
">  c #3B210E",
",  c #37200B",
"<  c #3C2312",
"1  c #3A2418",
"2  c #20162B",
"3  c #311F24",
"4  c #3F1A2F",
"5  c #2E1F34",
"6  c #2B1E3B",
"7  c #231937",
"8  c #342127",
"9  c #3C3426",
"0  c #323A32",
"q  c #411D2C",
"w  c #521F3E",
"e  c #4A292A",
"r  c #493334",
"t  c #543934",
"y  c #654A3F",
"u  c #291E43",
"i  c #251E4E",
"p  c #281F4A",
"a  c #251E53",
"s  c #3C1E5D",
"d  c #321E59",
"f  c #2B245C",
"g  c #2A2155",
"h  c #372A55",
"j  c #322543",
"k  c #2F2762",
"l  c #312966",
"z  c #332B69",
"x  c #3C326F",
"c  c #382B79",
"v  c #3A3275",
"b  c #3F357A",
"n  c #4F1744",
"m  c #453040",
"M  c #4D2F5D",
"N  c #4D305F",
"B  c #542B48",
"V  c #62284D",
"C  c #612357",
"Z  c #451E60",
"A  c #4E1E64",
"S  c #601D60",
"D  c #6E1E72",
"F  c #701F74",
"G  c #4A3269",
"H  c #40377D",
"J  c #572E66",
"K  c #672660",
"L  c #6A2861",
"P  c #672274",
"I  c #722174",
"U  c #76227B",
"Y  c #7E2D7B",
"T  c #722A65",
"R  c #3A514C",
"E  c #376E73",
"W  c #34767E",
"Q  c #7E5A4B",
"!  c #735346",
"~  c #6A5D51",
"^  c #6D4C58",
"/  c #7E7168",
"(  c #845C4F",
")  c #8E515E",
"_  c #9A695B",
"`  c #9C735A",
"'  c #9E6D60",
"]  c #8A7E77",
"[  c #837C77",
"{  c #917173",
"}  c #A36367",
"|  c #A8766B",
" . c #8D8075",
".. c #BD916A",
"X. c #AA8274",
"o. c #AC857D",
"O. c #B58778",
"+. c #CB9552",
"@. c #C79E7C",
"#. c #CA9A62",
"$. c #CFA577",
"%. c #442696",
"&. c #442992",
"*. c #452698",
"=. c #472899",
"-. c #49299B",
";. c #482996",
":. c #7D2681",
">. c #4D2DA1",
",. c #5131A5",
"<. c #5534AC",
"1. c #5836B2",
"2. c #5D3AB6",
"3. c #5F3CB9",
"4. c #613EBC",
"5. c #287380",
"6. c #387A82",
"7. c #6C4A8D",
"8. c #724F8A",
"9. c #745099",
"0. c #6440BE",
"q. c #6A46BF",
"w. c #6541C2",
"e. c #6844C6",
"r. c #6B47CA",
"t. c #6E49CD",
"y. c #6541C8",
"u. c #724DC9",
"i. c #6F4AD2",
"p. c #6B46D0",
"a. c #862B8B",
"s. c #882C8C",
"d. c #8B2C92",
"f. c #8F3194",
"g. c #96349A",
"h. c #99369E",
"j. c #923495",
"k. c #8A3780",
"l. c #9D37A3",
"z. c #8D6981",
"x. c #9F769E",
"c. c #805BBE",
"v. c #8F7AAF",
"b. c #927DAD",
"n. c #8E67AD",
"m. c #3698A7",
"M. c #369DB0",
"N. c #33B8D3",
"B. c #32DFFF",
"V. c #31C4E3",
"C. c #67C4CE",
"Z. c #48DFFE",
"A. c #7BF4FF",
"S. c #9B9189",
"D. c #BB8E81",
"F. c #B38A84",
"G. c #BE9285",
"H. c #BF968A",
"J. c #B08892",
"K. c #A69C9B",
"L. c #A99F9C",
"P. c #A19790",
"I. c #B9A68B",
"U. c #ACA39B",
"Y. c #B3ABA9",
"T. c #BDB5B3",
"R. c #C49B83",
"E. c #CBAD8A",
"W. c #CCBCA0",
"Q. c #C3BCBB",
"!. c #D7CABA",
"~. c #8FF5FE",
"^. c #AFFAFB",
"/. c #C5C2C2",
"(. c #D5CCC6",
"). c #D3CDCC",
"_. c #D6D0CF",
"`. c #DAD9D8",
"'. c #C6FFF9",
"]. c None",
/* pixels */
"^.'.'.].].].].].].].].].].].].].].].].].].].].].].].].].].].].].].].].].].].].].].].].].].].].].].].].].].].].].].].].",
"Z.~.~.^.'.].].].].].].].].].].].].].].].].].].].].].].].].].].].].].].].].].].].].].].].].].].].].].].].].].].].].].].",
"B.N.W C.A.C.> ].].].].].].].].].].].].].].t.t.t.t.].].].].].].].].].].].].].].].].].].].].].].].].].].].].].].].].].].",
"5.m.R V.W E 6.].].].].].].].].].].].].t.t.t.t.t.t.t.t.].].].].].].].].].].].].].].].].].].].].].].].].].].].].].].].].",
"1 9 9 M.R N.m.* ].].].].].].].].].].c.u.t.t.t.t.t.t.t.t.t.].].].].].].].].].].].].].].].].].].].].].].].].].].].].].].",
". + > 1 9 N.m.= ].].].].].].].].].+.#.n.t.t.t.t.t.t.t.i.t.t.].].].].].].].].].].].].].].].].].].].].].].].].].].].].].",
". . # & = 0 E > * ].].].].].].].].) o.$.u.t.t.t.t.t.t.t.t.t.t.].].].].].].].].].].].].].].].].].].].].].].].].].].].].",
"].].].].  + = > # ].].].].].].].]. .U...x.t.t.t.t.t.t.t.t.u.i.t.].].].].].].].].].].].].].].].].].].].].].].].].].].].",
"].].].].].  . & # ].].].].].].].].| X...@.r.t.t.t.t.t.t.r.i.t.t.].].].].].].].].].].].].].].].].].].].].].].].].].].].",
"].].].].].].].+ & > ].].].].].].].o.H.H.@.t.t.t.t.t.t.t.u.t.t.t.t.].].].].].].].].].].].].].].].].].].].].].].].].].].",
"].].].].].].].].+ & > ].].].].].).(.).!.@.y.t.t.t.i.t.t.t.t.u.t.t.t.t.].].].].].].].].].].].].].].].].].].].].].].].].",
"].].].].].].].].].  & ].].].].].Y.Q.).(.E.9.y.t.t.t.t.t.t.t.r.i.t.t.3.-.].].].].].].].].].].].].].].].].].].].].].].].",
"].].].].].].].].].! Q Q ].].].Q.L.Q._.).W.X.1.i.t.t.u.t.i.r.i.w.1.1.-.].].].].].].].].].].].].].].].].].].].].].].].].",
"].].].].].].].].' D.G.G.].].].).).).T.Y.I.F.y.t.r.i.t.r.r.t.0.>.&.&.*.].].].].].].].].].].].].].].].].].].].].].].].].",
"].].].].].].]._ | D.D.D.Q ].].Y.).T.K.K.I.J.p.t.t.r.2.>.>.>.-.*.=.=.].].].].].].].].].].].].].].].].].].].].].].].].].",
"].].].].].].].]._ o.O.R.! ].].L.L.K.K.K.b.u.t.t.t.w.=.*.=.=.=.=.=.=.].].].].].].].].].].].].].].].].].].].].].].].].].",
"].].].].].].].].]._ ' O.! + ].].K.K.L.v.t.t.t.t.t.w.*.%.%.%.=.=.=.].].].].].].].].].].].].].].].].].].].].].].].].].].",
"].].].].].].].].].]._ | Q r ].].].].].t.t.t.t.t.t.0.*.<.2.-.;.=.=.].].].].].].].].].].].].].].].].].].].].].].].].].].",
"].].].].].].].].].].]._ ^ v b ].].].t.t.t.t.t.t.r.,.*.2.i.0.4.].].].].].].].].].].].].].].].].].].].].].].].].].].].].",
"].].].].].].].].].].].].a a c v ].].t.t.t.t.t.t.e.*.<.t.i.r.i.].].].].].].].].].].].].].].].].].].].].].].].].].].].].",
"].].].].].].].].].].].].].a z v ].e.t.r.t.t.t.t.4.*.<.t.t.t.t.t.].].].].].].].].].].].].].].].].].].].].].].].].].].].",
"].].].].].].].].].].].].].].a v b ,.r.i.t.t.t.t.>.-.4.t.t.t.t.t.].].].].].].].].].].].].].].].].].].].].].].].].].].].",
"].].].].].].].].].].].].].].a z v b ,.2.r.t.t.2.=.,.t.t.t.t.t.t.].].].].].].].].].].].].].].].].].].].].].].].].].].].",
"].].].].].].].].].].].].].].].a l v c &.1.t.2.=.-.w.t.t.t.t.t.t.t.].].].].].].].].].].].].].].].].].].].].].].].].].].",
"].].].].].].].].].].].].].].].].a l c &.=.>.=.=.>.r.t.t.t.t.t.t.t.].].].].].].].].].].].].].].].].].].].].].].].].].].",
"].].].].].].].].].].].].].].].].a a z b %.*.*.=.e.i.t.t.t.t.t.t.t.].].].].].].].].].].].].].].].].].].].].].].].].].].",
"].].].].].].].].].].].].].].].].a a k v H *.=.;.2.t.t.t.r.u.i.i.i.i.].].].].].].].].].].].].].].].].].].].].].].].].].",
"].].].].].].].].].].].].].].].].].a a k z 7.8.;.=.1.3.t.u.q.G G G M 1 ].].].].].].].].].].].].].].].].].].].].].].].].",
"].].].].].].].].].].].].].].].].].].a a ].e J ;.=.=.>.>.4.M < , = & & & * & & ].].].].].].].].].].].].].].].].].].].].",
"].].].].].].].].].].].].].].].].].].].].].# < ` 7.*.*.*.&.e Y./ % & & & & & * & ].].].].].].].].].].].].].].].].].].].",
"].].].].].].].].].].].].].].].].].].].].].].# V | 7.*.*.%.r /.] +   . . @ $ $ & ].].].].].].].].].].].].].].].].].].].",
"].].].].].].].].].].].].].].].].].].].].].].. : T | z.z.{ r /.[ +   . .         ].].].].].].].].].].].].].].].].].].].",
"].].].].].].].].].].].].].].].].].].].].].].].$ w k.} } ' t /.] +   . . . . . . ].].].].].].].].].].].].].].].].].].].",
"].].].].].].].].].].].].].].].].].].].].].].].. * V f.d.d.t /. .O   . . . . . . ].].].].].].].].].].].].].].].].].].].",
"].].].].].].].].].].].].].].].].].].].].].].].].@ e g.h.g.t `.S.O O . . . . . . ].].].].].].].].].].].].].].].].].].].",
"].].].].].].].].].].].].].].].].].].].].].].].].].+ V l.:.r `.P.O   . . . . . . ].].].].].].].].].].].].].].].].].].].",
"].].].].].].].].].].].].].].].].].].].].].].].].].. 8 L ; 1 ] ~ .             . ].].].].].].].].].].].].].].].].].].].",
"].].].].].].].].].].].].].].].].].].].].].].].].&.h + = + . - n C K C K K K 4 ].].].].].].].].].].].].].].].].].].].].",
"].].].].].].].].].].].].].].].].].].].].H b b b H h . $ # h S I U :.h.l.l.l.l.h.].].].].].].].].].].].].].].].].].].].",
"].].].].].].].].].].].].].].].].H b b b b b H b H v x 5 $ G P D D D U j.j.h.h.h.h.].].].].].].].].].].].].].].].].].].",
"].].].].].].].].].].].].].].b b b b b b b b b b H b H u : h z s D D D D :.j.l.h.h.h.].].].].].].].].].].].].].].].].].",
"].].].].].].].].].].].].b b b H b b b b b v z z z z z f ; > 6 a s D D I D :.a.g.h.h.h.].].].].].].].].].].].].].].].].",
"].].].].].].].].].].].k b b b b b H z f k f i g a a a a 7 ; 8 a a s D D D D D :.a.h.h.h.].].].].].].].].].].].].].].].",
"].].].].].].].].].].].k H b v f g f p g a a i g a a a a a 7 < 5 a i d Z D D D D I a.h.h.h.].].].].].].].].].].].].].].",
"].].].].].].].].].].a k v k i 6 : : : u a g i a a a a ].].].# 3 a a a a Z D D D D D s.j.l.h.h.].].].].].].].].].].].].",
"].].].].].].].].].].a a k g ; & & & & : 7 p a a ].].].].].].].$ 5 i a a a Z D D D D D I d.h.h.g.].].].].].].].].].].].",
"].].].].].].].].].].a g a a o # $ , & & & , ].].].].].].].].].@ & p a a a a Z D F D I D I a.d.h.h.].].].].].].].].].].",
"].].].].].].].].].].].a a 2 .   + @ & & & & , ].].].].].].].].].@ : p a a a a s A D D D D D U f.h.].].].].].].].].].].",
"].].].].].].].].].].].g a o . .     + + + # & & & ].].].].].].].  & ].].a a a a a A F F F D I I ].].].].].].].].].].].",
"].].].].].].].].].].].].].o   . . .     . . # & & : * ].].].].].].+ > ].].a a a a a A F D P w & ].].].].].].].].].].].",
"].].].].].].].].].].].].].].].].].].. . . . . # & & & ].].].].].].. & < ].].a a a a a A A j & & & ].].].].].].].].].].",
"].].].].].].].].].].].].].].].].].].].].].. . . & > & ].].].].].].].. & ].].].a a a a a 2 @ # & & & ].].].].].].].].].",
"].].].].].].].].].].].].].].].].].].].].].].. . @ & & ].].].].].].].].@ > ].].].a a a i X   . + & & & ].].].].].].].].",
"].].].].].].].].].].].].].].].].].].].].].].]..   @ & & ].].].].].].].].& ].].].].a a i X   .   + & & & & & , : ].].].",
"].].].].].].].].].].].].].].].].].].].].].].].].].  # & ].].].].].].].].# > ].].].].].].].]..   . . @ & & & & * ].].].",
"].].].].].].].].].].].].].].].].].].].].].].].].].    . ].].].].].].].].].$ ].].].].].].].].]..     . . # & & & & ].].",
"].].].].].].].].].].].].].].].].].].].].].].].].].].. . ].].].].].].].].].  & ].].].].].].].].].. . . .   # & : & ].].",
"].].].].].].].].].].].].].].].].].].].].].].].].].].].].].].].].].].].].].].@ > ].].].].].].].].].. . .   . & & * ].].",
"].].].].].].].].].].].].].].].].].].].].].].].].].].].].].].].].].].].].].].. @ > ].].].].].].].].].. .   . @ & & ].].",
"].].].].].].].].].].].].].].].].].].].].].].].].].].].].].].].].].].].].].].].+ < ].].].].].].].].].].]..     @ , & ].",
"].].].].].].].].].].].].].].].].].].].].].].].].].].].].].].].].].].].].].].].].].].].].].].].].].].].].]..   + & & ].",
"].].].].].].].].].].].].].].].].].].].].].].].].].].].].].].].].].].].].].].].].].].].].].].].].].].].].].]..   + & : ",
"].].].].].].].].].].].].].].].].].].].].].].].].].].].].].].].].].].].].].].].].].].].].].].].].].].].].].].]..   + & ",
"].].].].].].].].].].].].].].].].].].].].].].].].].].].].].].].].].].].].].].].].].].].].].].].].].].].].].].].].. . ]."
};
