/* XPM */
static char *result[] = {
/* columns rows colors chars-per-pixel */
"42 53 82 1 ",
"  c #010101",
". c #0C0604",
"X c #060708",
"o c #0B0B0B",
"O c #120700",
"+ c #150901",
"@ c #1D0C01",
"# c #1B100E",
"$ c #131313",
"% c #1D1C1C",
"& c #200D02",
"* c #2C1203",
"= c #241917",
"- c #201F1F",
"; c #291C1A",
": c #39191A",
"> c #1F1F20",
", c #1F2020",
"< c #242323",
"1 c #292626",
"2 c #272728",
"3 c #2C2A2A",
"4 c #302E2E",
"5 c #353232",
"6 c #393636",
"7 c #3D3A3A",
"8 c #471715",
"9 c #6B0A06",
"0 c #641205",
"q c #621509",
"w c #721F06",
"e c #413E3E",
"r c #454242",
"t c #484545",
"y c #4D4B4B",
"u c #514D4D",
"i c #555252",
"p c #595555",
"a c #565758",
"s c #5C5A5A",
"d c #625E5E",
"f c #656262",
"g c #696666",
"h c #666769",
"j c #6C6A6A",
"k c #726D6D",
"l c #737273",
"z c #797575",
"x c #7D7979",
"c c #817D7D",
"v c #858181",
"b c #8A8686",
"n c #8D8A8A",
"m c #928F8F",
"M c #969292",
"N c #999595",
"B c #979798",
"V c #9D9B9C",
"C c #A29E9E",
"Z c #9C9EA0",
"A c #9EA0A2",
"S c #A5A2A3",
"D c #A8A6A7",
"F c #A7A9AB",
"G c #ADACAD",
"H c #AFAEB0",
"J c #B2B3B5",
"K c #B5B7B9",
"L c #BABCBE",
"P c #BFBEC0",
"I c #C0BFC1",
"U c #BFC1C4",
"Y c #C3C3C5",
"T c #C7C9CC",
"R c #CACCCE",
"E c #CBCED0",
"W c #CFD1D3",
"Q c #D0D2D5",
"! c #D3D6D8",
"~ c #D9DBDE",
"^ c #DBDEE1",
"/ c None",
/* pixels */
"//////////////////////////////////////////",
"///////////////////////<1331331<//////////",
"/////////////////////331ruuuuu5131////////",
"///////////////////<1euuippppiuuy41///////",
"//////////////////<1eipppgkjkdsddu4<//////",
"/////////////////<1eipkzzMSSSCCCVju4</////",
"////////////////<1eipjHQWYLLLKLLEDgu5<////",
"////////////////1eiglG~RUu$%%%%,ZQDgy41///",
"///////////////1eidnURUi$X      %AWSjy4///",
"//////////////1eiifFRa<$  $%%%o  %AWSdy3//",
"//////////////7uidlKhXy7X  $1<%%o >SRju4//",
"//////////////eipdSRy -f6X  st<-%X <Zzsy3/",
"//////////////7pidGj $,3f6  $st<,%% <FCp3/",
"//////////////7pidJs %<-1f6X $sr<%<%$JSp3/",
"//////////////7iidGs yu<,3f6  $fr,<%%JDs3/",
"//////////////7pidHd oay<,3f5  $fe<%$JSs3/",
"//////////////7pidHs  opy<%3f5X $fr%%JSs3/",
"//////////////7uidHd   osy<%4f3  $f73KSs3/",
"//////////////13edHs    osy<<3g3X $aeKSi1/",
"///////////////<7dFh     osy<,4j1 X<3KB6</",
"///////////////<eagVsX    $d7,,3h,  2Fy<//",
"////////////////7iijZa     %<<<<1% <VS7///",
"////////////////1riijViX    $%%%X ,VGn7///",
"/////////////////<7yukZi         ,BSnt////",
"////////////////  X$6ifNy$$$$$$$=nBt5/////",
"/////////////// o$$iyeupzvvvvvcczt71</////",
"///////////////opmviee64tspsppr664tu3/////",
"////////////// fJCd4ecmu344344tuuuiu4/////",
"////////////// lPCp6pvCguuuuuiippppi5<////",
"////////////// lPNiecClipgkkkkkkppvfy3////",
"////////////// lPf4tvCk6tcCCCCCNf6cgu4////",
"////////////// lIs6zCCk5tbT!!!QGf5cgu3////",
"////////////// lIpecCCk5tbR^~^~Gf5cdu3////",
"////////////// lIsecNNk5rbR^^~~Gf4yuy3////",
"////////////// lPp6pppi5tcPRRRRCd44441////",
"////////////// lYs144441eidddddpy4tuu3////",
"////////////// fGu6uuuu54444444441tuy3////",
"///////////@*/.#=;1euuu4eippppppu4333<////",
"///////////@*/w00q:14444tcNNNnbbd4////////",
"///////////&*///981eppppdbCCCp56y4////////",
"////////@*/&*////<epcNNNNVCCCm7ru4////////",
"//////+/@*/&*////<ecCCCCCCCCCVtyp4////////",
"/////@*/@*/&*////<evNNmmmmmmmnrru3////////",
"//@*/@*/@*/&*/////7xkr466556561131////////",
"//@*/@*/@*//@*////1te/<74/////////////////",
"//@*/@*/@*///&/////3///3//////////////////",
"//////+//+////&///////////////////////////",
"//////////////++O+////////////////////////",
"//////////////////////////////////////////",
"//////////////////////////////////////////",
"//////////////////////////////////////////",
"//////////////////////////////////////////",
"//////////////////////////////////////////"
};
