/* XPM */
static char *result[] = {
/* columns rows colors chars-per-pixel */
"35 63 142 2 ",
"   c #010101",
".  c #080707",
"X  c #050609",
"o  c #06080B",
"O  c #0C0C0C",
"+  c #0D0E12",
"@  c #0E1116",
"#  c #0F131A",
"$  c #141414",
"%  c #1A1A16",
"&  c #13161C",
"*  c #16181E",
"=  c #1A1B1B",
"-  c #23241C",
";  c #3C3C1E",
":  c #121721",
">  c #151A24",
",  c #191D25",
"<  c #171D29",
"1  c #191E29",
"2  c #1C2027",
"3  c #1C222C",
"4  c #1E2532",
"5  c #1F2837",
"6  c #1D273A",
"7  c #1F293B",
"8  c #222423",
"9  c #22252B",
"0  c #353520",
"q  c #383820",
"w  c #202734",
"e  c #212936",
"r  c #2B2E36",
"t  c #232B3B",
"y  c #2F3436",
"u  c #27303F",
"i  c #2B313C",
"p  c #333336",
"a  c #30343C",
"s  c #3C3A3A",
"d  c #3D4237",
"f  c #42421C",
"g  c #53531D",
"h  c #64641E",
"j  c #4A4B22",
"k  c #46443E",
"l  c #6D6D22",
"z  c #7D7D20",
"x  c #242E41",
"c  c #263144",
"v  c #293344",
"b  c #2E3847",
"n  c #273349",
"m  c #2B364A",
"M  c #2D394D",
"N  c #323741",
"B  c #353943",
"V  c #393C46",
"C  c #313B4D",
"Z  c #3A3E4A",
"A  c #2E3B50",
"S  c #333E52",
"D  c #3F424D",
"F  c #354155",
"G  c #3A4355",
"H  c #374359",
"J  c #39455C",
"K  c #3C485F",
"L  c #3E4B62",
"P  c #414550",
"I  c #464A56",
"U  c #484B56",
"Y  c #424C5E",
"T  c #4C505D",
"R  c #545356",
"E  c #56565E",
"W  c #5C5A5C",
"Q  c #414E65",
"!  c #414F68",
"~  c #475062",
"^  c #4A5264",
"/  c #44526C",
"(  c #505663",
")  c #585960",
"_  c #545B6C",
"`  c #475671",
"'  c #485772",
"]  c #4A5975",
"[  c #4C5D7A",
"{  c #5C616F",
"}  c #5D6374",
"|  c #51627F",
" . c #616168",
".. c #606472",
"X. c #696B74",
"o. c #6A6E7D",
"O. c #6C707F",
"+. c #75767F",
"@. c #79777D",
"#. c #8B8B1D",
"$. c #90901E",
"%. c #ABAB1E",
"&. c #BCBC16",
"*. c #878722",
"=. c #999921",
"-. c #D6D614",
";. c #DCDC14",
":. c #FFFF02",
">. c #E7E710",
",. c #526383",
"<. c #55678A",
"1. c #57698A",
"2. c #596C8D",
"3. c #5D7194",
"4. c #5F739A",
"5. c #6A7081",
"6. c #737787",
"7. c #757886",
"8. c #7D7B83",
"9. c #707688",
"0. c #62769A",
"q. c #64799E",
"w. c #777D90",
"e. c #657AA0",
"r. c #697FA6",
"t. c #6E85AD",
"y. c #7187AF",
"u. c #828085",
"i. c #888487",
"p. c #86858C",
"a. c #88878F",
"s. c #868693",
"d. c #898994",
"f. c #878C9E",
"g. c #8A8D9C",
"h. c #928E92",
"j. c #969191",
"k. c #989394",
"l. c #9195A7",
"z. c #959AAD",
"x. c #9A9CA9",
"c. c None",
/* pixels */
"c.c.c.c.c.c.c.c.c.> t u e > c.c.c.c.c.c.c.c.c.c.c.c.c.c.c.c.c.c.c.c.c.",
"c.c.c.c.c.c.c.c.3 S C F J F u > c.c.c.c.c.c.c.c.c.c.c.c.c.c.c.c.c.c.c.",
"c.c.c.c.c.c.c.c.J C + e G J L C 1 c.c.c.c.c.c.c.c.c.c.c.c.c.c.c.c.c.c.",
"c.c.c.c.c.c.c.c.! | v 1 F J L L F 3 c.c.c.c.c.c.c.c.c.c.c.c.c.c.c.c.c.",
"c.c.c.c.c.c.c.c.v L 4 e S J L L Q F 3 c.c.c.c.c.c.c.c.c.c.c.c.c.c.c.c.",
"c.c.c.c.c.c.c.c.c.c.c.v S S H L Q L H 3 c.c.c.c.c.c.c.c.c.c.c.c.c.c.c.",
"c.c.c.c.c.c.c.c.c.c.3 m S S J L Q L J S 1 c.c.c.c.c.c.c.c.c.c.c.c.c.c.",
"c.c.c.c.c.c.c.c.c.c.w m S S H J L L J H m * c.c.c.c.c.c.c.c.c.c.c.c.c.",
"c.c.c.c.c.c.c.c.c.c.e m C S J L L ! L H S t c.c.c.c.c.c.c.c.c.c.c.c.c.",
"c.c.c.c.c.c.c.c.c.c.t v M H J L ! ! ! K F m 3 c.c.c.c.c.c.c.c.c.c.c.c.",
"c.c.c.c.c.c.c.c.c.3 t m M S L Q / / ] ' K C x 1 c.c.c.c.c.c.c.c.c.c.c.",
"c.c.c.c.c.c.c.c.c.w t m A S J L ` [ [ ] ! S v e c.c.c.c.c.c.c.c.c.c.c.",
"c.c.c.c.c.c.c.c.c.3 5 x m S L ! ' ] / ^ Q C t 3 1 c.c.c.c.c.c.c.c.c.c.",
"c.c.c.c.c.c.c.c.c.1 < < < 4 5 t e w a D P r > < 1 1 c.c.c.c.c.c.c.c.c.",
"c.c.c.c.c.c.c.c.1 < > > : < < 1 < < 3 9 r B 3 > > 1 < c.c.c.c.c.c.c.c.",
"c.c.c.c.c.c.c.1 1 < > : < < < < 1 4 1 > r V r > > < < < c.c.c.c.c.c.c.",
"c.c.c.c.c.c.4 2 < > : : : > < 3 3 < 1 3 3 B p > > > < 3 3 3 c.c.c.c.c.",
"c.c.4 4 4 4 5 e t t 6 6 4 4 4 3 4 < i V D D u u m m m v x t e w 4 4 1 ",
"4 w 4 e w e t u m S L L L L / ' ' ` ! Q ~ / ' [ ' / L J S M m v m t 3 ",
"c.4 w e t t u M C J L L ` ] [ | 1.2.3.0.0.3.3.1.,.| [ ' L H C v e 2 c.",
"c.c.c.3 w e u v C F M J ~ ! G ' [ ,.2.3.3.1.,.[ / Y F N t w > c.c.c.c.",
"c.c.c.c.c.c.c.X O @ o & , = @ 3 9 d p w 9 2 8 8 j - + O . c.c.c.c.c.c.",
"c.c.c.c.c.c.c.      . . . O + + h -.$.% $ $ & l >.z $ + O c.c.c.c.c.c.",
"c.c.c.c.c.c.c.      . o O O $ % %.:.;.; % % = $.:.%.% + O c.c.c.c.c.c.",
"c.c.c.c.c.c.c.X X X X . O O + % %.:.-.0 $ % & #.:.=.$ + O c.c.c.c.c.c.",
"c.c.c.c.c.c.4 e 3 2 * $ O O O $ g &.z = & % $ ; #.f % 9 i c.c.c.c.c.c.",
"c.c.c.c.c.c.w v v b M V B a p s k k - $ % $ $ $ p W E G C c.c.c.c.c.c.",
"c.c.c.c.c.c.1 t u u m C F J T X.j.u.U = $ $ $ 8 X.i.( C i c.c.c.c.c.c.",
"c.c.c.c.c.c.c.w t v m m C G G Q 8.j...a @ + + V 8.@.G B i c.c.c.c.c.c.",
"c.c.c.c.c.c.c.4 t u v m m S F F } k.+.G $ $ $ U p.X.C m w c.c.c.c.c.c.",
"c.c.c.c.c.c.c.3 e c v m C C S F Y a.a.~ 2 O & _ g.} C v w c.c.c.c.c.c.",
"c.c.c.c.c.c.c.4 e t u v M M S S S 5.x.o.C + 2 5.f.T M v t c.c.c.c.c.c.",
"c.c.c.c.c.c.c.4 e t t c n m M F A ^ l.f.~ 3 V d.7.C M m u 9 c.c.c.c.c.",
"c.c.c.c.c.c.3 7 t 7 7 c n m M M A S w.z.} v  .h.^ M b v u w c.c.c.c.c.",
"c.c.c.c.c.c.4 7 7 7 c c n M M A A A _ z.9.C R 8.C b m v v e c.c.c.c.c.",
"c.c.c.c.c.c.4 7 t x c c n n n M m A H 9.s.Y B I v m m m v c 3 c.c.c.c.",
"c.c.c.c.c.< 5 5 7 x x n n n M M m A A } g._ m 4 c m m v c x w c.c.c.c.",
"c.c.c.c.c.> 3 5 7 7 7 n n n n n m m m ` a.X.G 4 x c v x x t 3 c.c.c.c.",
"c.c.c.c.c.c.> > < 6 6 7 x n n n n n m F 8.8.Y t 6 7 7 6 1 > c.c.c.c.c.",
"c.c.c.c.c.c.> > : : : : < < 4 6 5 7 t x T E B > + : : & * $ c.c.c.c.c.",
"c.c.c.c.c.c.< < < < < > * * * * > * * * * , * * * , = , , & c.c.c.c.c.",
"c.c.c.c.c.c.2 3 2 2 2 < 3 3 2 3 2 2 2 2 , 8 1 9 2 2 , < , > c.c.c.c.c.",
"c.c.c.c.c.2 < 2 < 2 3 2 3 3 3 4 3 9 3 9 9 3 9 2 2 2 2 3 2 , c.c.c.c.c.",
"c.c.c.c.c.2 3 3 3 3 3 4 4 w w w w w w 9 3 3 2 3 3 2 2 2 2 , : c.c.c.c.",
"c.c.c.c.< 2 2 < 3 4 3 4 4 w w w w w w w 3 w 9 3 9 3 2 3 1 2 > c.c.c.c.",
"c.c.c.c.2 2 2 3 3 3 4 4 w w e e e e w w w 4 4 4 5 3 3 1 2 3 1 c.c.c.c.",
"c.c.c.c.3 3 3 3 4 4 e e e e e e e e w w w w e w 4 3 3 1 3 4 3 c.c.c.c.",
"c.c.c.2 3 4 4 3 4 4 5 e e e e e w e e w t e e w 3 3 3 3 4 4 3 c.c.c.c.",
"c.c.c.3 e e e w 4 4 w e e e e e t e t t t e w 4 4 3 3 4 w w e c.c.c.c.",
"c.c.c.4 t u v v v c t e t e e e 5 t e e w 4 4 4 3 5 t u v v t 3 c.c.c.",
"c.c.2 5 t u v m S S H J H S S M n v x u v v S J L / K S M v u 3 c.c.c.",
"c.c.< 5 e e u m S H L L / / ] [ ,.<.2.3.0.q.e.q.1.[ L H C v e 2 c.c.c.",
"c.c.c.: 3 e t c c M H L ! ' [ ,.2.4.e.r.y.y.t.q.<.' J M c t 4 > c.c.c.",
"c.c.c.c.c.& < 4 e x v n m S H L / ] [ ,.,.[ ` L S m c c e 3 & c.c.c.c.",
"c.c.c.c.c.c.c.c.X > 5 x c c c c n x v v n x v x c x 5 3 : c.c.c.c.c.c.",
"c.c.c.c.c.c.c.c.c.c.c.+ @ : 1 5 6 t t x x t t w 3 # X c.c.c.c.c.c.c.c.",
"c.c.c.c.c.c.c.c.c.c.c.c.      c.c.c.c.c.c.c.X     c.c.c.c.c.c.c.c.c.c.",
"c.c.c.c.c.c.c.c.c.c.c.c.      c.c.c.c.c.c.c.      c.c.c.c.c.c.c.c.c.c.",
"c.c.c.c.c.c.c.c.c.c.c.c.    c.c.c.c.c.c.c.c.      c.c.c.c.c.c.c.c.c.c.",
"c.c.c.c.c.c.c.c.c.c.c.c.    c.c.c.c.c.c.c.c.    c.c.c.c.c.c.c.c.c.c.c.",
"c.c.c.c.c.c.c.c.c.c.c.c.    c.c.c.c.c.c.c.c.    c.c.c.c.c.c.c.c.c.c.c.",
"c.c.c.c.c.c.c.c.c.c.c.c.    c.c.c.c.c.c.c.c.  c.c.c.c.c.c.c.c.c.c.c.c.",
"c.c.c.c.c.c.c.c.c.c.c.c.c.  c.c.c.c.c.c.c.c.c.c.c.c.c.c.c.c.c.c.c.c.c."
};
