/* XPM */
static char *_a3b37c45f9243ea89dbed0d4fc8a93dMudKWMi2qiqHaYLC[] = {
/* columns rows colors chars-per-pixel */
"55 64 236 2 ",
"   c None",
".  c #040404",
"X  c #0B0B0B",
"o  c #090807",
"O  c #11100F",
"+  c #131313",
"@  c #1B1B1B",
"#  c #191716",
"$  c #0D1016",
"%  c #181C26",
"&  c #371C24",
"*  c #1A2439",
"=  c #232323",
"-  c #292827",
";  c #343433",
":  c #3A3633",
">  c #3E3E3E",
",  c #312F2F",
"<  c #431B25",
"1  c #541C28",
"2  c #77182B",
"3  c #781D35",
"4  c #6D1B2C",
"5  c #433E39",
"6  c #502C32",
"7  c #662534",
"8  c #7A293B",
"9  c #6C323E",
"0  c #7F303E",
"q  c #4C111C",
"w  c #47413C",
"e  c #18284C",
"r  c #25324D",
"t  c #263857",
"y  c #323645",
"u  c #263D66",
"i  c #243F75",
"p  c #3A3E6C",
"a  c #1F3264",
"s  c #533353",
"d  c #73354C",
"f  c #4A3C62",
"g  c #28416C",
"h  c #284677",
"j  c #354778",
"k  c #3A406D",
"l  c #1D4175",
"z  c #494848",
"x  c #534D47",
"c  c #5B544E",
"v  c #595755",
"b  c #454955",
"n  c #774A54",
"m  c #645C56",
"M  c #7A484E",
"N  c #6A625B",
"B  c #6F685F",
"V  c #74665D",
"C  c #666565",
"Z  c #736A63",
"A  c #756C66",
"S  c #7B7369",
"D  c #787776",
"F  c #4D546C",
"G  c #891932",
"H  c #9E1434",
"J  c #9A1B39",
"K  c #95102E",
"L  c #A40B2E",
"P  c #A40F31",
"I  c #A80D32",
"U  c #A51235",
"Y  c #A91436",
"T  c #AA1639",
"R  c #A41A3A",
"E  c #AC1A3C",
"W  c #A51638",
"Q  c #88233B",
"!  c #99223C",
"~  c #A3233F",
"^  c #AF1E40",
"/  c #8B2A41",
"(  c #992B44",
")  c #853747",
"_  c #9B364E",
"`  c #A92845",
"'  c #B32344",
"]  c #B32B4A",
"[  c #B82D4D",
"{  c #B5314E",
"}  c #A93A54",
"|  c #B43452",
" . c #BC3452",
".. c #BB3957",
"X. c #B93D59",
"o. c #A8304B",
"O. c #C03655",
"+. c #C13A5A",
"@. c #8A4654",
"#. c #964558",
"$. c #875456",
"%. c #A9435A",
"&. c #BA415D",
"*. c #BC4560",
"=. c #BE4B64",
"-. c #B55469",
";. c #AB5367",
":. c #85776B",
">. c #847B73",
",. c #897E77",
"<. c #927371",
"1. c #A56B6A",
"2. c #C4415E",
"3. c #C54965",
"4. c #C2556D",
"5. c #C75B74",
"6. c #D65774",
"7. c #C9637B",
"8. c #DD627E",
"9. c #8C837A",
"0. c #95887C",
"q. c #1A4A8D",
"w. c #174D99",
"e. c #1E5197",
"r. c #274A87",
"t. c #2B518E",
"y. c #2C5495",
"u. c #23529D",
"i. c #27559B",
"p. c #315696",
"a. c #324F8B",
"s. c #0D4EAB",
"d. c #1553AC",
"f. c #1956AD",
"g. c #1B56AB",
"h. c #0D51B2",
"j. c #1353B4",
"k. c #1956B4",
"l. c #1C59B4",
"z. c #1E5BB9",
"x. c #1A57B7",
"c. c #124EA8",
"v. c #2453A2",
"b. c #2C5CAC",
"n. c #2758A6",
"m. c #325EA7",
"M. c #245DB4",
"N. c #245DBA",
"B. c #295DB4",
"V. c #2D64BB",
"C. c #2861B7",
"Z. c #3264B2",
"A. c #3066BE",
"S. c #376ABA",
"D. c #3261A7",
"F. c #376DC2",
"G. c #2F66C0",
"H. c #CC6C82",
"J. c #D66981",
"K. c #CE7288",
"L. c #D37A8D",
"P. c #D37E91",
"I. c #E56E88",
"U. c #888786",
"Y. c #998C83",
"T. c #9D9287",
"R. c #999999",
"E. c #A58981",
"W. c #A3968B",
"Q. c #A5998C",
"!. c #A99889",
"~. c #A99E94",
"^. c #B59C92",
"/. c #AAA39C",
"(. c #B4A59A",
"). c #B9A899",
"_. c #B7A28F",
"`. c #A5A4A4",
"'. c #ADA9A8",
"]. c #BAADA1",
"[. c #BBB2A8",
"{. c #B7B7B7",
"}. c #BAAEB0",
"|. c #D88699",
" X c #C19F9C",
".X c #C4AC9A",
"XX c #D0B29E",
"oX c #C3ADA3",
"OX c #C7B7A8",
"+X c #D9B7A8",
"@X c #C9BDB1",
"#X c #D2B9AD",
"$X c #E0BDAD",
"%X c #D8C3AD",
"&X c #D4C9BD",
"*X c #DCCDBD",
"=X c #D6C6B5",
"-X c #E3C8AE",
";X c #E2CCB8",
":X c #FBC9B5",
">X c #F8CCB9",
",X c #E8D2BD",
"<X c #FADBBD",
"1X c #F7D6BA",
"2X c #C4C4C4",
"3X c #CBCBCB",
"4X c #D8D8D8",
"5X c #D9CDC7",
"6X c #FBCEC1",
"7X c #E4D4C4",
"8X c #EADACA",
"9X c #EAD7C4",
"0X c #F9DFC4",
"qX c #FBD4CA",
"wX c #F3DECA",
"eX c #F8D6C6",
"rX c #FDDED2",
"tX c #E9DDD1",
"yX c #F4E2CE",
"uX c #FBE2CB",
"iX c #FCE0C3",
"pX c #F4E4D3",
"aX c #FCE4D2",
"sX c #FCEAD4",
"dX c #FCECDB",
"fX c #F6E9DA",
"gX c #FEF1DE",
"hX c #EEE1CE",
"jX c #FDEFE0",
"kX c #FDF2E3",
"lX c #FDF6EB",
"zX c #FEF8EE",
"xX c #FEFEFE",
"cX c #FCFCFC",
"vX c #F5F5F5",
"bX c #E4E4E4",
/* pixels */
"                                        X O $ X o o o . .                                                     ",
"                                  o X O + @ @ @ # # X X X . . X                                               ",
"                              X O # @ = = - - = = @ @ # + X X . .                                             ",
"                              . @ - - - = = @ @ # # + $ X + + X X X                                           ",
"                              = @ - - = = @ @ O $ X o . . . O + X X X                                         ",
"                            :..Xw O o O @ + X . o @ # o . . . X + + +                                         ",
"                          c -X0X-X:., O + - w V Q.=X=X).Z = . . + + X                                         ",
"                          Y.iX<X<X<X-X.X.X%X<XuXsXuXuXdXfX&Xc X + + X X                                       ",
"                        , !.).!.).;XiXiXuX%X).OX;XyXaXaXaXdXpX0.@ + X X                                       ",
"                        X O o o o :.uX<X,Xw o O = x oXsXaXaXfXfXm X X X                                       ",
"                        v , = , > 0.<X<X1Xc @ X O X m (.(..XrXdX>.X X X                                       ",
"                      U.bX4X4X{.`.9..XiX;XU.2X{.2X2X2X2X}.U.tXjXv . X X                                       ",
"                      D R.,.4XcXvX'.).iX=X`.3XbXxXxXvXvX4XW.dXOX+ . . o                                       ",
"                        z v C cXxX'.oXuX%XU.v R.4XxXxXxX3XW.dX7X, . . X                                       ",
"                        > . b cXxX{.(.uXOXC ; ; }.xXxXxX4XS @XQ.# . . .                                       ",
"                        U.v {.xXxX3XC D 9.R.- $ 2XxXxXvX3Xt i a e y A Z                                       ",
"                      - '.xXcXxXcX`.x W.>.}.{.}.vXxXxXxX{.b F $ > ).'.7Xm                                     ",
"                      :.Y.}.5X4X3Xs ).rXoXR.cXcXxXxXxXxX{.oX:.+ ).9.9.8XA                                     ",
"                      _.>X+X X^.T.m #XrXoXc `.`.'.(.'.~.T.@X: x ).=X5X[.                                      ",
"                      .X:X6XqXqXpXQ.,.).A V $X+X+X+X-X,XaX*XZ OXW.T.T.v                                       ",
"                      XX:X6XqXqX#X!.7XOX0.#X:X:X>X6X6X0XsXfXuXiX8XN                                           ",
"                      $X:X6XqXrX~.(.9XwX^.>X:X:X6X6XqXrXsXdX0XuX&X5                                           ",
"                      XX:X>X0XsX7X!.0.0.0.1X>X6XeXqXqXaXpXaX<XfX,.1 &                                         ",
"                      _.1X<XuXuXaX;Xc N 0.1X1XeXqXqXaXaXaXuXsXOX) ` ;.;.&.%.-.5.-.%.9 m m                     ",
"                      :.1X1X<XiXaXwX!.W.0.<X<XuXuXuXaXrXuXaX#X$.R  .5.7.3.6.8.I.I.I.-.^.,X^.Z                 ",
"                        _.<X<X<X0XwXaXaXQ.-X<XuXuXaXaXaXsX*X$.` ] ..+.&.3.3.+.+.3.I.5.E.dXjX8X/.x             ",
"                        x !.!.,XiX<X0XuX%X_.yXuXrXaXdXdX&X<.( ` [  ...X.O.O.O.O.+.6.=.E.dXdXkXgX@XN           ",
"                        1 1 < N ,X<X0XuXsXpXgXpXwX8X@X,.@.} { ] [  . .&.O.O.O.O. .2.} ~.sXsXdXkXgX&Xx         ",
"                      7 2 Q J q V *X8XyX9X=X).Q.S 5 6 d 3.2.| X.X. . ...+...O.O.O.O.) %XsXsXsXsXgXkX&XZ       ",
"                    6 G 4 G H G 1 S W.!._.OX,X].n 8 ) =.4.3.=.3.&. .[  .+.3._ Q ) / n iXsXsXsXsXdXkXkXhX0.    ",
"                    Q J 2 2 L G 7 n ).;X9X%X0.d 8 #.H.L.K.7.4.=.=...[  . .3.;.6     5 9.,XsXsXsXsXgXkXkXpX9.  ",
"                  x 0 J G 4 K H Q 7 9 $.$.M Q 8 #.7.K.|.|.P.K.K.7.&.] [ { 3.%.<         B -XsXsXsXfXgXgXkX8Xx ",
"                A *X).M ! 4 G H R ` Q 3 2 G G o.X.4.-.7.K.P.|.|.K.3.| ] R ` J 1           N *XsXsXaXfXgXfXaX9.",
"              S 5XdXfX=XM Q 4 J J J W H W R E ' { ] ] { X.-.K.P.P.H.&.R K K } 9           + B wXsXsXgXkX&XQ.N ",
"    z ).&X>.>.5XkXlXkXdX).Q 8 ! W H U T T T Y T E T U T T ] &.5.K.K.*.` R W 5.@.          : ).8XiXfXhXtX&X:   ",
"  , A (.pX[.OXkXkXlXlXdXyX<.8 ! W H U Y U U P P Y Y I L I Y E | 4.5.-.5.=.| 7.%.          v 7XE.S fX7X].W.@   ",
": W.hX(.8X(.@XgXkXzXzXjXsXW.< ! U P U T T Y I Y Y P P L I Y Y ^ ] 3.L.|.5.J.L.)             Y.S 9.8X7XN 5     ",
"v ,X].'.~.B *XdXkXzXzXfX=X$.1 G H P T T T U Y Y I P P P Y Y Y T ` 4.|.|.|.|.#.&               : >.OXT.        ",
"x A (.fX/.m >.=XjXjXpX^.) K   G P P T T T T T Y P P P Y Y Y Y E ] 3.H.|.|.#.j h                               ",
"  : ,X].!.8X].T.uX@XY.1.-.    G H H T ^ ^ T E E Y Y Y T Y E E ' ] 2.K.K.n j S.S.r                             ",
"  , A c *XuX!.Y.S 0.,XsX      G H H ^ ' ^ ^ E E E E E E T E ' ]  .4.;.s q.B.A.A.g                             ",
"        ,.~.9.N Q.hX          G H W ' ] [ ' ' ' ' ] ' ' ' ] [  .o.d h g.N.M.M.B.r.                            ",
"          -                   8 J 3 s s d / Q / ( o.{ {  .} _ d p g.z.z.x.j.N.V.p.%                           ",
"                                < i Z.B.n.p.p.a.j k f f f f r.u.k.j.j.j.h.j.x.V.p.%                           ",
"                                  r.V.C.N.M.M.N.V.C.g.Z.V.C.C.j.j.j.h.h.h.h.M.A.a.r                           ",
"                                  g A.B.M.k.g.l.f.g.d.g.k.l.j.f.j.d.h.h.h.x.A.Z.h a.                          ",
"                                  r i.C.M.l.f.f.f.d.f.f.f.f.l.l.x.j.h.h.x.N.F.a.p.D.                          ",
"                                  g h m.M.g.l.k.f.d.d.f.d.j.k.k.x.j.j.l.C.Z.t.q.S.S.t                         ",
"                                t p.r.h y.B.M.M.l.g.f.k.f.l.l.z.z.z.C.i.t.q.w.k.F.S.j                         ",
"                                i v.u.w.q.r.y.p.D.Z.n.M.C.b.m.m.i.r.h l l w.h.j.V.F.D.                        ",
"                              r y.v.u.c.h.s.c.i t   u l g           h i.e.w.s.h.z.G.S.g                       ",
"                              g n.u.u.c.h.h.g.t                     g i.q.w.c.h.j.N.F.p.                      ",
"                              p.n.u.v.c.h.x.t.                        y.u.q.w.s.h.l.G.S.t                     ",
"                            g b.v.v.v.j.j.M.t                         g i.q.w.c.j.l.A.S.h                     ",
"                            j b.v.v.g.k.x.u.                            t.e.e.e.g.C.A.F.u +                   ",
"                            t.b.v.v.n.x.N.i                             t y.u.n.B.F.S.p.% +                   ",
"                            p.Z.b.b.M.V.b.t                               g p.Z.S.D.g b D X                   ",
"                          = * u t.b.Z.A.t.                                  t t e ; = C v X =                 ",
"                        ,.R.= o $ % * e *                                     @ D `.v $ X . @                 ",
"                      U.R.> $ o o o X o +                                   % ,.U.- $ X X X %                 ",
"                    b `.@ . . X o X o o @                                   ; R.@ o o o O +                   ",
"                    > `.> X X X o X X $                                     - R.; o o o O                     ",
"                      v C D C . O # O @                                     # z z X X $ @                     ",
"                        + > ; @                                               # + O +                         "
};
