/* XPM */
static char *_023bb545b664a868b3aea5234962d6fkyy44IChVayb8PEH[] = {
/* columns rows colors chars-per-pixel */
"55 64 236 2 ",
"   c None",
".  c #040404",
"X  c #0B0B0B",
"o  c #090807",
"O  c #11100F",
"+  c #131313",
"@  c #1B1B1B",
"#  c #191716",
"$  c #0D1016",
"%  c #181C26",
"&  c #371C24",
"*  c #1A2439",
"=  c #232323",
"-  c #292827",
";  c #343433",
":  c #3A3633",
">  c #3E3E3E",
",  c #312F2F",
"<  c #431B25",
"1  c #541C28",
"2  c #77182B",
"3  c #781D35",
"4  c #6D1B2C",
"5  c #433E39",
"6  c #502C32",
"7  c #662534",
"8  c #7A293B",
"9  c #6C323E",
"0  c #7F303E",
"q  c #4C111C",
"w  c #47413C",
"e  c #18284C",
"r  c #25324D",
"t  c #263857",
"y  c #323645",
"u  c #263D66",
"i  c #243F75",
"p  c #3A3E6C",
"a  c #1F3264",
"s  c #533353",
"d  c #73354C",
"f  c #4A3C62",
"g  c #28416C",
"h  c #284677",
"j  c #354778",
"k  c #3A406D",
"l  c #1D4175",
"z  c #494848",
"x  c #534D47",
"c  c #5B544E",
"v  c #595755",
"b  c #454955",
"n  c #774A54",
"m  c #645C56",
"M  c #7A484E",
"N  c #6A625B",
"B  c #6F685F",
"V  c #74665D",
"C  c #666565",
"Z  c #736A63",
"A  c #756C66",
"S  c #7B7369",
"D  c #787776",
"F  c #4D546C",
"G  c #891932",
"H  c #9E1434",
"J  c #9A1B39",
"K  c #95102E",
"L  c #A40B2E",
"P  c #A40F31",
"I  c #A80D32",
"U  c #A51235",
"Y  c #A91436",
"T  c #AA1639",
"R  c #A41A3A",
"E  c #AC1A3C",
"W  c #A51638",
"Q  c #88233B",
"!  c #99223C",
"~  c #A3233F",
"^  c #AF1E40",
"/  c #8B2A41",
"(  c #992B44",
")  c #853747",
"_  c #9B364E",
"`  c #A92845",
"'  c #B32344",
"]  c #B32B4A",
"[  c #B82D4D",
"{  c #B5314E",
"}  c #A93A54",
"|  c #B43452",
" . c #BC3452",
".. c #BB3957",
"X. c #B93D59",
"o. c #A8304B",
"O. c #C03655",
"+. c #C13A5A",
"@. c #8A4654",
"#. c #964558",
"$. c #875456",
"%. c #A9435A",
"&. c #BA415D",
"*. c #BC4560",
"=. c #BE4B64",
"-. c #B55469",
";. c #AB5367",
":. c #85776B",
">. c #847B73",
",. c #897E77",
"<. c #927371",
"1. c #A56B6A",
"2. c #C4415E",
"3. c #C54965",
"4. c #C2556D",
"5. c #C75B74",
"6. c #D65774",
"7. c #C9637B",
"8. c #DD627E",
"9. c #8C837A",
"0. c #95887C",
"q. c #1A4A8D",
"w. c #174D99",
"e. c #1E5197",
"r. c #274A87",
"t. c #2B518E",
"y. c #2C5495",
"u. c #23529D",
"i. c #27559B",
"p. c #315696",
"a. c #324F8B",
"s. c #0D4EAB",
"d. c #1553AC",
"f. c #1956AD",
"g. c #1B56AB",
"h. c #0D51B2",
"j. c #1353B4",
"k. c #1956B4",
"l. c #1C59B4",
"z. c #1E5BB9",
"x. c #1A57B7",
"c. c #124EA8",
"v. c #2453A2",
"b. c #2C5CAC",
"n. c #2758A6",
"m. c #325EA7",
"M. c #245DB4",
"N. c #245DBA",
"B. c #295DB4",
"V. c #2D64BB",
"C. c #2861B7",
"Z. c #3264B2",
"A. c #3066BE",
"S. c #376ABA",
"D. c #3261A7",
"F. c #376DC2",
"G. c #2F66C0",
"H. c #CC6C82",
"J. c #D66981",
"K. c #CE7288",
"L. c #D37A8D",
"P. c #D37E91",
"I. c #E56E88",
"U. c #888786",
"Y. c #998C83",
"T. c #9D9287",
"R. c #999999",
"E. c #A58981",
"W. c #A3968B",
"Q. c #A5998C",
"!. c #A99889",
"~. c #A99E94",
"^. c #B59C92",
"/. c #AAA39C",
"(. c #B4A59A",
"). c #B9A899",
"_. c #B7A28F",
"`. c #A5A4A4",
"'. c #ADA9A8",
"]. c #BAADA1",
"[. c #BBB2A8",
"{. c #B7B7B7",
"}. c #BAAEB0",
"|. c #D88699",
" X c #C19F9C",
".X c #C4AC9A",
"XX c #D0B29E",
"oX c #C3ADA3",
"OX c #C7B7A8",
"+X c #D9B7A8",
"@X c #C9BDB1",
"#X c #D2B9AD",
"$X c #E0BDAD",
"%X c #D8C3AD",
"&X c #D4C9BD",
"*X c #DCCDBD",
"=X c #D6C6B5",
"-X c #E3C8AE",
";X c #E2CCB8",
":X c #FBC9B5",
">X c #F8CCB9",
",X c #E8D2BD",
"<X c #FADBBD",
"1X c #F7D6BA",
"2X c #C4C4C4",
"3X c #CBCBCB",
"4X c #D8D8D8",
"5X c #D9CDC7",
"6X c #FBCEC1",
"7X c #E4D4C4",
"8X c #EADACA",
"9X c #EAD7C4",
"0X c #F9DFC4",
"qX c #FBD4CA",
"wX c #F3DECA",
"eX c #F8D6C6",
"rX c #FDDED2",
"tX c #E9DDD1",
"yX c #F4E2CE",
"uX c #FBE2CB",
"iX c #FCE0C3",
"pX c #F4E4D3",
"aX c #FCE4D2",
"sX c #FCEAD4",
"dX c #FCECDB",
"fX c #F6E9DA",
"gX c #FEF1DE",
"hX c #EEE1CE",
"jX c #FDEFE0",
"kX c #FDF2E3",
"lX c #FDF6EB",
"zX c #FEF8EE",
"xX c #FEFEFE",
"cX c #FCFCFC",
"vX c #F5F5F5",
"bX c #E4E4E4",
/* pixels */
"                                                    o o o o o X X $ X                                         ",
"                                              o . o o o X # # @ @ @ + $ X X                                   ",
"                                            o . X X O + @ = = = = = = = @ # O X                               ",
"                                          X o $ + + X $ + # # @ = = = - , - @ .                               ",
"                                        O o X + O . . . . X O + @ @ @ = = = @ =                               ",
"                                        X + + X . . . X # # o . O # # O X $ w .X:.                            ",
"                                        X # + o . = Z (.=X=X!.V w = + O : :.-XiX-Xc                           ",
"                                      o X # + X c &XdXsXaXaXuXuX1X%X.X.X-X<X<XiXuXT.                          ",
"                                      X X # @ 9.pXsXaXaXaX0X;XOX).-XiXiXiX;X).!.).!.-                         ",
"                                      X X X m fXdXaXsXdXoXx = O o w ,X<XuX:.o o o O X                         ",
"                                      X X o >.gX0X].(.(.m X $ O @ c 1X<X9XY.5 , = ; v                         ",
"                                      X o o v sXpXY.'.2X3X2X2X{.&XU.*X<XoX,.`.{.4X4XbXU.                      ",
"                                      X . . $ OXdXW.3XvXcXcXcXbX2XR.%XiX).'.vXcX4XU.R.,.                      ",
"                                      X . . , 7XdXW.4XcXxXxX4XR.C U.%XuXOX'.xXvXC v z                         ",
"                                      . . . % T.#XA 4XcXxXxX'.; , C OXyX).{.xXcXb . >                         ",
"                                      Z A y e a h r 3XcXxXxX3X$ - R.9.D N 3XcXxX{.v U.                        ",
"                                    v 7X].(.y $ F b &XcXcXcXcX}.{.}.,.T.x `.cXxXxXcX'.-                       ",
"                                    Z tX>.0.(.# >.oX'.cXxXxXcXcXcXR.oXrX Xz 3X4X5X}.Y.S                       ",
"                                      OX*X=XoXx : @XY.~.'.'.'.^.`.x oXaX#Xm W.^. X+X:X^.                      ",
"                                      c T.Y.W.OXV 5XpX9X-X+X+X+X$XZ Z  X,.W.rXqXqX6X:XXX                      ",
"                                          N 8XuXuXfXpX0X6X6X>X:X>X#X9.oX7X!.#XqXqX6X:XXX                      ",
"                                          5 &XuX0XdXsXaXqX6X6X:X:X>X(.wX9X(.~.rXqX6X:X+X                      ",
"                                        & 1 ,.sX0XsXpXaXqXqXqX6X:X1X0.0.0.!.9XsXqX>X:XXX                      ",
"                    m c 9 ;.-.4.-.%.} ;.-.` ) #XsXuXuXaXrXqXqXqX1X1X0.B c ;XaXsXuX1X1X^.                      ",
"                Z /.7X!.-.I.I.I.J.6.3.8.5. .^ @.#XuXuXsXuXaXaXwX<X1X0.T.!.0XuX0X<X1X1X:.                      ",
"            x /.tXgXdXE.4.I.3.3.2.2.3.3.+...` ( $.7XdXaXaXuXuXuXiX-X!.pXsXuX0X0X<X<X_.                        ",
"          N =XkXkXdXsXE.=.6.O.O.O.O.O..... .{ ` ` <.&XkXfXyXuXuXuX_.%XuXiX<X0X;X0._.x                         ",
"        x &XgXgXdXaXsX^.} 2.O... .O.O.X. . .{ ] ] } @.9.%X8XyXyXdXpXsXuX0X<X,XN < 6 1                         ",
"      Z &XkXgXsXsXsXsX%X)  .O.O.O.O.X... . .X...o.3.3.8 6 s :.Q.(.=X8XyXwX;XV q J Q 2 7                       ",
"    0.hXkXkXsXsXsXsXsXwXV Q / Q _ *.X. . .| *.3.&.=.4.-.) 7 M ].*XOX_.!.T.S 6 G H G 2 Q 6                     ",
"  9.pXgXkXgXsXsXsXsX,X9.5     6 -.3. . .[ ..=.=.4.7.K.P.H.#.8 d 0.;X9X,X).n 4 G K 2 2 J Q                     ",
"x 8XkXkXgXfXsXsXsX=XA         < %.3.[ [ [ ..5.K.K.P.|.|.L.7.#.8 8 @.$.M 9 7 Q H H 4 G J / 5                   ",
"9.yXfXkXsXsXsXsX;XN           1 ~ ~ E ` | -.7.|.|.L.K.7.4.=.2.o.G 2 2 2 Q o.R H G 4 ! M ).=XA                 ",
"N /.&XkXdXsXsXyXZ +           9 %.K K R &.7.|.|.K.4.X.{ ` ] { ' E T W W R R H J 2 G M %XdXjX5XS               ",
"  : &XtXhXsX8X9X(.:           @.4.W ~ ` &.K.L.5.&.` T T T T E Y W Y T Y U H R Q G d ).dXlXlXkX5X>.>.&X).x     ",
"  @ T.[.7XpX:.T.9Xv           %.7.{ &.7.-.5.4.| E Y I L I W U I U U U Y U U W ( 8 <.wXdXlXlXlXjXOX[.fX(.A ,   ",
"    w m 7X8X,.S Y.            d |.8.7.|.|.=.` ^ W W I L L P U Y I Y T T U P H Q 1 Y.sXdXzXzXkXgX@X(.7X/.hXW.: ",
"        T.OX:.:               & #.|.|.|.|.5.' T Y Y Y U P L U U Y Y T E W P U G 1 $.*XdXlXzXkXdX*XB /.].[.,Xc ",
"                              h j @.|.|.7.4.' E Y Y Y Y U I U W T T T E W P U G   G ) ^.pXkXgX=X>.N /.fX(.S x ",
"                            r S.F.j n 7.8.2.[ ' E E Y T T Y U T T T E ^ T P H G     -.1.Y.@XpXY.].8X!.).*X:   ",
"                            g S.S.C.e.s ;.3.| [ ' E E E E T E E ^ ^ ^ ' ^ H H G       sX,X0.S Y.W.aX=Xc Z ;   ",
"                            r.B.l.M.C.n.h d } .. .] ' ' ' ' ' ' ' ' ' ] [ T H G           yXQ.N 9.^.9.        ",
"                          % p.V.z.x.x.x.l.g.p d _ | | { { o.( ! G d d s s 3 J 3                   -           ",
"                          % p.G.x.j.h.j.k.j.k.c.j k f f f k j p.p.y.n.B.m.i <                                 ",
"                          r a.S.z.j.h.h.s.j.j.x.z.C.C.Z.g.M.C.V.B.N.M.C.A.r.                                  ",
"                          j h S.A.x.h.h.h.j.x.k.k.l.l.l.g.g.f.l.f.l.M.M.V.g                                   ",
"                          D.p.r.F.N.x.h.h.h.x.k.f.k.f.f.f.d.f.f.f.g.M.M.i.r                                   ",
"                        t S.A.r.t.Z.C.x.j.j.k.k.l.j.d.f.g.c.f.k.l.l.M.m.h h                                   ",
"                        j S.F.k.c.q.t.u.M.z.z.z.l.l.f.l.d.k.l.C.C.M.y.h q.y.r                                 ",
"                        D.F.N.j.h.w.l g h r.i.m.D.b.b.M.n.Z.D.p.t.q.q.e.u.n.j                                 ",
"                      g S.G.z.j.s.w.e.i.h           g l u   t g c.s.s.c.u.u.p.r                               ",
"                      p.F.N.j.h.c.e.e.i.g                     t n.h.h.d.u.u.n.i                               ",
"                    r S.G.z.h.s.w.q.e.t.                        r.x.h.s.v.v.v.p.                              ",
"                    j F.V.z.h.c.w.q.i.g                         u M.j.j.v.u.v.b.g                             ",
"                  # u S.G.B.g.e.e.u.t.                            e.x.x.g.v.v.b.j                             ",
"                  + % p.F.F.B.v.u.y.t                             h N.x.n.v.n.b.y.                            ",
"                  + A b l Z.S.Z.m.u                               t b.C.B.b.b.Z.t.                            ",
"                @ o v C @ ; e t t                                   t.S.Z.m.t.u * @                           ",
"                @ o X $ C `.A @                                     * e e % $ o = R.U.                        ",
"                = X X o X , U.D @                                   + X . o o o $ > R.U.                      ",
"                  + X o X o @ R.;                                   # X o o X o o . @ `.x                     ",
"                    + X X o ; R.=                                     $ o o o X X o > `.>                     ",
"                    @ + X . b z #                                     @ O # $ X C D C v                       ",
"                        + + + @                                               @ : y #                         "
};
