/* XPM */
static char *result[] = {
/* columns rows colors chars-per-pixel */
"33 30 6 1 ",
"  c #381E23",
". c #5B2E4A",
"X c #CD66B1",
"o c #FEABE1",
"O c #FECEC7",
"+ c None",
/* pixels */
"+++++++++++++++++++++++++++++++++",
"+++++++++++++  ...+++++++++++++++",
"++++   +++  ........+ +++++++++++",
"+++      ..XXX..X.....+++++++++++",
"+++    ....XXXXX.X....  +++++++++",
"+++   XX..XOOOOOOOOX..   ++++++++",
"++++.XXX.XOOoXXXXXXOOX    +++++++",
"++++ XX.ooXoXoXXXXXXXOOX  +++++++",
"++++...oXXXXoXXXXXXXXXXOXX..+++++",
"+++X..XoXXXXXXXXXXXXXXXO.  ++++++",
"++X...OXXXXXXXXXXXXXXXXoO  ++++++",
"+.X..XOOXXXXXXXXXXXXXoooo. XX++++",
".+...OOOOXXXXXXXXXoXoooooO  X++++",
"+...OOooXXXXXXXXXXoXoooooO. X.+++",
"++..OOoXXXXXXXXXXXXXoooXoO..X.+++",
"++XOOOXXXXXXXXXXXXXXXXXXoOOOOOO.+",
".OOOOOXXXXXXXXXXXXXXXXXXXO...O+++",
"++...OXXXXXOXXXXXXXXXXXXXO...O+++",
"+....XXXOOOXOXXXXXXXXXXXOX..XX+++",
"+.....OXOOOOXXXXXXXXXXXXO...OX+++",
"+..X..XOOOOOXXXXXXXXXXOOX...O++++",
"++..XXXOoooooXoXXXXXXXXO....X++++",
"+++...XXOOooooXoXXXXXOO....X+++++",
"++++..XXXXOOoooXXXXOOX.....X+++++",
"++++++XXX..XOOOOOOOX......X++++++",
"+++++++X......XXXX.......++++++++",
"++++++++XX............+.+++++++++",
"++++++++++XX.......+ +.++++++++++",
"+++++++++++++    ++++ + +++++++++",
"++++++++++++++  +++++++++++++++++"
};
