/* XPM */
static char *result[] = {
/* columns rows colors chars-per-pixel */
"31 30 6 1 ",
"  c #45242C",
". c #89362E",
"X c #F87D74",
"o c #F9A47B",
"O c #FECEC7",
"+ c None",
/* pixels */
"+++++++++++++++++++++++++++++++",
"+++++++++++++  ...+++++++++++++",
"++++ + +++  ........+.+++++++++",
"+++ + +.+.............+++++++++",
"++++.+.....OX.XX.......+.++++++",
"+++ +XXX..XOOOOOOOOX..XXX.++.++",
"++++.XXX.XOOXXXXXooOOXXXXX.X+.+",
"+++++XX.ooXXXXoXXXoXoOOXXXX X++",
"++++...oXXXXXXXXXXXXXooOXXXX .+",
"+++...XoXXXXXXoXXXXoXooOXXXXX++",
"++ ...OXXXXoooOOXXoooXooOXXXX++",
"++ ..XOOXXoooooXXXoooXooOXXX ++",
"++...OOOOXoooooXXoXooXXXoOXX.++",
"+ ..XOooXXXXXXXXXXoXXXXXXOX.. +",
"  ..XOooXXXXXXXXXXXXXXoXXO... +",
"  ..XOoXoXXooXXXXXXXooXoXO... +",
"+ ...OXoXXXXoXXXXXXooooXXO...++",
"++...OXXXXXoXXXXXXooooOOXOX..++",
"++ ..XOXXXXXXXOXOOooooOOOXX. ++",
"++ ...OXXXXXXXXXXOoooOOOOXX.+++",
"+++...XOXXXXXXXXXXXOOOOOXXX++++",
"+++ .XXOoXXXXXXXXXXXXXXoXX.++++",
"++++.XXXOOooooooXXXXXoo.XX+++++",
"+++++XXXXXOOoooooXXooX....+++++",
"++++.+XXX..XOOOOOOOX.....++++++",
"+++++X+.......X.XXX..X.++++++++",
"++++.+.++........XXXX.+.+++++++",
"++++++++++++.......+++.++++++++",
"+++++++++++++++++++++++++++++++",
"+++++++++++++++++++++++++++++++"
};
