/* XPM */
static char *result[] = {
/* columns rows colors chars-per-pixel */
"33 30 7 1 ",
"  c #452F24",
". c #1C4348",
"X c #2E8189",
"o c #69E0E9",
"O c #B2E0F6",
"+ c #BEFFFB",
"@ c None",
/* pixels */
"@@@@@@@@@@@@@@@@@@@@@@@@@@@@@@@@@",
"@@@@@@@@@@@@@..XXX@@@@@@@@@@@@@@@",
"@@@@...@@@..XXXXXXXX@.@@@@@@@@@@@",
"@@@......XXXXXXXXXXXXX@@@@@@@@@@@",
"@@@....XXXX+oXooXXXXXX..@@@@@@@@@",
"@@@...ooXXo++++++++oXX...@@@@@@@@",
"@@@@XoooXo++OOOoOoO++o....@@@@@@@",
"@@@@.ooXOOoOOOOOoOooo++o..@@@@@@@",
"@@@@XXXOoooOOOOoooooooo+ooXX@@@@@",
"@@@oXXoOoooOOOOoooooooo+X..@@@@@@",
"@@oXXX+ooooOOooooooo++OO+..@@@@@@",
"@XoXXo++ooooooooooO++OOOOX.o@@@@@",
"X@XXX++++oooooooooOO+OOOO+..+@@@@",
"@XXX++OOooooooooooOOOOOOO+X.+X@@@",
"@@XX++OoooooooooooOOOOOOO+XX+X@@ ",
"@@o+++oooooooooooOoOOOOOO++++++X ",
"X+++++ooooooooooooOo+OOoo+XXX@@@ ",
"@@+XX+ooooo+oooooooo+oooo+oXX@@@ ",
"@@+XXooo+++o+ooooooooooo+ooX.@@@@",
"@@+XXX+o++++oooooooooooo+ooX@@@@@",
"@@@+XXo+o+++oooooooooo++ooo@@@@@@",
"@@@+XXo+ooooooooooooooo+ooX@@@@@@",
"@@@@+ooo++ooooooooooo++Xoo@@@@@@@",
"@@@@@ooooo++ooooooo++oXXXX@@@@@@@",
"@@@@@@oooXXo+++++++oXXXXX@@@@@@@@",
"@@@@@@@XXXXXXXooooXXXXX@@@@@@@@@@",
"@@@@@@@@@XXXXXXXXXXXXX@X@@@@@@@@@",
"@@@@@@@@@@..XXXXXXX@.@X@@@@@@@@@@",
"@@@@@@@@@@@@@....@@@@.@.@@@@@@@@@",
"@@@@@@@@@@@@@@..@@@@@@@@@@@@@@@@@"
};
