/* XPM */
static char *result[] = {
/* columns rows colors chars-per-pixel */
"32 30 6 1 ",
"  c #452F24",
". c #896B2E",
"X c #DFD672",
"o c #EDFCA0",
"O c #FFF5E4",
"+ c None",
/* pixels */
"++++++++++++++++++++++++++++++++",
"+++++ +++++++  ...++++++++++++++",
"++++ + ++  .........    + ++++++",
"+++++ ................   + +++++",
"++++++.....OX.XX....... . ++++++",
"+++ +XXX..XOOOOOOOOX..XXX..+++++",
"++ +.XXX.XOOXXXXXXXOOXXXXX..++++",
"+++.XXX.XoXXXXXXXXXXXOOXXXX.++++",
"+++.XX.XXXXXXXXXXXXXXXXOXXXX +++",
"+++...XoXXXXXXXXOOXXXXXOXXXXX ++",
"++ ...OXXXXXXXOOXXooXXXoOXXXX  +",
"++ ..XOOXXXXXXXXXXXXXXXoOXXX.. +",
"++...OOOOOOOOoooXXXXXXoooOXX.X.+",
"+ ..XOOOoooXXXXXXXXXXXXXoOX.X..+",
"  ..XOOOooXXXXXXXXXXXXXXXO.X.X.+",
"  .XXOOOoXXXXXXXXXXXXXXoXO.....+",
"  .XXOOoXXXXXoXXXooooooXoO.....+",
"  .XXOXXXXoooXoXooooooooXOX....+",
"+  XXXOXXoooooooooooooooOXX.. .+",
"+  .XXOXXooooooooOOooooOOXX.++.+",
"+  X.XXOXXoooooooOOooooOXXX++ ++",
"+  .XXXOXXXoooooooOooooXXX.++ ++",
"++ ..XXXOOXXooooXOXXXXX.XX++ +++",
"+ +..XXXXXOOXXXXXXXXXX....++++++",
"++  ..XXX..XOOOOOOOX.....+.+++++",
"+++ .....XX...XXXXX.X...+.++++++",
"++++...........XXXXX.... + +++++",
"+++++ .................++ ++++++",
"+++++++ .........+.+ +++++++++++",
"+++++++++++.+...+.+ ++++++++++++"
};
