/* XPM */
static char *dfeb65c78a934c5db42b2dc8f48d60e62sBP15Rv9DkCRdDG[] = {
/* columns rows colors chars-per-pixel */
"44 66 124 2 ",
"   c None",
".  c #020202",
"X  c #0B0B0B",
"o  c #160901",
"O  c #1A0B02",
"+  c #120F0D",
"@  c #180E08",
"#  c #19110C",
"$  c #121212",
"%  c #1B1513",
"&  c #171718",
"*  c #1D1C1C",
"=  c #271103",
"-  c #291103",
";  c #24150C",
":  c #291408",
">  c #221711",
",  c #221914",
"<  c #281910",
"1  c #201F1F",
"2  c #242323",
"3  c #292626",
"4  c #2C2A2A",
"5  c #312E2E",
"6  c #353333",
"7  c #393636",
"8  c #3B3A3A",
"9  c #413E3E",
"0  c #444141",
"q  c #494646",
"w  c #4D4A4A",
"e  c #514E4E",
"r  c #555252",
"t  c #595555",
"y  c #5D5A5A",
"u  c #615D5D",
"i  c #666161",
"p  c #6B6565",
"a  c #6D6969",
"s  c #726D6D",
"d  c #747272",
"f  c #7A7575",
"g  c #757678",
"h  c #7C7778",
"j  c #7D7A7B",
"k  c #827E7E",
"l  c #817F80",
"z  c #7F8082",
"x  c #858181",
"c  c #898585",
"v  c #898788",
"b  c #8D8A8A",
"n  c #928E8E",
"m  c #959292",
"M  c #9A9696",
"N  c #9C9897",
"B  c #9C9999",
"V  c #A29E9E",
"C  c #9C9EA0",
"Z  c #A29FA0",
"A  c #A4A2A3",
"S  c #A8A5A5",
"D  c #A5A7A9",
"F  c #A7A9AB",
"G  c #ACA9AA",
"H  c #A9ABAD",
"J  c #A9ABAE",
"K  c #ADABAC",
"L  c #ABADAF",
"P  c #AFADAD",
"I  c #ACACAE",
"U  c #AFADAE",
"Y  c #ABA8A9",
"T  c #B0ADAE",
"R  c #ABADB0",
"E  c #ABAEB0",
"W  c #ACADB0",
"Q  c #AFB2B4",
"!  c #B1B0B1",
"~  c #B3B1B2",
"^  c #B0B3B5",
"/  c #B6B4B5",
"(  c #B7B5B6",
")  c #B7B5B7",
"_  c #B8B7B9",
"`  c #BCBBBC",
"'  c #BDBCBE",
"]  c #BBBABC",
"[  c #BFBEC0",
"{  c #BFBFC0",
"}  c #C0BFC1",
"|  c #BFC0C2",
" . c #C5C5C7",
".. c #C6C7CA",
"X. c #C5C7C9",
"o. c #CACBCE",
"O. c #CBCCCE",
"+. c #CCCDCF",
"@. c #CACBCD",
"#. c #CDCED1",
"$. c #CFD0D3",
"%. c #CFD2D4",
"&. c #D0D2D4",
"*. c #D1D3D5",
"=. c #D2D4D6",
"-. c #D1D3D6",
";. c #D4D7D9",
":. c #D4D7DA",
">. c #D5D7DA",
",. c #D4D7DA",
"<. c #D6D8DB",
"1. c #D7DADD",
"2. c #D6D9DC",
"3. c #D8DBDD",
"4. c #D8DBDE",
"5. c #D9DBDE",
"6. c #D8DCDF",
"7. c #D9DCDF",
"8. c #DADCDF",
"9. c #D9DCDE",
"0. c #DADDE0",
"q. c #DBDFE2",
"w. c #DBDEE1",
"e. c #DDE0E3",
/* pixels */
"                                                                                        ",
"                                                                                        ",
"                                        3 2 3 3 2 3 2                                   ",
"                                    3 8 q q q q q q q 6 2                               ",
"                                3 2 0 i p p p p p p p u 6 2 2                           ",
"                              0 t y j m m m m m m m m h u t 6 2                         ",
"                            0 i x K X.#.O.O.#.o.+.+.+.S n k u 6 2                       ",
"                          0 i k ~ <.0.1.:.:.:.:.>.>.4.&.+.Z s u 6 2                     ",
"                        0 f m T 2.1.2.z 6 8 7 8 8 8 A 1.4.~ j s u 6 2                   ",
"                      9 f N ( >.q.z 6 & . . . . . . 2 7 D &.{ x p u 6                   ",
"                    9 i c V [ 8.z & . X & & & & & X . . 4 F 0.D f s u 5                 ",
"                  7 t k N ( -.c & . + * 1 1 2 1 1 X . . . 4 J -.V f p 6                 ",
"                  7 u x ( <.b & . X 1 1 1 1 2 1 + . . . . . 4 ^ $.V s 6 2               ",
"                  7 u x ` 0.a . X * 2 1 1 1 y 7 . . X e 6 . . C 8.G f w 4               ",
"                  7 u x | b & . $ 1 1 2 2 t w X . . w r 4 X . 4 ~ I f t 5               ",
"                  7 y x | d . X * 1 1 2 t w X . X w r 4 1 * X X A T f t 5               ",
"                  7 u x } d . + 1 1 2 r e X . X w r 4 1 2 i 2 . Z T f t 5               ",
"                  7 u k } d . + 1 2 r e X . . w r 4 1 2 u 9 X . A T f t 5               ",
"                  9 u x } g . $ 2 r e + . X w r 4 * 2 y 0 X . X A W f e 4               ",
"                  7 u l } d . X r w + . . w r 4 1 2 i 0 X . . . A T f 8 3               ",
"                  7 u x { d . & 5 * . . q t 4 1 2 y 0 X . . . . x A d 6                 ",
"                  7 u k ' g . . X . . q t 4 * 2 y 0 X . . . . X d x p 6                 ",
"                  3 q s n I r . . . X 5 4 * * 1 2 X . . . . . t h p 9 3                 ",
"                  2 4 w s m y . . . . X . X . X . . . . . . X u s 9 3                   ",
"                    2 4 w s k 9 . X X X X X X X X X X X X X u a 9 3                     ",
"                      2 3 e k n M R R J T T K L K R J F G b s q 3                       ",
"                        3 5 e b S  .1.1.8.8.8.8.4.4.0.] G k 9 3                         ",
"                        9 9 5 r d h l M G G G G Y Y D x s q 4 9 5                       ",
"                      2 9 u 0 5 6 6 6 t d s s s s s e 6 6 4 9 r 6 2                     ",
"                    2 7 t s i r w w 6 5 6 7 6 7 7 7 4 9 w w t u e 6 2                   ",
"                    6 r h M x s a u e w w w q q w w w u p a a a p r 4                   ",
"                    7 c @.] V m j p a p p u t t u a a s c m V m M i 5                   ",
"                    6 m e.:.%.Z r a B N z d s d s b N M y p _ -.@.s 4                   ",
"                  2 8 m 0.0.e.c 0 B %.%.@.@.| | X.#.%.$.j 9 I e.>.d 6 2                 ",
"                  7 r m 1.1.3.j 8 A e.q.0.q.e.e.e.0.e.0.x 6 F e.>.d w 4                 ",
"                  7 a N S B A u 8 B :.-.-.-.-.-.-.-.-.%.h 6 S 3.-.f r 4                 ",
"                  7 u d s s s q 8 u a a a p p p a p p a t 6 k S Z n y 5                 ",
"                  4 5 6 6 6 6 4 3 4 4 4 4 4 4 4 4 4 4 4 3 3 6 9 9 8 6 3                 ",
"                  5 w w w w w 6 7 e e w e e e e e e e q 4 3 0 w w q q 4                 ",
"                  2 8 e e e e 7 7 d n m b v b v v m b i 6 8 e e r e 6 3                 ",
"                    2 3 3 3 3 2 7 y x A i 7 6 7 7 j h r 6 3 5 4 5 4 3                   ",
"                    @ @ : = : < 1 9 k Z s 4 ; > 7 x s 6 < : : : = O                     ",
"                      o o o o o & 7 k V d 6 # % 0 c s 4 @ o o o o                       ",
"                                * 9 x Z d 6   * 0 c a 5                                 ",
"                                7 d B V d 6   1 0 c d e 6     o                         ",
"                          O < 7 r x Z V d 5 ; > 0 c M a w 4 ; o                         ",
"                          o # 7 s n m m a 5 # % 9 j m b u 2 o                           ",
"                              2 5 6 7 6 5 2   * 2 5 7 7 4                               ",
"                            o O                           o o                           ",
"                            o = - - - - - - - - - - - - - - o                           ",
"                            o o o o o o O o O o o o O O o O                             ",
"                                                                                        ",
"                                  o                   o o                               ",
"                                  O - - - - - - - - - - o                               ",
"                                  o o o o o o o o o o o                                 ",
"                                                                                        ",
"                                            o o o                                       ",
"                                            o o                                         ",
"                                                                                        ",
"                                                                                        ",
"                                                                                        ",
"                                                                                        ",
"                                                                                        ",
"                                                                                        ",
"                                                                                        ",
"                                                                                        "
};
