/* XPM */
static char *result[] = {
/* columns rows colors chars-per-pixel */
"15 16 7 1 ",
"  c black",
". c #A22633",
"X c #F77622",
"o c #FEAE34",
"O c #FEE761",
"+ c white",
"@ c None",
/* pixels */
"@@           @@",
"@ XXOOOOO+++O @",
" XXOXXXXXXXXXO ",
" XXOooooooooXO ",
" ..OooXOOO+oXO ",
" XXOoXOOOOO+XO ",
" XXOoXOOXXO+XO ",
" ooOoXOOooooXO ",
" ooOoXOOooooXO ",
" ..OoXOOooO+XO ",
" XXOoXOOOOO+XO ",
" ..OooXOOO+XXO ",
" ..OoooXXXXoXO ",
" XXOooooooooXO ",
"@ XXOOOOO+++O @",
"@@           @@"
};
