/* XPM */
static char *_700afb31baa4a849d735c39b2ad9e36tz92B3oT5z33XDMx[] = {
/* columns rows colors chars-per-pixel */
"64 64 175 2 ",
"   c #010103",
".  c #01040C",
"X  c #06080C",
"o  c #020613",
"O  c #030816",
"+  c #030A1C",
"@  c #030D24",
"#  c #030F29",
"$  c #051226",
"%  c #0B1424",
"&  c #04112D",
"*  c #0B142B",
"=  c #06182D",
"-  c #0C182B",
";  c #041333",
":  c #081634",
">  c #071937",
",  c #04163A",
"<  c #05193D",
"1  c #091B3B",
"2  c #141C32",
"3  c #111E3A",
"4  c #08203D",
"5  c #1A2530",
"6  c #10223E",
"7  c #051B43",
"8  c #081E45",
"9  c #041E4A",
"0  c #081F48",
"q  c #072145",
"w  c #092041",
"e  c #05204E",
"r  c #08224C",
"t  c #0A284F",
"y  c #132445",
"u  c #152947",
"i  c #142C4B",
"p  c #192F4B",
"a  c #052353",
"s  c #082452",
"d  c #062855",
"f  c #082855",
"g  c #04265A",
"h  c #072A5F",
"j  c #05295D",
"k  c #05295E",
"l  c #08285A",
"z  c #082A5D",
"x  c #09295C",
"c  c #092A5C",
"v  c #142F56",
"b  c #1A2D53",
"n  c #102F59",
"m  c #0F315B",
"M  c #1D3656",
"N  c #13335B",
"B  c #18345A",
"V  c #1D3A5C",
"C  c #222B40",
"Z  c #24394D",
"A  c #253C51",
"S  c #042960",
"D  c #042A60",
"F  c #042A61",
"G  c #052B61",
"H  c #072B61",
"J  c #042B62",
"K  c #062C62",
"L  c #072C61",
"P  c #042C64",
"I  c #042C65",
"U  c #042D67",
"Y  c #042E67",
"T  c #072E67",
"R  c #052C64",
"E  c #092E62",
"W  c #042F69",
"Q  c #052F69",
"!  c #042F69",
"~  c #063066",
"^  c #0F3463",
"/  c #063069",
"(  c #04306B",
")  c #04316D",
"_  c #07336D",
"`  c #06336E",
"'  c #05316C",
"]  c #08316A",
"[  c #0A346C",
"{  c #103464",
"}  c #163B67",
"|  c #133669",
" . c #1F3F68",
".. c #053370",
"X. c #063370",
"o. c #043573",
"O. c #043776",
"+. c #053574",
"@. c #083672",
"#. c #063877",
"$. c #0A3A77",
"%. c #043778",
"&. c #063979",
"*. c #04397B",
"=. c #043A7B",
"-. c #043A7D",
";. c #043B7D",
":. c #043B7E",
">. c #043C7F",
",. c #063D7F",
"<. c #053A7B",
"1. c #093B7A",
"2. c #0C3D7B",
"3. c #093D7D",
"4. c #143C72",
"5. c #284154",
"6. c #27405A",
"7. c #29435F",
"8. c #0B407F",
"9. c #154370",
"0. c #14447F",
"q. c #1A497A",
"w. c #284667",
"e. c #294966",
"r. c #28486A",
"t. c #204570",
"y. c #224877",
"u. c #284B75",
"i. c #2A527B",
"p. c #043D80",
"a. c #043E82",
"s. c #043E82",
"d. c #093F80",
"f. c #044086",
"g. c #054086",
"h. c #044288",
"j. c #044289",
"k. c #04478F",
"l. c #07478E",
"z. c #05448B",
"x. c #09468B",
"c. c #0E4B8E",
"v. c #1B4782",
"b. c #134B8A",
"n. c #034790",
"m. c #044790",
"M. c #044892",
"N. c #054891",
"B. c #044993",
"V. c #0D4E94",
"C. c #034C98",
"Z. c #034D9A",
"A. c #054D99",
"S. c #034F9D",
"D. c #044E9A",
"F. c #03519F",
"G. c #04509D",
"H. c #04519F",
"J. c #07519D",
"K. c #0A519A",
"L. c #185292",
"P. c #265385",
"I. c #28588F",
"U. c #225892",
"Y. c #2A6196",
"T. c #0557A6",
"R. c #0352A1",
"E. c #0859A5",
"W. c #0258A9",
"Q. c #035EB0",
"!. c #035EB1",
"~. c #0563B6",
"^. c #136FBD",
"/. c #196FBA",
"(. c #2266AA",
/* pixels */
"7 a g e e a a 9 9 a 9 9 a 7 , # # # ; & # # @ + o o o o o o + # , 9 9 I ! ! ) ! j e 7 7 7 ; ; ; ; ; , < 9 a z a a g g g a g g 9 ",
"7 { D a a j D g a g g g a a < ; # # # # & # # @ @ + O o o O @ # ; 7 7 g W p.X.W j g e 7 9 7 7 7 i ; ; , 9 a j g g g a g a a 9 7 ",
"9 j j a g D D j a g j j j D 7 ; # # # # # # # # # * + O @ @ # # # , 9 a X.p.p.*.+.j e 9 9 9 e 7 < = ; ; 7 9 j g g g a f s 0 7 7 ",
"g j j a g j g s a g j j j D 7 > & # @ # # @ @ # # # # # # # # & & 7 a a %.N.R.s.a.) g a e e 9 9 > ; y > 7 9 g j j g g a e 7 < 9 ",
"j j g a j j g 9 e g | j j j 7 7 , & # # # # @ @ # # # # # # ; ; 7 a s S p.m.A.S.j.-.X.) D a a e 7 < y < 7 a j j a g g a e 7 9 a ",
"S j a g j g g 9 e l g j S j 7 < ; & & # & # @ @ @ # # # ; ; , 7 7 l g ! &.p.m.R.Z.l.j.*.! ' ! j a 9 e a a g D g a g g a s g S J ",
"j j g a g j g r 9 a g g S g 7 , & ; # ; & # # # # # ; # * & , 7 a I j T v.2.N.W.T.R.l.j.-.<.*.<.+.! j j D I I j a a a g S E J S ",
"j g g g g a e e 9 9 a g j j 7 ; ; ; & # ; # & # & , , , , ; 7 9 j S j a j W A.!.^./.J.R.D.B.B.s.-.' U [ ' ! I j a e a S T I S S ",
"j j S S j a 9 9 a e e g j g 9 , ; ; # & ; , , ; , 7 7 7 9 7 9 a S g 9 9 S +.Z.!.~.T.Z.S.Z.n.j.a.a.>.<.L.b.) ' K J S E ! ! I ! S ",
"j g j j g a a e g g 9 g g e 9 , , ; & ; , 7 7 7 7 7 7 9 e a g D I j 9 a ! p.z.B.R.B.z.N.B.B.k.l.f.>.<.<.<.o.X.' W W W W W ! ] ! ",
"j g S g e 9 a g g a 9 a e 9 9 7 , , & , 7 7 7 9 9 9 9 a f H ! ' W ! H ! +.*.s.s.l.j.a.j.k.B.l.f.f.g.-.+.+.-.<.+.*.*.%.+.X.W ) ! ",
"g j S g e 9 a a x s 9 g a 9 9 7 7 , & > 7 7 e a j j j I ' +...o.*.+.W W +.%.%.@.+.*.s.s.l.B.B.B.f.g.a.>.+.<.<.<.*.d.d.*.%.X.W ! ",
"S I j e 9 9 9 9 9 9 9 9 9 9 9 7 > ; & < 9 a g ' X.X.X.o.#.%.%.o.@.W I H S I I ! D T +.s.f.N.B.B.l.x.a.f.8.>.1.a.a.f.>.-.%.X.@.I ",
"U S 9 7 > e N 9 7 7 7 9 7 7 7 7 7 > , e j D ' U.c.-.-.-.+.<.o.S J E S a g g a a e a ! <.z.V.(.K.n.B.j.a.g.g.b.s.f.f.s.a.-.W ! U ",
"S a 7 , < 9 B 7 , 7 7 , , , 7 7 7 < < a ! ! W +.d.-.-.+.#.<.' a a 9 g g j a 9 r 9 a T X.a.c.K.B.l.B.B.g.g.f.f.x.f.j.f.f.@.U U T ",
"a 9 , ; , 7 7 7 , 7 7 < , , ; ; 7 q < e I W W ) X.+.-.+.<.o.j g 7 7 e g j l 9 7 7 a I ! X.#.f.f.z.k.B.k.B.z.f.g.g.>.-.-.+.! U D ",
"7 7 ; , 7 , < , , , , ; 7 7 & ; 7 w.8 7 I ! W W ` #.%.o.%.+.U q < < 9 9 g u.9 7 s j T j g U -.j.l.k.B.B.B.l.f.a.<.+.%.+.X.' D a ",
"; & ; ; ; , ; , ; 7 7 7 7 7 ; 7 7 7 7 0 S ! +.v.%.%.1.o.;.o.K < ; ; > 7 7 9 < < 7 ^ t.7 7 a ! -.a.f.k.k.N.j.s.-.+.X.X.' ! Y a ; ",
"# & ; & & , ; ; ; , 7 7 7 7 7 9 0 7 H y.I ' +.d.%.%.) %.%.` g < M ; ; < 7 7 , , < 7 7 ; & > 9 T ' >.f.z.z.s.-.+.! U U U S g < ; ",
"# & @ @ # # & & ; ; , 7 9 7 e 9 e e H ] I X.X.X.<.o.' o.;.` j 7 i < ; , 7 7 7 ; > 7 7 > & & ; 9 a ! <.f.a.<.%.W Y S j z a < & # ",
"@ @ o @ @ @ @ # ; ; < , 7 7 7 s a g D U [ @.%.+.X.X.( ) X.L [ a 9 < , , , , 7 7 7 7 , ; ; & ; y r L X.+.X.! W I S S a 9 7 & @ @ ",
"+ + + O o o + @ & ; ; 7 7 7 9 u.f g j ! ' X.1.-.@.U S P K x 4.g a 9 7 < ; ; ; , ; > ; ; & ; # # 7 q g j g a a l S g 9 7 & # @ + ",
"O o O o o o o @ @ # ; ; ; , 7 < 8 e g D W X.X.<.' U j j D g a 9 a a a 7 , & & ; ; & & ; & ; ; @ ; 7 9 g 9 r a f a 9 9 7 # @ @ o ",
"+ + @ o @ o o + @ @ # ; ; ; ; , Z 8 9 a S ' ' ' ' ' U T Y ' j { } a a 9 7 ; # # # & & # @ # ; # @ < q e 9 a 9 9 7 9 7 ; # @ @ + ",
"# @ + + + + o + @ @ @ @ @ & ; ; , , , 7 e S ! ! [ X.+.+.X.o.I L 9.i.a 9 < & + + + # # @ # & : @ @ u ; 7 9 9 9 7 7 7 , # @ @ + Z ",
"+ + + + @ o + @ o + + + @ @ # ; ; ; , , 7 a J I W &.+.W X.+.j e q t q 7 , @ @ + + + @ @ @ & & + + & # ; 7 8 9 c 7 , ; # # @ + @ ",
"@ @ + + o + o + + @ @ o + @ # ; & # & 7 7 g J g ` I.X.E U ' I e 7 ; , ; ; & + @ + + @ # ; & @ + + + # < 7 < 7 B 7 > , ; ; @ + + ",
"@ @ + @ @ + @ + + + + @ + @ # & ; ; , 7 g W ..H L @.H a j U L e a < , ; ; & & @ @ @ @ ; e.> @ + + % A < , , , 7 7 7 7 , , ; @ @ ",
"# @ @ @ @ @ + o o + @ + + # ; # & , 7 l ! %.*.) ! T j a g E T g i.t ; , ; ; & @ @ @ # # ; # @ + + $ 4 ; & ; ; , , < < < , ; @ & ",
"# # # # # # @ @ @ + + + # & , 7 7 9 g g ) *.p.O.! ! D j j S U j a e < 7 < & & @ # # & ; & & @ $ + @ & ; # # @ # & , 7 7 , ; + @ ",
"@ + @ # # # @ # @ @ + @ & , 7 9 e a g H ..*.s.*.! ! L D I D I I a 9 7 e 7 ; & @ # ; ; ; ; ; # @ # @ & ; # @ @ @ & , < < ; @ o + ",
"o @ @ @ @ @ @ # & # @ # ; , 7 a a g l ! %.p.s.*.] T j L S D I I e 7 < 7 < ; ; ; < > ; ; > & ; : > ; ; & # @ + @ # , < < & + o o ",
"@ C @ $ @ @ + @ & ; & ; , 7 g g g j j ' -.p.p.o.Y Y h j K $.' Y e 7 ; , < ; , , , , , ; , & & < M 7 8 ; & @ @ @ # ; ; > & o . + ",
"+ @ # & @ ; ; ; ; ; , < 9 a g ' ' ! [ <.-.a.*...~ K P K ' I.@.K a < < , , , < , , , ; ; ; ; & ; 7 7 7 & # @ + @ @ @ # # # + o o ",
"+ @ & & > r.9 1 < 7 9 9 e j X.%.*.%.-.a.p.-.<.X.( U ' U ` ' U j e 9 7 < ; < , , , & ; ; & # & , 9 7 , # @ @ + @ + + @ @ @ o o o ",
"O + & ; 7 e 9 9 a a 9 9 j ..*.<.+.+.+.<.-.-.%.+.` ' ;.>.X.U P j a g 9 < , 7 < ; ; ; & & & ; 7 7 e 7 # @ @ + + + + o + @ + + + o ",
"O + & 7 7 a a j I S g j ' #.-.$.@.! ! X.%.%.+.+.o.<.s.a.) j K K g a 9 < < 7 7 < & & & # ; < 9 9 e 7 @ + + @ o + o o o + O O + O ",
"+ @ > 9 g j D I I Y Y ' ` +.;.' ! ! ! ' W [ ! ' o.>.f.g.~ j j j g a e 7 7 7 m V ; & & , < 7 9 a 7 , # @ + + % + o o o . o o o + ",
"@ 7 a j ! I W @...X.o.+.' <.a.) ' U ! U U D K K ` +.g.$.P.] a e 9 9 e e 9 9 e q , , < 7 7 9 9 9 7 7 & # @ + + + o . o . o o + + ",
"; 9 a I ! H T +.o.<.%.X.U #.>.<.' U ] D D D U U ! +.<.] ' K 9 9 9 9 9 9 q 7 < , , < 7 9 7 7 7 9 7 7 , # # # @ + o .   . + + @ # ",
"< 9 g I I I I W <.+.+.X.I W *.a.+.' K U j H ] @.X.o.W S g 9 B 7 < , , , ; & ; ; ; < 7 7 7 7 7 9 9 9 7 & # & @ + o .   . o @ @ & ",
"7 9 g ! W I I +.+.<.-.a...X.f.j.<.' S S D ' +.<.[ I j j e 7 7 7 , q M ; & # # ; , < < 7 9 9 9 9 9 9 < ; # @ + . .       . @ # # ",
"7 9 g I ' W ! +.>.a.>.a.s.j.n.a.X.U D Y ' <.s.>.T H H g 9 7 , , r.q < ; ; & ; ; , 7 < 7 q a e 9 7 > ; # + o           . o + @ # ",
"7 7 a j U W +.%.o.o.#.>.a.l.k.;.$.U U ' >.g.>.b.q.j l e 7 > > 7 a q 7 , ; ; ; , < 7 < < 7 7 9 7 , ; # @ + X           . O @ @ & ",
"; 7 a e D ! ! X.' U ' +.a.a.l.j.;.;.%.;.g.a.>.' D j a s 7 7 9 9 a j e < ; ; ; < 9 7 < , < < < < & # @ + o               X + + # ",
"# ; 7 7 r a g S U U ' +.o.o.k.C.B.B.B.k.f.>.#.K S l j a a 9 9 9 g h a 7 7 7 7 e e 7 i , ; , ; ; # @ + o X                 o + # ",
"# # < 7 7 7 7 a K U ' <.+.X.z.k.B.z.f.g.f.>.X.' I I S a e 9 9 g K j g e a a j g a < , , ; > & & @ + o .             . . . . @ # ",
"# # , 9 e 9 e a g Y Y ..) X.;.%.*.;.;.#.#.) ' ' ! S S g e g j I P j a g g a g e 7 7 i > ; & & @ % + . .           . o . o + + # ",
"# # ; 0 e a 9 7 a g H S S g ! ! X.X.X.X.X.! ! D D D D s e g I ! ! D j D g 9 g a e 7 , ; = < # % + . . . .     . . O O O O + @ @ ",
"# & & 7 9 9 0 9 0 e a e 7 9 s g I ! W X.W I j a a 9 a a a j W ! W W ' X.j 9 g j a 9 9 > , M ; + . . o 5 . .     . % - + + + + + ",
"# & 7 7 a e e 7 7 a 9 7 9 9 9 a e a g g g g a 7 , 7 0 a g I ) W X.W W 4.g e a a g g e 7 , ; @ + o . . o . . .   . + + + + + + + ",
"# , 8 7 a a s 9 7 a  .0 7 7 9 e e 9 9 7 7 < < < , , 7 9 S W ) [ I ! S j g a a a j a e 7 7 < : @ o o o o . . o . . + @ + @ @ + @ ",
"# , 7 7 e a a e 9 e s 7 9 9 7 7 7 7 7 , < V 1 > , < 7 a ! ! W ! z j j g a l a e j j a 9 7 , , & @ O + o o O . X + @ @ + @ 2 @ @ ",
"# & ; 7 e e 9 e 0 7 7 9 9 7 , 7 , < & # 1 i > > , , 9 g ) ] S j a a e a g a a e g j a 7 7 > , 1 $ + O O o X o o + # # @ @ + @ @ ",
"; ; & 7 9 9 e e 9 7 7 , 7 , , ; ; > ; # 3 : # & , < 7 a S S a 9 9 9 9 9 s g a a a D j 7 7 7 8 p @ + + + o . o o @ & ; # + @ @ & ",
", , , 7 a a e e 7 7 , ; , , , , > ; ; & & # # & ; < 7 e e j n 7 9 9 9 7 a g g 9 g D g 9 7 7 < ; & + + + O O . @ & ; ; ; @ + & ; ",
", , 7 7 7 7 7 , , 7 7 7 7 7 7 , , & # # @ @ @ @ # y 7 7 7 e v 7 9 9 9 7 e g a e g 4.z 7 7 7 < # + + @ A # o o # , , , , # # # , ",
"7 7 7 7 9 , , , & , 7 7 7 7 , , , & # + + + + + + * , < < , 7 7 9 s e 9 e a a e a D j 9 7 < 7 # + + + Z = @ & 7 7 7 < ; # # # , ",
"7 7 7 7 7 ; , , , , 9 e 9 7 , , ; # # @ O O + + @ @ # & ; , 7 7 9 9 e 9 e 9 e 9 e j j 7 < < > & @ @ @ @ @ @ , 7 9 7 , < , & # , ",
"; , 7 7 7 ; ; , 7 , 7 e e e 9 7 ; # @ # + o O @ # @ # # & ; 7 7 9 9 a a e 9 9 9 a g g 9 < , & & & & @ @ # ; 7 9 7 7 < b , ; ; , ",
"7 7 7 7 7 , , , , 7 , 7 9 9 a b > & @ + + X O @ @ @ @ & > ; & , 7 e e e a e 9 e e g j 9 < ; ; # & ; ; # & , 7 9 9 7 7 7 7 7 7 , ",
"7 e a a 7 , , ; 7 7 7 7 7 7 7 7 , # @ + o o o + O O + & Z # * , 0 7 7 9 e e a g j S e 7 < , # # & ; 1 < , , 7 e 9 9 9 7 7 7 7 , ",
"e a g a 9 7 7 7 7 7 7 7 , 7 < ; # # @ + o o . o O O O + + @ # , 7 e 9 a g a g F S g 7 7 < , & # & ; < < 7 7 9 e a 9 9 7 9 7 7 9 ",
"9 7 e e 7 9 7 9 9 7 7 9 7 7 , # # # & # + + o o o o o X o o @ ; 0 H S S S F ! ! S 9 7 < , , & # ; ; 7 7 7 e a e a a a e e e a a "
};
