/* XPM */
static char *_a41636e59544a40bbe0013e12a2295b8WFoJ5EL8dq7juvs[] = {
/* columns rows colors chars-per-pixel */
"63 64 8 1 ",
"  c #6E5967",
". c #AD707B",
"X c #C39490",
"o c #D1B1A5",
"O c #B77F83",
"+ c #926475",
"@ c #DCCABE",
"# c white",
/* pixels */
"                                                               ",
".XXXXoooooXXoXXXXXXXO....+            +....OXXXXXXXXXXXXXXXXXX.",
"XXXXXXXXXXXXXXXXXXXXX.....            .....XXXXXXXXXXXXXXXXXXXX",
"XXXXXXXXXXXXXXXXXXXXX.....+          +.....XXXXXXXXX.X.....XX  ",
"XXXXXXXXXXXXXXXXXXXXX.........+ +..........XXXXXXXXXXoXoooXXXXO",
"XXXXXXXXXXXXXXXXXXXXX.......... ...........XXXXXXXXXXXXXXXXXXXX",
"XXXXXXXXXXXXXXXXXXXXX.......... ...........XXXXXXXXXXXXXXXXXXXX",
".XXXXXXXXXXXXXXXXXXXO.........+ +..........OXXXXXXXXXXXXXXXXXX.",
"                                                               ",
"oooXXXXXXXXXXX. .XXXXO....................OXXX. .XXXoXoooooXXXX",
"XXXXXXXXXXXXXXX XXXXXXO..................OXXXXX XXXXXXXXXXXXXXX",
"XXXXXXX..X.XX   XXXXXXXXXXXXXXXXXXXXXXXXXXXXXXX XXXXXXXXXXXXXXX",
"XXXXXXoXooXXXXO XXXXXXXXXXXXXXXXXXXXXXXXXXXXXXX XXXXXXXXXXXXXXX",
"XXXXXXXXXXXXXXX XXXXXXXXXXXXXXXXXXXXXXXXXXXXXXX XXXXXXXXXXXXXXX",
"XXXXXXXXXXXXXXX XXXXXXXXXXXXXXXXXXXXXXXXXXXXXXX XXXXXXXXXXXXXXX",
"XXXXXXXXXXXXXX. .XXXXXXXXXXXXXXXXXXXXXXXXXXXXX. .XXXXXXXXXXXXXX",
"                                                               ",
".XXXoXoo@@@oXooXXXXXXXXXXXXXXX. .XXXoXoo@@@oXooXXXXXXXXXXXXXXX.",
"XXXXXXXXXXXXXXXXXXXXXXXXXXXXXXX XXXXXXXXXXXXXXXXXXXXXXXXXXXXXXX",
"XXXXXXXXXXXXXXXXXXXXXXXXXXXXXXX XXXXXXXXXXXXXXXXXXXXXXXXXXXXXXX",
"XXXXXXXXXXXXXXXXXXXXXXXXXXXXXXO XXXXXXXXXXXXXXXXXXXXXXXXXXXXXXO",
"XXXXXXXXXXXXXXXXXXXXXX..X.X     XXXXXXXXXXXXXXXXXXXXXX..X.X    ",
"XXXXXXXXXXXXXXXXXXXXXXXXoXooXXX XXXXXXXXXXXXXXXXXXXXXXXXoXooXXX",
".XXXXXXXXXXXXXXXXXXXXXXXXXXXXX. .XXXXXXXXXXXXXXXXXXXXXXXXXXXXX.",
"                                                               ",
"XXXXXXXXXXXXXX. .XXXoXooo@@@ooXXXXXXXXXXXXXXXX. .XXXoXooo@@@ooX",
"XXXXXXXXXXXXXXX XXXXXXXXXXXXXXXXXXXXXXXXXXXXXXX XXXXXXXXXXXXXXX",
".........OXXXXX XXXXXXO..................OXXXXX XXXXXXO........",
"..........OXXXX XXXXXO....................OXXXX XXXXXO.........",
"...........XXXX XXXXX......................XXXX XXXXX..........",
"   +.......XXXX XXXXX.......+      +.......XXXX XXXXX.......+  ",
"    +......OXX. .XXXO.......        +......OXX. .XXXO......+   ",
"                                                               ",
"      +....OXXXXXXXXO....+            +....OXXXXXXXXO....+     ",
"      .....XXXXXXXXXX.....            .....XXXXXXXXXX.....     ",
"     +.....XXXXXXXXXX.....+          +.....XXXXXXXXXX.....+    ",
"+..........XXXXXXXXXX.........+ +..........XXXXXXXXXX.........+",
"...........XXXXXXXXXX.......... ...........XXXXXXXXXX..........",
"...........XXXXXXXXXX.......... ...........XXXXXXXXXX..........",
"+..........OXXXXXXXXO.........+ +..........OXXXXXXXXO.........+",
"                                                               ",
"..........OXXX. .XXXXO....................OXXX. .XXXXO.........",
".........OXXXXX XXXXXXO..................OXXXXX XXXXXXO........",
"XXXXXXXXXXXXXXX XXXXXXXXXXXXXXXXXXXXXXXXXXXXXXX XXXXXXXXXXXXXXX",
"XXXXXXXXXXXXXXX XXXXXXXXXXXXXXXXXXXXXXX..X.X    XXXXXXXXXXXXXXX",
"XXXXXXXXXXXXXXX XXXXXXXXXXXXXXXXXXXXXXoXooXXXXO XXXXXXXXXXXXXXX",
"XXXXXXXXXXXXXXX XXXXXXXXXXXXXXXXXXXXXXXXXXXXXXX XXXXXXXXXXXXXXX",
"XXXXXXXXXXXXXX. .XXXXXXXXXXXXXXXXXXXXXXXXXXXXX. .XXXXXXXXXXXXXX",
"                                                               ",
".XXXoXoo@@@oXooXXXXXXXXXXXXXXX. .XXXoXoo@@@oXooXXXXXXXXXXXXXXX.",
"XXXXXXXXXXXXXXXXXXXXXXXXXXXXXXX XXXXXXXXXXXXXXXXXXXXXXXXXXXXXXX",
"XXXXXXXXXXXXXXXXXXXXXXXXXXXXXXX XXXXXXXXXXXXXXXXXXXXXXXXXXXXXXX",
"XXXXXXXXXXXXXXXXXXXXXXXXXXXXXXO XXXXXXXXXXXXXXXXXXXXXXXXXXXXXXO",
"XXXXXXXXXXXXXXXXXXXXXX..X.X     XXXXXXXXXXXXXXXXXXXXXX..X.X    ",
"XXXXXXXXXXXXXXXXXXXXXXXXoXooXXX XXXXXXXXXXXXXXXXXXXXXXXXoXooXXX",
".XXXXXXXXXXXXXXXXXXXXXXXXXXXXX. .XXXXXXXXXXXXXXXXXXXXXXXXXXXXX.",
"                                                               ",
"XXXXXXXXXXXXXX. .XXXoXooo@@@ooXXXXXXXXXXXXXXXX. .XXXoXooo@@@ooX",
"XXXXXXXXXXXXXXX XXXXXXXXXXXXXXXXXXXXXXXXXXXXXXX XXXXXXXXXXXXXXX",
"XXXX...XX.XX    XXXXXXO..................OXXXXX XXXXXXXXXXXXXXX",
"XXXXXoXXXooXoXO XXXXXO....................OXXXX XXXXXXXXXXXXXXX",
"XXXXXXXXXXXXXXX XXXXX......................XXXX XXXXXXXXXXXXXXX",
"XXXXXXXXXXXXXXX XXXXX.......+      +.......XXXX XXXXXXXXXXXXXXX",
"XXXXXXXXXXXXXX. .XXXO......+        +......OXX. .XXXXXXXXXXXXXX"
};
