/* XPM */
static char *_19f31894e924781f7ab6119e0319ceaPSDOHl9JxgvEc6zB[] = {
/* columns rows colors chars-per-pixel */
"63 63 8 1 ",
"  c #AD707B",
". c #C39490",
"X c #D1B1A5",
"o c #B77F83",
"O c #926475",
"+ c #6E5967",
"@ c #DCCABE",
"# c white",
/* pixels */
" ....XXXXX..X.......o    O++++++++++++O    o.................. ",
".....................     ++++++++++++     ....................",
".....................     O++++++++++O     ......... .     ..++",
".....................         O+O          ..........X.XXX....o",
".....................          +           ....................",
".....................          +           ....................",
" ...................o         O+O          o.................. ",
"+++++++++++++++++++++++++++++++++++++++++++++++++++++++++++++++",
"XXX........... + ....o                    o... + ...X.XXXXX....",
"...............+......o                  o.....+...............",
".......  . ..+++...............................+...............",
"......X.XX....o+...............................+...............",
"...............+...............................+...............",
"...............+...............................+...............",
".............. + ............................. + ..............",
"+++++++++++++++++++++++++++++++++++++++++++++++++++++++++++++++",
" ...X.XX@@@X.XX............... + ...X.XX@@@X.XX............... ",
"...............................+...............................",
"...............................+...............................",
"..............................o+..............................o",
"......................  . .+++++......................  . .++++",
"........................X.XX...+........................X.XX...",
" ............................. + ............................. ",
"+++++++++++++++++++++++++++++++++++++++++++++++++++++++++++++++",
".............. + ...X.XXX@@@XX................ + ...X.XXX@@@XX.",
"...............+...............................+...............",
"         o.....+......o                  o.....+......o        ",
"          o....+.....o                    o....+.....o         ",
"           ....+.....                      ....+.....          ",
"+++O       ....+.....       O++++++O       ....+.....       O++",
"++++O      o.. + ...o       ++++++++O      o.. + ...o      O+++",
"+++++++++++++++++++++++++++++++++++++++++++++++++++++++++++++++",
"++++++O    o........o    O++++++++++++O    o........o    O+++++",
"++++++     ..........     ++++++++++++     ..........     +++++",
"+++++O     ..........     O++++++++++O     ..........     O++++",
"O          ..........         O+O          ..........         O",
"           ..........          +           ..........          ",
"           ..........          +           ..........          ",
"O          o........o         O+O          o........o         O",
"+++++++++++++++++++++++++++++++++++++++++++++++++++++++++++++++",
"          o... + ....o                    o... + ....o         ",
"         o.....+......o                  o.....+......o        ",
"...............+...............................+...............",
"...............+.......................  . .++++...............",
"...............+......................X.XX....o+...............",
"...............+...............................+...............",
".............. + ............................. + ..............",
"+++++++++++++++++++++++++++++++++++++++++++++++++++++++++++++++",
" ...X.XX@@@X.XX............... + ...X.XX@@@X.XX............... ",
"...............................+...............................",
"...............................+...............................",
"..............................o+..............................o",
"......................  . .+++++......................  . .++++",
"........................X.XX...+........................X.XX...",
" ............................. + ............................. ",
"+++++++++++++++++++++++++++++++++++++++++++++++++++++++++++++++",
".............. + ...X.XXX@@@XX................ + ...X.XXX@@@XX.",
"...............+...............................+...............",
"....   .. ..++++......o                  o.....+...............",
".....X...XX.X.o+.....o                    o....+...............",
"...............+.....                      ....+...............",
"...............+.....       O++++++O       ....+...............",
".............. + ...o      O++++++++O      o.. + .............."
};
