/* XPM */
static char *caa83d0e57cd4b0deb1a066d1e80268aiNezDc3Q76PFrCjY[] = {
/* columns rows colors chars-per-pixel */
"64 56 90 1 ",
"  c black",
". c #020100",
"X c #000200",
"o c #000102",
"O c #050300",
"+ c #000500",
"@ c #020602",
"# c #070400",
"$ c #070500",
"% c #070204",
"& c #000405",
"* c #000606",
"= c #070707",
"- c #070905",
"; c #050D05",
": c #0F0B00",
"> c #0F0D02",
", c #090807",
"< c #0F0F05",
"1 c #0F0509",
"2 c #000E0D",
"3 c gray6",
"4 c #0F120F",
"5 c #0C140C",
"6 c #0F1A0E",
"7 c #1F1700",
"8 c #1D1707",
"9 c #15130E",
"0 c #14120F",
"q c #1F1B0F",
"w c #1F0B13",
"e c #1D0F14",
"r c #001213",
"t c #071514",
"y c #0F1315",
"u c #001D1B",
"i c #071C1A",
"p c #001E1D",
"a c #151D14",
"s c #1F1519",
"d c gray12",
"f c #241D07",
"g c #241119",
"h c #0F231D",
"j c #1A2A1A",
"k c #2E260F",
"l c #3E320F",
"z c #2E2A1F",
"x c #20381F",
"c c #2E1A22",
"v c #002B28",
"b c #0F2C2A",
"n c #1F2D2C",
"m c #0F3B38",
"M c #2E2428",
"N c gray18",
"B c #3E202C",
"V c #2E3D3C",
"C c #3E3438",
"Z c #3E353A",
"A c #3E3E3E",
"S c #4D3D0F",
"D c #433F14",
"F c #4D2535",
"G c #4F2635",
"H c #403F3E",
"J c #254524",
"K c #7C641F",
"L c #4E5E2E",
"P c #5D553E",
"I c #7C6C3E",
"U c #7C713E",
"Y c #4D3941",
"T c #0F4945",
"R c #2E4B49",
"E c #2E5A57",
"W c #3E6966",
"Q c #3E7874",
"! c #495948",
"~ c #5D4951",
"^ c #6C4E5A",
"/ c #4E664D",
"( c #547453",
") c #7C5464",
"_ c #7E5564",
"` c #8B7B4D",
"' c #638362",
"] c #AA924D",
"[ c #AA6E86",
"{ c #4D8783",
/* pixels */
"                                                                ",
" :     S  N2        O            $    ;J          A :           ",
"      %  1V2        0       ;         9/ %        3 ,       @   ",
"    O            :            *    0H     O*   @ 1          Oum ",
"                 ]f     =Bw                  &   [w     4       ",
"  %      4      3  @@   *Yc       1      =  Mf *=   ;           ",
"                      :O  2                 qq            *     ",
"   *3   ,            :L  @         2=   4   O         6  ;      ",
"  *t     O            ;           2b @                @         ",
"            2   O          O*               *         *  j! pm  ",
"       hE        **            A3               bv          bR  ",
"       ub              @   1=               *              %4   ",
" 1 T@   :      *          ;;     %  ;   $      2                ",
"      *     O           3 a;           O     :    O     ,       ",
"O  O  O  =       2    %            O  :  0   DJ  *   J1 O       ",
",O    8     &                   0     l     *;/                 ",
"       3         A3            :       ,            @         kP",
"            :    *      :] : %      0       $    &         O 1  ",
"  ;    J;   l           ::        @ N3      8                   ",
"      O/;     %      0              @  *      1      =          ",
"    j         @ 3   =     s1                    =   3           ",
"G   N   ; j;             OZs *  g       @                 <] 2  ",
"          ;                 0                   *       { ::,   ",
"            O             *                 O   I:              ",
" ,     *           y             3 O   ; @      l: =    O       ",
"  2m        O 1    T              *i      l : %                 ",
"                 @    O $                 :        *    :       ",
"                               O                               O",
"         01  =     *                     ,   4                  ",
"    O&   F)             %  OJ1  ;(  ;*   O          @   1 O  =  ",
"     l        :w                ;x            $        MH   2T  ",
"     : O       c                                       11   2W  ",
"   @                  @               u O                       ",
"%          *     @O         y * 1     b                     - 2 ",
"                    - :                       A     0           ",
"                      l             *         y    G1     O     ",
"  ,        @         2     O =    0        ;       ^1*       3  ",
"      O2 ; 5@                          *   j;                   ",
"         x      ;(O                             O              T",
"   @         1  ;x     ;          T2O        %       @ @        ",
"       =   O   0                  W2   y       =                ",
"                  A           @:                              ;$",
"       :          3       ~       B1         O         S        ",
"  %   KI*           -  O  c       1   f 2           :   *       ",
"  *                     0                   l           ,       ",
"                 2                          :    *              ",
"            @ :              1              ; $              %  ",
"       9          ,1B                  ,          3=e  O    O   ",
"   *           @*                  2    *      @2               ",
"                                                          :     ",
"B1         *      `       0  u              O             US MN ",
"  2   @* p      3  1)        b    *   ;'        =   O;          ",
"         b       gO1B                            F   x          ",
" mQ                   =;                O             4O        ",
"=r2                      * ; :  y        @                   O  ",
"                           x                                    "
};
