/* XPM */
static char *_85308e6759e489d88d4b8adafc787efIBGsjaAoUkpNOq6a[] = {
/* columns rows colors chars-per-pixel */
"64 64 137 2 ",
"   c #000006",
".  c #00010D",
"X  c #07080E",
"o  c #090A0F",
"O  c #010214",
"+  c #070815",
"@  c #0A0B14",
"#  c #01031B",
"$  c #06091C",
"%  c #0A0C1C",
"&  c #0F1017",
"*  c #0E101D",
"=  c #11121D",
"-  c #010424",
";  c #060924",
":  c #0A0C23",
">  c #02062E",
",  c #03072E",
"<  c #00052D",
"1  c #01052A",
"2  c #040828",
"3  c #050928",
"4  c #040829",
"5  c #050929",
"6  c #070B28",
"7  c #070A29",
"8  c #070B29",
"9  c #04082B",
"0  c #060A2A",
"q  c #05092C",
"w  c #05092D",
"e  c #060A2C",
"r  c #070B2E",
"t  c #05092B",
"y  c #080B29",
"u  c #0A0D29",
"i  c #080C2A",
"p  c #080C2B",
"a  c #090D2B",
"s  c #0B0E2A",
"d  c #0B0E2B",
"f  c #0C0F28",
"g  c #0C0F2A",
"h  c #090D2D",
"j  c #0B0F2C",
"k  c #080C2F",
"l  c #090D2F",
"z  c #0C0F2E",
"x  c #0A0D2C",
"c  c #0F1121",
"v  c #0F1124",
"b  c #0E1124",
"n  c #0F1228",
"m  c #0D102B",
"M  c #0F122A",
"N  c #0E112C",
"B  c #0E122F",
"V  c #0E112B",
"C  c #111321",
"Z  c #121321",
"A  c #141522",
"S  c #141526",
"D  c #151626",
"F  c #121324",
"G  c #171827",
"H  c #191A23",
"J  c #191A24",
"K  c #10132B",
"L  c #15172D",
"P  c #14162E",
"I  c #12152B",
"U  c #171929",
"Y  c #16182A",
"T  c #16182B",
"R  c #1A1C2A",
"E  c #191B2D",
"W  c #000430",
"Q  c #000531",
"!  c #010630",
"~  c #020732",
"^  c #000532",
"/  c #060A31",
"(  c #040833",
")  c #050A33",
"_  c #070B33",
"`  c #060B36",
"'  c #060A33",
"]  c #0A0E30",
"[  c #0B0F31",
"{  c #0B0F32",
"}  c #0A0D32",
"|  c #000538",
" . c #040A38",
".. c #090E3A",
"X. c #0C1032",
"o. c #0E1235",
"O. c #0E1133",
"+. c #0E123B",
"@. c #101331",
"#. c #101332",
"$. c #111431",
"%. c #131631",
"&. c #131732",
"*. c #121635",
"=. c #121536",
"-. c #121637",
";. c #111533",
":. c #151836",
">. c #171A36",
",. c #161934",
"<. c #181B35",
"1. c #1A1C35",
"2. c #1A1D35",
"3. c #131638",
"4. c #12163D",
"5. c #11153A",
"6. c #16193A",
"7. c #171B3E",
"8. c #16193B",
"9. c #181B38",
"0. c #1A1D3C",
"q. c #1E2035",
"w. c #1F223D",
"e. c #1E213A",
"r. c #202234",
"t. c #292A36",
"y. c #23253B",
"u. c #292B3E",
"i. c #0A0F40",
"p. c #0B1040",
"a. c #141841",
"s. c #141941",
"d. c #171C42",
"f. c #191D43",
"g. c #212544",
"h. c #282B44",
"j. c #262948",
/* pixels */
"- - - 6 :.- - - 4 - - 2 =.t 1 { 1 y - - # O $ O O O . O O . . @ O O + O # $ # # # - <.# - # # P : ; s # - - - , - - - - - P y - ",
"; # # - - @.- 7 y.s ; 9.- { 1 =.- @.<.# # # : O O O O % O . . O % . D O O # ; # # # - # - - ; - ; # 2 - 4 - - - - - 4 s - - N ; ",
"# # # # # 2 - - 2 - ; - - 1 1 1 =.h - # # O O O O O O O O . O . . O O O O # # # # - # - - - - - - - d - - , 1 - - - y y s # ; # ",
"# O # # ; d # - - $.2 - 1 - 1 1 j.- u - # $ O % @ . R % . O O . O O % O : O # $ $ ; - - - - - - - - { , 1 1 1 - 1 - - # # # # # ",
"O O # : # # - # - - - - - 1 1 8.1 1 N y # v O O O O O O O . * . . . O O % # # # # <.y u - 1 1 - 1 1 < < < < 1 1 - - @.# # # O O ",
"O O O # # # # - 2 h 1 - 1 1 < < 1 - - # # O O O O . X O D . . . . . O F # O $ ; # - - - =.} p 1 1 } < W 4.< < 6 1 - # P # O O O ",
"O D O O P # - # - - - 1 - 1 1 < 1 , - # # O + + t.O O @ . . O . O . O O O # # # - # - - 4 h , 1 < W ` W d.< < 6.- h # # # G : O ",
"O O O # $ # - - - - } =.1 1 < < < 1 - - # O O O . . . . . . X . . O C O O O : # # # # - 4 - - 1 < < a.W W _ , { - - # # O O O C ",
"O O O O K # - - - 4 1 1 - 1 < < < 1 - # # # O . . . H . @ . o @ @ . . . O % $ # $ ; # - 4 - 1 1 < < ( s.( ( ( 1 - - s # O % O O ",
"O O O O P # - O.{ 1 1 1 } < < W 1 1 @.- ; O O O . .       o @     . . . O O O O $ ; - - - - - 1 < < < W < ( } 1 6 - ; $ O O O . ",
"O O O # # # h - - - 1 1 } 1 W ..< 1 =.6 # O G % @ .     @ o       . . A O O O O O # # ; - - - 1 O.1 1 < } < < 1 4 y # $ O O O . ",
". O O O # - d - - 1 3.1 1 1 ( } 7.=.1 y.; # O O .         o         . . . O O O # O # # - - - - - - - 1 1 , 8.4 y # # # # O O O ",
"= O O O $ - 2 d - 1 1 - 1 < 8.( , 1 @.- # O O O . . .   o           . + . . O O O O : # ; # - 6 # - - - t p , @.h # # O $ % O O ",
"O % O # P ; # - - - - 1 1 1 1 1 1 1 - - - # O O . . &           @ . H = % C C O O O $ O # # # # - y - # - - - d 2 - # # O O O % ",
"O . O $ : q.- # - - - - 4 1 < 1 t 1 - # # $ E % . . .         .   . . = . O . O O O % # # # # # # # # - 6 - - - - # # # # O O % ",
"O O O O # : # ; - - - - p 1 1 - - O.1 - # m % O . . . . . O X . X . . . % . O G # O $ : # # # O # # %.- 4 - - - - - ; : # : O O ",
"% = O % F # # q.; # - - - { p 1 h d P V V # O O O O X @ O @ . . . . . . O O % O O + # : O : # # # # - - - - 2 - - # @.; K O O O ",
"O . . % # O # ; # # - - - } - { - - - # ; # O O + . . . . + O O O O O O . . O . O : O G $ # # # 2 - y # - w.; - - u # # v : % O ",
"+ O O + O # # 2.- 2 4 - , 4 1 p x - # # # # O # . O O . % % % O # O O F O O O O O # y.$ $ # # # ; 2 # - ,.P - # # ; # $ I % O O ",
"O O O O # # # : - - < 1 < } 1 - - >.# - O # O % O O O . . O O O $ O # O O O O O O O # # # # ; # # # # # 1.# $ P # # + # O O O O ",
"O O O O O ; # - - < < ( < 1 1 1 d - - # : # O O O O O O O O O # ; $ # # # O O $ O G # # # O ; K # # O # $ $ O O O O C O $ C O O ",
"O O # O # y - 1 < W d.W < 1 1 h 0.- - # # O O O O A O O O # # # # # # # # # # # $ : O O # : : : O r.1.O O : O O O O O O . O . O ",
"R O # # - - < < ` W ..+.( W 1 1 - 2 d # K # # O O % $ % O K # s # - - # - # # E F O # O # O % $ # $ O . O O O . . . . O . O . O ",
"% : # # - - < W +.| | | W W < 1 - - 6 # : # O O O O O O O : : ; - - - O.- - # # # O : % O O $ O O O O % . . = . = . . @ O R O O ",
"O # # # p t W W  .| +. .W +.< 1 1 - <.- T # O % $ O O O O # # - - d 6 < - 1 $.# # O O O O $ O O O A . . . . o . O . . @ O . O O ",
"O # # - 1 } | W | | i. .| W ( < 1 - 2 - ; 1.F # O D O # K $ 6 4 - 1 1 1 7.- - # # O # O O O O % . O . . . . . . . . . . . + * O ",
"# # # - - < W | W |  ...W W ( , { } - 2.s # O # $ O O # : s - y 1 1 ( 1 1 1 - %.- # F D O O O O . . . . . . @ .   . . . . O % O ",
"# $ - - 1 1 f.W | | ..p.+._ < t 1 6 P - # : # O # O O # # - # - - t 1 1 1 t - 6 # # G O O . . O O O * . @ o .   = . X . . . @ O ",
"# # # - - 1 1 < < ` W | < 5.( f.1 - - - # m # K O # O 1.# # - @.t o.< 1 1 - - - # - O O O O O O O + O . & . . . .   . . + = + O ",
"O # I - h - 1 1 1 < < < W } < t 1 t O.; - ; ; # # # # - # - - - < } < =.1 o.- - # $ # O O O O R O O O . . . + .   . . . . + U O ",
"O : P - - - - - t , < t o.1 < 1 1 1 - 1 $.- - # : # # # s ; - 1 t 7.5.5.1 - - - # : $ O O O O O O O O O . . & . . . . . . * O O ",
"P I # # - - 1 1 1 1 < < ( 1 1 - 1 1 } 1 - 1 N - 2 # # # - - - - 7., t 1 - $.- # : O O O O O O % O % % + O . . . * . @ O * O O # ",
"O ; # # - - - 3.1 1 < ( , < } 8.1 1 < 1 1 - 4 w - - # - - - - 1 } +.1 - - u # # O # O O O # % G F % + O O X . . O . . O . O O O ",
": # V - - - - 1 1 1 < t =.< 1 < 1 1 } 3.< 1 1 =.- - :.- - 4 6.1 1 - 1 1 - - # # : # # O : O O O # O A % % O O O . O % O O # O # ",
"; # ; # - 4 1 - - 1 1 1 1 < 1 1 1 1 W ( < < } 8.1 - - - - - } { t 1 - - 2 s - # - # ; L O E : R O O O O O O O O % O O O O # # # ",
"# - 2 # - 9.=.1 1 - 1 1 - 1 } - 1 1 } } < 1 1 1 1 - - - - - - - - 1 - - - 2 - # # # ; # # # # O O O + O O O O % O O # # # G # ; ",
"; - - ; - - - - - - - - - - 1 - - 1 , 1 1 < 1 1 < 1 - - 2 7 - - - - - 1 - 2 ; # ; - # # # # # O O E O O O : O # # : # ; : ; # - ",
"y d - 2 - - - { 4 { - - - - - - y d - 1 1 1 1 1 1 3.- 4 2 - - d 4 } { - 4 - - @.- - 2 %.; : K 1.# O # $ O O O $ # # # # # # # ; ",
"3.4 - - p - - - - d - - - %.s - - 4 - - - - 1 - 1 } - - 4 - - - 1 4 5.- - - - 9.4 - ; s - s # # O D # F # G ; # # # # # - ; ; 2 ",
"4 - - 1 1 - - - 2 - - # - # : - # # # - - - - - - - - 4 - 1 - - - 1 4 < - - - 2 - - d - - ; # # # O O v O u.: # # # - # - # 2 ; ",
"- - - 1 < 1 { - - # # # # - # # # : # # - # 2 # P 6 - - 1 , - =.1 - , , } - - 1 - - - B - # # $ # # L % O # # # # d # 2 2 - - ; ",
"- - - 1 } - - =.2 0.- # : ; # # K I O # P # # # - ; - t p - 1 , - 1 1 - 8.1 1 - { 4 - - - # # s % # O O K $ # # # y - :.2 %.- - ",
"- - - 1 1 1 1 - - # - # # # O $ O E O O # $ # # - <.- - 1 1 1 - 1 , 1 - 1 p 1 - 1 - - - y - # # P $ # O # O O P # # - 4 - - - - ",
"- 1 - 1 1 t 1 - - # : # O O O O O O O O O E ; d ; - 4 - - 1 - , - - 4 ( 1 g.} =.1 1 - - - - # # # # # # $ # # # y.- # # - - - - ",
"- 1 =.4 4 1 1 - - - : G % O O J % O O O O O ; G ; s - - - 1 - - 1 4 w , - 1 - 1 - 4 - - - # # # # ; # : # ; # # # # - P - - - 6 ",
"1 d 1 3.- - 6 - - - $ # % % O % . . . . C O O # # # # - - - - - - - - p p - - 1 - - - # - 9.# # O # # : # ; # - 2 # # - 2 2 - 4 ",
"p { 1 p y - %.0.# # # O O O O O . O % O U O O # S # - # - - - 2 - - - h 4 - - - - - @.2 K P : # O # # # ; # # u # $ ; P d - - 1 ",
"{ , =.1 - - - # - ; # # % . O . . . . O % O $ # $ # # # ; 2 - - - - - y h - - - - 4 ; ; # # : # # # # # # - # # # s # P 2 - p , ",
"=.( < 1 1 - 6 - - # # v O O O . . . O O C O O O O % # # K y.; # P - 2 ; 4 # - 2 - h # # # $ # # # # : # # # # # # $ # - - - p 1 ",
"=.< < < o.9 - - - - ; # O O . % O . = O . O O O C O # O O # O # # ; # - 2 2 h.# # # # # O K O # O # O # # # # $ $ # # # # - - 1 ",
"< < < _ < 5.=.- 6 - ; $ O % O R O O O . O O O = % O O O O % $ # # # # - # - - - - # # # ; : # O # O # # # O # O # O # P - - 1 1 ",
"< W W W f.< , 1 h - # # # # # O # O O O O % O . . O @ . % O O O O # # - # - - # - # # P # # # # : # O O O $ $ : # # # - - - 1 1 ",
"d._ f...W W ' 5.1 - # # - # # # ; # O O O O O O . . . . O . O O # # # P # - y - # # : # # # O O O : # C $ : : c O - # # - - } W ",
"` W | ` W W W W 1 - - 2 - - ,.- : # $ # O . . . . . . @ . O . O O $ $ - - - - # - # # # # # # # # % O $ O O % # # # # - - 6 , t ",
"=.W | W | W W } < - 4 :.} - - - 2 # # # : O . . . . . . . . . O O # : # # # - # # ; # # # $ G # O O # U U # O O # # # - @.- 1 < ",
"W ` W | W W ..< 1 1 - 1 1 - - - 9.- P : % O O @ = X @ . @ . O . O O K $ # # # # # # # - # # # O O v O O O O # # # # - - y f.1 < ",
"< W W | _ W W < < 8.1 } , ( - w 6 p d # $ $ O % . . . . . . J O % O # # O : # # # # 2 # # # ; $ # O G O O O # # # - - - - 1 1 =.",
"+.( W W W W W < , 8.4 1 1 < 8.1 =.- 0.# $ 1.O O . . . . . . % O % $ % $ # K # # # # ; # # # O # % O O # : O : P # 2 - - 1 - , W ",
"< < < < W W < , 3.1 4 1 } < < 1 1 - p # # # O O O . O . = O O O $ O P : O # # $ # - # # # # O O O O $ O : # # # - h.6 - - 1 1 ( ",
"1 1 < < 7.< , ( 1 - 1 1 } 1 1 1 { y - - # O $ % O . . O H @ O O R O $ $ O # # %.# # - # # O # O O O O $ O # # ; # - O.:.- - - 1 ",
"( ( 1 } =.( < < 1 1 1 1 1 1 1 - , - y y.# # O % D . O . . @ O O O O O $ # $ P # - : # # y.$ $ # O O O : # # # - - - - - - 1 - 1 ",
"6 o.1 1 < } < 1 - - - - 1 1 , 8.1 - - # ; O # O % O A O A @ O . O O : # O # # # # ; ; # # : # O O # # # # # # - - - - - - - - 1 ",
"- 1 1 - 1 1 1 1 1 p 4 d 1 =.1 p 1 4 - - K # O O O O O X O O % O O O $ $ # O # # ; # # # # # # O O # O # # - ; y - { - p - 1 1 - ",
"- - 1 - - 1 - } - - d , - 1 p =.- - # # # O O O O O O . O . . O O O O O O # # # P 2 # ; @.# : # # # # # # :.- - @.y 1 - - - - - "
};
