/* XPM */
static char *_b1a8df38191463caa1806c9cb576825Pz1WVOxKNrUmzncO[] = {
/* columns rows colors chars-per-pixel */
"64 64 34 1 ",
"  c #05050F",
". c #060611",
"X c #070714",
"o c #080817",
"O c #09091A",
"+ c #0B0B20",
"@ c #0C0C23",
"# c #0D0D26",
"$ c #0F0F2B",
"% c #10102E",
"& c #111131",
"* c #121231",
"= c #131333",
"- c #141436",
"; c #151539",
": c #17173C",
"> c #3E3E4F",
", c #363653",
"< c #414158",
"1 c #444460",
"2 c #484869",
"3 c #5B5B74",
"4 c #5D5D7A",
"5 c #5F5F80",
"6 c #616185",
"7 c #64648B",
"8 c #737385",
"9 c #75758B",
"0 c #777790",
"q c #7A7A96",
"w c #9595B8",
"e c #B1B1DA",
"r c #C7C7E5",
"t c #DDDDF0",
/* pixels */
"::::::::::::::::::::::::::::::::::::::::::qt::;===$===$=$===&&&&",
"::::::::::::::::::::::::::::::::::::::::::2q::;======$===&&&&&5&",
"::::::::::::::::::::::::::::::::::::::::::;;::====$===&==&&&&&e&",
":::::::::::::::::::::::77:::::::::::::::::=======$===$==$&&&5ete",
"::::::::::::::::::::::erre:::::::::::::======$=$$====$&&&&&&=&e&",
"::::::::::::::::::::::7ww7:::::::::;;===$=$=======$=&&&&&&&&&&5&",
":::::::::::::::::::::::77:::::::::;-%======$=$==$=$=&&&&&&&&&&=&",
"::::::::::::::::::::::::::::::::::=%==%=$=====$====&&&&&&&&&&&&&",
"::::::::::::::::::::::::::::::;====%==%==%==&=$==&&&&&&&&&&&&&&&",
"::::::::::::::::::::::::::::::===%%=%==%%==%===&&&&&&&&&&&&&&&&&",
"::::::::::::::::::::::::::::;========%%==%%==$&&&&&&&&&&&&&&&&&&",
"::::::::::::::::::::::::::::===$%%=%=%====%==&&&&&&&&&&&&&&&&&&&",
":::::::::::::::::::::::;==&===$==%%=%==%%==%=%&&&&&&&&&&&&&&&&&&",
":::::::::::::::::::::;=====$=$======%=%==%=%==&&&&&&&&&&&&&&&&&&",
"::::::::::::::::::;;=;$=$=======%==%==%==%==$&&&&&&&&&&&&&&&&&&&",
":::::::::::::::-=;=========$=$=$=%%=%==%%==%=&&&&&&&&&&&&&&&&&&&",
":::::::::::;::;=%==%==%===$=$=&==&&=&&&&&&&&&&&&&&&&&&&&&&&&&&&&",
":::::::::::=====%==%%==%=$======&=&&&&&&&&&&&&&&&&&&&&&&&&&&&&&&",
":::::::-$=$=%%=tt===%==%====$==&&&&&&&&&&&&&&&&&&&&&&&&&&&&&&&&#",
"::::---=======%09==%==%==$=$=&$&&&&&&&&&&&&&&&&&&&&&&&&&&&&&&$$#",
"::::==%=$===$=$==%==%%=%$====&&&&&&&&&&&&&&&&&&&&&&&&&&&&&&&$###",
"=%===%%====$======%%=====&&&&&&&&&&&&&&&&&&&&&&&&0t&&&&&&&$#####",
"%==%%==%$=$===$=%=%==%%=&&&&&&&&&&&&&&&&&&&&&&&&&&&&&&&&&#######",
"%=%==%=======$===%==%==%&&&&&&&&&&&&&&&&&&&&&&&&&&&&&&&&$#######",
"==%==$=$=$==&=$&=%==&&&&&&&&&&&&&&01=&&&&&&&&&&&&&&&$$$$########",
"%==%======$====&%==$&&&&&&&&&&&&&&t9&&&&&&&&&&&&&&&&############",
"%==%=$=&===&&&&&&&&&&&&&&&&&&&&&&&&&&&&&&&&&&&&$################",
"==%===$=$&&&&&&&&&&&&&&&&&&&&&&&&&&&&&&&&&&&####################",
"%==&&&&&&&&&&&&&&&&&&&&&&&&&&&&&&&&&&&&&$$$$##############,5,###",
"%=$=&&&&&&&&&&&&&&&&&&&&&&&&&&&&&&&&&&&&##################5e5###",
"==%=&&&&&&&&&&&&&&&&&&&&&&&&&&&&&&&&&&&##################ertre##",
"%==%&&&&&&&&&&&&&&&&&&&&&&&&&&&&&&########################5e5###",
"&&&&&&&&&&&&&&&&&&&&&&&&&&&&&&&&&&########################5e5###",
"&&&&&&&&&&&&&&&&&&&&&&&&&&&&&&&$################################",
"&&&&tt&&&&&&&&&&&&&&&&&&&&######################################",
"&&&&00&&&&&&&&&&&&&&&&$$$$#########################9############",
"&&&&&&&&&&&&&&&&&&&&&&#############################t############",
"&&&&&&&&&&&&&&&&&#############################################OO",
"&&&&&&&&&&&&&&####################t9#####################OOOOOOO",
"&&&&&&&&&&&$$$####################0>################+++++OOOOOOO",
"&&&&&&&&$$$####################################+++++OOOOOOOOOOOO",
"&&&&&&&$######################################+OOOOOOOOOOOOOOOOO",
"&&&######################################OOOOOOOOOOOOOOOOOOOOOOO",
"##################################OOOOOOOOOOOOOOOOOOOOOOOOOOOOOO",
"#######################+++++++++++OOOOOOOOOOOOOOOOOOOOOOOOOOOOOO",
"#######################+OOOOOOOOOOOOOOOOOOOOOOOOOOOOOOOOOOOOOOOO",
"##############e####+OOOOOOOOOOOOOOOOOOOOOOOOOOOOOOOOOOOOOOOOOOOO",
"##############eOOOOOOOOOOOOOOOOOOOOOOOOOOOOOOOOOOOOOOOOOOOOOOOOO",
"###########eeeteeeOOOOOOOOOOOOOOOOOOOOOOOOOOOOOOOOOOOOOOOOOOOOOO",
"####+++++++444r444OOOOOOOOOOOOOOOOOOOOOOOOOOOOOOOOOOOOOOOOOOOOOO",
"####OOOOOOOOOOeOOOOOOOOOOOOOOOOOOOOOOOOOOOOOOOOOOOOOOOOOOOOOOOOO",
"#+OOOOOOOOOOOOeOOOOOOOOOOOOOOOOOOOOOOOOOOOOOOOOOOOOOOOOOOOOOOOOO",
"OOOOOOOOOOOOOOOOOOOOOOOOOOOOOt8OOOOOOOOOOOOOOOOOOOOOOOOOOOOOOOOO",
"OOOOOOOOOOOOOOOOOOOOOOOOOOOOO8>OOOOOOOOOOOOOOOOOOOOOOOOOOOOOOOOO",
"OOOOOOOOOOOOOOOOOOOOOOOOOOOOOOOOOOOOOOOOOOOOOOOOOOOOOOOOOOOOOOOO",
"OOOOOOOOOOOOOOOOOOOOOOOOOOOOOOOOOOOOOOOOOOOOOOOOOOOOOOOOOOOOX  .",
"OOOOOOOOOOOOOOOOOOOOOOOOOOOOOOOOOOOOOOOOOOOOOOOOOOOOOOO         ",
"OOOOOOOOOOOOOOOOOOOOOOOOOOOOOOOOOOOOOOOOOOOOOOOOOOOO            ",
"OOOOOOOOOOOOOOOOOOOOOOOOOOOOOOOOOOOOOOOOOOOOOOOXXXXX   3        ",
"OOOOOOOOOOOOOOOOOOOOOOOOOOOOOOOOOOOOOOOOOOOOOOOX       e        ",
"OOOOOOOOOOOOOOOOOOOOOOOOOOOOOOOOOOOOOOOOOOOOO        3ete       ",
"OOOOOOOOOOOOOOOOOOOOOOOOOOOOOOOOO   ..                 e        ",
"OOOOOOOOXXXXXXXXXXXXXXXXXXXXXXXX..                     3        ",
"OOOOOOOOOXXXXXXXXXX.                                            "
};
