/* XPM */
static char *_41d7729e2554712cf8ac00dd1beb67fNoQRbxDQoLGYFKXr[] = {
/* columns rows colors chars-per-pixel */
"64 55 120 2 ",
"   c black",
".  c #010100",
"X  c #000101",
"o  c #020100",
"O  c #000200",
"+  c #030200",
"@  c #030302",
"#  c #050300",
"$  c #060103",
"%  c #000400",
"&  c #020501",
"*  c #000600",
"=  c #020702",
"-  c #060400",
";  c #000304",
":  c #000405",
">  c #000505",
",  c #020404",
"<  c #020605",
"1  c #010707",
"2  c #060704",
"3  c #060606",
"4  c #080204",
"5  c #010A05",
"6  c #040D04",
"7  c #0F0A00",
"8  c #0F0D04",
"9  c #0F0308",
"0  c #010A09",
"q  c #010E0C",
"w  c gray3",
"e  c #0B0B0B",
"r  c #080C0E",
"t  c gray6",
"y  c #140E00",
"u  c #14050B",
"i  c #12090D",
"p  c #061105",
"a  c #02100C",
"s  c #05100D",
"d  c #0C160B",
"f  c #0F110F",
"g  c #091A08",
"h  c #1E1501",
"j  c #181306",
"k  c #1E1A0F",
"l  c #1E0710",
"z  c #1E0D14",
"x  c #021311",
"c  c #0F1011",
"v  c #0F1213",
"b  c #081715",
"n  c #031917",
"m  c #031C19",
"M  c #031E1B",
"N  c #101514",
"B  c gray8",
"V  c #141C13",
"C  c #16181C",
"Z  c #111D1C",
"A  c #1E1E1E",
"S  c #201A08",
"D  c #0C230B",
"F  c #182917",
"G  c #1D371B",
"H  c #2E2410",
"J  c #282215",
"K  c #3D2F11",
"L  c #3D3116",
"P  c #2D1620",
"I  c #3C1A28",
"U  c #3D1E2A",
"Y  c #052622",
"T  c #132C29",
"R  c #153A36",
"E  c #193A37",
"W  c #2D2227",
"Q  c gray16",
"!  c gray18",
"~  c #2B3C3A",
"^  c #3D3136",
"/  c #323B32",
"(  c #303C3B",
")  c gray24",
"_  c #4C3A11",
"`  c #4C1E30",
"'  c #4D1F30",
"]  c #512336",
"[  c #4C353E",
"{  c #224420",
"}  c #274925",
"|  c #2D5B2A",
" . c #374836",
".. c #3C553A",
"X. c #4B5B2C",
"o. c #514B3E",
"O. c #6B5D3F",
"+. c #7A683F",
"@. c #7B6C3F",
"#. c #65384A",
"$. c #1C5348",
"%. c #314A48",
"&. c #4C4C4C",
"*. c #5B454E",
"=. c #475845",
"-. c #415A57",
";. c gray32",
":. c #664753",
">. c #6B4856",
",. c #7A4C5F",
"<. c #50724E",
"1. c #426360",
"2. c #436864",
"3. c #457671",
"4. c #686866",
"5. c #A8637F",
"6. c #658762",
"7. c #699C66",
"8. c #A88D50",
"9. c #C7A760",
/* pixels */
"            L y   n ~                                                         } D                     ;.                        ",
"          $       C (                   t               6                   9  .F   $                 t 3                 &     ",
"                              &   7                         <           4.          $   <       &   9                       m R ",
"                                h 8.            3 I l                                             l 5.            f             ",
"    $           N               t     & &       ; [ P               9             w     7 ) 7   ; 3       6                     ",
"                                            y &     q                                   7 Q 7                         <         ",
"    < t         3                         7 X.    &                   q w         t                           d     6           ",
"    b             $                         6                         R   &                                   &                 ",
"                        q                             $   <                             <                     <     F =.  M R   ",
"              $.x                 <                           B ;.                                E x                     E 1.  ",
"              2.q                   <         &       u   3                                       M             &       $ t     ",
"  9 q R       y                                                     $           -         <                                     ",
"      &                       <                 f   F D                 p       &               q   $             3             ",
"          ;     w                 a         $                         $           t       y K 6     <       } 9   $             ",
"  $       - j                                                               7 L           < { <.            p                   ",
"w             f                   )                           7   t             3                         &                   H ",
"                                  v             7 +.  y   $                                                             -   u   ",
"  6           6         _                       7 L                 &     &.            - S                                     ",
"          - } 6.                          B                               &     <                           w                   ",
"            6 6           & $   f       3                                                     9   3     N                       ",
"u     ! F                                           *.U         i $                                                   7 _       ",
"        ;       6   {                             $       N     $                 &               <               T   8 O.3 q   ",
"                        $                           ;                                     -       7               -.            ",
"w           -                                                     f           6   &             h 8.              $             ",
"    q                                 Z                               < $                               w                       ",
"    R                   - 9           R         -                     b             L 7 7   $                     7             ",
"                                  &                                                                     <                       ",
"                          w                                                                 B                                   ",
"                  #.l                 <                 g                           3                                           ",
"      &           :.P                           4     - F u       7.6   p   <     -                       &     u l         $   ",
"        L y               y   P                                   6 6                       -                   W ^       q 3.  ",
"                              l             &                                                                             a R   ",
"    &                                                                       Z q -                                               ",
"                    <           &   $                   t   <   9           q q                                           3   q ",
"                                        3   K                             <                   &.        t                       ",
"                                            7         $                                       <       u ,.            -         ",
"  w                   &                   x                 w       B                   p             u ]   0               B   ",
"            s   6     d                                                       <         G                                       ",
"                F p             F ..-                                                                                           ",
"    &                   u       g F       &   6                     R m $                 4                 =   &               ",
"              w               t                                     %.T         c               w                               ",
"                                    ;.                      & y                                                               6 ",
"            7                       B               *.              9 I                                         _               ",
"  $       7 9.h <                       w           P               9       - j   a                       7       <             ",
"  <                                             t                                       H y                       4             ",
"                                                                                        y                                       ",
"                        &         q                       9                             6           <                       $   ",
"                          7         w u P                                                   -         f i 4     -               ",
"            t                 5         9                                     3 3               a       $                       ",
"      <                                                               q                                                         ",
"]                     3           k o.              t                                                                 @.L   A ! ",
"    q         <                 t 7 J 9 `                 T m       <         V /                 3     $             7 7       ",
"            &   T Y               z - 9 >.                                    g V                   `       |                   ",
"  3.q                                                                                                                           ",
"r R q                                       3 6           y       c                 &                         t &           -   "
};
