/* XPM */
static char *_c7ba41d4f684e17a182844b068531a5zjn4OJClstiDiZwW[] = {
/* columns rows colors chars-per-pixel */
"64 64 133 2 ",
"   c #000000",
".  c #0A0402",
"X  c #020A02",
"o  c #0C0901",
"O  c #01070A",
"+  c #0E0509",
"@  c #010B0B",
"#  c #0C0C0C",
"$  c #140D01",
"%  c #13050A",
"&  c #18070E",
"*  c #130B0E",
"=  c #051205",
"-  c #001C00",
";  c #081B07",
":  c #00100F",
">  c #0C120E",
",  c #0E1A0D",
"<  c #161002",
"1  c #1B1200",
"2  c #131209",
"3  c #18140D",
"4  c #111B0E",
"5  c #000D13",
"6  c #1F0710",
"7  c #1C0910",
"8  c #001412",
"9  c #0C1614",
"0  c #001917",
"q  c #001D1B",
"w  c #0D1918",
"e  c #141414",
"r  c #1A1514",
"t  c #1A1916",
"y  c #1C1C1C",
"u  c #241A00",
"i  c #2C1F00",
"p  c #230913",
"a  c #2B0E19",
"s  c #201D15",
"d  c #251718",
"f  c #2C151E",
"g  c #35111F",
"h  c #0C230C",
"j  c #00211F",
"k  c #132013",
"l  c #172D17",
"z  c #1A251A",
"x  c #123112",
"c  c #153914",
"v  c #1E351E",
"b  c #1D391D",
"n  c #2C2102",
"m  c #2C220C",
"M  c #322504",
"N  c #392B0B",
"B  c #2C1820",
"V  c #391322",
"C  c #3F1B29",
"Z  c #052620",
"A  c #002E2B",
"S  c #1B2020",
"D  c #192E2D",
"F  c #0B3734",
"G  c #232323",
"H  c #2C2D2D",
"J  c #3F3623",
"K  c #293534",
"L  c #343434",
"P  c #383738",
"I  c #3B3E3E",
"U  c #433101",
"Y  c #4E3800",
"T  c #49370A",
"R  c #4E3B10",
"E  c #44391F",
"W  c #49172A",
"Q  c #431B2B",
"!  c #40212D",
"~  c #452632",
"^  c #532B3A",
"/  c #1D521D",
"(  c #214518",
")  c #214C1F",
"_  c #264924",
"`  c #2B432A",
"'  c #2E4E2D",
"]  c #375836",
"[  c #2C752A",
"{  c #5F4706",
"}  c #5C460E",
"|  c #54431D",
" . c #5D501B",
".. c #6A4D00",
"X. c #5F4D23",
"o. c #504429",
"O. c #715E34",
"+. c #622F43",
"@. c #763B53",
"#. c #005B55",
"$. c #224643",
"%. c #354443",
"&. c #4E4D4D",
"*. c #415C41",
"=. c gray34",
"-. c #5B5B5B",
";. c #497747",
":. c #676564",
">. c #6F766F",
",. c #727273",
"<. c #8F7225",
"1. c #822B4D",
"2. c #935970",
"3. c #A85476",
"4. c #A65B79",
"5. c #018077",
"6. c #539151",
"7. c #6B876A",
"8. c #689C67",
"9. c #65A564",
"0. c #A28542",
"q. c #BC9E59",
"w. c #A37084",
"e. c #B5758E",
"r. c #578582",
"t. c #7AD5CE",
"y. c gray62",
"u. c #8EBA8C",
"i. c #86B7AE",
"p. c #CABD9A",
"a. c #CCACB9",
"s. c #D7A0B5",
"d. c #E6D0A2",
/* pixels */
"  . N *   O H w                                                               7 ' l                       # -.                  ",
"          r :.K                                       x                         ;.[   &                                         ",
"                                  .                                     L &.                        X           .               ",
"                            X.<.              # +                         #                             +.2.            # #     ",
"                          =.$ <                 e.1.                  .                               H 6 +                     ",
"        e                         X X         O B f 0                                       $ :..               =             O ",
"                                        M .                               #                 u o o                               ",
"        #                               (       h                     O             r                               ;       h   ",
"                                        z                             j 8   -                                       >           ",
"                                          O             5                                                             O     v 7.",
"      O         q                                             r r                           8           O q                     ",
"    O i.$.                      5                             # #                                       F   O                   ",
"    X O 4                                           V   G                           .         @                                 ",
"                                                                    a                               O                           ",
"                .       @                     G     #                     ;                 .       8                   O .     ",
"          #                 O                 .                                       y       3 m =       O       h d     .     ",
"  m u                                                             .           Y }               / u.                X           ",
"                                                                  H                           X = k                             ",
"      H                     # y.                u                                 S                                             ",
"                . o                           { p.                        O                   .                                 ",
"    X           < 1                           $ s                         H .               . $                                 ",
"  . _ 9.              .                 t                                     .                   7                 .           ",
"                          &.      .                                                                   G         G               ",
"                                                  * P                                                                           ",
"        X   = b                                 . O r   I O     7 %                                                           2 ",
"                                                                                                        O               S r.    ",
"                  .                                                                           .       ..R               . :     ",
"    X                             y                               G     .             X               O.J     #                 ",
"                                  >                                   O                 o                                       ",
"                o   %             $.                                  @ O               q.. n     .                             ",
"                              =               o                                                                         . .     ",
"                    .                                                                           #                               ",
"          e .       .                                                                 e         e                               ",
"          ~ 4.                                %       y . %       ] x                                                     p     ",
"o         7 p                       X                             >.,         @                                 X       Q g   . ",
"0.                  .   @.&                                       X X                                                   ,.Q     ",
"                        g +                                                                                             .       ",
"                                                                              e                                                 ",
"                                $                               .             9 @                           .                   ",
"                                                      t                                           #             r               ",
"                                        T Y                                                       ,.          .                 ",
"                                                                                                              s.p               ",
"                z                       0                 t                                 `                 ! +   O           ",
"    Z     z     =                                                                           h                                   ",
"          )                 6./                                                                         .                       ",
"                  %         *.x                                           .                                                     ",
"      #                 &.                                          D t.          t                 y                           ",
"      .                                                               @           #                                             ",
"                              # &.                          X         Q                                               <         ",
"  . m .                                           3.B                 w.                                              E i       ",
"  | d.3                                           * .               7 +       u n                               <               ",
"  o                                           L                                     @       u                             e     ",
"                                                                                            o.1                                 ",
"                              #.                                                                          0                     ",
"                    $                                 . . +                                 =     .                     .       ",
"    >                             C W                                                                 @     G % f               ",
"                          X                                                                                                     ",
"                                                                                                                                ",
"                @             r #                   #                                                                          .",
"                              m t                       @ 5.                                                    .             U ",
"        @ %.              S .     f a..                 O A                     b 8.                  e   %       c ,           ",
"        8 0                 & p   a % .                                                                 a ^         X           ",
"                                                                                                                                ",
"                                            h             o       H                   X                               # X       "
};
