/* XPM */
static char *result[] = {
/* columns rows colors chars-per-pixel */
"64 60 129 2 ",
"   c #0D0415",
".  c #0F0518",
"X  c #120516",
"o  c #1D0616",
"O  c #110719",
"+  c #1D0618",
"@  c #14091D",
"#  c #250817",
"$  c #2C0A17",
"%  c #23071A",
"&  c #28071B",
"*  c #260919",
"=  c #2C081C",
"-  c #370A1D",
";  c #3C0C1B",
":  c #170B20",
">  c #1B0D24",
",  c #1F0F28",
"<  c #0B1427",
"1  c #1F1028",
"2  c #220D25",
"3  c #2E0D25",
"4  c #370E26",
"5  c #3C0C23",
"6  c #21112A",
"7  c #07293F",
"8  c #392431",
"9  c #420E1C",
"0  c #510F1F",
"q  c #491017",
"w  c #401917",
"e  c #4F1419",
"r  c #5A1117",
"t  c #55111E",
"y  c #5C141B",
"u  c #5D191C",
"i  c #631316",
"p  c #621619",
"a  c #631B1E",
"s  c #6A1E1D",
"d  c #4B201A",
"f  c #5C2119",
"g  c #6F221B",
"h  c #6F291A",
"j  c #73231B",
"k  c #7A271A",
"l  c #7D2A1B",
"z  c #7B321B",
"x  c #460B24",
"c  c #4B0D21",
"v  c #500F20",
"b  c #471020",
"n  c #521221",
"m  c #5A1720",
"M  c #631C20",
"N  c #58282E",
"B  c #4E2935",
"V  c #51363C",
"C  c #0A2B41",
"Z  c #192D43",
"A  c #07364F",
"S  c #073B54",
"D  c #3D3C4F",
"F  c #483541",
"G  c #4F3C42",
"H  c #41394A",
"J  c #094255",
"K  c #15445E",
"L  c #364153",
"P  c #064B66",
"I  c #034C68",
"U  c #06546B",
"Y  c #065773",
"T  c #335F70",
"R  c #3D616B",
"E  c #2E667B",
"W  c #444F59",
"Q  c #43565F",
"!  c #85311C",
"~  c #8B351C",
"^  c #8F381C",
"/  c #8A4526",
"(  c #8D4B2A",
")  c #9F4521",
"_  c #A24923",
"`  c #A54F29",
"'  c #AC552A",
"]  c #B65F2F",
"[  c #CA773D",
"{  c #046C8C",
"}  c #06788C",
"|  c #0E6F91",
" . c #017391",
".. c #007B9D",
"X. c #317A86",
"o. c #207490",
"O. c #03849B",
"+. c #0381A4",
"@. c #038EAE",
"#. c #1F83A2",
"$. c #028FB4",
"%. c #0294B9",
"&. c #0198BF",
"*. c #00A4BE",
"=. c #1EA1B1",
"-. c #14A8BD",
";. c #009BC2",
":. c #01AACD",
">. c #00B7CF",
",. c #0DB6CC",
"<. c #11BACD",
"1. c #00AAD3",
"2. c #00AED8",
"3. c #00BED6",
"4. c #0DBFD4",
"5. c #00B2DD",
"6. c #00C1D9",
"7. c #02C3E4",
"8. c #09CAE0",
"9. c #00C5E8",
"0. c #00CFEC",
"q. c #00D0E7",
"w. c #02D3EA",
"e. c #00D3F0",
"r. c #00DFF5",
"t. c #00E0F6",
"y. c #00E3FA",
"u. c #00E8FE",
"i. c None",
/* pixels */
"i.i.i.i.i.i.i.i.i.i.i.i.i.i.i.i.i.i.i.i.i.i.i.i.i.i.i.i.i.i.i.i.i.i.i.i.i.i.i.i.i.i.i.i.i.i.i.i.i.i.i.i.i.i.i.i.i.i.i.i.i.i.i.i.",
"i.i.i.i.i.i.i.i.i.i.i.i.i.i.i.g i.i.i.i.i.i.i.i.i.i.i.i.i.i.i.i.i.i.i.i.i.i.i.i.i.i.i.i.i.i.i.i.i.i.i.i.i.i.i.i.i.i.i.i.i.i.i.i.",
"i.i.i.i.i.i.i.i.i.i.i.i.i.i.i.l i.i.i.i.i.i.i.i.i.i.i.i.i.i.i.i.i.i.i.i.i.i.i.i.i.i.i.i.i.i.i.i.i.i.i.i.i.i.i.i.i.i.i.i.i.i.i.i.",
"i.i.i.i.i.i.i.i.i.i.i.i.i.i.i.! j i.i.i.i.i.i.i.i.i.i.i.i.i.i.i.i.i.i.i.i.i.i.i.i.i.i.i.i.i.i.i.i.i.i.i.i.i.i.i.i.i.i.i.i.i.i.i.",
"i.i.i.i.i.i.i.i.i.i.i.i.i.i.i.~ j i.i.i.i.i.i.i.i.i.i.i.i.i.i.i.i.i.i.i.i.i.i.i.i.i.i.i.i.i.i.i.i.i.i.i.i.i.t i.i.i.i.i.i.i.i.i.",
"i.i.i.i.i.i.i.i.i.i.i.i.i.i.v j a i.i.i.i.i.i.i.i.i.i.i.i.i.i.i.i.i.i.i.i.i.i.i.i.i.i.i.i.i.i.i.i.i.i.i.i.i.y i.i.i.i.i.i.i.i.i.",
"i.i.i.i.i.i.i.i.i.i.i.i.i.c y m a n i.i.i.i.i.i.i.i.i.i.i.i.i.i.i.i.i.i.i.i.i.i.i.i.i.i.i.i.i.i.i.i.i.i.i.c y t i.i.i.i.i.i.i.i.",
"i.i.i.i.i.i.i.i.i.i.i.i.x x M j M n x i.i.i.i.i.i.i.i.i.i.i.i.i.i.i.i.i.i.i.i.i.i.i.i.i.i.i.i.i.i.i.i.i.i.c v c i.i.i.i.i.i.i.i.",
"i.i.i.i.i.i.i.i.i.i.i.x x x x v 0 c 0 t i.i.i.i.i.i.i.i.i.i.i.i.i.i.i.i.i.i.i.i.i.i.i.i.i.i.i.i.i.i.i.i.x c t 0 x i.i.i.i.i.i.i.",
"i.i.i.i.i.i.i.i.i.i.x x x v c y y y 0 y u i.i.i.i.i.i.i.i.i.i.i.i.i.i.i.i.i.i.i.i.i.i.i.i.i.i.i.i.i.i.i.x x x x x i.i.i.i.i.i.i.",
"i.i.i.i.i.i.i.i.x x c t y y c n p p p y M y i.i.i.i.i.i.i.i.i.i.i.i.i.i.i.i.i.i.i.i.i.i.i.i.i.i.i.i.i.x c x c 0 x x i.i.i.i.i.i.",
"i.i.i.i.i.i.i.x x c y p p y x 0 p y p p y n x i.i.i.i.i.i.i.i.i.i.i.i.i.i.i.i.i.i.i.i.i.i.i.i.i.i.i.i.c y c c y t c i.i.i.i.i.i.",
"i.i.i.i.i.x x c c y p p p t x y p p p p p t c x i.i.i.i.i.i.i.i.i.i.i.i.i.i.i.i.i.i.i.i.i.i.i.i.i.i.x t p 0 c p p v x i.i.i.i.i.",
"i.i.i.i.x x v y 0 y p p p c x y p p p p y t y c x i.i.i.i.i.i.i.i.i.i.i.i.i.i.i.i.i.i.i.i.i.i.i.i.x c p p t x y p 0 x i.i.i.i.i.",
"i.i.i.x c t p p p t p p p v c y y p p p y y p y c c i.i.i.i.i.i.i.i.i.i.i.i.i.i.i.i.i.i.i.i.i.i.i.x t p p t c y y t n x i.i.i.i.",
"i.i.c c y p p p y y p p y x 0 0 y p p p y t p p p c x i.i.i.i.i.i.i.i.i.i.i.i.i.i.i.i.i.i.i.i.i.x c 0 p p t c y y y p c x i.i.i.",
"i.x v p p p p p p m p p y x y p p p p p p y p p p y c x i.i.~ i.i.i.i.i.i.i.i.i.i.i.i.i.i.i.i.i.x y t t p 0 x y i p p p x i.i.i.",
"i.x i.p p p p p p p p p y c y p p p p p p p p p p p y c c j ! i.i.i.i.i.i.r.i.i.i.i.i.i.i.i.i.x c p y t y y c p p p p p t x i.i.",
"x i.i.i.i.p p p p p p p c v p p p p p p p p p p p p p y M n i.i.i.i.i.i.i.i.r.i.i.i.i.i.i.i.0 x y Q R p p 0 x y p p p p p c i.i.",
"i.i.i.i.i.i.i.p p p p p v y p p p p p p p y y y y p y x M m i.i.i.i.i.i.i.i.r.i.i.i.i.i.i.i.0 0 F =.N p p y c p p p p p p y x i.",
"i.i.i.i.i.i.i.i.p p p y c m p p p p p p p p y 0 0 y x x n c i.i.i.i.i.i.i.i.r.t.i.i.2.5.i.o.H n T <.B p p 0 x i p p p p p i.i.i.",
"i.i.i.i.i.i.i.i.i.p p p v p p p p p p p p p p i y x x y p c x i.i.i.t t i.i.r.w.q.*...1.7.9.8.-.,.t.W i p t x y p p p p i.i.i.i.",
"i.i.i.i.i.i.i.i.i.i.p y v p p p p p p p p p p y c x y p p 0 x i.i.a j b # O.u.6.3.3.I &.e.0.8.w.y.4.V i p y c y p p i.i.i.i.i.i.",
"i.i.i.i.i.i.i.i.i.i.i.0 y p p p p p p p p p y c x 0 p p p v x i.t j m 2 X J } U .. .{ { :.0.E G X.D y p p p c y p i.i.i.i.i.i.i.",
"i.i.i.i.i.i.i.i.i.i.i.x y p p p p M p p p y c x y p p p p y x t y n 3 @ @ X     C  .1.C Y :.8 i i y v y p p c n i.i.i.i.i.i.i.i.",
"i.i.i.i.i.i.i.i.i.i.i.i.i.i.i.p p p p p y c c y y p p p y v x 0 y 4 > > @ X       A %.$...1.L i p p v t p p c c i.i.i.i.i.i.i.i.",
"i.i.i.i.i.i.i.i.i.i.i.i.i.i.i.i.p p p p v c y p p p y t v y v c x 6 6 @   O       7 J @.;.;.#.i.p p y c y p x i.i.i.i.i.i.i.i.i.",
"i.i.i.i.i.i.i.i.i.i.i.i.i.i.i.i.i.p i v v y p p p p p p p p v x 4 6 > X @ @       S S U 1.1.i.i.i.i.i.x c i.i.i.i.i.i.i.i.i.i.i.",
"i.i.i.i.i.i.i.i.i.i.i.i.i.i.i.i.i.i.m c y i p p p p p p p p t 5 6 > . > 2 O       < P { K | i.i.i.i.i.i.i.i.i.i.i.i.i.i.i.i.i.i.",
"i.i.i.i.i.i.i.i.i.i.i.i.i.i.i.i.i.v x n p i.i.i.i.i.i.i.i.i.i.i.6 @ : 6 > + o         Z 6 2 i.i.i.i.i.i.i.i.i.i.i.i.i.i.i.i.i.i.",
"i.i.i.i.i.i.i.i.i.i.i.i.i.i.i.i.i.x i.i.i.i.i.i.i.i.i.i.i.i.i.6 6 O , 1 @ o ; $ X X ; r 9 > 6 i.i.i.i.i.i.i.i.i.i.i.) ] i.i.i.i.",
"i.i.i.i.i.i.i.i.i.i.i.i.i.i.i.i.i.i.i.i.i.i.i.i.i.i.i.i.i.i.i.6 , : 6 > * # X $ % = 9 - 9 @ , 6 i.i.i.i.i.i.i.i.i.j ! ( / i.i.i.",
"i.i.i.i.i.i.i.i.i.i.i.i.i.i.i.i.i.i.i.i.i.i.i.i.i.i.i.i.i.i.i.6 @ > 6 @ o ; $ e s 9 = ; = O @ , 6 6 i.i.i.i.i.i.i.p j f ; i.i.i.",
"i.i.i.i.i.i.i.i.i.i.i.i.i.i.i.i.i.i.i.i.i.i.i.i.i.i.i.i.i.i.6 1 @ , 6 > - + * 9 e 9 + o X     : 6 6 6 6 6 i.i.i.i.i.h ^ i.i.i.i.",
"i.i.i.i.i.i.i.i.i.i.i.i.i.i.i.i.i.i.i.i.i.i.i.i.i.i.i.i.i.i.6 @ O 6 1 @ $ = = 5 % = e y =       > 6 6 , , 1 i.i.i.i.X i.i.i.i.i.",
"i.i.i.i.i.i.i.i.i.i.i.i.i.i.i.i.i.i.i.i.i.i.i.i.i.i.i.i.i.i.1 O > 6 6 @     X = + % ; 0 x X     O , : . O O , i.i.i.  i.i.i.i.i.",
"i.i.i.i.i.i.i.i.i.i.i.i.i.i.i.i.i.i.i.i.i.i.i.i.i.i.i.i.i.i.> O 6 6 6 :           & - - +         .         i.i.i.i.. i.i.i.i.i.",
"i.i.i.i.i.i.i.i.i.i.i.i.i.i.i.i.i.i.i.i.' i.i.i.i.i.i.i.i.6 1 O 6 6 6 ,     O .   o % o                 i.i.i.i.i.i.  i.i.i.i.i.",
"i.i.i.i.i.i.i.i.i.i.i.i.i.i.i.i.i.i.i._ [ ` i.i.i.i.i.i.i.6 1 O 6 6 6 6 >   : , O           > O       i.i.i.i.i.i.i.. i.i.i.i.i.",
"i.i.i.i.i.i.i.i.i.i.i.i.i.i.i.i.i.i.i.z d u i.i.i.i.i.i.i.6 > O 6 6 6 6 6 @ : 6 , O       . , >       i.i.i.i.i.i.. i.i.i.i.i.i.",
"i.i.i.i.i.i.i.i.i.i.i.i.i.i.i.i.i.i.i.g f q i.i.i.i.i.i.i.6 1 : 6 6 6 6 6 @ @ 1 6 1 @       , 1 > O 1 6 6 i.i.  . i.i.i.i.i.i.i.",
"i.i.i.i.i.i.i.i.i.i.i.i.i.i.i.i.i.i.i.! h o i.i.i.i.i.i.i.6 1 : , 6 6 6 1 , O 1 6 6 1 > O   O 1 1 1 1 > @ @   i.i.i.i.i.i.i.i.i.",
"i.i.i.i.i.i.i.i.i.i.i.i.i.i.i.i.i.i.i.i.i.i.  i.i.i.i.i.6 6 6 : , 6 6 6 , , @ : 6 6 6 6 6 , O > > : O     O i.i.i.i.i.i.i.i.i.i.",
"i.i.i.i.i.i.i.i.i.i.i.i.i.i.i.i.i.i.i.i.i.i.  i.i.i.i.i.6 6 6 O > 6 6 6 : , : O 6 , 6 6 , > : @ 1 O         @ i.i.i.i.i.i.i.i.i.",
"i.i.i.i.i.i.i.i.i.i.i.i.i.i.i.i.i.i.i.i.i.i.  i.i.i.i.i.6 6 6 O > 6 6 6 : : 6 O > > @ @ O   O   O       :     i.i.i.i.i.i.i.i.i.",
"i.i.i.i.i.i.i.i.i.i.i.i.i.i.i.i.i.i.i.i.i.i.  i.i.i.i.i.i.O > O > , O   O @ :   O 6 @                   1 >   i.i.i.i.i.i.i.i.i.",
"i.i.i.i.i.i.i.i.i.i.i.i.i.i.i.i.i.i.i.i.i.i.i.i.i.i.i.i.i.  .   : O               > , O                 @ 1 > : i.i.i.i.i.i.i.i.",
"i.i.i.i.i.i.i.i.i.i.i.i.i.i.i.i.i.i.i.i.i.i.i.  i.i.i.i.i.i.    .                   , @                 . 1 6 6 i.i.i.i.i.i.i.i.",
"i.i.i.i.i.i.i.i.i.i.i.i.i.i.i.i.i.i.i.i.i.i.i.. i.i.i.i.i.i.                  .     > @                   1 1 6 6 i.i.i.i.i.i.i.",
"i.i.i.i.i.i.i.i.i.i.i.i.i.i.i.i.i.i.i.i.i.i.i.i.  i.i.i.i.i.i.          .                                 1 1 1 1 1 i.i.i.i.i.i.",
"i.i.i.i.i.i.i.i.i.i.i.i.i.i.i.i.i.i.i.i.i.i.i.i.      . i..                                               1 >     O i.i.i.i.i.i.",
"i.i.i.i.i.i.i.i.i.i.i.i.i.i.i.i.i.i.i.i.i.i.i.i.i.i.i.i.      .                                           1 O     i.i.i.i.i.i.i.",
"i.i.i.i.i.i.i.i.i.i.i.i.i.i.i.i.i.i.i.i.i.i.i.i.i.i.i.i.i.i.                  .                           >       i.i.i.i.i.i.i.",
"i.i.i.i.i.i.i.i.i.i.i.i.i.i.i.i.i.i.i.i.i.i.i.i.i.i.i.i.i.i.i.                              O             O     i.i.i.i.i.i.i.i.",
"i.i.i.i.i.i.i.i.i.i.i.i.i.i.i.i.i.i.i.i.i.i.i.i.i.i.i.i.i.i.i.i.i.. i..                                     i.i.i.i.i.i.i.i.i.i.",
"i.i.i.i.i.i.i.i.i.i.i.i.i.i.i.i.i.i.i.i.i.i.i.i.i.i.i.i.i.i.i.i.i.i.i.                                    i.i.i.i.i.i.i.i.i.i.i.",
"i.i.i.i.i.i.i.i.i.i.i.i.i.i.i.i.i.i.i.i.i.i.i.i.i.i.i.i.i.i.i.i.i.i.i..                         i.i.i.i.i.i.i.i.i.i.i.i.i.i.i.i.",
"i.i.i.i.i.i.i.i.i.i.i.i.i.i.i.i.i.i.i.i.i.i.i.i.i.i.i.i.i.i.i.i.i.i.i.i..                       i.i.i.i.i.i.i.i.i.i.i.i.i.i.i.i.",
"i.i.i.i.i.i.i.i.i.i.i.i.i.i.i.i.i.i.i.i.i.i.i.i.i.i.i.i.i.i.i.i.i.i.i.i.        i.i.i.        i.i.i.i.i.i.i.i.i.i.i.i.i.i.i.i.i.",
"i.i.i.i.i.i.i.i.i.i.i.i.i.i.i.i.i.i.i.i.i.i.i.i.i.i.i.i.i.i.i.i.i.i.i.i.i.  . i.i.i.i.i.    i.i.i.i.i.i.i.i.i.i.i.i.i.i.i.i.i.i."
};
