/* XPM */
static char *result[] = {
/* columns rows colors chars-per-pixel */
"64 60 129 2 ",
"   c #0D0415",
".  c #0F0518",
"X  c #120516",
"o  c #1D0616",
"O  c #110719",
"+  c #1D0618",
"@  c #14091D",
"#  c #250817",
"$  c #2C0A17",
"%  c #23071A",
"&  c #28071B",
"*  c #260919",
"=  c #2C081C",
"-  c #370A1D",
";  c #3C0C1B",
":  c #170B20",
">  c #1B0D24",
",  c #1F0F28",
"<  c #0B1427",
"1  c #1F1028",
"2  c #220D25",
"3  c #2E0D25",
"4  c #370E26",
"5  c #3C0C23",
"6  c #21112A",
"7  c #07293F",
"8  c #392431",
"9  c #420E1C",
"0  c #510F1F",
"q  c #491017",
"w  c #401917",
"e  c #4F1419",
"r  c #5A1117",
"t  c #55111E",
"y  c #5C141B",
"u  c #5D191C",
"i  c #631316",
"p  c #621619",
"a  c #631B1E",
"s  c #6A1E1D",
"d  c #4B201A",
"f  c #5C2119",
"g  c #6F221B",
"h  c #6F291A",
"j  c #73231B",
"k  c #7A271A",
"l  c #7D2A1B",
"z  c #7B321B",
"x  c #460B24",
"c  c #4B0D21",
"v  c #500F20",
"b  c #471020",
"n  c #521221",
"m  c #5A1720",
"M  c #631C20",
"N  c #58282E",
"B  c #4E2935",
"V  c #51363C",
"C  c #0A2B41",
"Z  c #192D43",
"A  c #07364F",
"S  c #073B54",
"D  c #3D3C4F",
"F  c #483541",
"G  c #4F3C42",
"H  c #41394A",
"J  c #094255",
"K  c #15445E",
"L  c #364153",
"P  c #064B66",
"I  c #034C68",
"U  c #06546B",
"Y  c #065773",
"T  c #335F70",
"R  c #3D616B",
"E  c #2E667B",
"W  c #444F59",
"Q  c #43565F",
"!  c #85311C",
"~  c #8B351C",
"^  c #8F381C",
"/  c #8A4526",
"(  c #8D4B2A",
")  c #9F4521",
"_  c #A24923",
"`  c #A54F29",
"'  c #AC552A",
"]  c #B65F2F",
"[  c #CA773D",
"{  c #046C8C",
"}  c #06788C",
"|  c #0E6F91",
" . c #017391",
".. c #007B9D",
"X. c #317A86",
"o. c #207490",
"O. c #03849B",
"+. c #0381A4",
"@. c #038EAE",
"#. c #1F83A2",
"$. c #028FB4",
"%. c #0294B9",
"&. c #0198BF",
"*. c #00A4BE",
"=. c #1EA1B1",
"-. c #14A8BD",
";. c #009BC2",
":. c #01AACD",
">. c #00B7CF",
",. c #0DB6CC",
"<. c #11BACD",
"1. c #00AAD3",
"2. c #00AED8",
"3. c #00BED6",
"4. c #0DBFD4",
"5. c #00B2DD",
"6. c #00C1D9",
"7. c #02C3E4",
"8. c #09CAE0",
"9. c #00C5E8",
"0. c #00CFEC",
"q. c #00D0E7",
"w. c #02D3EA",
"e. c #00D3F0",
"r. c #00DFF5",
"t. c #00E0F6",
"y. c #00E3FA",
"u. c #00E8FE",
"i. c None",
/* pixels */
"i.i.i.i.i.i.i.i.i.i.i.i.i.i.i.i.i.i.i.i.i.i.i.i.i.i.i.i.i.i.i.i.i.i.i.i.i.i.i.i.i.i.i.i.i.i.i.i.i.i.i.i.i.i.i.i.i.i.i.i.i.i.i.i.",
"i.i.i.i.i.i.i.i.i.i.i.i.i.i.i.i.i.i.i.i.i.i.i.i.i.i.i.i.i.i.i.i.i.i.i.i.i.i.i.i.i.i.i.i.i.i.i.i.g i.i.i.i.i.i.i.i.i.i.i.i.i.i.i.",
"i.i.i.i.i.i.i.i.i.i.i.i.i.i.i.i.i.i.i.i.i.i.i.i.i.i.i.i.i.i.i.i.i.i.i.i.i.i.i.i.i.i.i.i.i.i.i.i.l i.i.i.i.i.i.i.i.i.i.i.i.i.i.i.",
"i.i.i.i.i.i.i.i.i.i.i.i.i.i.i.i.i.i.i.i.i.i.i.i.i.i.i.i.i.i.i.i.i.i.i.i.i.i.i.i.i.i.i.i.i.i.i.j ! i.i.i.i.i.i.i.i.i.i.i.i.i.i.i.",
"i.i.i.i.i.i.i.i.i.t i.i.i.i.i.i.i.i.i.i.i.i.i.i.i.i.i.i.i.i.i.i.i.i.i.i.i.i.i.i.i.i.i.i.i.i.i.j ~ i.i.i.i.i.i.i.i.i.i.i.i.i.i.i.",
"i.i.i.i.i.i.i.i.i.y i.i.i.i.i.i.i.i.i.i.i.i.i.i.i.i.i.i.i.i.i.i.i.i.i.i.i.i.i.i.i.i.i.i.i.i.i.M k c i.i.i.i.i.i.i.i.i.i.i.i.i.i.",
"i.i.i.i.i.i.i.i.t y c i.i.i.i.i.i.i.i.i.i.i.i.i.i.i.i.i.i.i.i.i.i.i.i.i.i.i.i.i.i.i.i.i.i.i.n y y m c i.i.i.i.i.i.i.i.i.i.i.i.i.",
"i.i.i.i.i.i.i.i.n c c i.i.i.i.i.i.i.i.i.i.i.i.i.i.i.i.i.i.i.i.i.i.i.i.i.i.i.i.i.i.i.i.i.i.c c s g M x x i.i.i.i.i.i.i.i.i.i.i.i.",
"i.i.i.i.i.i.i.x 0 0 c x i.i.i.i.i.i.i.i.i.i.i.i.i.i.i.i.i.i.i.i.i.i.i.i.i.i.i.i.i.i.i.i.t n c v v c x x x i.i.i.i.i.i.i.i.i.i.i.",
"i.i.i.i.i.i.i.x x x x x i.i.i.i.i.i.i.i.i.i.i.i.i.i.i.i.i.i.i.i.i.i.i.i.i.i.i.i.i.i.i.u y t y y t v c c x x i.i.i.i.i.i.i.i.i.i.",
"i.i.i.i.i.i.x x 0 c x c x i.i.i.i.i.i.i.i.i.i.i.i.i.i.i.i.i.i.i.i.i.i.i.i.i.i.i.i.i.m M t p p y n c y y n c x x i.i.i.i.i.i.i.i.",
"i.i.i.i.i.i.c t y c c y c i.i.i.i.i.i.i.i.i.i.i.i.i.i.i.i.i.i.i.i.i.i.i.i.i.i.i.i.c n y p p p p 0 c y p i t c c x i.i.i.i.i.i.i.",
"i.i.i.i.i.x v p y c 0 p t x i.i.i.i.i.i.i.i.i.i.i.i.i.i.i.i.i.i.i.i.i.i.i.i.i.i.x c 0 p i p p p t x 0 p p p p c c c x i.i.i.i.i.",
"i.i.i.i.i.x 0 p p c t p p c x i.i.i.i.i.i.i.i.i.i.i.i.i.i.i.i.i.i.i.i.i.i.i.i.x c y t y p p p p y c c p p p y t t c x c i.i.i.i.",
"i.i.i.i.c 0 t y y c t p p t x i.i.i.i.i.i.i.i.i.i.i.i.i.i.i.i.i.i.i.i.i.i.i.c c y p t y p p p p y c c p p p t y p p t c x i.i.i.",
"i.i.i.x c p y t y c t p p v c x i.i.i.i.i.i.i.i.i.i.i.i.i.i.i.i.i.i.i.i.i.x c p p p y y p p p y t c c y p p t p p p p y c c i.i.",
"i.i.i.c y p p p y c 0 i 0 t t c i.i.i.i.i.i.i.i.i.i.i.i.i.i.i.i.i.^ i.i.x c y p p p m p p p p p p t c y p p y p p p p p p v x i.",
"i.i.x t p p p p y c y y t u p 0 x i.i.i.i.i.i.i.i.i.r.i.i.i.i.i.i.l j v c p p p p p i p p p p p i p c t p p p p p p p p p i.x i.",
"i.i.c p p p p p y c t p p R Q t c 0 i.i.i.i.i.i.i.r.i.i.i.i.i.i.i.i.n M n p p p p p p p p p p p p p t n p p p p p p p i.i.i.i.x ",
"i.x t p p p p p y c y i p N =.F 0 0 i.i.i.i.i.i.i.t.i.i.i.i.i.i.i.i.m M c y p i y m p p p p p M p i t c p p p p p i.i.i.i.i.i.i.",
"i.i.i.p p p p p p c 0 p p B <.T n H o.i.5.2.i.i.t.r.i.i.i.i.i.i.i.i.c v c c v v t y p p p p p p p p y c y p p p i.i.i.i.i.i.i.i.",
"i.i.i.i.p p p p y c t p i W t.,.-.8.9.7.1...*.q.w.t.i.i.t t i.i.i.x c y t c c y i i p p p p p p p p p c y p p i.i.i.i.i.i.i.i.i.",
"i.i.i.i.i.i.p p y c y p i V 4.y.w.8.0.e.&.I >.3.6.u.O.o b j a i.i.x n p p t x c y p p p p p p p p p p t y p i.i.i.i.i.i.i.i.i.i.",
"i.i.i.i.i.i.i.p t 0 y p i y D X.G E 0.:.{ {  .O.U } J X 2 n j t i.x 0 p p p n x c y p p p p p p p p p y t i.i.i.i.i.i.i.i.i.i.i.",
"i.i.i.i.i.i.i.i.t c y p y v y i i 8 1.Y C 1. .7     X O @ 3 t y t c y p p p i t c c y p p p p p p p p n c i.i.i.i.i.i.i.i.i.i.i.",
"i.i.i.i.i.i.i.i.c c p p t n i p i L 1...$.%.A         @ > > 4 y v x n y p p p p t c c y p p p p p i.i.i.i.i.i.i.i.i.i.i.i.i.i.i.",
"i.i.i.i.i.i.i.i.i.c p y c t p p i.#.;.;.@.J 7       O   : 6 6 x c c t t t y p p p p c v p p p p i.i.i.i.i.i.i.i.i.i.i.i.i.i.i.i.",
"i.i.i.i.i.i.i.i.i.i.i.c c i.i.i.i.i.1.:.U S S     X : @ X > 6 4 c v i p p p p p p p y c t p p i.i.i.i.i.i.i.i.i.i.i.i.i.i.i.i.i.",
"i.i.i.i.i.i.i.i.i.i.i.i.i.i.i.i.i.i.| K { P <       . , > . > 6 x v p p p p p p p p p p v n i.i.i.i.i.i.i.i.i.i.i.i.i.i.i.i.i.i.",
"i.i.i.i.i.i.i.i.i.i.i.i.i.i.i.i.i.i.6 6 Z         o % : 6 @ @ 6 i.i.i.i.i.i.i.i.i.i.i.p v c c i.i.i.i.i.i.i.i.i.i.i.i.i.i.i.i.i.",
"i.i.i.i.] _ i.i.i.i.i.i.i.i.i.i.i.6 > 9 r ; X . $ 9 o @ 6 1 @ 1 6 i.i.i.i.i.i.i.i.i.i.i.i.i.x i.i.i.i.i.i.i.i.i.i.i.i.i.i.i.i.i.",
"i.i.i./ ( ! j i.i.i.i.i.i.i.i.i.6 6 + 9 - ; = % # X # # > 6 : > 6 i.i.i.i.i.i.i.i.i.i.i.i.i.i.i.i.i.i.i.i.i.i.i.i.i.i.i.i.i.i.i.",
"i.i.i.w f j p i.i.i.i.i.i.i.6 6 6 @ X = ; & 9 s e $ ; o : 6 > @ 6 i.i.i.i.i.i.i.i.i.i.i.i.i.i.i.i.i.i.i.i.i.i.i.i.i.i.i.i.i.i.i.",
"i.i.i.i.~ h i.i.i.i.i.6 6 6 6 6 :     X o o 9 t 9 # o - > 6 6 @ 1 6 i.i.i.i.i.i.i.i.i.i.i.i.i.i.i.i.i.i.i.i.i.i.i.i.i.i.i.i.i.i.",
"i.i.i.i.i.X i.i.i.i.1 , 6 6 6 > O     = y e = & 5 = $ # O 6 6 @ : 6 i.i.i.i.i.i.i.i.i.i.i.i.i.i.i.i.i.i.i.i.i.i.i.i.i.i.i.i.i.i.",
"i.i.i.i.i.  i.i.i., @ . X @ > .     O ; t ; % X = X     @ 6 6 > O > i.i.i.i.i.i.i.i.i.i.i.i.i.i.i.i.i.i.i.i.i.i.i.i.i.i.i.i.i.i.",
"i.i.i.i.i.. i.i.i.i..       .         + - 5 &   .       : 6 6 6 @ > i.i.i.i.i.i.i.i.i.i.i.i.i.i.i.i.i.i.i.i.i.i.i.i.i.i.i.i.i.i.",
"i.i.i.i.i.  i.i.i.i.i.i.                o o %   O O .   1 6 6 6 @ > 6 i.i.i.i.i.i.i.i.' i.i.i.i.i.i.i.i.i.i.i.i.i.i.i.i.i.i.i.i.",
"i.i.i.i.i.. i.i.i.i.i.i.i.      O >           O 1 @   > 6 6 6 1 O > 6 i.i.i.i.i.i.i.` [ _ i.i.i.i.i.i.i.i.i.i.i.i.i.i.i.i.i.i.i.",
"i.i.i.i.i.i.. i.i.i.i.i.i..   . > 6         O 1 6 > O 1 6 6 6 6 @ > 6 i.i.i.i.i.i.i.u d z i.i.i.i.i.i.i.i.i.i.i.i.i.i.i.i.i.i.i.",
"i.i.i.i.i.i.i.  . i.i.6 6 > @ : 6 > .     : > 6 1 O : 6 6 6 6 6 @ , 6 i.i.i.i.i.i.i.q f g i.i.i.i.i.i.i.i.i.i.i.i.i.i.i.i.i.i.i.",
"i.i.i.i.i.i.i.i.i.. @ O > 6 6 6 6 O X @ : 6 6 6 1 O > 6 6 6 6 6 : 6 6 i.i.i.i.i.i.i.o k ! i.i.i.i.i.i.i.i.i.i.i.i.i.i.i.i.i.i.i.",
"i.i.i.i.i.i.i.i.i.i.@     O : > : O > 6 6 6 6 6 : @ 1 1 6 6 6 > @ 6 6 6 i.i.i.i.i.  i.i.i.i.i.i.i.i.i.i.i.i.i.i.i.i.i.i.i.i.i.i.",
"i.i.i.i.i.i.i.i.i.@ . X     . > : : > > 6 6 , 6 @ : > : 6 6 6 1 @ 6 6 6 i.i.i.i.i.. i.i.i.i.i.i.i.i.i.i.i.i.i.i.i.i.i.i.i.i.i.i.",
"i.i.i.i.i.i.i.i.i.. . : O     O . O   . : @ > > O 1 : : 1 1 6 > @ , 6 6 i.i.i.i.i.. i.i.i.i.i.i.i.i.i.i.i.i.i.i.i.i.i.i.i.i.i.i.",
"i.i.i.i.i.i.i.i.i.  : >                   : 6 @   : @ O . O 1 > @ : O i.i.i.i.i.i.  i.i.i.i.i.i.i.i.i.i.i.i.i.i.i.i.i.i.i.i.i.i.",
"i.i.i.i.i.i.i.i.: > 6 @                 X 6 :               O : . .   i.i.i.i.i.i.i.i.i.i.i.i.i.i.i.i.i.i.i.i.i.i.i.i.i.i.i.i.i.",
"i.i.i.i.i.i.i.i.6 6 >                   : >                   O     i.i.i.i.i.i.. i.i.i.i.i.i.i.i.i.i.i.i.i.i.i.i.i.i.i.i.i.i.i.",
"i.i.i.i.i.i.i.1 6 6 1 .                 @ @                       . i.i.i.i.i.i.. i.i.i.i.i.i.i.i.i.i.i.i.i.i.i.i.i.i.i.i.i.i.i.",
"i.i.i.i.i.i.1 1 1 6 >                     O                       i.i.i.i.i.i.. i.i.i.i.i.i.i.i.i.i.i.i.i.i.i.i.i.i.i.i.i.i.i.i.",
"i.i.i.i.i.i.@   . > > .                                 .     .       i..   .   i.i.i.i.i.i.i.i.i.i.i.i.i.i.i.i.i.i.i.i.i.i.i.i.",
"i.i.i.i.i.i.i.    O > .                                               . i.i.i.i.i.i.i.i.i.i.i.i.i.i.i.i.i.i.i.i.i.i.i.i.i.i.i.i.",
"i.i.i.i.i.i.i.    . >                                             . i.i.i.i.i.i.i.i.i.i.i.i.i.i.i.i.i.i.i.i.i.i.i.i.i.i.i.i.i.i.",
"i.i.i.i.i.i.i.i.    O .                                           i.i.i.i.i.i.i.i.i.i.i.i.i.i.i.i.i.i.i.i.i.i.i.i.i.i.i.i.i.i.i.",
"i.i.i.i.i.i.i.i.i.i.            .                         i.. i.i.i.i.i.i.i.i.i.i.i.i.i.i.i.i.i.i.i.i.i.i.i.i.i.i.i.i.i.i.i.i.i.",
"i.i.i.i.i.i.i.i.i.i.i.                                    i.i.i.i.i.i.i.i.i.i.i.i.i.i.i.i.i.i.i.i.i.i.i.i.i.i.i.i.i.i.i.i.i.i.i.",
"i.i.i.i.i.i.i.i.i.i.i.i.i.i.i.i.              .         . i.i.i.i.i.i.i.i.i.i.i.i.i.i.i.i.i.i.i.i.i.i.i.i.i.i.i.i.i.i.i.i.i.i.i.",
"i.i.i.i.i.i.i.i.i.i.i.i.i.i.i.i.    .         .       . i.i.i.i.i.i.i.i.i.i.i.i.i.i.i.i.i.i.i.i.i.i.i.i.i.i.i.i.i.i.i.i.i.i.i.i.",
"i.i.i.i.i.i.i.i.i.i.i.i.i.i.i.i.i..       i.i.i.        i.i.i.i.i.i.i.i.i.i.i.i.i.i.i.i.i.i.i.i.i.i.i.i.i.i.i.i.i.i.i.i.i.i.i.i.",
"i.i.i.i.i.i.i.i.i.i.i.i.i.i.i.i.i.i.  . i.i.i.i.i.  . i.i.i.i.i.i.i.i.i.i.i.i.i.i.i.i.i.i.i.i.i.i.i.i.i.i.i.i.i.i.i.i.i.i.i.i.i."
};
