/* XPM */
static char *result[] = {
/* columns rows colors chars-per-pixel */
"47 73 83 1 ",
"  c #020202",
". c #080707",
"X c #0B0A0A",
"o c #150901",
"O c #180A01",
"+ c #130F0E",
"@ c #190E08",
"# c #0F1010",
"$ c #131313",
"% c #1E1D1C",
"& c #240F02",
"* c #271103",
"= c #281102",
"- c #251409",
"; c #211E1E",
": c #25211F",
"> c #252323",
", c #282626",
"< c #2A2827",
"1 c #2C2A2A",
"2 c #302E2E",
"3 c #2F3031",
"4 c #353232",
"5 c #383535",
"6 c #3D3B3B",
"7 c #413E3E",
"8 c #454242",
"9 c #4A4646",
"0 c #4B4748",
"q c #4D4A4A",
"w c #524E4E",
"e c #4E4F50",
"r c #4F5051",
"t c #555151",
"y c #595656",
"u c #565758",
"i c #5D5A5A",
"p c #625E5E",
"a c #646161",
"s c #6B6666",
"d c #676869",
"f c #6D6969",
"g c #736D6D",
"h c #6F7172",
"j c #767171",
"k c #7A7575",
"l c #7E7A7A",
"z c #827D7D",
"x c #858182",
"c c #8B8686",
"v c #8D8989",
"b c #928D8D",
"n c #959191",
"m c #9A9595",
"M c #9A9798",
"N c #9D9A9A",
"B c #A19D9D",
"V c #9D9FA1",
"C c #A4A3A5",
"Z c #A8A4A5",
"A c #ADABAB",
"S c #B1AEAF",
"D c #B3B5B7",
"F c #B4B6B8",
"G c #B8B7B8",
"H c #B7BABC",
"J c #BABABC",
"K c #BEBFC1",
"L c #C0BFC1",
"P c #BEC0C2",
"I c #C3C4C6",
"U c #C5C6C9",
"Y c #C7C9CB",
"T c #C9CACC",
"R c #CCCED1",
"E c #CFD1D4",
"W c #D1D3D6",
"Q c #D3D6D9",
"! c #D7D9DC",
"~ c #D9DBDE",
"^ c #DBDEE1",
"/ c #DDE0E3",
"( c None",
/* pixels */
"(((((((((((((((((((((((((((((((((((((((((((((((",
"(((((((((((((((((((((((((((((((((((((((((((((((",
"(((((((((((((((((((((((((((((((((((((((((((((((",
"(((((((((((((((((((((((((((((((((((((((((((((((",
"(((((((((((((((((((((((((((((((((((((((((((((((",
"((((((((((((((((((((((((>>>>>>>((((((((((((((((",
"((((((((((((((((((((((>677777772>((((((((((((((",
"((((((((((((((((((((>,8papapappw2>>((((((((((((",
"(((((((((((((((((((9wwzccccccccgwq<>(((((((((((",
"((((((((((((((((((0fcZIIIIIIIIKncgw1>((((((((((",
"(((((((((((((((((0fcG~~^/^/^//^ULngw1>(((((((((",
"((((((((((((((((0zbG!^QjuuuuuaU^!Zjsw1>((((((((",
"(((((((((((((((qzBK!Qhr#      9aITAkfw2((((((((",
"((((((((((((((0fmCEQdX #$$$$$   wU!mgft2(((((((",
"(((((((((((((7acNKWd# #;%>>%%.   wUUnga2(((((((",
"((((((((((((,qsmIWdX #;;;;>%X     eUUms2>((((((",
"((((((((((((<0smEE1 $%;;;>i%  .r> #H!Zg91((((((",
"((((((((((((,qsmUfX %;;;>a8X .yr> .qIZgt1((((((",
"((((((((((((,0smI1 +%;;,i8. .yt>%$ $DZgt2((((((",
"((((((((((((,0sBU2 %>%,a8. .uq>;<a+$DCjw1((((((",
"((((((((((((,qsmU3 $%>a7. .yr>%,a6.$DZgt1((((((",
"((((((((((((,qsmU3 %,d7. Xyq>;,a6. $DCgt1((((((",
"((((((((((((,qsmI3 ;a7. Xue>;1a6.  $DZg6,((((((",
"((((((((((((,9fmU3 %6# Xue>%1a6.   #mBf2(((((((",
"((((((((((((,0fmI4 X. .uq,;>a6     Xxza2(((((((",
"((((((((((((>2plCM;   $6,;;;,.    Xals7,(((((((",
"(((((((((((((,5pkN1   .X.XXX      Xsf7,((((((((",
"((((((((((((((>5pkh% X   .. . ...Xas6,(((((((((",
"(((((((((((((((>5pnzNCCCCCCCCCCCVlg7>((((((((((",
"((((((((((((((((,5fmSW!^//^^^^!GAz7,(((((((((((",
"(((((((((((((((<w44skzcCAAAAAACzg7,72((((((((((",
"((((((((((((((>1wy44555shkkhjh05419w2>(((((((((",
"(((((((((((((>18pgpw0924555554<90qypw<>((((((((",
"(((((((((((((>7ivnksstw09q9900wasfsgsq2((((((((",
"(((((((((((((1wZTSMngfffsptyaffgcnmmmy<((((((((",
"(((((((((((((>wK^WTx9xmmzsggjnMntjIWIp2((((((((",
"((((((((((((><wK^~QyyHWWIUUUURWYf8I^Ea2>(((((((",
"((((((((((((>8pJ~!TwtI^^~^^^^^^Wf6K^Es9<(((((((",
"((((((((((((,qxCBBm7wJWWWWWWWWWYs5J^Rgw1(((((((",
"((((((((((((>9fgggf59asssssfdsdsw4vCNct1(((((((",
"((((((((((((>244444,<1<1<<1<<<1<,,56664,(((((((",
"((((((((((((>6qqqqq18wwtttttttw8118qqq8<(((((((",
"((((((((((((%>0twww1qxnncccccnvi37wwww4>(((((((",
"(((((((((((((%><,,>>9anN04447cfe111221>((((((((",
"(((((((((((((((((((;,wbMy,(;qcp1(((((((((((((((",
"(((((((((((((((o***=;wbBp,-:tbp>-==*O((((((((((",
"((((((((((((((((OOOO:tnMp>@;wbi1@OOO(((((((((((",
"(((((((((((((((((((:9cBBp,(>wvs0<((((((((((((((",
"(((((((((((((((((o%9pnCNp,(>wnmsq>o((((((((((((",
"(((((((((((((((((o%8lcvct,*;0xvxw>@((((((((((((",
"(((((((((((((((((($$%>%;%%@+>1>>%X(((((((((((((",
"(((((((((((((((((((((((((((((((((((((((((((((((",
"((((((((((((((((((oo(((((((((((Oo((((((((((((((",
"((((((((((((((((((o&************o((((((((((((((",
"((((((((((((((((((ooOoooooooOoooo((((((((((((((",
"(((((((((((((((((((((((((((((((((((((((((((((((",
"(((((((((((((((((((((oo(((((((oo(((((((((((((((",
"(((((((((((((((((((((o&*******&o(((((((((((((((",
"(((((((((((((((((((((ooooooooooo(((((((((((((((",
"(((((((((((((((((((((((((((((((((((((((((((((((",
"((((((((((((((((((((((((((oo(((((((((((((((((((",
"(((((((((((((((((((((((((((((((((((((((((((((((",
"(((((((((((((((((((((((((((((((((((((((((((((((",
"(((((((((((((((((((((((((((((((((((((((((((((((",
"(((((((((((((((((((((((((((((((((((((((((((((((",
"(((((((((((((((((((((((((((((((((((((((((((((((",
"(((((((((((((((((((((((((((((((((((((((((((((((",
"(((((((((((((((((((((((((((((((((((((((((((((((",
"(((((((((((((((((((((((((((((((((((((((((((((((",
"(((((((((((((((((((((((((((((((((((((((((((((((",
"(((((((((((((((((((((((((((((((((((((((((((((((",
"(((((((((((((((((((((((((((((((((((((((((((((((",
"((((((((((((((((((((((((((((((((((((((((((((((("
};
