/* XPM */
static char *result[] = {
/* columns rows colors chars-per-pixel */
"42 53 82 1 ",
"  c #010101",
". c #0C0604",
"X c #060708",
"o c #0B0B0B",
"O c #120700",
"+ c #150901",
"@ c #1D0C01",
"# c #1B100E",
"$ c #131313",
"% c #1D1C1C",
"& c #200D02",
"* c #2C1203",
"= c #241917",
"- c #201F1F",
"; c #291C1A",
": c #39191A",
"> c #1F1F20",
", c #1F2020",
"< c #242323",
"1 c #292626",
"2 c #272728",
"3 c #2C2A2A",
"4 c #302E2E",
"5 c #353232",
"6 c #393636",
"7 c #3D3A3A",
"8 c #471715",
"9 c #6B0A06",
"0 c #641205",
"q c #621509",
"w c #721F06",
"e c #413E3E",
"r c #454242",
"t c #484545",
"y c #4D4B4B",
"u c #514D4D",
"i c #555252",
"p c #595555",
"a c #565758",
"s c #5C5A5A",
"d c #625E5E",
"f c #656262",
"g c #696666",
"h c #666769",
"j c #6C6A6A",
"k c #726D6D",
"l c #737273",
"z c #797575",
"x c #7D7979",
"c c #817D7D",
"v c #858181",
"b c #8A8686",
"n c #8D8A8A",
"m c #928F8F",
"M c #969292",
"N c #999595",
"B c #979798",
"V c #9D9B9C",
"C c #A29E9E",
"Z c #9C9EA0",
"A c #9EA0A2",
"S c #A5A2A3",
"D c #A8A6A7",
"F c #A7A9AB",
"G c #ADACAD",
"H c #AFAEB0",
"J c #B2B3B5",
"K c #B5B7B9",
"L c #BABCBE",
"P c #BFBEC0",
"I c #C0BFC1",
"U c #BFC1C4",
"Y c #C3C3C5",
"T c #C7C9CC",
"R c #CACCCE",
"E c #CBCED0",
"W c #CFD1D3",
"Q c #D0D2D5",
"! c #D3D6D8",
"~ c #D9DBDE",
"^ c #DBDEE1",
"/ c None",
/* pixels */
"//////////////////////////////////////////",
"//////////<1333331<///////////////////////",
"////////1135yuuuur333/////////////////////",
"///////<4yuuipppiiuur1<///////////////////",
"//////15ysdsdkkkgpppie1<//////////////////",
"/////<4yjVCCCSCSMzzjiie1</////////////////",
"////<4ugDWLLLLLLYWQHjpie1<////////////////",
"///<4ugDWA,%$%%$uUE~Hkgie1////////////////",
"///5ugSWA%      o$aUTIndi71///////////////",
"//3ysSQS%  o%%%$  o<sRFdpie1//////////////",
"//4ujRD> o%%<3$   7yXjKldii7//////////////",
"/3uszZ, X%%<rsX  7f> yTDdiie//////////////",
"/3pCD<X$%><rf$ X6f3,$XjGdii7//////////////",
"/3sDJ$%<-<rs$  6f3,<% sHdii7//////////////",
"/3sSJ$%><rf$  5f3%<iy dHdpie//////////////",
"/3pSJ%%<ef$  5f3%<yao sHdiie//////////////",
"/3pDK$,rf$  5g3%<yso  sHdip7//////////////",
"/3sSK37f%  4f3%<yso   sHdiy7//////////////",
"/3aSKrs$  3h4<<yso    dHdr33//////////////",
"/<6BK3,  3h3,<yso    XhSd7<///////////////",
"//<yD2  %f4<-7do    XaVgpe<///////////////",
"///7SA,X%3-,<<-    XaVkii7////////////////",
"///7nGV, X%%%$    XaAkiue3////////////////",
"////rnSV%        XyVjuy7</////////////////",
"/////5rVn%$$$$$$$yNdi7$X  ////////////////",
"/////<36tcxcvcvvvzpu7yi$$o ///////////////",
"/////3yr46eepspppt46erivnpo///////////////",
"/////4uiuyut444443umxr3fCJf //////////////",
"////14ispipiuiuuuyjVbp7pCPl //////////////",
"////3ydviskkkkkkgiizCx7iNPl //////////////",
"////4ugv7dNCCCCCvt6kCbt3fPl //////////////",
"////4ugc5dG!!!!Tbr5kCVx6sPl //////////////",
"////3ufx5dG~~~^Rbt5kCCcepIl //////////////",
"////3yiy4fG~^^^Rbr5kMCxepIl //////////////",
"////14434dCRRTWLvr5uppiesLl //////////////",
"////3yut4updddddpe144441sYl //////////////",
"////3yur14443444445uuuu6uFf //////////////",
"////13334uppppppie5uuue1;=#O/*@///////////",
"////////4dbbnMNNct34441:q00w/*&///////////",
"////////4t66sCCCbdpppie189///*@///////////",
"////////4uremCCCVNNNNcie<////*&/*@////////",
"////////4ittCCCCCCCCCCce<////*@/*@/+//////",
"////////4ueenmmmmMmmMCce<////*&/*@/*@/////",
"////////133156555565elx7/////*@/*@/*@/*@//",
"/////////////////57</er3////*@//*@/*@/*@//",
"//////////////////3///3/////&///*@/*@/*@//",
"///////////////////////////&////+//+//////",
"////////////////////////+O+@//////////////",
"//////////////////////////////////////////",
"//////////////////////////////////////////",
"//////////////////////////////////////////",
"//////////////////////////////////////////",
"//////////////////////////////////////////"
};
