/* XPM */
static char *result[] = {
/* columns rows colors chars-per-pixel */
"50 52 86 1 ",
"  c #010101",
". c #080707",
"X c #0B0B0B",
"o c #120700",
"O c #140801",
"+ c #1A0B01",
"@ c #131313",
"# c #181717",
"$ c #1E1D1D",
"% c #210E02",
"& c #271002",
"* c #281102",
"= c #201F1F",
"- c #3B1B1A",
"; c #1F2020",
": c #252323",
"> c #292626",
", c #2C2A2A",
"< c #312F2E",
"1 c #2F3031",
"2 c #343232",
"3 c #383636",
"4 c #373839",
"5 c #3D3A3A",
"6 c #4A0701",
"7 c #591604",
"8 c #4B1311",
"9 c #67120A",
"0 c #701007",
"q c #423F3F",
"w c #3F3F40",
"e c #3F4040",
"r c #454343",
"t c #494545",
"y c #474849",
"u c #4D4A4A",
"i c #514E4E",
"p c #555252",
"a c #595555",
"s c #5D5A5A",
"d c #625E5E",
"f c #5F5F61",
"g c #645F60",
"h c #656161",
"j c #696565",
"k c #6D6A6A",
"l c #726F6F",
"z c #6D6E70",
"x c #6F7072",
"c c #747272",
"v c #797575",
"b c #757778",
"n c #797778",
"m c #7C797A",
"M c #807C7C",
"N c #7E7F81",
"B c #7F8082",
"V c #858282",
"C c #8A8686",
"Z c #8D8989",
"A c #918E8E",
"S c #959191",
"D c #999595",
"F c #9E9A9A",
"G c #A29E9E",
"H c #A3A2A4",
"J c #A9A6A7",
"K c #AAA7A8",
"L c #ACAAAB",
"P c #ADAFB1",
"I c #AFB1B3",
"U c #B6B6B7",
"Y c #B7B7B9",
"T c #B6B8BB",
"R c #BABBBD",
"E c #BDBEC1",
"W c #C0C0C1",
"Q c #C6C7C9",
"! c #C7C8CA",
"~ c #CACBCD",
"^ c #D2D4D7",
"/ c #D4D6D9",
"( c #D7DADC",
") c #D8DBDE",
"_ c #DADEE1",
"` c None",
/* pixels */
"``````````````````````````````````````````````````",
"````````````````::>>>>>:``````````````````````````",
"``````````````:>:qttttr,:>````````````````````````",
"`````````````>5ttiappaputr<:``````````````````````",
"````````````:5paaahjjjaappt,:`````````````````````",
"```````````>5pmZZAASSAcjjapt,:````````````````````",
"``````````:qimT~QQQQQQWRYvppt,:```````````````````",
"`````````:5imY^x5eww5yT_)Wvjar,:``````````````````",
"````````:5imU^zX      1yY)EDkat,``````````````````",
"````````5ivU^x@  X###   2uE!napr,`````````````````",
"```````>raH/c@ @#$::@  .i$wRVhapr,````````````````",
"```````5iaKb@ X$::s:  .auXXIRvapi,````````````````",
"``````:qvHz@X#$::srX .pi:#.wRMaai,````````````````",
"``````:qV!i.;;;:srX .ai>== @PMapi,````````````````",
"``````:qVQp@;$:srX .pu:=>g@@PMaai,````````````````",
"``````:qVQp@;:stX  pp:::h5.@PMapi,````````````````",
"``````:qB!i@:stX  pp>;:h5. @Lmaai,````````````````",
"``````:qB!f$auX  pp:$:h5.  @Imaai,````````````````",
"``````:rVQjutX  up>;:h5X   @PMp32`````````````````",
"``````:,cQj1# .up,;:h5X    @PMi,``````````````````",
"```````:5Hs   up,;:sr.    XBZhi,``````````````````",
"````````:bK4 @4,$;:5@    XBAgpi,``````````````````",
"````````:kPH4 .#;;$X    XmAhai3```````````````````",
"`````````tmLH2 .X..    XmSgpi3````````````````````",
"``````````rrAH2       XnVfp:#@  ``````````````````",
"``````````::5ajlllllllcvai4a@   ``````````````````",
"``````````:5r<quuhklkkjq33rujcj@ `````````````````",
"``````````:rpurrt3<2222,kna,uDHZ#```p`````````````",
"``````````>rapaaputttttuAFht2ZKE;`````````````````",
"`````````:5ivjpdjjjjjjapjSZs3CJR:`````````````````",
"`````````>raCatMSSASSAd5iSFs,uFR:`````````````````",
"`````````>qpVirAW~~~!Jg<uSHCu2SR:`````````````````",
"`````````:raVirZ~___)Lg<iSGFs3DR;`````````````````",
"`````````:qad5tZ~)__)Lh<iAGDa3SR;`````````````````",
"`````````><22>tZ!))))Jd<ujjjp3SR:`````````````````",
"`````````:3tt<rgvmmmvlp<<22221DR;`````````````````",
"`````````:rpp2<2<<<<<22>qrtrr2SR;`````````````````",
"`````````:<22>5tttttttr,uppi3>,3X```OO````````````",
"`````````````:tvZCZZACd<<222>8767```%O````````````",
"`````````````>rituZGGGjttttr,89`0```*O````````````",
"`````````````:ru,hDGGGAZZZVdr,``````*O`OO`````````",
"`````````````>rp3MHGGGGGGGGZa,``````*O`%O`````````",
"`````````````:rp2mGGGGFGGGGFd,``````*O`*O`OO``````",
"`````````````:<2,5ttttttttjAs,``````*O`&O`%O`O````",
"``````````````````````:5>`3sq``````*+``*O`*O`O````",
"```````````````````````2```<``````*+```*O`OO`O````",
"`````````````````````````````````*+````+``````````",
"```````````````````````````````OO+````````````````",
"``````````````````````````````````````````````````",
"``````````````````````````````````````````````````",
"``````````````````````````````````````````````````",
"``````````````````````````````````````````````````"
};
