/* XPM */
static char *result[] = {
/* columns rows colors chars-per-pixel */
"52 67 91 1 ",
"  c #020202",
". c #050708",
"X c #0B0B0B",
"o c #120700",
"O c #130801",
"+ c #1C0B01",
"@ c #141414",
"# c #1B1B1B",
"$ c #250704",
"% c #210D02",
"& c #2B0D04",
"* c #261002",
"= c #291102",
"- c #201F1F",
"; c #361815",
": c #311F1F",
"> c #2E1F20",
", c #242323",
"< c #292626",
"1 c #272828",
"2 c #2D2B2B",
"3 c #312E2E",
"4 c #2F2F30",
"5 c #302F30",
"6 c #333232",
"7 c #383636",
"8 c #3E3B3B",
"9 c #57140F",
"0 c #6B0E06",
"q c #600909",
"w c #731807",
"e c #791B06",
"r c #413F3F",
"t c #403F40",
"y c #454343",
"u c #4A4646",
"i c #464748",
"p c #4D4A4A",
"a c #514E4E",
"s c #565252",
"d c #595555",
"f c #5D5959",
"g c #615E5E",
"h c #656262",
"j c #696666",
"k c #6A6768",
"l c #6E6A6A",
"z c #716D6D",
"x c #746F70",
"c c #6F7374",
"v c #757272",
"b c #797474",
"n c #7E7B7B",
"m c #827E7E",
"M c #827F80",
"N c #868282",
"B c #8A8686",
"V c #8D898A",
"C c #918E8E",
"Z c #969292",
"A c #999595",
"S c #9D9A9A",
"D c #A19E9E",
"F c #9E9EA0",
"G c #9FA1A3",
"H c #A4A2A3",
"J c #A8A5A5",
"K c #A6A7A9",
"L c #A7A8AA",
"P c #ACABAC",
"I c #B0AEAF",
"U c #AEAEB0",
"Y c #B2AFB0",
"T c #B3B4B6",
"R c #B5B6B9",
"E c #B7B9BB",
"W c #B9BABC",
"Q c #BDBEC1",
"! c #BEC0C2",
"~ c #C1C3C5",
"^ c #C7CACD",
"/ c #CACCCE",
"( c #CBCED1",
") c #CFD1D3",
"_ c #D1D2D5",
"` c #D4D7D9",
"' c #D6D9DB",
"] c #D8DBDE",
"[ c #DBDEE1",
"{ c #DCE0E3",
"} c None",
/* pixels */
"}}}}}}}}}}}}}}}}}}}}}}}}}}}}}}}}}}}}}}}}}}}}}}}}}}}}",
"}}}}}}}}}}}}}}}}}}}}}}}}}}}}}}}}}}}}}}}}}}}}}}}}}}}}",
"}}}}}}}}}}}}}}}}}}}}}}}}}}}}}}}}}}}}}}}}}}}}}}}}}}}}",
"}}}}}}}}}}}}}}}}}}}}}}}}}}}}}}}}}}}}}}}}}}}}}}}}}}}}",
"}}}}}}}}}}}}}}}}}}}}}}}}}}}}}}}}}}}}}}}}}}}}}}}}}}}}",
"}}}}}}}}}}}}}}}}}}}}}}}}}}}}}}}}}}}}}}}}}}}}}}}}}}}}",
"}}}}}}}}}}}}}}}}}}}}}}}}}}}}}}}}}}}}}}}}}}}}}}}}}}}}",
"}}}}}}}}}}}}}}}}}}}}}}}}}}}}}}}}}}}}}}}}}}}}}}}}}}}}",
"}}}}}}}}}}}}}}}}}}}}}}}}}}}}}}}}}}}}}}}}}}}}}}}}}}}}",
"}}}}}}}}}}}}}}}}}}}}}}}}}}}}}}}}}}}}}}}}}}}}}}}}}}}}",
"}}}}}}}}}}}}}}}}}}}}}}}}}}}}}}}}}}}}}}}}}}}}}}}}}}}}",
"}}}}}}}}}}}}}}}}}}}},<<<2<<<,}}}}}}}}}}}}}}}}}}}}}}}",
"}}}}}}}}}}}}}}}}}}<<,3uppppy2,2}}}}}}}}}}}}}}}}}}}}}",
"}}}}}}}}}}}}}}}}},3upasssdssppy2<}}}}}}}}}}}}}}}}}}}",
"}}}}}}}}}}}}}}}},3uggsgjlljdddsy<,}}}}}}}}}}}}}}}}}}",
"}}}}}}}}}}}}}}},3pgZADADDDAvxldsy2,}}}}}}}}}}}}}}}}}",
"}}}}}}}}}}}}}},3pjF(!!!!!!!^(Rvdsu<,}}}}}}}}}}}}}}}}",
"}}}}}}}}}}}}},2pjS)U4,---,y!([Qbjsu<,}}}}}}}}}}}}}}}",
"}}}}}}}}}}}}}3pjS)U,       #tQ^~Ajsu2}}}}}}}}}}}}}}}",
"}}}}}}}}}}}}2pgD_P,  .###@  .2t!Qldsy3}}}}}}}}}}}}}}",
"}}}}}}}}}}}}6ak^P, .##,2#   2f.yQmgssu<}}}}}}}}}}}}}",
"}}}}}}}}}}}2pfvG, .##,8hX  2j2 2WWzssu<}}}}}}}}}}}}}",
"}}}}}}}}}}}2fSU,.##,,8j@  1j4-@.yWlsdu<}}}}}}}}}}}}}",
"}}}}}}}}}}}2fJR@#,-,8j@  2k6-,, 3Wzssu<}}}}}}}}}}}}}",
"}}}}}}}}}}}2fHT@#-,8h@  2j4--yf 3Wlssu<}}}}}}}}}}}}}",
"}}}}}}}}}}}2fJR##,8j@  2j6-,yg@ 5Wzssu<}}}}}}}}}}}}}",
"}}}}}}}}}}}2fHR#-8h@  2j4-,yg@  6Ezsdu<}}}}}}}}}}}}}",
"}}}}}}}}}}}2fHR48j@  2j5--yh@   6Elsay<}}}}}}}}}}}}}",
"}}}}}}}}}}}2sJEtf@  2k4-,yh@    3Eza2<}}}}}}}}}}}}}}",
"}}}}}}}}}}},7CR2#  2k2-,yhX    .uPjp<}}}}}}}}}}}}}}}",
"}}}}}}}}}}}},uL6  #j4-#6h@    .yHzdu<}}}}}}}}}}}}}}}",
"}}}}}}}}}}}}}8DK4.#,,-,,#    .yHzdsy<}}}}}}}}}}}}}}}",
"}}}}}}}}}}}}}7NPL4 .@##@    .uHzdsy1}}}}}}}}}}}}}}}}",
"}}}}}}}}}}}}}}rmAK6        .uDzsy8>}}}}}}}}}}}}}}}}}",
"}}}}}}}}}}}}}}}28BC2,---#,-rSgar,.   }}}}}}}}}}}}}}}",
"}}}}}}}}}}}}}}},268vmmBBBBBmsurrh,,# }}}}}}}}}}}}}}}",
"}}}}}}}}}}}}}}}3ap6768pappay3rru8mAN2 }}}d}}}}}}}}}}",
"}}}}}}}}}}}}}}}2asasaa636663uZCa2ySPSX}}}}}}}}}}}}}}",
"}}}}}}}}}}}}}}<6shdsgddddddsgCZjuyAYKX}}}}}}}}}}}}}}",
"}}}}}}}}}}}}}}2agBafvbbbbbzspgDVp8NUKX}}}}}}}}}}}}}}",
"}}}}}}}}}}}}}}2ahN7gSPIIIJZa3gDZf3yLGX}}}}}}}}}}}}}}",
"}}}}}}}}}}}}}}3ahB6fH`''])Za6gDDCprPKX}}}}}}}}}}}}}}",
"}}}}}}}}}}}}}}2agb6gJ']][_Za3gDDCprPKX}}}}}}}}}}}}}}",
"}}}}}}}}}}}}}}2yur3gJ]{{[_Aa3gBVmarPKX}}}}}}}}}}}}}}",
"}}}}}}}}}}}}}}<6632gCTRRRINp3yuuurrPJX}}}}}}}}}}}}}}",
"}}}}}}}}}}}}}}3asp3yuuuuuuur<66733rIJX}}}}}}}}}}}}}}",
"}}}}}}}}}}}}}}<yur<3335636633ssssr6vv.}+O}}}}}}}}}}}",
"}}}}}}}}}}}}}}<,,>3szzzzlljp3ryyr<;&$&}*+}}}}}}}}}}}",
"}}}}}}}}}}}}}}}}}}3svbmSDDCa66665>9w0e}*O}+o}}}}}}}}",
"}}}}}}}}}}}}}}}}}}3p72dSDDAzzlzja6:q}}}*O}%+}}}}}}}}",
"}}}}}}}}}}}}}}}}}}3ap8ADDDDDDDDAlu1}}}}*O}*O}}}}}}}}",
"}}}}}}}}}}}}}}}}}}3aprAHDHHDHHDDCa1}}}}%}}*O}+O}}}}}",
"}}}}}}}}}}}}}}}}}}2r87lvxxvvvvvVCa,}}}%O}}*O}*+}}}}}",
"}}}}}}}}}}}}}}}}}},<,,,<<<,<6,3axy}}=%}}}=%}}*o}+O}}",
"}}}}}}}}}}}}}}}}}}}}}}}}}}}3r<}38}}=%}}}=%}}}+O}+O}}",
"}}}}}}}}}}}}}}}}}}}}}}}}}}}}}}}}}}+%}}}=+}}}}o}}o}}}",
"}}}}}}}}}}}}}}}}}}}}}}}}}}}}}}}}}}o}}}}+}}}}}}}}}}}}",
"}}}}}}}}}}}}}}}}}}}}}}}}}}}}}}}}}}}}}}}}}}}}}}}}}}}}",
"}}}}}}}}}}}}}}}}}}}}}}}}}}}}}}}}}}}}}}}}}}}}}}}}}}}}",
"}}}}}}}}}}}}}}}}}}}}}}}}}}}}}}}}}}}}}}}}}}}}}}}}}}}}",
"}}}}}}}}}}}}}}}}}}}}}}}}}}}}}}}}}}}}}}}}}}}}}}}}}}}}",
"}}}}}}}}}}}}}}}}}}}}}}}}}}}}}}}}}}}}}}}}}}}}}}}}}}}}",
"}}}}}}}}}}}}}}}}}}}}}}}}}}}}}}}}}}}}}}}}}}}}}}}}}}}}",
"}}}}}}}}}}}}}}}}}}}}}}}}}}}}}}}}}}}}}}}}}}}}}}}}}}}}",
"}}}}}}}}}}}}}}}}}}}}}}}}}}}}}}}}}}}}}}}}}}}}}}}}}}}}",
"}}}}}}}}}}}}}}}}}}}}}}}}}}}}}}}}}}}}}}}}}}}}}}}}}}}}",
"}}}}}}}}}}}}}}}}}}}}}}}}}}}}}}}}}}}}}}}}}}}}}}}}}}}}"
};
