/* XPM */
static char *result[] = {
/* columns rows colors chars-per-pixel */
"48 58 78 1 ",
"  c #010101",
". c #0C0C0C",
"X c #120700",
"o c #180702",
"O c #140801",
"+ c #151414",
"@ c #1B1B1B",
"# c #230E02",
"$ c #200F0E",
"% c #261002",
"& c #24140F",
"* c #201F1F",
"= c #2F1E1D",
"- c #361D1D",
"; c #242323",
": c #282626",
"> c #2D2728",
", c #2D2B2B",
"< c #312E2E",
"1 c #343333",
"2 c #383636",
"3 c #363738",
"4 c #3D3B3B",
"5 c #59130D",
"6 c #630D05",
"7 c #680907",
"8 c #630B09",
"9 c #6E1805",
"0 c #741D06",
"q c #413E3E",
"w c #444242",
"e c #4A4646",
"r c #4C4A4A",
"t c #514E4E",
"y c #565252",
"u c #595555",
"i c #5E5A5A",
"p c #625E5E",
"a c #656263",
"s c #686565",
"d c #6E696A",
"f c #716C6C",
"g c #767171",
"h c #787575",
"j c #7E7A7A",
"k c #817E7E",
"l c #868282",
"z c #898585",
"x c #8D8B8B",
"c c #918D8D",
"v c #8E8F91",
"b c #959191",
"n c #999696",
"m c #969799",
"M c #9C999A",
"N c #A29F9F",
"B c #A19FA0",
"V c #A5A2A3",
"C c #A5A7A9",
"Z c #A6A8AB",
"A c #ACAAAB",
"S c #B0AEAF",
"D c #B2AFB0",
"F c #B4B4B6",
"G c #B5B7B9",
"H c #B6B8BA",
"J c #B8B9BC",
"K c #BEBEC0",
"L c #C2C3C5",
"P c #C6C7C9",
"I c #C7C9CB",
"U c #C9CACC",
"Y c #CFD1D4",
"T c #D1D3D5",
"R c #D4D6D9",
"E c #D6D8DB",
"W c #DBDEE1",
"Q c None",
/* pixels */
"QQQQQQQQQQQQQQQQQQQQQQQQQQQQQQQQQQQQQQQQQQQQQQQQ",
"QQQQQQQQQQQQQQQQQQQQQQQQQQQQQQQQQQQQQQQQQQQQQQQQ",
"QQQQQQQQQQQQQQQQQQQQQQQQQQQQQQQQQQQQQQQQQQQQQQQQ",
"QQQQQQQQQQQQQQQQQQQQQQQQQQQQQQQQQQQQQQQQQQQQQQQQ",
"QQQQQQQQQQQQQQQQQQQQQQQQQQQQQQQQQQQQQQQQQQQQQQQQ",
"QQQQQQQQQQQQQQQQQQQQQQQQQQQQQQQQQQQQQQQQQQQQQQQQ",
"QQQQQQQQQQQQQQQQQQQQQQQQQQQQQQQQQQQQQQQQQQQQQQQQ",
"QQQQQQQQQQQQQQQQQQQQQQQQQQQQQQQQQQQQQQQQQQQQQQQQ",
"QQQQQQQQQQQQQQQQQQQQQQQQQQQQQQQQQQQQQQQQQQQQQQQQ",
"QQQQQQQQQQQQQQQ:;;;;;;;QQQQQQQQQQQQQQQQQQQQQQQQQ",
"QQQQQQQQQQQQQ;;;<qqwwqq:;QQQQQQQQQQQQQQQQQQQQQQQ",
"QQQQQQQQQQQQ;>qwwyuyyutwwq:QQQQQQQQQQQQQQQQQQQQQ",
"QQQQQQQQQQQ;>wyuyupsapuyutq;;QQQQQQQQQQQQQQQQQQQ",
"QQQQQQQQQQ;>wikzzzccczssputq:;QQQQQQQQQQQQQQQQQQ",
"QQQQQQQQQ;>wixLPPPPPPLGGAsyy4:;QQQQQQQQQQQQQQQQQ",
"QQQQQQQQ;>wixULuereeraTWRAdpyq:;QQQQQQQQQQQQQQQQ",
"QQQQQQQQ>wivILe      .4pYRFzayq:QQQQQQQQQQQQQQQQ",
"QQQQQQQ,wivILe   ++++  .qaYHdyyq:QQQQQQQQQQQQQQQ",
"QQQQQQQ,taLLw  ++;;@.  @t.pKgayyq:QQQQQQQQQQQQQQ",
"QQQQQQ,wydHe  +**1i+  +p4 ,IAdyyr:QQQQQQQQQQQQQQ",
"QQQQQQ,uvV4.++**1a>  @pw*+.iKduue:QQQQQQQQQQQQQQ",
"QQQQQQ,iVH++***1a>  +aq;** <Jdyye:QQQQQQQQQQQQQQ",
"QQQQQQ,uVG+@**1s,  @aq**3i <Jduyr:QQQQQQQQQQQQQQ",
"QQQQQQ,uVG@**3s>  @a4;*3a; <Jduye:QQQQQQQQQQQQQQ",
"QQQQQQ,iVG@@3a:  @aq**3a:  <Jduue:QQQQQQQQQQQQQQ",
"QQQQQQ,uVJ,<s:  @s4**3s;   <Jdyye:QQQQQQQQQQQQQQ",
"QQQQQQ,uVJqi;  @a4**2s;    ,Jfr1<QQQQQQQQQQQQQQQ",
"QQQQQQ;4mK3,  *a4**3s;     3Fde:QQQQQQQQQQQQQQQQ",
"QQQQQQQ:yA;  +s4**1s;     ,Mjir:QQQQQQQQQQQQQQQQ",
"QQQQQQQQ2Vm@ @1@**:>     <Mkuye:QQQQQQQQQQQQQQQQ",
"QQQQQQQQ2cAm@..@@;@     <Mjuyr<QQQQQQQQQQQQQQQQQ",
"QQQQQQQQQrcCm@ .       1mjure,QQQQQQQQQQQQQQQQQQ",
"QQQQQQQQQQ3eMv@.......,bdue@..  QQQQQQQQQQQQQQQQ",
"QQQQQQQQQQ;>4rhjkkkkkljste4p+.. QQQQuQQQQQQQQQQQ",
"QQQQQQQQQQ,re<44wuppppt<24wejzf+ QQQQQQQQQQQQQQQ",
"QQQQQQQQQQ,tytrre<<<<<<4zlt,rMAv.QQQQQQQQQQQQQQQ",
"QQQQQQQQQ;<tiuyuutttttrpnbpwqnDC.QQQQQQQQQQQQQQQ",
"QQQQQQQQQ,rplyuffffffdytdMzrqcDV.QQQQQQQQQQQQQQQ",
"QQQQQQQQQ<taz2ibNNNBNct1pMbu<eAC.QQQQQQQQQQQQQQQ",
"QQQQQQQQQ,tpz2iVTRRRUnt<pMNzeqAC.QQQQQQQQQQQQQQQ",
"QQQQQQQQQ<tpk1pNEWWWTnt<pNVctqAC.QQQQQQQQQQQQQQQ",
"QQQQQQQQQ,ett<pVEWWWTnt<pbnztqZC.QQQQQQQQQQQQQQQ",
"QQQQQQQQQ:<<<<unLUPPKxt<eyyyqqZC.QQQQQQQQQQQQQQQ",
"QQQQQQQQQ,rtw<ryiuuuuyw,<<<<<qAZ.QQQQQQQQQQQQQQQ",
"QQQQQQQQQ>rrw><<<<<<<<<<ttttq2xv.QQOOQQQQQQQQQQQ",
"QQQQQQQQQ;>>><tppppippw<ertw:=&$OQQ#OQOOQQQQQQQQ",
"QQQQQQQQQQQQQ,yklznnnct<<<<<-5060QQ%OQ#OQQQQQQQQ",
"QQQQQQQQQQQQQ<r2<tNNNbsppppe,-8Q7QQ%OQ%OQQQQQQQQ",
"QQQQQQQQQQQQQ,te4cNNNNnMMNcpe:QQQQQ#OQ%OQQQQQQQQ",
"QQQQQQQQQQQQQ,tr4nBBNBNNNNNct:QQQQ#OQQ%OQOOQQQQQ",
"QQQQQQQQQQQQQ,ew2jzlllzllzbct:QQQ%OQQQ#OQ#OQOQQQ",
"QQQQQQQQQQQQQ>::>,>,,,,1,1ijw:QQ#oQQQ#OQQ#OQOQQQ",
"QQQQQQQQQQQQQQQQQQQQQQ<q:Q1w,QQQOQQQOOQQQOOQQQQQ",
"QQQQQQQQQQQQQQQQQQQQQQQ:QQQ:QQQQQQQQOQQQQQQQQQQQ",
"QQQQQQQQQQQQQQQQQQQQQQQQQQQQQQQQQQQQQQQQQQQQQQQQ",
"QQQQQQQQQQQQQQQQQQQQQQQQQQQQQQQQQQQQQQQQQQQQQQQQ",
"QQQQQQQQQQQQQQQQQQQQQQQQQQQQQQQQQQQQQQQQQQQQQQQQ",
"QQQQQQQQQQQQQQQQQQQQQQQQQQQQQQQQQQQQQQQQQQQQQQQQ"
};
