/* XPM */
static char *result[] = {
/* columns rows colors chars-per-pixel */
"45 55 79 1 ",
"  c #010101",
". c #0C0C0C",
"X c #120700",
"o c #130801",
"O c #1D0C01",
"+ c #100F0F",
"@ c #131313",
"# c #1D1C1C",
"$ c #350500",
"% c #3D0E01",
"& c #261002",
"* c #281102",
"= c #201F1F",
"- c #242323",
"; c #292626",
": c #2C2B2B",
"> c #312E2E",
", c #353333",
"< c #393636",
"1 c #3D3A3A",
"2 c #411303",
"3 c #431511",
"4 c #4F1612",
"5 c #6E0E07",
"6 c #741607",
"7 c #403E3E",
"8 c #454343",
"9 c #494646",
"0 c #4D4A4A",
"q c #524E4E",
"w c #565252",
"e c #595555",
"r c #565758",
"t c #5D5A5A",
"y c #625E5E",
"u c #646162",
"i c #696666",
"p c #666768",
"a c #67686A",
"s c #6D6A6A",
"d c #726C6D",
"f c #6D6F71",
"g c #747374",
"h c #7A7676",
"j c #77797A",
"k c #7D7A7A",
"l c #817D7D",
"z c #7D7F81",
"x c #7E8082",
"c c #848383",
"v c #888383",
"b c #8C8A8B",
"n c #928E8E",
"m c #959293",
"M c #9A9696",
"N c #9C9A9A",
"B c #A29E9E",
"V c #A29FA0",
"C c #A4A1A2",
"Z c #A5A7AA",
"A c #A7A9AC",
"S c #ABA9AA",
"D c #B1AEAF",
"F c #B2AFB0",
"G c #B3B3B5",
"H c #B6B8BB",
"J c #BABBBC",
"K c #BFBEC0",
"L c #BFC0C2",
"P c #C2C2C3",
"I c #C6C8CA",
"U c #CACCCF",
"Y c #CBCED1",
"T c #D1D4D6",
"R c #D4D6D9",
"E c #D6D9DC",
"W c #DBDEE1",
"Q c #DFE2E5",
"! c None",
/* pixels */
"!!!!!!!!!!!!!!!!!!!!!!!!!!!!!!!!!!!!!!!!!!!!!",
"!!!!!!!!!!!!!!!!!!!!!!!!!!!!!!!!!!!!!!!!!!!!!",
"!!!!!!!!!!!!!-!!!!!-!!!!!!!!!!!!!!!!!!!!!!!!!",
"!!!!!!!!!!!--;17711<;-!!!!!!!!!!!!!!!!!!!!!!!",
"!!!!!!!!!-;177qwwwwq777-!!!!!!!!!!!!!!!!!!!!!",
"!!!!!!!!-;7qwwwyyyyewww<-!!!!!!!!!!!!!!!!!!!!",
"!!!!!!!-;7ehhhkcvvluyywq<-!!!!!!!!!!!!!!!!!!!",
"!!!!!!-;7elJPPPPPPJCVMywq1;!!!!!!!!!!!!!!!!!!",
"!!!!!-:1elLUjsffffcEQTNuyq1;!!!!!!!!!!!!!!!!!",
"!!!!!;1elKYp.     @pcETZlyq<;!!!!!!!!!!!!!!!!",
"!!!!:1ecJUa.  +++.  @pxRFswq1!!!!!!!!!!!!!!!!",
"!!!!:0uJYp. +@##=+  +<#xPdywq1!!!!!!!!!!!!!!!",
"!!!:1qiLa. @==:0@  .qq :IBsww9;!!!!!!!!!!!!!!",
"!!!:wkmu..@##:t7. .qe=.@kLdww0;!!!!!!!!!!!!!!",
"!!!:eCH@.#-#:t8. +ww-=# :Jdww0;!!!!!!!!!!!!!!",
"!!!:tCH##-#:t8. .0e-=:9 :Jdew9;!!!!!!!!!!!!!!",
"!!!:rVH##=;e8. +0e-=:t8 :Jdww9;!!!!!!!!!!!!!!",
"!!!:rVH##;t8  .qe-#:t1  :Jdww0;!!!!!!!!!!!!!!",
"!!!:rCH;-t8. .0r-#:t1.  :Hfee0;!!!!!!!!!!!!!!",
"!!!:tCK1q8. .0e-=:t8.   >Hdq1<!!!!!!!!!!!!!!!",
"!!!;9CJ18. .0r-#:r7     :Jd0;!!!!!!!!!!!!!!!!",
"!!!-:sG-. .0e-=:t8.    @gMy9;!!!!!!!!!!!!!!!!",
"!!!!=<Za. #q---:0.    @jMyw0;!!!!!!!!!!!!!!!!",
"!!!!!<MGp..+##-#.    @gMyeq1!!!!!!!!!!!!!!!!!",
"!!!!!,iBGp. .+..    @gMyeq1!!!!!!!!!!!!!!!!!!",
"!!!!!!,tdDp.       @gbyq:-@ !!!!!!!!!!!!!!!!!",
"!!!!!!!-:yhqqwqwqwqybtq17    !!!!!!!!!!!!!!!!",
"!!!!!!!;<<>yuikkkkkg7<<7yww1 !!!!!!!!!!!!!!!!",
"!!!!!!!:qw7711<1<11<>yy9,sNNr !!!!!!!!!!!!!!!",
"!!!!!!-:qewwwq77111<qNmw<1NFA+!!!!!!!!!!!!!!!",
"!!!!!!;1edewyyyyyyyeylMh07NDZ+!!!!!!!!!!!!!!!",
"!!!!!!:qyb9ylvvvvvkw7yNn0,sSZ+!!!!!!!!!!!!!!!",
"!!!!!!:qyv<eBJKKKJmq>yMMd<7SZ.!!!!!!!!!!!!!!!",
"!!!!!!:quv<tCEQEWTMq>yBBnq7SA.!!!!!!!!!!!!!!!",
"!!!!!!:qts,eCEEWWTmq>yMBn07SZ.!!!!!!!!!!!!!!!",
"!!!!!!;11<:tCEWQETMq>yhlh07CZ.!!!!!!!!!!!!!!!",
"!!!!!!;11<:ekMMMMmhq><<<7,7SZ.!!!!!!!!!!!!!!!",
"!!!!!!:qwq><111<<<7<;<777,7SS.!!!!!!!!!!!!!!!",
"!!!!!!;17<:1<111<7<<>weeq7;ww.!!!!!!!!!!!!!!!",
"!!!!!!!-!-:rkkkkhlhq;7<1<-4%$%!!!!!!!!!!!!!!!",
"!!!!!!!!!!:qyudNBBnw11<7<;4656!!!!!!!!!!!!!!!",
"!!!!!!!!!!:q<>iMBBMlkklgw<;!!!!!!Oo!!!!!!!!!!",
"!!!!!!!!!!:q97MBBBBBBBBMdq;!!!!!!*o!Oo!!!!!!!",
"!!!!!!!!!!>qq7MBCBBBBBBCnq;!!!!!!*o!*o!!!!!!!",
"!!!!!!!!!!;1<>tuuyuuyuiln0;!!!!!*O!!*o!!!!!!!",
"!!!!!!!!!!!-!!!!!!=;<-;9s7!!!!!*O!!!*o!!!!!!!",
"!!!!!!!!!!!!!!!!!!!><!!>7!!!!!*O!!!*O!!Oo!!!!",
"!!!!!!!!!!!!!!!!!!!!!!!!!!!!!!O!!!OO!!!Oo!!!!",
"!!!!!!!!!!!!!!!!!!!!!!!!!!!!!!!!!!X!!!!!!!!!!",
"!!!!!!!!!!!!!!!!!!!!!!!!!!!!!!!!!!!!!!!!!!!!!",
"!!!!!!!!!!!!!!!!!!!!!!!!!!!!!!!!!!!!!!!!!!!!!",
"!!!!!!!!!!!!!!!!!!!!!!!!!!!!!!!!!!!!!!!!!!!!!",
"!!!!!!!!!!!!!!!!!!!!!!!!!!!!!!!!!!!!!!!!!!!!!",
"!!!!!!!!!!!!!!!!!!!!!!!!!!!!!!!!!!!!!!!!!!!!!",
"!!!!!!!!!!!!!!!!!!!!!!!!!!!!!!!!!!!!!!!!!!!!!"
};
