/* XPM */
static char *result[] = {
/* columns rows colors chars-per-pixel */
"50 52 86 1 ",
"  c #010101",
". c #080707",
"X c #0B0B0B",
"o c #120700",
"O c #140801",
"+ c #1A0B01",
"@ c #131313",
"# c #181717",
"$ c #1E1D1D",
"% c #210E02",
"& c #271002",
"* c #281102",
"= c #201F1F",
"- c #3B1B1A",
"; c #1F2020",
": c #252323",
"> c #292626",
", c #2C2A2A",
"< c #312F2E",
"1 c #2F3031",
"2 c #343232",
"3 c #383636",
"4 c #373839",
"5 c #3D3A3A",
"6 c #4A0701",
"7 c #591604",
"8 c #4B1311",
"9 c #67120A",
"0 c #701007",
"q c #423F3F",
"w c #3F3F40",
"e c #3F4040",
"r c #454343",
"t c #494545",
"y c #474849",
"u c #4D4A4A",
"i c #514E4E",
"p c #555252",
"a c #595555",
"s c #5D5A5A",
"d c #625E5E",
"f c #5F5F61",
"g c #645F60",
"h c #656161",
"j c #696565",
"k c #6D6A6A",
"l c #726F6F",
"z c #6D6E70",
"x c #6F7072",
"c c #747272",
"v c #797575",
"b c #757778",
"n c #797778",
"m c #7C797A",
"M c #807C7C",
"N c #7E7F81",
"B c #7F8082",
"V c #858282",
"C c #8A8686",
"Z c #8D8989",
"A c #918E8E",
"S c #959191",
"D c #999595",
"F c #9E9A9A",
"G c #A29E9E",
"H c #A3A2A4",
"J c #A9A6A7",
"K c #AAA7A8",
"L c #ACAAAB",
"P c #ADAFB1",
"I c #AFB1B3",
"U c #B6B6B7",
"Y c #B7B7B9",
"T c #B6B8BB",
"R c #BABBBD",
"E c #BDBEC1",
"W c #C0C0C1",
"Q c #C6C7C9",
"! c #C7C8CA",
"~ c #CACBCD",
"^ c #D2D4D7",
"/ c #D4D6D9",
"( c #D7DADC",
") c #D8DBDE",
"_ c #DADEE1",
"` c None",
/* pixels */
"``````````````````````````````````````````````````",
"``````````````````````````>>>>>>::````````````````",
"````````````````````````>:<rttrtq::>``````````````",
"``````````````````````:<rttppapaitt5>`````````````",
"`````````````````````:,tpapahjjdaaap5:````````````",
"````````````````````:,tpajjcSSSAZZZmp5>```````````",
"```````````````````:,tpavYRWQQ!!Q!!Ymi5:``````````",
"``````````````````:,rahvR_)Tywqqr5l^Rvp4>`````````",
"``````````````````,takDE)Ry1      Xz^Tvp3>````````",
"`````````````````,rpam!Ey2  .@#@@  @z^Ubi5````````",
"````````````````,tpahVT5#pX  X::$#@ @c^Har>```````",
"````````````````,ipavRI@Xua.  >s:;$X @bKai5```````",
"````````````````,ipaMRr.#:ia. Xrh:;$#X@zHvq:``````",
"````````````````,ipamP@ ;;>up. Xrs::;$Xi!Cq:``````",
"````````````````,ipaNI@@f>;>up. Xrs:;:@i!Mq:``````",
"````````````````,ipamL@.5h>$>pp  Xrs:;@p!Vq:``````",
"````````````````,ippMP@ .5h>$>pi  Xus:@iQBe:``````",
"````````````````,ipaMP@  .5h>$>pp  Xrs$fQBe>``````",
"`````````````````<3pMP@   X5f>;>pu  @rujQV5>``````",
"``````````````````,pMP@    .ef:;,au  @2jQc,>``````",
"``````````````````<idZBX    X5d:$,pu  .sH4:```````",
"``````````````````<ipdAVX    @4::$,4X 4Jm:````````",
"```````````````````3iadAmX    X=$$@..4HPk:````````",
"````````````````````3ipgANX    .XX. 4HKMr`````````",
"``````````````````  X#>idVm.       2HZtq``````````",
"`````````````````` . @a3usvccclclllka5::``````````",
"````````````````` @jckiq425jkkkkditq,t5:``````````",
"`````````````p```@ZHSu<amk,222223rttuar:``````````",
"`````````````````;EJZ2rdGAutrttrupapaar>``````````",
"`````````````````:RJZ3dCAkpajjjjjjdahvi3>`````````",
"`````````````````;RFt<dGAi5dASSSASMtaCar>`````````",
"`````````````````;RS<uCGSi<gJ!~~!WAriCpr:`````````",
"`````````````````:TD4sDGSi<gL))__^ZriMar:`````````",
"`````````````````;RS4sDGAi2gK(_)_~Zrqdaq>`````````",
"`````````````````:RS2ikkhu<dJ/(()!Zt>2<,:`````````",
"`````````````````:RS2<<22<<almvMMvhr<rtq:`````````",
"`````````````````:TA2qrttq>2<<<<<<2<2ppr>`````````",
"````````````OO```X3<>3pppt<rttttttrq>22<:`````````",
"````````````O%```7678><22<<dZZZZCCmr:`````````````",
"````````````O*```0`9-<rtttujGGGZitir:`````````````",
"`````````OO`O*``````,rdCZZCAGGGDd<ur>`````````````",
"`````````O%`O*``````,aCGGGGGGGGGM2ar:`````````````",
"``````OO`O*`O*``````,dDGGGGGGFFGM2pr:`````````````",
"````O`O%`O*`+*``````<sAjurttytyuq><<>`````````````",
"````O`O&`O*``+*``````5s3`,5:``````````````````````",
"````O`O+`O*```+*``````<```<```````````````````````",
"``````````+````+*`````````````````````````````````",
"````````````````+Oo```````````````````````````````",
"``````````````````````````````````````````````````",
"``````````````````````````````````````````````````",
"``````````````````````````````````````````````````",
"``````````````````````````````````````````````````"
};
