/* XPM */
static char *result[] = {
/* columns rows colors chars-per-pixel */
"52 67 91 1 ",
"  c #020202",
". c #050708",
"X c #0B0B0B",
"o c #120700",
"O c #130801",
"+ c #1C0B01",
"@ c #141414",
"# c #1B1B1B",
"$ c #250704",
"% c #210D02",
"& c #2B0D04",
"* c #261002",
"= c #291102",
"- c #201F1F",
"; c #361815",
": c #311F1F",
"> c #2E1F20",
", c #242323",
"< c #292626",
"1 c #272828",
"2 c #2D2B2B",
"3 c #312E2E",
"4 c #2F2F30",
"5 c #302F30",
"6 c #333232",
"7 c #383636",
"8 c #3E3B3B",
"9 c #57140F",
"0 c #6B0E06",
"q c #600909",
"w c #731807",
"e c #791B06",
"r c #413F3F",
"t c #403F40",
"y c #454343",
"u c #4A4646",
"i c #464748",
"p c #4D4A4A",
"a c #514E4E",
"s c #565252",
"d c #595555",
"f c #5D5959",
"g c #615E5E",
"h c #656262",
"j c #696666",
"k c #6A6768",
"l c #6E6A6A",
"z c #716D6D",
"x c #746F70",
"c c #6F7374",
"v c #757272",
"b c #797474",
"n c #7E7B7B",
"m c #827E7E",
"M c #827F80",
"N c #868282",
"B c #8A8686",
"V c #8D898A",
"C c #918E8E",
"Z c #969292",
"A c #999595",
"S c #9D9A9A",
"D c #A19E9E",
"F c #9E9EA0",
"G c #9FA1A3",
"H c #A4A2A3",
"J c #A8A5A5",
"K c #A6A7A9",
"L c #A7A8AA",
"P c #ACABAC",
"I c #B0AEAF",
"U c #AEAEB0",
"Y c #B2AFB0",
"T c #B3B4B6",
"R c #B5B6B9",
"E c #B7B9BB",
"W c #B9BABC",
"Q c #BDBEC1",
"! c #BEC0C2",
"~ c #C1C3C5",
"^ c #C7CACD",
"/ c #CACCCE",
"( c #CBCED1",
") c #CFD1D3",
"_ c #D1D2D5",
"` c #D4D7D9",
"' c #D6D9DB",
"] c #D8DBDE",
"[ c #DBDEE1",
"{ c #DCE0E3",
"} c None",
/* pixels */
"}}}}}}}}}}}}}}}}}}}}}}}}}}}}}}}}}}}}}}}}}}}}}}}}}}}}",
"}}}}}}}}}}}}}}}}}}}}}}}}}}}}}}}}}}}}}}}}}}}}}}}}}}}}",
"}}}}}}}}}}}}}}}}}}}}}}}}}}}}}}}}}}}}}}}}}}}}}}}}}}}}",
"}}}}}}}}}}}}}}}}}}}}}}}}}}}}}}}}}}}}}}}}}}}}}}}}}}}}",
"}}}}}}}}}}}}}}}}}}}}}}}}}}}}}}}}}}}}}}}}}}}}}}}}}}}}",
"}}}}}}}}}}}}}}}}}}}}}}}}}}}}}}}}}}}}}}}}}}}}}}}}}}}}",
"}}}}}}}}}}}}}}}}}}}}}}}}}}}}}}}}}}}}}}}}}}}}}}}}}}}}",
"}}}}}}}}}}}}}}}}}}}}}}}}}}}}}}}}}}}}}}}}}}}}}}}}}}}}",
"}}}}}}}}}}}}}}}}}}}}}}}}}}}}}}}}}}}}}}}}}}}}}}}}}}}}",
"}}}}}}}}}}}}}}}}}}}}}}}}}}}}}}}}}}}}}}}}}}}}}}}}}}}}",
"}}}}}}}}}}}}}}}}}}}}}}}}}}}}}}}}}}}}}}}}}}}}}}}}}}}}",
"}}}}}}}}}}}}}}}}}}}}}}},<<2<<<,,}}}}}}}}}}}}}}}}}}}}",
"}}}}}}}}}}}}}}}}}}}}}<<<yppppu2<<<}}}}}}}}}}}}}}}}}}",
"}}}}}}}}}}}}}}}}}}},2uausddddsapu3,}}}}}}}}}}}}}}}}}",
"}}}}}}}}}}}}}}}}}},<ysdddjlllfdffp3<}}}}}}}}}}}}}}}}",
"}}}}}}}}}}}}}}}}}<<ysdzzbCDDSSSSZhu3<}}}}}}}}}}}}}}}",
"}}}}}}}}}}}}}}}},2uddzW/^~QQQ!!!(Dhp2<}}}}}}}}}}}}}}",
"}}}}}}}}}}}}}}},<ydjbW]/Qy,,-,,2P)Shp2<}}}}}}}}}}}}}",
"}}}}}}}}}}}}}}}2usjZ~^Wy#.      1U)Hhp3}}}}}}}}}}}}}",
"}}}}}}}}}}}}}}2usdzW~y2.  @###.  ,P(Hgp2}}}}}}}}}}}}",
"}}}}}}}}}}}}}<ysdhn!y.f<  .#2,##. ,P^ka6}}}}}}}}}}}}",
"}}}}}}}}}}}}}<udslEW1 2k<  .g8,-#..,Gvfp2}}}}}}}}}}}",
"}}}}}}}}}}}}}<psslWi.@,6j1  #ht,-##.<PSf2}}}}}}}}}}}",
"}}}}}}}}}}}}}<usdlW2 <,-6j1  #hr,,##@TJf2}}}}}}}}}}}",
"}}}}}}}}}}}}}<usslW4 fy,#6k<. @h8,-##THf2}}}}}}}}}}}",
"}}}}}}}}}}}}}<udszE5 @hy,#6k<  @ht,##THf2}}}}}}}}}}}",
"}}}}}}}}}}}}}<udslE6  @gy,-6k2  @j8-#THf2}}}}}}}}}}}",
"}}}}}}}}}}}}}<yaszE4   @gy,-4j2  @h84WHf2}}}}}}}}}}}",
"}}}}}}}}}}}}}}<2pzE5    @gy,#6k2  @ftWHs2}}}}}}}}}}}",
"}}}}}}}}}}}}}}}<ujPi.    @hy<#4k2. #<WZ7,}}}}}}}}}}}",
"}}}}}}}}}}}}}}}<pdzHy.    Xj6#,2j#  6Li,}}}}}}}}}}}}",
"}}}}}}}}}}}}}}}<ysdzHi.    #,--,,@.2KH7}}}}}}}}}}}}}",
"}}}}}}}}}}}}}}}}2ysszHi.    @###. 4LLN7}}}}}}}}}}}}}",
"}}}}}}}}}}}}}}}}},8yszFy.        6LAN8}}}}}}}}}}}}}}",
"}}}}}}}}}}}}}}}    ,ysgS8,,#-,--2CV8<}}}}}}}}}}}}}}}",
"}}}}}}}}}}}}}}} @,<j8rusnBBBBNmmb862<}}}}}}}}}}}}}}}",
"}}}}}}}}}}s}}}.<NAm8uyr3yapaap7666pa2}}}}}}}}}}}}}}}",
"}}}}}}}}}}}}}}.FPSu2aCZu366366assssa2}}}}}}}}}}}}}}}",
"}}}}}}}}}}}}}}XLYSyuhCCgsddddddfddhs7<}}}}}}}}}}}}}}",
"}}}}}}}}}}}}}}XGPN7pCDhpszbbbbbxfaBga2}}}}}}}}}}}}}}",
"}}}}}}}}}}}}}}XKPy3gZDg3aCPIIPISg7Nga3}}}}}}}}}}}}}}",
"}}}}}}}}}}}}}}XHPrpCDDg3aZ)]''`Jf6Nja2}}}}}}}}}}}}}}",
"}}}}}}}}}}}}}}XKPraCDDg3aZ_[]]]Jg6bga3}}}}}}}}}}}}}}",
"}}}}}}}}}}}}}}XKPrumVBg3aA_[{{]Jg3ruy2}}}}}}}}}}}}}}",
"}}}}}}}}}}}}}}XHPrruuuy3aNITTTTCf2366<}}}}}}}}}}}}}}",
"}}}}}}}}}}}}}}XKIr36666<ruuuuuuur3psa3}}}}}}}}}}}}}}",
"}}}}}}}}}}}O+}.vb6rasss3366666363<ryr1}}}}}}}}}}}}}}",
"}}}}}}}}}}}O*}&$&;:ruur2ujzjlzzzd3<<<>}}}}}}}}}}}}}}",
"}}}}}}}}O+}O*}e0w9>36666sCDDDnbvd2}}}}}}}}}}}}}}}}}}",
"}}}}}}}}O%}O*}}}q:6ajzlzzADDSf26p3}}}}}}}}}}}}}}}}}}",
"}}}}}}}}O=}O*}}}}<plZDDDDDDDDA8pa3}}}}}}}}}}}}}}}}}}",
"}}}}}O+}O*}}%}}}},aCDHDHDHDHDArps2}}}}}}}}}}}}}}}}}}",
"}}}}}O%}O*}}O%}}}<aCVbvvbxxxvl6rr2}}}}}}}}}}}}}}}}}}",
"}}O+}O*}}%=}}}%=}}rva2,61>,<<,,<<,}}}}}}}}}}}}}}}}}}",
"}}O+}O+}}}%=}}}%=}}83}<83}}}}}}}}}}}}}}}}}}}}}}}}}}}",
"}}}O}}O}}}}%=}}}++}}}}}}}}}}}}}}}}}}}}}}}}}}}}}}}}}}",
"}}}}}}}}}}}}+}}}}o}}}}}}}}}}}}}}}}}}}}}}}}}}}}}}}}}}",
"}}}}}}}}}}}}}}}}}}}}}}}}}}}}}}}}}}}}}}}}}}}}}}}}}}}}",
"}}}}}}}}}}}}}}}}}}}}}}}}}}}}}}}}}}}}}}}}}}}}}}}}}}}}",
"}}}}}}}}}}}}}}}}}}}}}}}}}}}}}}}}}}}}}}}}}}}}}}}}}}}}",
"}}}}}}}}}}}}}}}}}}}}}}}}}}}}}}}}}}}}}}}}}}}}}}}}}}}}",
"}}}}}}}}}}}}}}}}}}}}}}}}}}}}}}}}}}}}}}}}}}}}}}}}}}}}",
"}}}}}}}}}}}}}}}}}}}}}}}}}}}}}}}}}}}}}}}}}}}}}}}}}}}}",
"}}}}}}}}}}}}}}}}}}}}}}}}}}}}}}}}}}}}}}}}}}}}}}}}}}}}",
"}}}}}}}}}}}}}}}}}}}}}}}}}}}}}}}}}}}}}}}}}}}}}}}}}}}}",
"}}}}}}}}}}}}}}}}}}}}}}}}}}}}}}}}}}}}}}}}}}}}}}}}}}}}",
"}}}}}}}}}}}}}}}}}}}}}}}}}}}}}}}}}}}}}}}}}}}}}}}}}}}}"
};
