/* XPM */
static char *result[] = {
/* columns rows colors chars-per-pixel */
"48 58 78 1 ",
"  c #010101",
". c #0C0C0C",
"X c #120700",
"o c #180702",
"O c #140801",
"+ c #151414",
"@ c #1B1B1B",
"# c #230E02",
"$ c #200F0E",
"% c #261002",
"& c #24140F",
"* c #201F1F",
"= c #2F1E1D",
"- c #361D1D",
"; c #242323",
": c #282626",
"> c #2D2728",
", c #2D2B2B",
"< c #312E2E",
"1 c #343333",
"2 c #383636",
"3 c #363738",
"4 c #3D3B3B",
"5 c #59130D",
"6 c #630D05",
"7 c #680907",
"8 c #630B09",
"9 c #6E1805",
"0 c #741D06",
"q c #413E3E",
"w c #444242",
"e c #4A4646",
"r c #4C4A4A",
"t c #514E4E",
"y c #565252",
"u c #595555",
"i c #5E5A5A",
"p c #625E5E",
"a c #656263",
"s c #686565",
"d c #6E696A",
"f c #716C6C",
"g c #767171",
"h c #787575",
"j c #7E7A7A",
"k c #817E7E",
"l c #868282",
"z c #898585",
"x c #8D8B8B",
"c c #918D8D",
"v c #8E8F91",
"b c #959191",
"n c #999696",
"m c #969799",
"M c #9C999A",
"N c #A29F9F",
"B c #A19FA0",
"V c #A5A2A3",
"C c #A5A7A9",
"Z c #A6A8AB",
"A c #ACAAAB",
"S c #B0AEAF",
"D c #B2AFB0",
"F c #B4B4B6",
"G c #B5B7B9",
"H c #B6B8BA",
"J c #B8B9BC",
"K c #BEBEC0",
"L c #C2C3C5",
"P c #C6C7C9",
"I c #C7C9CB",
"U c #C9CACC",
"Y c #CFD1D4",
"T c #D1D3D5",
"R c #D4D6D9",
"E c #D6D8DB",
"W c #DBDEE1",
"Q c None",
/* pixels */
"QQQQQQQQQQQQQQQQQQQQQQQQQQQQQQQQQQQQQQQQQQQQQQQQ",
"QQQQQQQQQQQQQQQQQQQQQQQQQQQQQQQQQQQQQQQQQQQQQQQQ",
"QQQQQQQQQQQQQQQQQQQQQQQQQQQQQQQQQQQQQQQQQQQQQQQQ",
"QQQQQQQQQQQQQQQQQQQQQQQQQQQQQQQQQQQQQQQQQQQQQQQQ",
"QQQQQQQQQQQQQQQQQQQQQQQQQQQQQQQQQQQQQQQQQQQQQQQQ",
"QQQQQQQQQQQQQQQQQQQQQQQQQQQQQQQQQQQQQQQQQQQQQQQQ",
"QQQQQQQQQQQQQQQQQQQQQQQQQQQQQQQQQQQQQQQQQQQQQQQQ",
"QQQQQQQQQQQQQQQQQQQQQQQQQQQQQQQQQQQQQQQQQQQQQQQQ",
"QQQQQQQQQQQQQQQQQQQQQQQQQQQQQQQQQQQQQQQQQQQQQQQQ",
"QQQQQQQQQQQQQQQQQQQQQQQQQ;;;;;;;:QQQQQQQQQQQQQQQ",
"QQQQQQQQQQQQQQQQQQQQQQQ::4qqqwq>;;;QQQQQQQQQQQQQ",
"QQQQQQQQQQQQQQQQQQQQQ>qqwyuuuyyewq>;QQQQQQQQQQQQ",
"QQQQQQQQQQQQQQQQQQQ;:qtuyupaapuuuyw:;QQQQQQQQQQQ",
"QQQQQQQQQQQQQQQQQQ;:qtupaszvcczlzkiw,;QQQQQQQQQQ",
"QQQQQQQQQQQQQQQQQ;:qtusCHHLIPPPPPLcuw:;QQQQQQQQQ",
"QQQQQQQQQQQQQQQQ;:qtpdAEWTaeerreuLUxpw,;QQQQQQQQ",
"QQQQQQQQQQQQQQQQ:qypxFRYaq.      eLIviw,QQQQQQQQ",
"QQQQQQQQQQQQQQQ:qyufHYaq.  .+++   eLIxiw,QQQQQQQ",
"QQQQQQQQQQQQQQ:qtupgKi.r@  .@;;++  wLLst,QQQQQQQ",
"QQQQQQQQQQQQQQ:ruyfSI, 4p@  .i1;*@  wGdye,QQQQQQ",
"QQQQQQQQQQQQQQ:eyufKi.+*wp+  ,s1**++.qBxu>QQQQQQ",
"QQQQQQQQQQQQQQ:euyfH, @;@wa@  ,s1@;*++HVi,QQQQQQ",
"QQQQQQQQQQQQQQ:rttfJ, i3;*qa@  ,s3*;@+GVu,QQQQQQ",
"QQQQQQQQQQQQQQ:euufH< :s3**4a@  :a3*@@HVu,QQQQQQ",
"QQQQQQQQQQQQQQ:eyydH,  ;a3;*4a@  :s1@@HVi,QQQQQQ",
"QQQQQQQQQQQQQQ:eyufH<   ;s2@;4a@  :s<,JVu>QQQQQQ",
"QQQQQQQQQQQQQQQ<1rdK<    ;a3*;4a@  :i4KVu,QQQQQQ",
"QQQQQQQQQQQQQQQQ:rdG3     ;s3@;4s@  ,3Hm4:QQQQQQ",
"QQQQQQQQQQQQQQQQ:eijM<     ;s1@;4a+  ;Ay;QQQQQQQ",
"QQQQQQQQQQQQQQQQ:eyujm<     ,;**;<@ @mV2QQQQQQQQ",
"QQQQQQQQQQQQQQQQQ<ryijM<     @@*@..@mSc2QQQQQQQQ",
"QQQQQQQQQQQQQQQQQQ>etujM,     .   @mCvrQQQQQQQQQ",
"QQQQQQQQQQQQQQQQ   .*eufm,.......@cMe3QQQQQQQQQQ",
"QQQQQQQQQQQuQQQQ ..+p4wtajlkkkkjjhr4,:QQQQQQQQQQ",
"QQQQQQQQQQQQQQQ +fzjee431yipppiq44,er>QQQQQQQQQQ",
"QQQQQQQQQQQQQQQ.vAMr,rlz4><<<<<errtyt,QQQQQQQQQQ",
"QQQQQQQQQQQQQQQ.ADnqqpbbirtttttuuuuuy<:QQQQQQQQQ",
"QQQQQQQQQQQQQQQ.VSc4tcndyydffffffuulpr>QQQQQQQQQ",
"QQQQQQQQQQQQQQQ.CAe<ucMp1tcVBNNNbi2zpt>QQQQQQQQQ",
"QQQQQQQQQQQQQQQ.CAqezNMp<tbUERETVi2zat>QQQQQQQQQ",
"QQQQQQQQQQQQQQQ.CAqtcVNp<tnYWWEEVi1kpt,QQQQQQQQQ",
"QQQQQQQQQQQQQQQ.CAqrzbcp<rnRWWWEVi<rtr,QQQQQQQQQ",
"QQQQQQQQQQQQQQQ.CAqwuuyr<txKUIUPMu><<<:QQQQQQQQQ",
"QQQQQQQQQQQQQQQ.ZAq><<<<:eyuuiuuur<eyr>QQQQQQQQQ",
"QQQQQQQQQQQOOQQ.xx2qtyyr<,<<<<,<<<:wre>QQQQQQQQQ",
"QQQQQQQQOOQO%QQo+&->wrrr,rippppppt>>:,:QQQQQQQQQ",
"QQQQQQQQO%QO%QQ0605=,<<<<tcnnnzllu,QQQQQQQQQQQQQ",
"QQQQQQQQO%QO%QQ7Q6->rppppsnNNny<2r,QQQQQQQQQQQQQ",
"QQQQQQQQO%QO#QQQQQ:eacNMMMNNNNc4et<QQQQQQQQQQQQQ",
"QQQQQOOQO%QQO#QQQQ,rxNNNNNNNNNnqry,QQQQQQQQQQQQQ",
"QQQOQO%QO#QQQO#QQQ>rcbllllllllj2we>QQQQQQQQQQQQQ",
"QQQOQO#QQO#QQQO#QQ:eki1>3,>,<>,:::;QQQQQQQQQQQQQ",
"QQQQQOOQQQOOQQQOQQQ>w1Q:q,QQQQQQQQQQQQQQQQQQQQQQ",
"QQQQQQQQQQQXQQQQQQQQ:QQQ:QQQQQQQQQQQQQQQQQQQQQQQ",
"QQQQQQQQQQQQQQQQQQQQQQQQQQQQQQQQQQQQQQQQQQQQQQQQ",
"QQQQQQQQQQQQQQQQQQQQQQQQQQQQQQQQQQQQQQQQQQQQQQQQ",
"QQQQQQQQQQQQQQQQQQQQQQQQQQQQQQQQQQQQQQQQQQQQQQQQ",
"QQQQQQQQQQQQQQQQQQQQQQQQQQQQQQQQQQQQQQQQQQQQQQQQ"
};
