/* XPM */
static char *result[] = {
/* columns rows colors chars-per-pixel */
"45 55 79 1 ",
"  c #010101",
". c #0C0C0C",
"X c #120700",
"o c #130801",
"O c #1D0C01",
"+ c #100F0F",
"@ c #131313",
"# c #1D1C1C",
"$ c #350500",
"% c #3D0E01",
"& c #261002",
"* c #281102",
"= c #201F1F",
"- c #242323",
"; c #292626",
": c #2C2B2B",
"> c #312E2E",
", c #353333",
"< c #393636",
"1 c #3D3A3A",
"2 c #411303",
"3 c #431511",
"4 c #4F1612",
"5 c #6E0E07",
"6 c #741607",
"7 c #403E3E",
"8 c #454343",
"9 c #494646",
"0 c #4D4A4A",
"q c #524E4E",
"w c #565252",
"e c #595555",
"r c #565758",
"t c #5D5A5A",
"y c #625E5E",
"u c #646162",
"i c #696666",
"p c #666768",
"a c #67686A",
"s c #6D6A6A",
"d c #726C6D",
"f c #6D6F71",
"g c #747374",
"h c #7A7676",
"j c #77797A",
"k c #7D7A7A",
"l c #817D7D",
"z c #7D7F81",
"x c #7E8082",
"c c #848383",
"v c #888383",
"b c #8C8A8B",
"n c #928E8E",
"m c #959293",
"M c #9A9696",
"N c #9C9A9A",
"B c #A29E9E",
"V c #A29FA0",
"C c #A4A1A2",
"Z c #A5A7AA",
"A c #A7A9AC",
"S c #ABA9AA",
"D c #B1AEAF",
"F c #B2AFB0",
"G c #B3B3B5",
"H c #B6B8BB",
"J c #BABBBC",
"K c #BFBEC0",
"L c #BFC0C2",
"P c #C2C2C3",
"I c #C6C8CA",
"U c #CACCCF",
"Y c #CBCED1",
"T c #D1D4D6",
"R c #D4D6D9",
"E c #D6D9DC",
"W c #DBDEE1",
"Q c #DFE2E5",
"! c None",
/* pixels */
"!!!!!!!!!!!!!!!!!!!!!!!!!!!!!!!!!!!!!!!!!!!!!",
"!!!!!!!!!!!!!!!!!!!!!!!!!!!!!!!!!!!!!!!!!!!!!",
"!!!!!!!!!!!!!!!!!!!!!!!!!-!!!!!;!!!!!!!!!!!!!",
"!!!!!!!!!!!!!!!!!!!!!!!-;<11111;--!!!!!!!!!!!",
"!!!!!!!!!!!!!!!!!!!!!;117qwweww77<;-!!!!!!!!!",
"!!!!!!!!!!!!!!!!!!!!;<qewwyyyywwwq7;-!!!!!!!!",
"!!!!!!!!!!!!!!!!!!!;<qwtyylvvvkhhhe7;-!!!!!!!",
"!!!!!!!!!!!!!!!!!!;<qwyMSCJPPPPPPHce1;-!!!!!!",
"!!!!!!!!!!!!!!!!!;<qtuNTQEcffffsjYKle1;;!!!!!",
"!!!!!!!!!!!!!!!!;<qyxCTEci@      pYKle1;!!!!!",
"!!!!!!!!!!!!!!!!1qwsGTxp@  .+@.  .pYKle7:!!!!",
"!!!!!!!!!!!!!!!1qwydLz#1+  .#==@. .pYJuq:!!!!",
"!!!!!!!!!!!!!!;9wesBI: qw.  @w:#=@ .aLiq7;!!!",
"!!!!!!!!!!!!!!;0wwdKx@+=rq.  9t:=#@..umkw:!!!",
"!!!!!!!!!!!!!!;9wwdH> #=-wq. .8t:==#+#JCe:!!!",
"!!!!!!!!!!!!!!;9ewdH: 9:#-r0.  8t;=###HCe:!!!",
"!!!!!!!!!!!!!!;0wwdJ: 8t:=-wq.  9t:=##HVr:!!!",
"!!!!!!!!!!!!!!;9ewsJ>  8t:=-wq+  9t;##HVr:!!!",
"!!!!!!!!!!!!!!;9ewsJ:   8t:=-rq.  8t--KVe:!!!",
"!!!!!!!!!!!!!!!17qsJ:    8t:=-wq. .8q1KVe:!!!",
"!!!!!!!!!!!!!!!!;9dK>    .8t:=-r0. .81KC9;!!!",
"!!!!!!!!!!!!!!!!;9ymh@     9r:=-rq. .=Gs:-!!!",
"!!!!!!!!!!!!!!!!;9eyMg@     0:==-q# .pC1-!!!!",
"!!!!!!!!!!!!!!!!!7qwyMg@    +#===@..pGM,!!!!!",
"!!!!!!!!!!!!!!!!!!1qeyMg@    ..@. .pGVi,!!!!!",
"!!!!!!!!!!!!!!!!! @;:0ynf@       .iSgt,!!!!!!",
"!!!!!!!!!!!!!!!!    77qebu0wwwqwqwhy:-!!!!!!!",
"!!!!!!!!!!!!!!!! 1qqy7<<7dlkhkhiuy><1;!!!!!!!",
"!!!!!!!!!!!!!!!.tMVs,0yy>,1<11117<7wq:!!!!!!!",
"!!!!!!!!!!!!!!!.AGM1,wnBq111111qwwwwq:-!!!!!!",
"!!!!!!!!!!!!!!!.ZFN79gMlywyyyyuyywtde7;!!!!!!",
"!!!!!!!!!!!!!!!.ZSs,qnBy8qlvvvvvlt9byq:!!!!!!",
"!!!!!!!!!!!!!!!.ZS1<dNBy:qmJKKKJBe,vyq:!!!!!!",
"!!!!!!!!!!!!!!!.ZS70nBMy>qmTWWWEVy<vyq:!!!!!!",
"!!!!!!!!!!!!!!!.ZS7qmBBy>qMTWWWRCe,syq:!!!!!!",
"!!!!!!!!!!!!!!!.ZS70glhe>qMTWWWECt:<1<:!!!!!!",
"!!!!!!!!!!!!!!!.ZS7,7<7,:0dmMMNMle><7<;!!!!!!",
"!!!!!!!!!!!!!!!+AS7,7<77;777<1<<11;qeq:!!!!!!",
"!!!!!!!!!!!!!!!.qw;79wqw>,7,7<<<11;17<;!!!!!!",
"!!!!!!!!!!!!!!!%$24-<77<;qhlhlllhe:-!-!!!!!!!",
"!!!!!!!!!!!!!!!6564=77<77qmBBNsuyq:!!!!!!!!!!",
"!!!!!!!!!!oO!!!!!!;<qdlhklMBBNi><q:!!!!!!!!!!",
"!!!!!!!oO!o&!!!!!!;0hBBBBBBBBBM1qq>!!!!!!!!!!",
"!!!!!!!o&!o&!!!!!!;qnBBBBBBBBBM1qq:!!!!!!!!!!",
"!!!!!!!o&!!O*!!!!!;qnliuuuuyuut><1;!!!!!!!!!!",
"!!!!!!!o&!!!O*!!!!!7s9;-,;-!!!!!!-!!!!!!!!!!!",
"!!!!oO!!O*!!!O*!!!!!<:!!<>!!!!!!!!!!!!!!!!!!!",
"!!!!oO!!!OO!!!O!!!!!!!!!!!!!!!!!!!!!!!!!!!!!!",
"!!!!!!!!!!o!!!!!!!!!!!!!!!!!!!!!!!!!!!!!!!!!!",
"!!!!!!!!!!!!!!!!!!!!!!!!!!!!!!!!!!!!!!!!!!!!!",
"!!!!!!!!!!!!!!!!!!!!!!!!!!!!!!!!!!!!!!!!!!!!!",
"!!!!!!!!!!!!!!!!!!!!!!!!!!!!!!!!!!!!!!!!!!!!!",
"!!!!!!!!!!!!!!!!!!!!!!!!!!!!!!!!!!!!!!!!!!!!!",
"!!!!!!!!!!!!!!!!!!!!!!!!!!!!!!!!!!!!!!!!!!!!!",
"!!!!!!!!!!!!!!!!!!!!!!!!!!!!!!!!!!!!!!!!!!!!!"
};
