/* XPM */
static char *result[] = {
/* columns rows colors chars-per-pixel */
"52 70 85 1 ",
"  c #020202",
". c #0C0806",
"X c #0B0B0B",
"o c #130801",
"O c #1C0C01",
"+ c #170F0A",
"@ c #1A120E",
"# c #141414",
"$ c #1C1714",
"% c #1F1814",
"& c #1E1D1D",
"* c #250F02",
"= c #231106",
"- c #221209",
"; c #211710",
": c #221B17",
"> c #211E1E",
", c #201F20",
"< c #242323",
"1 c #292626",
"2 c #2A2827",
"3 c #2D2A2A",
"4 c #312E2E",
"5 c #343232",
"6 c #393636",
"7 c #3F3936",
"8 c #373838",
"9 c #3D3C3C",
"0 c #423E3E",
"q c #3E3F40",
"w c #3F4041",
"e c #454242",
"r c #494545",
"t c #4D4A4A",
"y c #514E4E",
"u c #555252",
"i c #5B5656",
"p c #5D5A5A",
"a c #625E5E",
"s c #666262",
"d c #6A6565",
"f c #6D6969",
"g c #736E6E",
"h c #767171",
"j c #7B7676",
"k c #7D7979",
"l c #827D7D",
"z c #817F80",
"x c #858283",
"c c #8A8686",
"v c #858789",
"b c #8E8A8A",
"n c #918D8D",
"m c #969191",
"M c #999696",
"N c #989799",
"B c #9D9A9B",
"V c #A19D9D",
"C c #9B9EA0",
"Z c #9EA1A3",
"A c #A4A2A3",
"S c #A8A5A6",
"D c #A8A7A9",
"F c #AAA9AA",
"G c #B1AEAF",
"H c #B1AFB0",
"J c #AFB2B4",
"K c #B3B3B5",
"L c #B5B6B8",
"P c #B9B7B9",
"I c #B7B9BB",
"U c #BBBBBD",
"Y c #C2C3C5",
"T c #C6C6C8",
"R c #C7C8CA",
"E c #CBCCCE",
"W c #CDCFD1",
"Q c #CFD1D3",
"! c #D1D4D6",
"~ c #D3D6D9",
"^ c #D6D9DC",
"/ c #D8DBDE",
"( c #DCDFE2",
") c #DEE1E4",
"_ c None",
/* pixels */
"____________________________________________________",
"____________________________________________________",
"____________________________________________________",
"____________________________________________________",
"____________________________________________________",
"____________________________________________________",
"____________________________________________________",
"____________________________________________________",
"_____________________________55555554_______________",
"___________________________1qiiiiiiiy4<_____________",
"_________________________66rhkjjkjjkha65<___________",
"________________________efknGHGGGGGHVlhi5<__________",
"_______________________0dxK^))/)((((WHCji5,_________",
"______________________ehxK^)QZCCCCCJ((Rbgi4<________",
"_____________________ejVL^!AkX  .  4NJQAlfi4<_______",
"____________________0gBS^~xX XXX.X.  8J(Lhfi6_______",
"___________________7dlVP~vX X,,,,>#   8LEVhfy<______",
"__________________3ygBPWvX X&<,&&&#    8KEVjy<______",
"__________________3uhA^I# X&,,&28#  X1X u(Ybu4<_____",
"__________________3ygAQvX &,<&2ut. Xrp# 6KTba0<_____",
"__________________3ugSK# #,,,1yy. Xrp<#  uTbs0<_____",
"__________________3yhSK# ,,,1yu. Xrp<&44 uTbs0<_____",
"__________________3ugSJ# ,,1yu. Xep<,3ir uTbs0<_____",
"__________________3yhDKX ,<yuX Xea<,3ut  uYbs0<_____",
"__________________3ugDK# <ti. Xea<,1uy   uTbp6<_____",
"__________________3ygSK#.4pX X9a<,3uy    tUby1______",
"__________________3ugAK#X## Xqa1,3uu     9Vxy<______",
"__________________2rgNH0    <a1<,8t     +ulde<______",
"__________________<4uhVV#  .######      5lde1_______",
"___________________<4ihl3              Xedr<________",
"____________________>4uhx8qwq9qq9qw9qe6yle1_________",
"_____________________<4anAR^^^^^^^^/QRLkr<__________",
"______________________44anBUYRWREEEEUMlr24__________",
"_____________________4i64uiidnmmmmmnhir300<_________",
"____________________16aa65545uiiiiir3550uy3<________",
"___________________<6uhldaiy555555550iiiadt3<_______",
"___________________4uzDMljfapiiuyupiagljjkg0<_______",
"___________________2sW!KScahkhdpiagjjjlVGKb0<_______",
"___________________3sW/(YiuFGAbbnbMGHb0c/(D0<_______",
"__________________15dQ()P0j~(^(^^^^^(Kys^(Fr4<______",
"__________________3yjYRRF8f^(()((((((Kes((Du0<______",
"__________________3ibnbnj5dJLLLILLLLINeaEWDs0<______",
"__________________3eiiiiy4errrrrrrrrrr6ekkkd6<______",
"__________________<555554<333333334332<388584<______",
"__________________<euuuur3ifdfffffffae29uuuy6<______",
"__________________&10ere73pbVmjjjjxMke3errr61_______",
"___________________>,>>,>1esBc5<<<ycu711<1<1________",
"_________________________:2sBnr>;3fce>______________",
"______________________o=*=1aBnt>-3fce%*=*___________",
"_______________________oo@6hVnt%+3dct,.o____________",
"_________________________5aMVnr>;3fnsr1_____________",
"________________________-ujVAmt%-3fVnd7o____________",
"________________________;thjkf7&@1ujjd5_____________",
"_________________________<<<,<<&_&&<<<______________",
"____________________________________________________",
"_________________________oO_________Oo______________",
"_________________________o**********Oo______________",
"_________________________oooooooooooo_______________",
"____________________________________________________",
"____________________________oO_____Oo_______________",
"____________________________O*****=Oo_______________",
"____________________________oooooooo________________",
"____________________________________________________",
"____________________________________________________",
"____________________________________________________",
"____________________________________________________",
"____________________________________________________",
"____________________________________________________",
"____________________________________________________",
"____________________________________________________"
};
