/* XPM */
static char *result[] = {
/* columns rows colors chars-per-pixel */
"36 60 82 1 ",
"  c #020101",
". c #0D0C0C",
"X c #120700",
"o c #140801",
"O c #190A01",
"+ c #170E08",
"@ c #141414",
"# c #1E1917",
"$ c #1C1B1B",
"% c #240F02",
"& c #251003",
"* c #231208",
"= c #221B17",
"- c #201F1F",
"; c #24211F",
": c #242323",
"> c #282626",
", c #2B2827",
"< c #272728",
"1 c #272829",
"2 c #2C2B2B",
"3 c #312E2E",
"4 c #2F3030",
"5 c #343232",
"6 c #3A3737",
"7 c #373839",
"8 c #3B3A3A",
"9 c #403E3E",
"0 c #454242",
"q c #4A4646",
"w c #464748",
"e c #4C4949",
"r c #514E4E",
"t c #534F50",
"y c #555151",
"u c #5A5555",
"i c #5D5959",
"p c #635E5E",
"a c #656262",
"s c #6B6666",
"d c #6D6969",
"f c #736D6D",
"g c #767172",
"h c #797373",
"j c #7D7979",
"k c #817D7D",
"l c #837F80",
"z c #868282",
"x c #898686",
"c c #8B8788",
"v c #8D8989",
"b c #928D8D",
"n c #948F90",
"m c #969292",
"M c #9A9696",
"N c #9D9999",
"B c #A19D9E",
"V c #A5A1A2",
"C c #A9A6A6",
"Z c #AAA7A8",
"A c #ABA9A9",
"S c #ADAEB1",
"D c #AFB0B2",
"F c #B3B4B6",
"G c #B4B7B9",
"H c #B5B8BA",
"J c #BABABC",
"K c #BDBFC1",
"L c #BFC0C3",
"P c #C2C3C6",
"I c #C4C6C8",
"U c #C7C9CC",
"Y c #CBCCCE",
"T c #CCCED1",
"R c #CED1D3",
"E c #D1D3D5",
"W c #D4D7D9",
"Q c #D6D9DB",
"! c #D9DBDE",
"~ c #DCDFE2",
"^ c #DDE0E3",
"/ c None",
/* pixels */
"////////////////////////////////////",
"////////////////////////////////////",
"//////////////22222222//////////////",
"////////////:5eyrrrrrr3:////////////",
"//////////325adfffffffp33>//////////",
"/////////5idhNVVVVBVVBgfi3://///////",
"////////5igNUQ~QQQQQQYZNgp3:////////",
"///////5ahNT~~LLKKKKP!QYmdi3:///////",
"//////5pnCT!IS4@@$@@2SIRVkfi3://////",
"/////5pbVY!G4@       @4GQLhfu5//////",
"////3ugMAEJ3  $---$$   4FEBgdi,/////",
"///>qsnZYG5  $-----$    3GYNgi>/////",
"///>esMYR8  $::-:4$   @  7RYMp3:////",
"///>esMTG: $----7a@  1s- :GRMsq>////",
"///>esMI8  $---7s$  <s5$  8PMse>////",
"///>qsMP2 $---8s$  <s5-:, 2PMse>////",
"///>edMP2 $-:7s$  :s5$:9a 1PNse:////",
"///>esMI2 $:7s$  :s5::0a@ 2PNse,////",
"///>qsMP2 $7s$  :s7$:8a@  ,IMs0>////",
"///>qdMP2 -s:  :s7-:9a@   1JNp2:////",
"///>esMI4.$$  <s5-:8s@    -Mbp>/////",
"///>0snJw    +a7--,a$     3xfy>/////",
"///:,yfMS<   @:$$$$.     $kfy3://///",
"////:2yfv5               >fy2://////",
"/////:2yfz5-,,,><<<<:>>>5ji,:///////",
"//////:3yvBJYTTYTTTTRYIJvi3:////////",
"///////33pbBPYRREEEEEYBmp32/////////",
"//////>y9,upadnBNNNNMxau250>////////",
"/////:3rp93333ppppppp3335rr3:///////",
"////>2efgsprr333555535ruypar3://////",
"////:qdNBkgdpyyuyryyyisghggfe>//////",
"////>rJQFCnsfggsiuisghhxMZZMr>//////",
"////>rJ~!EgqmZCxlllxVAMwgR~Kt://////",
"///:3rK~~TepI!QWWWWWW~UpeT~Ky3>/////",
"///>0sJTTPquU^^~~~~~~^UiwT~Liq>/////",
"///>exMbbv8ySLLLLLLKLLDywIRKse>/////",
"///:0ipppi40eyeyrrrreye06lvxh0>/////",
"///:355555:222,2,,222,,>>55553>/////",
"///:8ryytr2epaaasaaaaaq,5rttt9>/////",
"///-:9qqq01rzNMzkkjzMzy20eee0,://///",
"////$;$::-:0imM9::<8vp0>>>>:>>//////",
"//////o///=:ymMu:/:uvu>////o////////",
"///////o%%&=rmMi:&:iby;&&%o/////////",
"////////oo+2aMNu;+:ubu>+oo//////////",
"//////////2rbBMi>/:ubde3////////////",
"///////o/:esMVMi>/>uNMde:/X/////////",
"////////o#0gzjje;*;ejkg0$o//////////",
"/////////o$::::;$+$::::-o///////////",
"////////////////////////////////////",
"////////////oO///////Oo/////////////",
"////////////o%&%%%&%%%o/////////////",
"////////////ooooooooooo/////////////",
"////////////////////////////////////",
"//////////////oo///Oo///////////////",
"//////////////o&%%%%o///////////////",
"//////////////ooooooo///////////////",
"////////////////////////////////////",
"////////////////////////////////////",
"////////////////////////////////////",
"////////////////////////////////////"
};
