/* XPM */
static char *result[] = {
/* columns rows colors chars-per-pixel */
"44 68 88 1 ",
"  c #010101",
". c #0B0A0A",
"X c #150902",
"o c #180A01",
"O c #140F0C",
"+ c #1C140F",
"@ c #151414",
"# c #191615",
"$ c #1C1817",
"% c #171718",
"& c #1E1D1D",
"* c #210D02",
"= c #261205",
"- c #2A1203",
"; c #25150C",
": c #2E1A0E",
"> c #211A17",
", c #2B1E15",
"< c #201F1E",
"1 c #301E14",
"2 c #25201E",
"3 c #352115",
"4 c #242323",
"5 c #282626",
"6 c #2B2827",
"7 c #2D2B2B",
"8 c #302E2D",
"9 c #32302F",
"0 c #353232",
"q c #393636",
"w c #3C3A3A",
"e c #413E3E",
"r c #48403C",
"t c #3F3F40",
"y c #3F4041",
"u c #454242",
"i c #494545",
"p c #4C4949",
"a c #524E4E",
"s c #565151",
"d c #5A5656",
"f c #57595A",
"g c #5D5A5B",
"h c #615D5D",
"j c #5D5F60",
"k c #646161",
"l c #6A6565",
"z c #6D6969",
"x c #716C6C",
"c c #767273",
"v c #7B7676",
"b c #797778",
"n c #7C7A7A",
"m c #827E7F",
"M c #7F8183",
"N c #858181",
"B c #8B8686",
"V c #8B8788",
"C c #8D8A8A",
"Z c #928E8E",
"A c #959191",
"S c #9A9696",
"D c #959799",
"F c #9B9B9D",
"G c #A29E9E",
"H c #A5A3A4",
"J c #A8A5A6",
"K c #AAA7A8",
"L c #ABAAAB",
"P c #B1AFB0",
"I c #B4B2B3",
"U c #B4B6B8",
"Y c #B6B9BB",
"T c #B9BABC",
"R c #BEBEC0",
"E c #C0BFC1",
"W c #C2C2C4",
"Q c #C6C7C9",
"! c #C7C8CB",
"~ c #CACBCD",
"^ c #CDCED1",
"/ c #D2D4D7",
"( c #D3D6D9",
") c #D6D9DC",
"_ c #D9DCDE",
"` c #DCDFE2",
"' c #DDE0E3",
"] c None",
/* pixels */
"]]]]]]]]]]]]]]]]]]]]]]]]]]]]]]]]]]]]]]]]]]]]",
"]]]]]]]]]]]]]]]]]]]]]]]]]]]]]]]]]]]]]]]]]]]]",
"]]]]]]]]]]]]]]]]]]]]]]]]]]]]]]]]]]]]]]]]]]]]",
"]]]]]]]]]]]]]]]]]]]]]]]]]]]]]]]]]]]]]]]]]]]]",
"]]]]]]]]]]]]]]]]]]]]]]]]]]]]]]]]]]]]]]]]]]]]",
"]]]]]]]]]]]]]]]]]]]]]]]]]]]]]]]]]]]]]]]]]]]]",
"]]]]]]]]]]]]]]]]]]]]]444444<]]]]]]]]]]]]]]]]",
"]]]]]]]]]]]]]]]]]]]48eeeeeeew4]]]]]]]]]]]]]]",
"]]]]]]]]]]]]]]]]]446shkklhkkhe44]]]]]]]]]]]]",
"]]]]]]]]]]]]]]]]0aphBVBVBBBCmkau5]]]]]]]]]]]",
"]]]]]]]]]]]]]]]0scAIWWWWWWWWICNke4]]]]]]]]]]",
"]]]]]]]]]]]]]]qscS!`````''``(WINku5]]]]]]]]]",
"]]]]]]]]]]]]]0hBS!`'YjjgdggN``^Zxle6]]]]]]]]",
"]]]]]]]]]]]]0hZK^`Yjt      %fM/RFxle6]]]]]]]",
"]]]]]]]]]]]0dvGP`Yu  @@@@@.  @n`QNxli]]]]]]]",
"]]]]]]]]]]8acZK~Yy  @<<<<4%   %n(INxd4]]]]]]",
"]]]]]]]]]]0dnK^Yy  %4<<<<&.    @n(UNd5]]]]]]",
"]]]]]]]]]]0dvP'F  %<<4<qs.  &p@ w_~Ahq5]]]]]",
"]]]]]]]]]]0dvIUw .<<4<qj7  <di% &b~Zli5]]]]]",
"]]]]]]]]]]0dnIF  &<4&qk7  &gi<&. tQAli5]]]]]",
"]]]]]]]]]]0gbIF..<4<qk7  &gu<&wp y!Ali4]]]]]",
"]]]]]]]]]]0dbIF .&&qj7  <ji<&wk7 w!Ali6]]]]]",
"]]]]]]]]]]9gvIF .&qk6  <ju<&qk6  yQAli6]]]]]",
"]]]]]]]]]]9gvIF .qk6  <jy<<qk7   tQAh94]]]]]",
"]]]]]]]]]]0dnIF..8q  <hu&&qk6    0LZd4]]]]]]",
"]]]]]]]]]]0dvIF. .. <ku&&wk5     7Avd6]]]]]]",
"]]]]]]]]]]6uxCLz    4w<4&55     &zvhq5]]]]]]",
"]]]]]]]]]]46pzZN    ......      5vhq4]]]]]]]",
"]]]]]]]]]]]46ixva.             2lhq4]]]]]]]]",
"]]]]]]]]]]]]]6inZbDDDDDDDDDDDDCcz04]]]]]]]]]",
"]]]]]]]]]]]]]47pNKR`'```'``'(UKxq4]]]]]]]]]]",
"]]]]]]]]]]]]]qi6pbmCSPIPIPIPGnl08e]]]]]]]]]]",
"]]]]]]]]]]]]2qhp6qwqpvvvvvvxiwq7pi44]]]]]]]]",
"]]]]]]]]]]]48aklsiiw6qwwwqw97uupdhe44]]]]]]]",
"]]]]]]]]]]]9plZBxlksiiiiiiuialzllxhe6]]]]]]]",
"]]]]]]]]]]]9xTEGANllllkssdlllvCZAAmp4]]]]]]]",
"]]]]]]]]]]]9n__^IzsAABxllzvADndZ~^Lp6]]]]]]]",
"]]]]]]]]]]49v)_'Pev~^QRRERW~^Lpl_`Up44]]]]]]",
"]]]]]]]]]]9pm)__H0m``````````Upg)`Usw4]]]]]]",
"]]]]]]]]]]9kAKJKM9b/)))))))(`Iig(`Udi6]]]]]]",
"]]]]]]]]]]0dvcxcd0gcbbccccbcczupKLGni6]]]]]]",
"]]]]]]]]]]60qqqq9677667666767767uuue84]]]]]]",
"]]]]]]]]]]6iipppw7ipppppppppiq48iiipw4]]]]]]",
"]]]]]]]]]]4qsaasu8kCCCVVVBCZMi7isssi86]]]]]]",
"]]]]]]]]]]]>,133,8svGNywwwhCke:333,>4]]]]]]]",
"]]]]]]]]]]]]]oooo#0lGVqOX>kVp4ooooo]]]]]]]]]",
"]]]]]]]]]]]]]]]]]]8lGVi$]6zBi>]]]]]]]]]]]]]]",
"]]]]]]]]]]]]]]o]]]8zGVi<]6zBi4]]]X]]]]]]]]]]",
"]]]]]]]]]]]]]]o=]8dAHCi>;7zCsr4]*o]]]]]]]]]]",
"]]]]]]]]]]]]]]]o<axGGCi$#7zSNdwOo]]]]]]]]]]]",
"]]]]]]]]]]]]]]]]6hCSSBu<]6kSAnr$]]]]]]]]]]]]",
"]]]]]]]]]]]]]]]o#7qqq94>]27qq02+X]]]]]]]]]]]",
"]]]]]]]]]]]]]]]o===============oX]]]]]]]]]]]",
"]]]]]]]]]]]]]]]]oooooooooooooooo]]]]]]]]]]]]",
"]]]]]]]]]]]]]]]]]]]]]]]]]]]]]]]]]]]]]]]]]]]]",
"]]]]]]]]]]]]]]]]]]oo]]]]]]]]]oo]]]]]]]]]]]]]",
"]]]]]]]]]]]]]]]]]]o=---------oX]]]]]]]]]]]]]",
"]]]]]]]]]]]]]]]]]]]ooooooooooo]]]]]]]]]]]]]]",
"]]]]]]]]]]]]]]]]]]]]]]]]]]]]]]]]]]]]]]]]]]]]",
"]]]]]]]]]]]]]]]]]]]]]]]XXXo]]]]]]]]]]]]]]]]]",
"]]]]]]]]]]]]]]]]]]]]]]]]XX]]]]]]]]]]]]]]]]]]",
"]]]]]]]]]]]]]]]]]]]]]]]]]]]]]]]]]]]]]]]]]]]]",
"]]]]]]]]]]]]]]]]]]]]]]]]]]]]]]]]]]]]]]]]]]]]",
"]]]]]]]]]]]]]]]]]]]]]]]]]]]]]]]]]]]]]]]]]]]]",
"]]]]]]]]]]]]]]]]]]]]]]]]]]]]]]]]]]]]]]]]]]]]",
"]]]]]]]]]]]]]]]]]]]]]]]]]]]]]]]]]]]]]]]]]]]]",
"]]]]]]]]]]]]]]]]]]]]]]]]]]]]]]]]]]]]]]]]]]]]",
"]]]]]]]]]]]]]]]]]]]]]]]]]]]]]]]]]]]]]]]]]]]]"
};
