/* XPM */
static char *result[] = {
/* columns rows colors chars-per-pixel */
"40 65 99 2 ",
"   c #070707",
".  c #080707",
"X  c #0B0A0A",
"o  c #160901",
"O  c #190B02",
"+  c #130F0E",
"@  c #190F09",
"#  c #17100C",
"$  c #1B100A",
"%  c #161413",
"&  c #191513",
"*  c #1C1917",
"=  c #1D1A1A",
"-  c #210B04",
";  c #2A1103",
":  c #271408",
">  c #291509",
",  c #2E190D",
"<  c #311206",
"1  c #201E1E",
"2  c #341F13",
"3  c #3D2118",
"4  c #242222",
"5  c #292727",
"6  c #2C2929",
"7  c #312E2E",
"8  c #32302F",
"9  c #343232",
"0  c #393636",
"q  c #3E3B3B",
"w  c #4C0A05",
"e  c #500A05",
"r  c #451D1D",
"t  c #4C1A19",
"y  c #670A06",
"u  c #6A0D06",
"i  c #761704",
"p  c #791903",
"a  c #46261B",
"s  c #59221D",
"d  c #562521",
"f  c #552825",
"g  c #522C29",
"h  c #413E3E",
"j  c #663D2F",
"k  c #603C30",
"l  c #464242",
"z  c #494545",
"x  c #4D4949",
"c  c #514E4E",
"v  c #55504F",
"b  c #565252",
"n  c #5A5656",
"m  c #5D5959",
"M  c #625D5D",
"N  c #646060",
"B  c #6A6565",
"V  c #6E6969",
"C  c #706C6C",
"Z  c #777373",
"A  c #797575",
"S  c #7D7A7A",
"D  c #832504",
"F  c #8B442B",
"G  c #837E7E",
"H  c #858385",
"J  c #8B8686",
"K  c #878788",
"L  c #8D8B8C",
"P  c #918D8D",
"I  c #959292",
"U  c #9B9696",
"Y  c #9D9999",
"T  c #A19D9D",
"R  c #A6A09F",
"E  c #A6A2A2",
"W  c #ABA6A6",
"Q  c #AEA9A9",
"!  c #B2ACAC",
"~  c #B6B4B5",
"^  c #B9B2B2",
"/  c #B5B7B9",
"(  c #B8B7B9",
")  c #BBBABC",
"_  c #C2BDBE",
"`  c #BFBFC0",
"'  c #BFC0C2",
"]  c #C2C2C4",
"[  c #C9C5C6",
"{  c #C5C6C8",
"}  c #CDCCCE",
"|  c #CDCED0",
" . c #D0CED0",
".. c #D3D4D6",
"X. c #D5D6D9",
"o. c #D9DCDF",
"O. c #DADDE0",
"+. c #DCE0E3",
"@. c None",
/* pixels */
"@.@.@.@.@.@.@.@.@.@.@.@.@.@.@.@.@.@.@.@.@.@.@.@.@.@.@.@.@.@.@.@.@.@.@.@.@.@.@.@.",
"@.@.@.@.@.@.@.@.@.@.@.@.@.@.@.@.@.@.@.@.@.@.@.@.@.@.@.@.@.@.@.@.@.@.@.@.@.@.@.@.",
"@.@.@.@.@.@.@.@.@.@.@.@.@.@.@.@.@.@.@.@.@.@.@.@.@.@.@.@.@.@.@.@.@.@.@.@.@.@.@.@.",
"@.@.@.@.@.@.@.@.@.@.@.@.@.@.@.@.@.@.@.@.4 4 4 4 4 4 4 @.@.@.@.@.@.@.@.@.@.@.@.@.",
"@.@.@.@.@.@.@.@.@.@.@.@.@.@.@.@.@.@.4 0 h h h h h h h 9 4 @.@.@.@.@.@.@.@.@.@.@.",
"@.@.@.@.@.@.@.@.@.@.@.@.@.@.@.@.4 4 0 b M M M N M M N b 9 4 4 @.@.@.@.@.@.@.@.@.",
"@.@.@.@.@.@.@.@.@.@.@.@.@.@.@.9 h h N J J J J J J J J A n c 7 4 @.@.@.@.@.@.@.@.",
"@.@.@.@.@.@.@.@.@.@.@.@.@.@.9 z B G P R T T T T T T T I J A n 9 4 @.@.@.@.@.@.@.",
"@.@.@.@.@.@.@.@.@.@.@.@.@.9 z B P W ! ! ! ! ! ! ! ! ! ! ! U A b 9 4 @.@.@.@.@.@.",
"@.@.@.@.@.@.@.@.@.@.@.@.9 m G L T Q [ } }  .}  . . . .}  .^ G V n 9 4 @.@.@.@.@.",
"@.@.@.@.@.@.@.@.@.@.@.8 m P T T W ^ } O.O.O.O.O.O.O.O.O.O.| W G V n 9 @.@.@.@.@.",
"@.@.@.@.@.@.@.@.@.@.9 z Z E T E _ } X.O.O.O.O.O.O.O.O.O.o.O.X.E Z C n 0 @.@.@.@.",
"@.@.@.@.@.@.@.@.@.9 z N L T T ! } O.O.O.O.O.O.O.O.O.O.o.O.O.O.' U Z V h @.@.@.@.",
"@.@.@.@.@.@.@.@.@.0 n G T T W )  .O.O.O.o.O.O.O.O.O.O.O.O.O.O. .! I Z q 4 @.@.@.",
"@.@.@.@.@.@.@.@.@.0 M G T E _ ..O.o.O.O.O.O.O.O.O.O.O.O.O.O.O.O.^ T Z x 7 @.@.@.",
"@.@.@.@.@.@.@.@.@.0 M G T Q } o.o.O.O.O.O.O.O.o.O.O.O.O.O.O.O.O.( T C v 9 @.@.@.",
"@.@.@.@.@.@.@.@.@.0 M G T ! } o.o.o.O.O.O.O.o.+.O.O.O.O.O.O.O.O.~ Y C b 9 @.@.@.",
"@.@.@.@.@.@.@.@.@.0 m G T Q } O.o.o.O.O.O.O.o.o.O.O.O.O.O.O.O.O.~ T C b 9 @.@.@.",
"@.@.@.@.@.@.@.@.@.0 M G T Q [ O.o.O.O.O.O.O.+.o.O.O.O.O.O.O.O.O.( T C b 9 @.@.@.",
"@.@.@.@.@.@.@.@.@.9 M G T Q [ O.O.O.o.O.O.O.O.o.O.O.O.O.O.O.O.} ! Y C b 9 @.@.@.",
"@.@.@.@.@.@.@.@.@.0 M G T Q [ O.o.o.o.o.o.o.o.o.O.O.O.O.O.O.O.) E T V h 6 @.@.@.",
"@.@.@.@.@.@.@.@.@.0 M G T ! _ [ [ [ [ [ [ [ [ [ [ [ [ [ [ [ [ ! T T V 9 4 @.@.@.",
"@.@.@.@.@.@.@.@.@.0 n A T R Q W W Q W W W W Q Q W W W W W W W E T H m 9 @.@.@.@.",
"@.@.@.@.@.@.@.@.@.0 b M C C C C C C C C C C C C C C C C C C C C V m h 6 @.@.@.@.",
"@.@.@.@.@.@.@.@.@.7 9 h v b v b v v b v b b v b b b b b b b b v b h 5 4 @.@.@.@.",
"@.@.@.@.@.@.@.@.@.@.4 6 l b b b b b b b b n b b b b b b b n b b h 5 4 @.@.@.@.@.",
"@.@.@.@.@.@.@.@.@.@.@.4 6 l b b b n b n b b b b b b b b b b b h 5 4 @.@.@.@.@.@.",
"@.@.@.@.@.@.@.@.@.@.@.@.4 0 b b b b b b b n b b n b n b b b h 6 4 @.@.@.@.@.@.@.",
"@.@.@.@.@.@.@.@.@.@.@.@.0 h 9 h b b v b b b b b b b b b b h 6 0 9 @.@.@.@.@.@.@.",
"@.@.@.@.@.@.@.@.@.@.@.4 0 c 0 7 0 0 0 h b b b v b b l 9 9 6 0 c 0 4 @.@.@.@.@.@.",
"@.@.@.@.@.@.@.@.@.@.4 9 b N c z l l 0 6 9 9 9 9 9 9 6 0 l l c M b 9 4 @.@.@.@.@.",
"@.@.@.@.@.@.@.@.@.@.9 x C P S N l 4 1 % & % % % % % % 1 4 x B V V c 9 @.@.@.@.@.",
"@.@.@.@.@.@.@.@.@.@.0 S ` ) Y N * q A Z A Z Z Z A A A A 9 * V I P C 9 @.@.@.@.@.",
"@.@.@.@.@.@.@.@.@.@.9 L +.X./ n   c / | | | | | } | | ~ x   N ) } G 9 @.@.@.@.@.",
"@.@.@.@.@.@.@.@.@.5 0 L O.O.` b   c ` O.o.+.+.+.+.+.O./ z   M ] O.H 9 4 @.@.@.@.",
"@.@.@.@.@.@.@.@.@.8 x L O.O.` n   c ' o.o.o.o.O.o.o.+./ x   N ] O.H z 9 @.@.@.@.",
"@.@.@.@.@.@.@.@.@.0 V Y Q E T n X c ' +.' Q Q Q W ' +.) x X M ] O.K b 9 @.@.@.@.",
"@.@.@.@.@.@.@.@.@.0 N Z Z Z b c I ` ..o.K 8 8 8 8 I +./ J A z A Q I B 9 @.@.@.@.",
"@.@.@.@.@.@.@.@.@.6 9 0 0 q 1 x W Q Q Q I q + + l I Q E T T q 5 z l 0 5 @.@.@.@.",
"@.@.@.@.@.@.@.@.@.7 z z z z 8 a F F F F k 4 6 6 4 k F F F F 3 9 z z z 8 @.@.@.@.",
"@.@.@.@.@.@.@.@.@.4 q b b b x f i p D p d h x x h s p D D i g x b b q 5 @.@.@.@.",
"@.@.@.@.@.@.@.@.@.1 4 6 6 5 6 r u u u u t 8 8 8 8 t u u u y r 7 7 7 5 @.@.@.@.@.",
"@.@.@.@.@.@.@.@.@.@.@.+ @ ; : ; w w w w ; > > > , < e w e w ; > $ @.@.@.@.@.@.@.",
"@.@.@.@.@.@.@.@.@.@.@.@.O O O O $ $ - - $ O O O O O - - - O O O @.@.@.@.@.@.@.@.",
"@.@.@.@.@.@.@.@.@.@.@.@.@.@.@.@.# 7 l l l 7 $ * 8 l l 6 % @.@.@.@.@.@.@.@.@.@.@.",
"@.@.@.@.@.@.@.@.@.@.@.@.@.@.@.@.@.0 v c v 0 @.1 0 b b l 1 @.@.@.@.@.@.@.@.@.@.@.",
"@.@.@.@.@.@.@.@.@.@.@.@.@.@.O ; > , 2 2 2 , ; > , 2 2 , ; ; O @.@.@.@.@.@.@.@.@.",
"@.@.@.@.@.@.@.@.@.@.@.@.@.@.O O O O O O O O O O O O O O O O O @.@.@.@.@.@.@.@.@.",
"@.@.@.@.@.@.@.@.@.@.@.@.@.@.@.& * * * * * = & * * * = * * * @.@.@.@.@.@.@.@.@.@.",
"@.@.@.@.@.@.@.@.@.@.@.@.@.@.@.o $ @.@.@.@.@.@.@.@.@.@.@ O + @.@.@.@.@.@.@.@.@.@.",
"@.@.@.@.@.@.@.@.@.@.@.@.@.@.@.O - ; ; ; ; ; ; - ; ; ; ; O @.@.@.@.@.@.@.@.@.@.@.",
"@.@.@.@.@.@.@.@.@.@.@.@.@.@.@.O O O O O O O O O o O O O O @.@.@.@.@.@.@.@.@.@.@.",
"@.@.@.@.@.@.@.@.@.@.@.@.@.@.@.@.@.@.@.@.@.@.@.@.@.@.@.@.@.@.@.@.@.@.@.@.@.@.@.@.",
"@.@.@.@.@.@.@.@.@.@.@.@.@.@.@.@.@.@.O @.@.@.@.@.@.@.@.o @.@.@.@.@.@.@.@.@.@.@.@.",
"@.@.@.@.@.@.@.@.@.@.@.@.@.@.@.@.@.@.O ; ; ; ; ; ; ; - O @.@.@.@.@.@.@.@.@.@.@.@.",
"@.@.@.@.@.@.@.@.@.@.@.@.@.@.@.@.@.@.o O O O O o O O O O @.@.@.@.@.@.@.@.@.@.@.@.",
"@.@.@.@.@.@.@.@.@.@.@.@.@.@.@.@.@.@.@.@.@.@.@.@.@.@.@.@.@.@.@.@.@.@.@.@.@.@.@.@.",
"@.@.@.@.@.@.@.@.@.@.@.@.@.@.@.@.@.@.@.@.@.@.@.o @.@.@.@.@.@.@.@.@.@.@.@.@.@.@.@.",
"@.@.@.@.@.@.@.@.@.@.@.@.@.@.@.@.@.@.@.@.@.@.@.@.@.@.@.@.@.@.@.@.@.@.@.@.@.@.@.@.",
"@.@.@.@.@.@.@.@.@.@.@.@.@.@.@.@.@.@.@.@.@.@.@.@.@.@.@.@.@.@.@.@.@.@.@.@.@.@.@.@.",
"@.@.@.@.@.@.@.@.@.@.@.@.@.@.@.@.@.@.@.@.@.@.@.@.@.@.@.@.@.@.@.@.@.@.@.@.@.@.@.@.",
"@.@.@.@.@.@.@.@.@.@.@.@.@.@.@.@.@.@.@.@.@.@.@.@.@.@.@.@.@.@.@.@.@.@.@.@.@.@.@.@.",
"@.@.@.@.@.@.@.@.@.@.@.@.@.@.@.@.@.@.@.@.@.@.@.@.@.@.@.@.@.@.@.@.@.@.@.@.@.@.@.@.",
"@.@.@.@.@.@.@.@.@.@.@.@.@.@.@.@.@.@.@.@.@.@.@.@.@.@.@.@.@.@.@.@.@.@.@.@.@.@.@.@.",
"@.@.@.@.@.@.@.@.@.@.@.@.@.@.@.@.@.@.@.@.@.@.@.@.@.@.@.@.@.@.@.@.@.@.@.@.@.@.@.@."
};
