/* XPM */
static char *result[] = {
/* columns rows colors chars-per-pixel */
"54 70 97 2 ",
"   c #160901",
".  c #1B0D05",
"X  c #180E08",
"o  c #161515",
"O  c #181717",
"+  c #1B1A1A",
"@  c #230E03",
"#  c #230E08",
"$  c #3C0D04",
"%  c #251105",
"&  c #2A1203",
"*  c #291408",
"=  c #361004",
"-  c #311C0F",
";  c #221E1C",
":  c #321D11",
">  c #23201E",
",  c #201F20",
"<  c #252424",
"1  c #282626",
"2  c #2C2A2A",
"3  c #372726",
"4  c #332827",
"5  c #312E2E",
"6  c #392C28",
"7  c #343131",
"8  c #393636",
"9  c #3E3B3A",
"0  c #530805",
"q  c #570E0C",
"w  c #5C0C0B",
"e  c #690C06",
"r  c #66160F",
"t  c #6A140B",
"y  c #7F1F04",
"u  c #641710",
"i  c #72331E",
"p  c #403A37",
"a  c #423D3C",
"s  c #493A39",
"d  c #7E3923",
"f  c #48413F",
"g  c #454242",
"h  c #4A4646",
"j  c #4D4A4A",
"k  c #524E4E",
"l  c #534F50",
"z  c #565252",
"x  c #5B5757",
"c  c #5E5A5A",
"v  c #625D5D",
"b  c #676363",
"n  c #6B6666",
"m  c #6E6969",
"M  c #736D6D",
"N  c #757171",
"B  c #822305",
"V  c #803A23",
"C  c #8A3D22",
"Z  c #837E7D",
"A  c #868383",
"S  c #898686",
"D  c #8E8A8A",
"F  c #928E8E",
"G  c #928F90",
"H  c #959191",
"J  c #989596",
"K  c #9D9A9A",
"L  c #A19795",
"P  c #A39997",
"I  c #A39E9E",
"U  c #A9A09E",
"Y  c #A5A1A1",
"T  c #ABA4A2",
"R  c #A9A7A8",
"E  c #ABABAC",
"W  c #B5AFAF",
"Q  c #B5AFB0",
"!  c #B6B1B1",
"~  c #BAB4B4",
"^  c #BBBABB",
"/  c #C2BCBD",
"(  c #BDBEC1",
")  c #BFC1C3",
"_  c #C5C0C1",
"`  c #C4C7CA",
"'  c #C7CACD",
"]  c #CBCBCD",
"[  c #CECED0",
"{  c #D1CFD1",
"}  c #CFD1D3",
"|  c #D2D3D6",
" . c #D5D6D8",
".. c #D7D9DC",
"X. c #D9DBDE",
"o. c #DADDE0",
"O. c None",
/* pixels */
"O.O.O.O.O.O.O.O.O.O.O.O.O.O.O.O.O.O.O.O.O.O.O.O.O.O.O.O.O.O.O.O.O.O.O.O.O.O.O.O.O.O.O.O.O.O.O.O.O.O.O.O.O.O.",
"O.O.O.O.O.O.O.O.O.O.O.O.O.O.O.O.O.O.O.O.O.O.O.O.O.O.O.O.O.O.O.O.O.O.O.O.O.O.O.O.O.O.O.O.O.O.O.O.O.O.O.O.O.O.",
"O.O.O.O.O.O.O.O.O.O.O.O.O.O.O.O.O.O.O.O.O.O.O.O.O.O.O.O.O.O.O.O.O.O.O.O.O.O.O.O.O.O.O.O.O.O.O.O.O.O.O.O.O.O.",
"O.O.O.O.O.O.O.O.O.O.O.O.O.O.O.O.O.O.O.O.O.O.O.O.O.O.O.O.O.O.O.1 1 < 1 1 < 1 < O.O.O.O.O.O.O.O.O.O.O.O.O.O.O.",
"O.O.O.O.O.O.O.O.O.O.O.O.O.O.O.O.O.O.O.O.O.O.O.O.O.O.O.O.O.< 1 g h h h h h h g 1 < O.O.O.O.O.O.O.O.O.O.O.O.O.",
"O.O.O.O.O.O.O.O.O.O.O.O.O.O.O.O.O.O.O.O.O.O.O.O.O.O.O.< < 2 l n n b n n m n n z 2 < < O.O.O.O.O.O.O.O.O.O.O.",
"O.O.O.O.O.O.O.O.O.O.O.O.O.O.O.O.O.O.O.O.O.O.O.O.O.O.2 g h k S H G H G H H G D M v k 2 < O.O.O.O.O.O.O.O.O.O.",
"O.O.O.O.O.O.O.O.O.O.O.O.O.O.O.O.O.O.O.O.O.O.O.O.O.1 g x A F K I I I I I U I I H F M k 2 < O.O.O.O.O.O.O.O.O.",
"O.O.O.O.O.O.O.O.O.O.O.O.O.O.O.O.O.O.O.O.O.O.O.O.1 g x A I Q ~ ~ ~ ~ ~ ~ ~ ! ~ ~ W F m k 1 1 O.O.O.O.O.O.O.O.",
"O.O.O.O.O.O.O.O.O.O.O.O.O.O.O.O.O.O.O.O.O.O.O.2 h Z F K U ~ { | | | | | | | | | ] I N m l 1 < O.O.O.O.O.O.O.",
"O.O.O.O.O.O.O.O.O.O.O.O.O.O.O.O.O.O.O.O.O.O.1 g N U I Y Q /  .o.o.o.o.o.o.o.o.o...] I M m k 1 O.O.O.O.O.O.O.",
"O.O.O.O.O.O.O.O.O.O.O.O.O.O.O.O.O.O.O.O.O.1 g x H Y I Q [ | X.o.o.o.o.o.o.o.o.X.X.X.] H M m z 1 O.O.O.O.O.O.",
"O.O.O.O.O.O.O.O.O.O.O.O.O.O.O.O.O.O.O.O.< g z Z K I Y ^  .o.o.o.o.o.o.o.o.o.o.o.X.o. .Q F M v 1 O.O.O.O.O.O.",
"O.O.O.O.O.O.O.O.O.O.O.O.O.O.O.O.O.O.O.O.1 h n H I I Q [ X.o.o.o.o.o.o.o.o.o.o.X.o.o.o.] U D v 1 < O.O.O.O.O.",
"O.O.O.O.O.O.O.O.O.O.O.O.O.O.O.O.O.O.O.O.< h m H U Q [ o.o.X.o.o.o.o.o.o.o.o.o.o.o.X.o.| Y G c g 1 O.O.O.O.O.",
"O.O.O.O.O.O.O.O.O.O.O.O.O.O.O.O.O.O.O.O.1 h n H I ~  .o.o.o.o.o.o.o.o.o.o.o.o.o.o.o.o.{ Y G x j 1 O.O.O.O.O.",
"O.O.O.O.O.O.O.O.O.O.O.O.O.O.O.O.O.O.O.O.1 h n H U ~  .o.o.o.o.o.o.o.o.o.o.o.o.o.o.o.o.} Y F x h 1 O.O.O.O.O.",
"O.O.O.O.O.O.O.O.O.O.O.O.O.O.O.O.O.O.O.O.1 h m H Y ~  .o.o.o.o.o.o.o.o.o.o.o.o.o.o.o.o.} T F c h 1 O.O.O.O.O.",
"O.O.O.O.O.O.O.O.O.O.O.O.O.O.O.O.O.O.O.O.1 h m H U ~  .o.o.o.o.o.o.o.o.X.o.o.o.o.o.o.o.} T G x j 1 O.O.O.O.O.",
"O.O.O.O.O.O.O.O.O.O.O.O.O.O.O.O.O.O.O.O.1 h m H I ~  .o.o.o.o.o.o.o.o.o.o.o.o.X.o.o.X.^ Y D x h 1 O.O.O.O.O.",
"O.O.O.O.O.O.O.O.O.O.O.O.O.O.O.O.O.O.O.O.1 h m H I ~  .o.X.X.X.X.X.X.X.X.X.X.X.X.X.o.} R I F k 5 < O.O.O.O.O.",
"O.O.O.O.O.O.O.O.O.O.O.O.O.O.O.O.O.O.O.O.< h n H Y ! / _ _ _ / _ _ / _ _ _ _ _ _ _ _ ^ Y I F j 1 O.O.O.O.O.O.",
"O.O.O.O.O.O.O.O.O.O.O.O.O.O.O.O.O.O.O.O.< h v D I I U Y Y Y Y Y Y Y Y U Y Y I Y U Y I P G n h 1 O.O.O.O.O.O.",
"O.O.O.O.O.O.O.O.O.O.O.O.O.O.O.O.O.O.O.O.1 h z v b b b b b b b b b b b b b b b b b n b b b j 5 < O.O.O.O.O.O.",
"O.O.O.O.O.O.O.O.O.O.O.O.O.O.O.O.O.O.O.O.O.5 7 j z z z z z z z z z z z z z z z l z z z z j 2 < O.O.O.O.O.O.O.",
"O.O.O.O.O.O.O.O.O.O.O.O.O.O.O.O.O.O.O.O.O.O.< 2 j z z z z x z z z z z z z z z z z x z j 7 < O.O.O.O.O.O.O.O.",
"O.O.O.O.O.O.O.O.O.O.O.O.O.O.O.O.O.O.O.O.O.O.O.< 2 j z z z z z z z z z x x z z x z z j 5 < O.O.O.O.O.O.O.O.O.",
"O.O.O.O.O.O.O.O.O.O.O.O.O.O.O.O.O.O.O.O.O.O.O.O.1 j z z z z x z z x z z z z z z z j 7 < O.O.O.O.O.O.O.O.O.O.",
"O.O.O.O.O.O.O.O.O.O.O.O.O.O.O.O.O.O.O.O.O.O.O.1 g 8 7 j l l z z z z z z z z k k j 5 2 g 1 O.O.O.O.O.O.O.O.O.",
"O.O.O.O.O.O.O.O.O.O.O.O.O.O.O.O.O.O.O.O.O.O.< 1 j j 5 5 5 7 7 j z l z z z k 7 7 7 2 j k 1 < O.O.O.O.O.O.O.O.",
"O.O.O.O.O.O.O.O.O.O.O.O.O.O.O.O.O.O.O.O.O.< 1 g b c j j h g 1 1 5 2 2 2 2 2 1 g h j x v h 1 < O.O.O.O.O.O.O.",
"O.O.O.O.O.O.O.O.O.O.O.O.O.O.O.O.O.O.O.O.O.1 g c D F N v 1 < + + + O + O + + + ; < v m M n h 1 O.O.O.O.O.O.O.",
"O.O.O.O.O.O.O.O.O.O.O.O.O.O.O.O.O.O.O.O.O.1 j R ' E G 7 O m A A A A A A A A A M O 7 D K D j 1 O.O.O.O.O.O.O.",
"O.O.O.O.O.O.O.O.O.O.O.O.O.O.O.O.O.O.O.O.O.1 j ) o.} K < o D ] } | | } } | | [ G + + J [ ^ z < O.O.O.O.O.O.O.",
"O.O.O.O.O.O.O.O.O.O.O.O.O.O.O.O.O.O.O.O.< 1 j ) o.o.K < o D  .o.o.o.o.o.o.o.| G O < J X.) z 1 < O.O.O.O.O.O.",
"O.O.O.O.O.O.O.O.O.O.O.O.O.O.O.O.O.O.O.O.1 g c ^ X. .J < o D  .o.X. .X.X.o.o.| D o , J X.` x g 1 O.O.O.O.O.O.",
"O.O.O.O.O.O.O.O.O.O.O.O.O.O.O.O.O.O.O.O.< j A Y Y Y S 2 > G  . .E Y Y U R ....G , 1 F | ) b j 1 O.O.O.O.O.O.",
"O.O.O.O.O.O.O.O.O.O.O.O.O.O.O.O.O.O.O.O.1 h n N m m 9 N E ]  .' h < 1 1 h ) } Y S N 9 K K Z j 1 O.O.O.O.O.O.",
"O.O.O.O.O.O.O.O.O.O.O.O.O.O.O.O.O.O.O.O.< 2 7 7 7 7 + Z T T U I N + O + M I Y K P Z O 8 9 9 2 < O.O.O.O.O.O.",
"O.O.O.O.O.O.O.O.O.O.O.O.O.O.O.O.O.O.O.O.< 9 j j j h > i C C C V 5 + 9 + 6 d C C C i ; h j j g 1 O.O.O.O.O.O.",
"O.O.O.O.O.O.O.O.O.O.O.O.O.O.O.O.O.O.O.O., 1 j z z k g r y B B t s h k h s t B B B r h k z j 2 < O.O.O.O.O.O.",
"O.O.O.O.O.O.O.O.O.O.O.O.O.O.O.O.O.O.O.O.O.+ < 1 1 < 2 w e e e w 3 2 2 2 3 w e e e q 4 4 5 2 < O.O.O.O.O.O.O.",
"O.O.O.O.O.O.O.O.O.O.O.O.O.O.O.O.O.O.O.O.O.O.O.O.. % & = 0 0 0 = & * * * & = 0 $ 0 = % X O.O.O.O.O.O.O.O.O.O.",
"O.O.O.O.O.O.O.O.O.O.O.O.O.O.O.O.O.O.O.O.O.O.O.O.O.        # . X . .   . . . @ . @     O.O.O.O.O.O.O.O.O.O.O.",
"O.O.O.O.O.O.O.O.O.O.O.O.O.O.O.O.O.O.O.O.O.O.O.O.O.O.O.O.; p g g f > O.> a f a > O.O.O.O.O.O.O.O.O.O.O.O.O.O.",
"O.O.O.O.O.O.O.O.O.O.O.O.O.O.O.O.O.O.O.O.O.O.O.O.O.O.  % * - : : - * & & - - : * @   O.O.O.O.O.O.O.O.O.O.O.O.",
"O.O.O.O.O.O.O.O.O.O.O.O.O.O.O.O.O.O.O.O.O.O.O.O.O.O.  . % . . . .     . . . . . .   O.O.O.O.O.O.O.O.O.O.O.O.",
"O.O.O.O.O.O.O.O.O.O.O.O.O.O.O.O.O.O.O.O.O.O.O.O.O.O.+ a g g g h a > O.> f f g g a ; O.O.O.O.O.O.O.O.O.O.O.O.",
"O.O.O.O.O.O.O.O.O.O.O.O.O.O.O.O.O.O.O.O.O.O.O.O.O.O.O.< 1 1 1 1 1 , O.> 1 1 < < < < O.O.O.O.O.O.O.O.O.O.O.O.",
"O.O.O.O.O.O.O.O.O.O.O.O.O.O.O.O.O.O.O.O.O.O.O.O.O.O.O.X   O.O.O.O.O.O.O.O.O.X   O.O.O.O.O.O.O.O.O.O.O.O.O.O.",
"O.O.O.O.O.O.O.O.O.O.O.O.O.O.O.O.O.O.O.O.O.O.O.O.O.O.O.  @ & & & & & & & & & @   O.O.O.O.O.O.O.O.O.O.O.O.O.O.",
"O.O.O.O.O.O.O.O.O.O.O.O.O.O.O.O.O.O.O.O.O.O.O.O.O.O.O.                          O.O.O.O.O.O.O.O.O.O.O.O.O.O.",
"O.O.O.O.O.O.O.O.O.O.O.O.O.O.O.O.O.O.O.O.O.O.O.O.O.O.O.O.O.O.O.O.O.O.O.O.O.O.O.O.O.O.O.O.O.O.O.O.O.O.O.O.O.O.",
"O.O.O.O.O.O.O.O.O.O.O.O.O.O.O.O.O.O.O.O.O.O.O.O.O.O.O.O.O.O.    O.O.O.O.O.    O.O.O.O.O.O.O.O.O.O.O.O.O.O.O.",
"O.O.O.O.O.O.O.O.O.O.O.O.O.O.O.O.O.O.O.O.O.O.O.O.O.O.O.O.O.O.  @ & = & & & @   O.O.O.O.O.O.O.O.O.O.O.O.O.O.O.",
"O.O.O.O.O.O.O.O.O.O.O.O.O.O.O.O.O.O.O.O.O.O.O.O.O.O.O.O.O.O.                  O.O.O.O.O.O.O.O.O.O.O.O.O.O.O.",
"O.O.O.O.O.O.O.O.O.O.O.O.O.O.O.O.O.O.O.O.O.O.O.O.O.O.O.O.O.O.O.O.O.O.O.O.O.O.O.O.O.O.O.O.O.O.O.O.O.O.O.O.O.O.",
"O.O.O.O.O.O.O.O.O.O.O.O.O.O.O.O.O.O.O.O.O.O.O.O.O.O.O.O.O.O.O.O.O.O.O.O.O.O.O.O.O.O.O.O.O.O.O.O.O.O.O.O.O.O.",
"O.O.O.O.O.O.O.O.O.O.O.O.O.O.O.O.O.O.O.O.O.O.O.O.O.O.O.O.O.O.O.O.O.O.O.O.O.O.O.O.O.O.O.O.O.O.O.O.O.O.O.O.O.O.",
"O.O.O.O.O.O.O.O.O.O.O.O.O.O.O.O.O.O.O.O.O.O.O.O.O.O.O.O.O.O.O.O.O.O.O.O.O.O.O.O.O.O.O.O.O.O.O.O.O.O.O.O.O.O.",
"O.O.O.O.O.O.O.O.O.O.O.O.O.O.O.O.O.O.O.O.O.O.O.O.O.O.O.O.O.O.O.O.O.O.O.O.O.O.O.O.O.O.O.O.O.O.O.O.O.O.O.O.O.O.",
"O.O.O.O.O.O.O.O.O.O.O.O.O.O.O.O.O.O.O.O.O.O.O.O.O.O.O.O.O.O.O.O.O.O.O.O.O.O.O.O.O.O.O.O.O.O.O.O.O.O.O.O.O.O.",
"O.O.O.O.O.O.O.O.O.O.O.O.O.O.O.O.O.O.O.O.O.O.O.O.O.O.O.O.O.O.O.O.O.O.O.O.O.O.O.O.O.O.O.O.O.O.O.O.O.O.O.O.O.O.",
"O.O.O.O.O.O.O.O.O.O.O.O.O.O.O.O.O.O.O.O.O.O.O.O.O.O.O.O.O.O.O.O.O.O.O.O.O.O.O.O.O.O.O.O.O.O.O.O.O.O.O.O.O.O.",
"O.O.O.O.O.O.O.O.O.O.O.O.O.O.O.O.O.O.O.O.O.O.O.O.O.O.O.O.O.O.O.O.O.O.O.O.O.O.O.O.O.O.O.O.O.O.O.O.O.O.O.O.O.O.",
"O.O.O.O.O.O.O.O.O.O.O.O.O.O.O.O.O.O.O.O.O.O.O.O.O.O.O.O.O.O.O.O.O.O.O.O.O.O.O.O.O.O.O.O.O.O.O.O.O.O.O.O.O.O.",
"O.O.O.O.O.O.O.O.O.O.O.O.O.O.O.O.O.O.O.O.O.O.O.O.O.O.O.O.O.O.O.O.O.O.O.O.O.O.O.O.O.O.O.O.O.O.O.O.O.O.O.O.O.O.",
"O.O.O.O.O.O.O.O.O.O.O.O.O.O.O.O.O.O.O.O.O.O.O.O.O.O.O.O.O.O.O.O.O.O.O.O.O.O.O.O.O.O.O.O.O.O.O.O.O.O.O.O.O.O.",
"O.O.O.O.O.O.O.O.O.O.O.O.O.O.O.O.O.O.O.O.O.O.O.O.O.O.O.O.O.O.O.O.O.O.O.O.O.O.O.O.O.O.O.O.O.O.O.O.O.O.O.O.O.O.",
"O.O.O.O.O.O.O.O.O.O.O.O.O.O.O.O.O.O.O.O.O.O.O.O.O.O.O.O.O.O.O.O.O.O.O.O.O.O.O.O.O.O.O.O.O.O.O.O.O.O.O.O.O.O."
};
