/* XPM */
static char *result[] = {
/* columns rows colors chars-per-pixel */
"53 75 107 2 ",
"   c #080707",
".  c #0B0A0A",
"X  c #120700",
"o  c #150902",
"O  c #190B02",
"+  c #130F0D",
"@  c #190F09",
"#  c #17100C",
"$  c #1A100B",
"%  c #161414",
"&  c #191513",
"*  c #1B1817",
"=  c #1C1A1A",
"-  c #210C04",
";  c #271002",
":  c #2A1203",
">  c #241309",
",  c #291509",
"<  c #2E190D",
"1  c #311206",
"2  c #301A0C",
"3  c #231F1D",
"4  c #341F13",
"5  c #242323",
"6  c #292422",
"7  c #2C2A2A",
"8  c #312E2E",
"9  c #35312F",
"0  c #353232",
"q  c #383636",
"w  c #3D3A3A",
"e  c #4B0B05",
"r  c #500A05",
"t  c #4E1717",
"y  c #451D1C",
"u  c #4C1918",
"i  c #670906",
"p  c #6A0D06",
"a  c #761604",
"s  c #7A1A03",
"d  c #402319",
"f  c #4F281B",
"g  c #5A211C",
"h  c #592420",
"j  c #532825",
"k  c #532B28",
"l  c #5A3A2F",
"z  c #413E3E",
"x  c #673C2E",
"c  c #464343",
"v  c #494645",
"b  c #4D4846",
"n  c #4C4949",
"m  c #524D4D",
"M  c #55504F",
"N  c #565252",
"B  c #5A5555",
"V  c #5E5A5A",
"C  c #625E5E",
"Z  c #656060",
"A  c #696565",
"S  c #6E6A6A",
"D  c #716B6B",
"F  c #767171",
"G  c #7A7676",
"H  c #7E7A7A",
"J  c #832504",
"K  c #8B432A",
"L  c #827D7D",
"P  c #848080",
"I  c #8A8585",
"U  c #898788",
"Y  c #8D8989",
"T  c #918D8D",
"R  c #969394",
"E  c #999595",
"W  c #9C9B9D",
"Q  c #A29E9E",
"!  c #A6A2A2",
"~  c #AAA5A5",
"^  c #ADA8A7",
"/  c #A9A7A8",
"(  c #ADA9A9",
")  c #B4ADAD",
"_  c #B5B2B3",
"`  c #B9B2B1",
"'  c #B4B6B8",
"]  c #B8B7B8",
"[  c #BBBABB",
"{  c #C1BCBC",
"}  c #BFBFC1",
"|  c #C0BFC1",
" . c #BFC0C3",
".. c #C3C2C4",
"X. c #C9C4C5",
"o. c #C6C7C9",
"O. c #CAC7C8",
"+. c #CBC8C9",
"@. c #CDCED0",
"#. c #D0CFD1",
"$. c #D2D3D5",
"%. c #D6D6D9",
"&. c #D6D9DB",
"*. c #D9DCDF",
"=. c #DADDE0",
"-. c #DDE1E4",
";. c None",
/* pixels */
";.;.;.;.;.;.;.;.;.;.;.;.;.;.;.;.;.;.;.;.;.;.;.;.;.;.;.;.;.;.;.;.;.;.;.;.;.;.;.;.;.;.;.;.;.;.;.;.;.;.;.;.;.",
";.;.;.;.;.;.;.;.;.;.;.;.;.;.;.;.;.;.;.;.;.;.;.;.;.;.;.;.;.;.;.;.;.;.;.;.;.;.;.;.;.;.;.;.;.;.;.;.;.;.;.;.;.",
";.;.;.;.;.;.;.;.;.;.;.;.;.;.;.;.;.;.;.;.;.;.;.;.;.;.;.;.;.;.;.;.;.;.;.;.;.;.;.;.;.;.;.;.;.;.;.;.;.;.;.;.;.",
";.;.;.;.;.;.;.;.;.;.;.;.;.;.;.;.;.;.;.;.;.;.;.;.;.;.;.;.;.;.;.;.;.;.;.;.;.;.;.;.;.;.;.;.;.;.;.;.;.;.;.;.;.",
";.;.;.;.;.;.;.;.;.;.;.;.;.;.;.;.;.;.;.;.;.;.;.;.;.;.;.;.;.;.;.;.;.;.;.;.;.;.;.;.;.;.;.;.;.;.;.;.;.;.;.;.;.",
";.;.;.;.;.;.;.;.;.;.;.;.;.;.;.;.;.;.;.;.;.;.;.;.;.;.;.;.;.;.;.;.;.;.;.;.;.;.;.;.;.;.;.;.;.;.;.;.;.;.;.;.;.",
";.;.;.;.;.;.;.;.;.;.;.;.;.;.;.;.;.;.;.;.;.;.;.;.;.;.;.;.;.;.;.;.;.;.;.;.;.;.;.;.;.;.;.;.;.;.;.;.;.;.;.;.;.",
";.;.;.;.;.;.;.;.;.;.;.;.;.;.;.;.;.;.;.;.;.;.;.;.;.;.;.;.;.;.;.;.;.;.;.;.;.;.;.;.;.;.;.;.;.;.;.;.;.;.;.;.;.",
";.;.;.;.;.;.;.;.;.;.;.;.;.;.;.;.;.;.;.;.;.;.;.;.;.;.;.;.;.;.;.;.;.;.;.;.;.;.;.;.;.;.;.;.;.;.;.;.;.;.;.;.;.",
";.;.;.;.;.;.;.;.;.;.;.;.;.;.;.;.;.;.;.;.;.;.;.;.;.;.;.;.;.;.;.;.;.;.;.;.;.;.;.;.;.;.;.;.;.;.;.;.;.;.;.;.;.",
";.;.;.;.;.;.;.;.;.;.;.;.;.;.;.;.;.;.;.;.;.;.;.;.;.;.;.;.;.;.;.;.;.;.;.;.;.;.;.;.;.;.;.;.;.;.;.;.;.;.;.;.;.",
";.;.;.;.;.;.;.;.;.;.;.;.;.;.;.;.;.;.;.;.;.;.;.;.;.;.;.;.;.;.;.;.;.5 5 5 5 5 6 6 ;.;.;.;.;.;.;.;.;.;.;.;.;.",
";.;.;.;.;.;.;.;.;.;.;.;.;.;.;.;.;.;.;.;.;.;.;.;.;.;.;.;.;.;.;.5 0 z z z z z z z q 5 ;.;.;.;.;.;.;.;.;.;.;.",
";.;.;.;.;.;.;.;.;.;.;.;.;.;.;.;.;.;.;.;.;.;.;.;.;.;.;.;.;.5 5 0 B Z A C C C C Z B w 3 5 ;.;.;.;.;.;.;.;.;.",
";.;.;.;.;.;.;.;.;.;.;.;.;.;.;.;.;.;.;.;.;.;.;.;.;.;.;.;.0 z z C Y Y Y Y T Y Y Y L C m q 5 ;.;.;.;.;.;.;.;.",
";.;.;.;.;.;.;.;.;.;.;.;.;.;.;.;.;.;.;.;.;.;.;.;.;.;.;.0 b A L T Q Q Q Q Q Q Q Q E T L C w 5 ;.;.;.;.;.;.;.",
";.;.;.;.;.;.;.;.;.;.;.;.;.;.;.;.;.;.;.;.;.;.;.;.;.;.0 v A T ~ ) ) ) ) ) ) ) ) ) ) ) Q H C w 5 ;.;.;.;.;.;.",
";.;.;.;.;.;.;.;.;.;.;.;.;.;.;.;.;.;.;.;.;.;.;.;.;.0 B P T Q ~ X.#.#.#.#.#.#.#.#.$.#.[ I D C w 5 ;.;.;.;.;.",
";.;.;.;.;.;.;.;.;.;.;.;.;.;.;.;.;.;.;.;.;.;.;.;.0 B T Q Q ~ ` O.*.=.=.=.*.=.=.=.=.=.$._ P D C w 5 ;.;.;.;.",
";.;.;.;.;.;.;.;.;.;.;.;.;.;.;.;.;.;.;.;.;.;.;.0 v D Q Q ~ [ #.%.=.=.=.=.=.=.=.=.=.*.=.%.) L D C z ;.;.;.;.",
";.;.;.;.;.;.;.;.;.;.;.;.;.;.;.;.;.;.;.;.;.;.0 v A T Q Q ~ +.=.=.*.=.=.=.=.=.*.=.=.=.*.=.O.Q L S b 5 ;.;.;.",
";.;.;.;.;.;.;.;.;.;.;.;.;.;.;.;.;.;.;.;.;.;.q B H ! Q ~ { %.=.=.=.=.=.*.=.=.=.=.=.=.=.=.%.[ E L b 5 ;.;.;.",
";.;.;.;.;.;.;.;.;.;.;.;.;.;.;.;.;.;.;.;.;.;.q V L Q ~ { %.*.*.=.=.=.=.=.=.=.=.=.=.=.=.*.=...Q P m 0 5 ;.;.",
";.;.;.;.;.;.;.;.;.;.;.;.;.;.;.;.;.;.;.;.;.;.0 C L Q ~ +.=.*.=.=.=.=.=.=.=.=.*.=.=.=.=.=.=.| Q H N w 5 ;.;.",
";.;.;.;.;.;.;.;.;.;.;.;.;.;.;.;.;.;.;.;.;.;.q V L Q ~ O.=.=.=.*.*.=.=.=.=.=.=.=.=.=.=.=.=.} Q H N w 5 ;.;.",
";.;.;.;.;.;.;.;.;.;.;.;.;.;.;.;.;.;.;.;.;.;.q V L Q ~ O.=.=.=.=.=.=.=.=.=.*.=.=.=.=.=.=.=.} Q H N w 5 ;.;.",
";.;.;.;.;.;.;.;.;.;.;.;.;.;.;.;.;.;.;.;.;.;.q V L Q ^ +.=.=.=.*.=.=.=.=.=.=.=.=.=.=.=.=.=.| Q H N w 5 ;.;.",
";.;.;.;.;.;.;.;.;.;.;.;.;.;.;.;.;.;.;.;.;.;.0 V L Q ~ O.*.=.=.*.=.=.*.=.=.*.=.=.=.=.=.=.$._ Q H N w 5 ;.;.",
";.;.;.;.;.;.;.;.;.;.;.;.;.;.;.;.;.;.;.;.;.;.q V L Q ^ O.*.*.*.*.*.*.*.*.*.*.*.*.*.*.*.=...! ! H v 7 5 ;.;.",
";.;.;.;.;.;.;.;.;.;.;.;.;.;.;.;.;.;.;.;.;.;.q V L Q ^ { X.X.X.X.X.X.X.X.X.X.X.X.X.X.X.X._ Q Q H w 5 ;.;.;.",
";.;.;.;.;.;.;.;.;.;.;.;.;.;.;.;.;.;.;.;.;.;.q N G Q Q ~ ~ ~ ~ ~ ~ ~ ~ ~ ~ ~ ^ ~ ~ ~ ~ ~ ! Q U C w 5 ;.;.;.",
";.;.;.;.;.;.;.;.;.;.;.;.;.;.;.;.;.;.;.;.;.;.q N C S S S D D S S S S S S S D D D S S S S S S Z c 7 5 ;.;.;.",
";.;.;.;.;.;.;.;.;.;.;.;.;.;.;.;.;.;.;.;.;.;.7 0 z N N N N N N N m M N N N N N M N N N N N N v 7 5 ;.;.;.;.",
";.;.;.;.;.;.;.;.;.;.;.;.;.;.;.;.;.;.;.;.;.;.;.5 7 w N N N N N N N N N N N N N N N B N N N c 7 5 ;.;.;.;.;.",
";.;.;.;.;.;.;.;.;.;.;.;.;.;.;.;.;.;.;.;.;.;.;.;.5 7 z N N N N N N B N B N N N N N N N N c 7 5 ;.;.;.;.;.;.",
";.;.;.;.;.;.;.;.;.;.;.;.;.;.;.;.;.;.;.;.;.;.;.;.;.5 w N N N N N N N N N B N B N N N N v 7 5 ;.;.;.;.;.;.;.",
";.;.;.;.;.;.;.;.;.;.;.;.;.;.;.;.;.;.;.;.;.;.;.;.;.q z 0 w N N N N N N N N N N N N N c 7 0 w ;.;.;.;.;.;.;.",
";.;.;.;.;.;.;.;.;.;.;.;.;.;.;.;.;.;.;.;.;.;.;.;.5 q m q 7 0 0 0 z N N N N N N c 0 0 7 0 M z 5 ;.;.;.;.;.;.",
";.;.;.;.;.;.;.;.;.;.;.;.;.;.;.;.;.;.;.;.;.;.;.5 8 N Z m v v v q 7 8 8 0 0 0 0 7 0 c v n V B q 5 ;.;.;.;.;.",
";.;.;.;.;.;.;.;.;.;.;.;.;.;.;.;.;.;.;.;.;.;.;.0 n D R H A v 5 = % % % % % % % % = 3 z A S S B q 5 ;.;.;.;.",
";.;.;.;.;.;.;.;.;.;.;.;.;.;.;.;.;.;.;.;.;.;.;.q G  .} W A * q G H G G H G G G G G c % B R R F w 5 ;.;.;.;.",
";.;.;.;.;.;.;.;.;.;.;.;.;.;.;.;.;.;.;.;.;.;.;.q U -.&.' Z   n ' @.@.@.@.@.@.@.@.} V   n ' @.R w 5 ;.;.;.;.",
";.;.;.;.;.;.;.;.;.;.;.;.;.;.;.;.;.;.;.;.;.;.5 0 U =.-...V   v [ =.=.=.=.=.=.=.-. .V   n [ -.W w 5 ;.;.;.;.",
";.;.;.;.;.;.;.;.;.;.;.;.;.;.;.;.;.;.;.;.;.;.0 b U *.*. .V . v ' =.=.=.=.=.=.=.=. .V   n ' -.W n q 5 ;.;.;.",
";.;.;.;.;.;.;.;.;.;.;.;.;.;.;.;.;.;.;.;.;.;.q A E ( / Q V % n [ =.o./ / / /  .-. .Z . n ' -.W N z 5 ;.;.;.",
";.;.;.;.;.;.;.;.;.;.;.;.;.;.;.;.;.;.;.;.;.;.q Z G F F N n Y ' $.=.R 0 8 0 8 H =. .T H N C ( W F w 5 ;.;.;.",
";.;.;.;.;.;.;.;.;.;.;.;.;.;.;.;.;.;.;.;.;.;.7 0 q q q 5 v ! ^ ^ / R v . . q T ( ! W ! N = c c w 7 5 ;.;.;.",
";.;.;.;.;.;.;.;.;.;.;.;.;.;.;.;.;.;.;.;.;.;.7 v v v n 8 d K K K K x 5 7 0 = l K K K K f 5 n v v q 5 ;.;.;.",
";.;.;.;.;.;.;.;.;.;.;.;.;.;.;.;.;.;.;.;.;.;.5 w m M N b j a J J s g w n b z j a J J s h b m N c 7 ;.;.;.;.",
";.;.;.;.;.;.;.;.;.;.;.;.;.;.;.;.;.;.;.;.;.;.;.5 6 3 7 7 y i p p i t 0 9 9 9 y p p p i u 8 6 5 7 5 ;.;.;.;.",
";.;.;.;.;.;.;.;.;.;.;.;.;.;.;.;.;.;.;.;.;.;.;.;.;.X $ , : e e e r 1 , , , , 1 e r e r 1 > o ;.;.;.;.;.;.;.",
";.;.;.;.;.;.;.;.;.;.;.;.;.;.;.;.;.;.;.;.;.;.;.;.;.;.;.O O - - - - @ O o O O O - - O O O o ;.;.;.;.;.;.;.;.",
";.;.;.;.;.;.;.;.;.;.;.;.;.;.;.;.;.;.;.;.;.;.;.;.;.;.;.;.;.& 7 c c v 9 & & 7 v c 0 & ;.;.;.;.;.;.;.;.;.;.;.",
";.;.;.;.;.;.;.;.;.;.;.;.;.;.;.;.;.;.;.;.;.;.;.;.;.;.;.;.;.;.0 N M M w 3 ;.0 M M b ;.;.;.;.;.;.;.;.;.;.;.;.",
";.;.;.;.;.;.;.;.;.;.;.;.;.;.;.;.;.;.;.;.;.;.;.;.;.;.;.O : : < 4 4 4 2 : : < 4 4 2 , : - ;.;.;.;.;.;.;.;.;.",
";.;.;.;.;.;.;.;.;.;.;.;.;.;.;.;.;.;.;.;.;.;.;.;.;.;.;.o O O O o o O O O O O o O O O O O ;.;.;.;.;.;.;.;.;.",
";.;.;.;.;.;.;.;.;.;.;.;.;.;.;.;.;.;.;.;.;.;.;.;.;.;.;.;.;.* = * * * * & & = * * * * = ;.;.;.;.;.;.;.;.;.;.",
";.;.;.;.;.;.;.;.;.;.;.;.;.;.;.;.;.;.;.;.;.;.;.;.;.;.;.;.;.;.# o $ ;.;.;.;.;.;.$ o @ ;.;.;.;.;.;.;.;.;.;.;.",
";.;.;.;.;.;.;.;.;.;.;.;.;.;.;.;.;.;.;.;.;.;.;.;.;.;.;.;.;.;.;.O : : : : : : : : O X ;.;.;.;.;.;.;.;.;.;.;.",
";.;.;.;.;.;.;.;.;.;.;.;.;.;.;.;.;.;.;.;.;.;.;.;.;.;.;.;.;.;.;.o o O O o O o O O o X ;.;.;.;.;.;.;.;.;.;.;.",
";.;.;.;.;.;.;.;.;.;.;.;.;.;.;.;.;.;.;.;.;.;.;.;.;.;.;.;.;.;.;.;.;.;.;.;.;.;.;.;.;.;.;.;.;.;.;.;.;.;.;.;.;.",
";.;.;.;.;.;.;.;.;.;.;.;.;.;.;.;.;.;.;.;.;.;.;.;.;.;.;.;.;.;.;.;.;.o ;.;.;.;.o ;.;.;.;.;.;.;.;.;.;.;.;.;.;.",
";.;.;.;.;.;.;.;.;.;.;.;.;.;.;.;.;.;.;.;.;.;.;.;.;.;.;.;.;.;.;.;.;.O - : : : O X ;.;.;.;.;.;.;.;.;.;.;.;.;.",
";.;.;.;.;.;.;.;.;.;.;.;.;.;.;.;.;.;.;.;.;.;.;.;.;.;.;.;.;.;.;.;.;.O O o o O o X ;.;.;.;.;.;.;.;.;.;.;.;.;.",
";.;.;.;.;.;.;.;.;.;.;.;.;.;.;.;.;.;.;.;.;.;.;.;.;.;.;.;.;.;.;.;.;.;.;.;.;.;.;.;.;.;.;.;.;.;.;.;.;.;.;.;.;.",
";.;.;.;.;.;.;.;.;.;.;.;.;.;.;.;.;.;.;.;.;.;.;.;.;.;.;.;.;.;.;.;.;.;.;.;.;.;.;.;.;.;.;.;.;.;.;.;.;.;.;.;.;.",
";.;.;.;.;.;.;.;.;.;.;.;.;.;.;.;.;.;.;.;.;.;.;.;.;.;.;.;.;.;.;.;.;.;.;.;.;.;.;.;.;.;.;.;.;.;.;.;.;.;.;.;.;.",
";.;.;.;.;.;.;.;.;.;.;.;.;.;.;.;.;.;.;.;.;.;.;.;.;.;.;.;.;.;.;.;.;.;.;.;.;.;.;.;.;.;.;.;.;.;.;.;.;.;.;.;.;.",
";.;.;.;.;.;.;.;.;.;.;.;.;.;.;.;.;.;.;.;.;.;.;.;.;.;.;.;.;.;.;.;.;.;.;.;.;.;.;.;.;.;.;.;.;.;.;.;.;.;.;.;.;.",
";.;.;.;.;.;.;.;.;.;.;.;.;.;.;.;.;.;.;.;.;.;.;.;.;.;.;.;.;.;.;.;.;.;.;.;.;.;.;.;.;.;.;.;.;.;.;.;.;.;.;.;.;.",
";.;.;.;.;.;.;.;.;.;.;.;.;.;.;.;.;.;.;.;.;.;.;.;.;.;.;.;.;.;.;.;.;.;.;.;.;.;.;.;.;.;.;.;.;.;.;.;.;.;.;.;.;.",
";.;.;.;.;.;.;.;.;.;.;.;.;.;.;.;.;.;.;.;.;.;.;.;.;.;.;.;.;.;.;.;.;.;.;.;.;.;.;.;.;.;.;.;.;.;.;.;.;.;.;.;.;.",
";.;.;.;.;.;.;.;.;.;.;.;.;.;.;.;.;.;.;.;.;.;.;.;.;.;.;.;.;.;.;.;.;.;.;.;.;.;.;.;.;.;.;.;.;.;.;.;.;.;.;.;.;.",
";.;.;.;.;.;.;.;.;.;.;.;.;.;.;.;.;.;.;.;.;.;.;.;.;.;.;.;.;.;.;.;.;.;.;.;.;.;.;.;.;.;.;.;.;.;.;.;.;.;.;.;.;.",
";.;.;.;.;.;.;.;.;.;.;.;.;.;.;.;.;.;.;.;.;.;.;.;.;.;.;.;.;.;.;.;.;.;.;.;.;.;.;.;.;.;.;.;.;.;.;.;.;.;.;.;.;."
};
