/* XPM */
static char *result[] = {
/* columns rows colors chars-per-pixel */
"30 56 119 2 ",
"   c #060505",
".  c #0C0B0B",
"X  c #120700",
"o  c #140902",
"O  c #190A01",
"+  c #160E0A",
"@  c #180F0A",
"#  c #17100C",
"$  c #1B110B",
"%  c #121111",
"&  c #1F1713",
"*  c #1E1816",
"=  c #1E1C1C",
"-  c #260702",
";  c #220E02",
":  c #370703",
">  c #330D03",
",  c #310F0D",
"<  c #3D0F0D",
"1  c #241003",
"2  c #27170E",
"3  c #28150B",
"4  c #31140B",
"5  c #241913",
"6  c #211E1E",
"7  c #3E1616",
"8  c #2B221E",
"9  c #312219",
"0  c #252424",
"q  c #282626",
"w  c #2D2B2B",
"e  c #332A25",
"r  c #312E2E",
"t  c #3A2E28",
"y  c #3C322D",
"u  c #353333",
"i  c #393636",
"p  c #3D3A3A",
"a  c #410B04",
"s  c #500904",
"d  c #5B0B0A",
"f  c #431509",
"g  c #45180B",
"h  c #5B1B0B",
"j  c #461919",
"k  c #650706",
"l  c #680D06",
"z  c #600909",
"x  c #721306",
"c  c #7C1E06",
"v  c #7B220A",
"b  c #432121",
"n  c #452C2D",
"m  c #4B2A2B",
"M  c #532727",
"N  c #473B34",
"B  c #483C36",
"V  c #423D3C",
"C  c #493E39",
"Z  c #4A403B",
"A  c #454242",
"S  c #4A4646",
"D  c #4D4949",
"F  c #524E4E",
"G  c #565252",
"H  c #595555",
"J  c #5E5A5A",
"K  c #625D5D",
"L  c #605F60",
"P  c #656161",
"I  c #6A6666",
"U  c #6A6768",
"Y  c #6E6A6A",
"T  c #726D6D",
"R  c #777171",
"E  c #7A7575",
"W  c #7D7A7A",
"Q  c #82250A",
"!  c #862A0A",
"~  c #867874",
"^  c #827C7C",
"/  c #937B73",
"(  c #9B7E75",
")  c #858282",
"_  c #8B8585",
"`  c #888788",
"'  c #8F8B8B",
"]  c #928E8E",
"[  c #918F90",
"{  c #969292",
"}  c #9B9696",
"|  c #9E9A9A",
" . c #A29E9E",
".. c #A6A3A4",
"X. c #A9A4A4",
"o. c #AEABAC",
"O. c #B6B4B5",
"+. c #BBB4B4",
"@. c #B7B7B9",
"#. c #B8B7B8",
"$. c #BCBABB",
"%. c #C0BABB",
"&. c #BFBFC0",
"*. c #C5BFC0",
"=. c #C2C0C1",
"-. c #C9C4C5",
";. c #C5C6C8",
":. c #C9C7C8",
">. c #C5C8CA",
",. c #CBCBCD",
"<. c #CECFD1",
"1. c #CED0D3",
"2. c #D3D4D7",
"3. c #D5D6D8",
"4. c #D7D9DC",
"5. c #D9DBDE",
"6. c #DADDE0",
"7. c #DCE0E3",
"8. c None",
/* pixels */
"8.8.8.8.8.8.8.8.8.8.8.8.8.8.8.8.8.8.8.8.8.8.8.8.8.8.8.8.8.8.",
"8.8.8.8.8.8.8.8.8.8.8.8.q q q q q q q 8.8.8.8.8.8.8.8.8.8.8.",
"8.8.8.8.8.8.8.8.8.8.0 u S S S S S S S p q 8.8.8.8.8.8.8.8.8.",
"8.8.8.8.8.8.8.8.q 0 i K I I I I I I I K V q q 8.8.8.8.8.8.8.",
"8.8.8.8.8.8.8.u S S K { { { { { { { { ) I K V 0 8.8.8.8.8.8.",
"8.8.8.8.8.8.r S I ] {  . . . . . .X. .} { ^ L V q 8.8.8.8.8.",
"8.8.8.8.8.r D I { X.+.+.+.+.+.+.+.+.+.+.%.X.^ K p 0 8.8.8.8.",
"8.8.8.8.r J ' {  .X.*.3.3.3.3.3.3.3.3.3.2.+._ T I p q 8.8.8.",
"8.8.8.r G ]  . .X.+.-.6.6.6.5.6.6.6.6.6.6.3.%._ I I p 8.8.8.",
"8.8.w D I }  .X.%.2.4.5.6.6.6.6.6.6.6.6.5.5.5.O.^ Y P i 8.8.",
"8.w D K ]  . .X.-.5.6.6.6.6.6.6.6.6.6.6.6.5.5.:. .^ T V 8.8.",
"8.w G T  ...X.%.3.5.6.6.6.6.6.6.6.6.6.6.6.6.5.5.+.} E V 0 8.",
"8.w F R  ...%.4.6.6.6.6.6.6.6.6.6.6.6.6.6.6.5.6.@. .T F u 8.",
"8.w G R } X.%.5.6.6.6.6.6.6.6.6.6.6.6.5.6.6.6.6.@.| T G u 8.",
"8.w G R  .X.%.5.6.6.6.6.6.6.6.6.6.6.6.6.6.6.6.6.@. .T G u 8.",
"8.w G R } X.-.5.6.6.5.6.6.6.6.5.6.6.6.6.6.6.5.5.O. .T G u 8.",
"8.w G R  .X.%.5.6.5.6.6.6.6.6.6.6.6.6.6.5.6.6.5.+.| T G u 8.",
"8.e F R } X.-.5.6.6.6.5.6.6.6.6.6.6.5.6.5.5.6.,.o. .T F u 8.",
"8.w G R  .X.%.4.4.4.3.4.4.4.5.3.4.4.4.4.4.4.4.+. . .T i q 8.",
"8.w G T } X.+.%.%.%.%.$.%.$.$.$.%.%.%.$.%.%.%.o. .} Y u 8.8.",
"8.w F P ] } } } } } } } } } } } } } } } } } } } { R F u 8.8.",
"8.w D F H K J J K J J K J J L J J K J K J K J K J G u q 8.8.",
"8.8.w r D G G G G G F G G G G G F G G G F G G G F i q 8.8.8.",
"8.8.8.0 r F G G G G G G G G G G G G G G G G G F u q 8.8.8.8.",
"8.8.8.8.0 r G G G H G H G G G H H G G G G G F i q 8.8.8.8.8.",
"8.8.8.8.8.u S F G G G G H G G G G G G G G F i w w 8.8.8.8.8.",
"8.8.8.8.w S r r S D D F G G G H G G F D F i w A i 8.8.8.8.8.",
"8.8.8.q i G D r r u r u D D D D D F p w r r V H V q 8.8.8.8.",
"8.8.0 u G T K H G A u = 6 0 6 6 6 0 = r A D H L K p q 8.8.8.",
"8.8.q G W ..{ T A = r w w w w w w w w w 6 u Y E R K u 8.8.8.",
"8.8.w I <.2.o.W % u } ................ .F . J ..o.R u 8.8.8.",
"8.8.q I 2.6.,.E . u o.4.5.6.4.4.5.4.6.*.G . H &.5.` u 8.8.8.",
"8.q u U 2.6.<.E . u o.7.5.7.7.5.6.6.6.&.G . H &.7.` p q 8.8.",
"8.w F W ;.,.=.E . r o.7.3.1.<.1.1.2.7.&.G   H &.7.` F u 8.8.",
"8.w J ' [ ] _ P i L $.7.@.W W W W ..7.&.U r G ..1.[ J u 8.8.",
"8.q S H J J S u ..>.,.1.| w % % 6 W 1.@.| | S S ) W J r 8.8.",
"8.q u u u u w w / ( ( ( ~ F = = i ~ ( ( ( ( N = i u u q 8.8.",
"8.q V V Z Z n 3 v ! ! ! h $ 8 e + g Q ! ! Q f e Z V Z r 8.8.",
"8.= = $ 1 1 1 > l c c x s 1 $ 1 ; a x c c x a 1 $ $ 8 0 8.8.",
"8.8.6 * o o o - k z d d < $ + O + , d d d k : o o * 0 8.8.8.",
"8.8.8.8.8.8.8.8.8.j n M u w 0 8.w u m b 7 8.8.8.8.8.8.8.8.8.",
"8.8.8.8.8.o 8.8.3 8 B B Z y 5 2 e B B e 2 8.8.O 8.8.8.8.8.8.",
"8.8.8.8.8.O ; ; 1 1 1 ; ; 1 ; ; ; ; ; ; ; ; ; O 8.8.8.8.8.8.",
"8.8.8.8.8.8.o + $ 8 8 8 8 5 + O 5 8 8 5 + @ + 8.8.8.8.8.8.8.",
"8.8.8.8.8.8.8.6 p G G H H V 6 8.u G H A u 0 $ 8.8.8.8.8.8.8.",
"8.8.8.8.8.8.o 2 N N N N N t 5 2 e B N N N 9 o 8.8.8.8.8.8.8.",
"8.8.8.8.8.8.o ; O 1 ; ; ; ; ; ; ; ; ; ; ; ; O 8.8.8.8.8.8.8.",
"8.8.8.8.8.8.8.X X o X X X X X o X X X X X X 8.8.8.8.8.8.8.8.",
"8.8.8.8.8.8.8.8.8.8.8.8.8.8.8.8.8.8.8.8.8.8.8.8.8.8.8.8.8.8.",
"8.8.8.8.8.8.8.8.8.o ; 8.8.8.8.8.8.8.8.1 O 8.8.8.8.8.8.8.8.8.",
"8.8.8.8.8.8.8.8.8.O ; ; ; ; ; O 1 ; ; O O 8.8.8.8.8.8.8.8.8.",
"8.8.8.8.8.8.8.8.8.8.X X X X X X o X X X 8.8.8.8.8.8.8.8.8.8.",
"8.8.8.8.8.8.8.8.8.8.8.8.8.8.8.8.8.8.8.8.8.8.8.8.8.8.8.8.8.8.",
"8.8.8.8.8.8.8.8.8.8.8.8.8.8.o X o 8.8.8.8.8.8.8.8.8.8.8.8.8.",
"8.8.8.8.8.8.8.8.8.8.8.8.8.8.8.o 8.8.8.8.8.8.8.8.8.8.8.8.8.8.",
"8.8.8.8.8.8.8.8.8.8.8.8.8.8.8.8.8.8.8.8.8.8.8.8.8.8.8.8.8.8."
};
